<svg width="89" height="178" viewBox="0 0 89 178" fill="none" xmlns="http://www.w3.org/2000/svg">
<path d="M88.0806 13.5905C88.4479 6.59581 83.6285 0.718282 77.3162 0.462704C71.0039 0.207127 65.589 5.67029 65.2217 12.665C64.8544 19.6597 69.6738 25.5373 75.9861 25.7928C82.2984 26.0484 87.7133 20.5853 88.0806 13.5905Z" fill="#83AEB8"/>
<path d="M59.4972 17.1897C59.773 12.346 56.2703 8.25587 51.6738 8.05406C47.0773 7.85225 43.1275 11.6152 42.8517 16.4589C42.5759 21.3026 46.0785 25.3927 50.675 25.5945C55.2716 25.7963 59.2214 22.0334 59.4972 17.1897Z" fill="#83AEB8"/>
<path d="M38.3158 24.5051C38.5307 20.4141 35.5578 16.9703 31.6758 16.8131C27.7938 16.656 24.4727 19.8449 24.2579 23.9359C24.043 28.0269 27.0159 31.4707 30.8979 31.6279C34.7799 31.785 38.101 28.5961 38.3158 24.5051Z" fill="#83AEB8"/>
<path d="M21.2498 36.2791C21.4404 32.6489 18.8743 29.5959 15.5183 29.46C12.1622 29.3241 9.287 32.1568 9.09638 35.787C8.90575 39.4172 11.4719 42.4703 14.8279 42.6061C18.184 42.742 21.0592 39.9093 21.2498 36.2791Z" fill="#83AEB8"/>
<path d="M10.7623 50.6243C10.9258 47.5107 8.71543 44.8918 5.82524 44.7748C2.93504 44.6578 0.459528 47.0869 0.296033 50.2005C0.132539 53.3141 2.34298 55.933 5.23317 56.05C8.12336 56.167 10.5989 53.7378 10.7623 50.6243Z" fill="#83AEB8"/>
<path d="M59.6169 31.3068C50.2582 30.7888 38.353 36.2165 29.7756 42.2404C29.9802 42.9743 31.2665 46.141 31.7018 47.0966C35.6194 55.6968 43.8899 62.5769 53.9016 65.6347L54.0191 65.6691C63.6564 68.6333 73.8727 70.0648 84.1956 70.2559C87.2775 60.6466 89.0317 47.5018 82.2368 39.2495C75.4419 30.9971 66.3857 31.6832 59.6169 31.3068Z" fill="#A2CBD4"/>
<path d="M54.0191 65.6691L53.9016 65.6347C43.8899 62.5769 35.6194 55.6968 31.7018 47.0966C31.2665 46.141 29.9802 42.9743 29.7756 42.2404C38.353 36.2165 50.2582 30.7888 59.6169 31.3068C66.3857 31.6832 75.4419 30.9971 82.2368 39.2495C89.0317 47.5018 87.2775 60.6466 84.1956 70.2559C73.8727 70.0648 63.6564 68.6333 54.0191 65.6691ZM54.0191 65.6691L54.3369 65.4436" stroke="white" stroke-width="2" stroke-linecap="square" stroke-linejoin="round"/>
<path d="M61.5192 122.778C57.6714 129.283 54.8872 136.231 53.2487 143.418C51.0722 151.827 40.8429 154.694 32.7901 157.752C32.555 157.855 32.3178 157.954 32.0762 158.056C33.9 167.73 43.7681 174.765 56.1412 176.124C68.473 177.477 77.6576 168.17 80.043 157.19C83.016 143.523 71.8378 135.334 66.5011 119.315C64.3856 119.814 62.5922 120.894 61.5192 122.778Z" fill="#A2CBD4" stroke="white" stroke-width="2" stroke-linecap="square" stroke-linejoin="round"/>
<path d="M43.8898 100.609C42.9909 98.3393 41.6733 96.2151 39.9896 94.321C34.0022 87.6053 24.0057 84.6659 13.9592 84.6239C17.1564 94.1357 22.8435 103.258 25.1527 113.14C27.4924 123.168 28.635 123.122 30.7005 135.927C31.5254 141.005 31.632 147.393 31.7757 155.132C31.7934 156.112 31.8938 157.089 32.076 158.056C32.3176 157.954 32.5548 157.865 32.7899 157.752C40.8428 154.694 51.0721 151.827 53.2485 143.418C54.887 136.231 57.6713 129.283 61.519 122.778C53.0309 117.618 47.1545 109.4 43.8898 100.609Z" fill="#A2CBD4" stroke="white" stroke-width="2" stroke-linecap="square" stroke-linejoin="round"/>
<path d="M84.1956 70.2578C73.8727 70.0666 63.6565 68.6333 54.0191 65.671C44.4079 72.4613 40.3314 83.7065 39.9897 94.3229C41.6732 96.2164 42.9908 98.3399 43.8899 100.609C47.1546 109.4 53.031 117.618 61.5192 122.778C62.5922 120.894 64.3856 119.814 66.5011 119.315C65.6813 116.86 65.0502 114.359 64.6119 111.829C63.1037 103.154 79.8885 81.5966 82.8375 74.0762C83.3033 72.8971 83.7625 71.6089 84.1956 70.2578Z" fill="#A2CBD4" stroke="white" stroke-width="2" stroke-linecap="square" stroke-linejoin="round"/>
<path d="M39.9897 94.3211C40.3314 83.7047 44.4079 72.4595 54.0191 65.6692L53.9016 65.6348C43.8899 62.577 35.6194 55.6968 31.7018 47.0967C31.2665 46.1411 29.9802 42.9744 29.7756 42.2405C27.094 44.094 24.6164 46.1646 22.3757 48.4249C14.7995 56.2606 10.4748 67.2765 12.1246 77.4189C12.5373 79.8565 13.1512 82.2645 13.9615 84.6239C24.0058 84.666 34.0023 87.6129 39.9897 94.3211Z" fill="#A2CBD4" stroke="white" stroke-width="2" stroke-linecap="square" stroke-linejoin="round"/>
</svg>
