<svg width="38" height="38" viewBox="0 0 38 38" fill="none" xmlns="http://www.w3.org/2000/svg">
<path fill-rule="evenodd" clip-rule="evenodd" d="M19 37.4001C23.88 37.4001 28.5601 35.4615 32.0107 32.0109C35.4614 28.5602 37.4 23.8801 37.4 19.0001C37.4 14.1201 35.4614 9.44 32.0107 5.98933C28.5601 2.53866 23.88 0.600098 19 0.600098C14.12 0.600098 9.43988 2.53866 5.98921 5.98933C2.53854 9.44 0.599976 14.1201 0.599976 19.0001C0.599976 23.8801 2.53854 28.5602 5.98921 32.0109C9.43988 35.4615 14.12 37.4001 19 37.4001V37.4001ZM27.5261 16.0262C27.945 15.5924 28.1769 15.0114 28.1716 14.4084C28.1664 13.8053 27.9245 13.2285 27.4981 12.802C27.0716 12.3756 26.4947 12.1337 25.8917 12.1284C25.2886 12.1232 24.7077 12.355 24.2739 12.774L16.7 20.3479L13.7261 17.374C13.2923 16.955 12.7113 16.7232 12.1083 16.7284C11.5052 16.7337 10.9283 16.9756 10.5019 17.402C10.0755 17.8285 9.83356 18.4053 9.82832 19.0084C9.82308 19.6114 10.0549 20.1924 10.4739 20.6262L15.0739 25.2262C15.5052 25.6574 16.0901 25.8996 16.7 25.8996C17.3099 25.8996 17.8948 25.6574 18.3261 25.2262L27.5261 16.0262V16.0262Z" fill="#A8C956"/>
</svg>
