<svg width="564" height="59" viewBox="0 0 564 59" fill="none" xmlns="http://www.w3.org/2000/svg">
<mask id="mask0_427_2548" style="mask-type:alpha" maskUnits="userSpaceOnUse" x="0" y="0" width="564" height="59">
<rect width="564" height="59" fill="#C4C4C4"/>
</mask>
<g mask="url(#mask0_427_2548)"/>
<ellipse cx="282" cy="319.842" rx="497.452" ry="317.513" fill="#4483A7"/>
<path d="M325.005 84.3308C316.577 88.9752 304.41 75.5764 299.38 68.2964H285.429C278.88 68.2964 273.186 56.1323 274.609 49.7738C276.033 43.4154 291.977 35.3982 299.38 41.2037C306.783 47.0093 325.005 41.2037 334.685 35.3982C344.366 29.5926 365.151 35.3982 365.151 41.2037C365.151 47.0093 390.776 44.2447 405.581 35.3982C420.387 26.5516 446.344 56.2213 450.615 62.5798C454.885 68.9383 431.775 74.6548 419.532 68.2964C407.289 61.9379 372.553 84.3308 365.151 84.3308C357.748 84.3308 335.54 78.5252 325.005 84.3308Z" fill="#6B994D"/>
<path d="M478.132 43.2796C469.389 43.1244 465.121 30.2763 464.08 24.2599C479.302 26.977 536.483 46.3849 541.557 48.9079C544.038 50.1415 541.752 51.0428 541.557 52.9836C541.362 54.9244 533.946 55.3125 531.604 52.9836C529.262 50.6546 519.309 54.7303 515.016 55.3125C510.723 55.8948 499.599 51.4309 498.037 49.2961C496.476 47.1612 489.06 43.4737 478.132 43.2796Z" fill="#6B994D"/>
<path d="M153.733 27.8426C145.811 31.5249 136.3 21.8498 132.706 16.9007C155.929 12.0329 188.911 7.56908 200.62 6.59869C201.988 6.48528 214.31 7.00606 214.993 8.83463C215.675 10.6632 209.185 14.2535 206.053 13.1852C202.92 12.117 195.781 20.1284 192.182 22.5281C188.583 24.9278 176.618 25.7807 174.272 24.5456C171.926 23.3104 163.635 23.2399 153.733 27.8426Z" fill="#6B994D"/>
<path d="M313.871 12.1463C308.416 13.4335 308.004 6.28899 306.395 2.7171C321.422 3.10526 338.704 4.13799 346.206 5.04605C347.086 5.15257 354.626 6.89949 354.815 8.13573C355.005 9.37197 350.461 10.7866 348.634 9.71082C346.807 8.635 341.278 12.7413 338.704 13.7824C336.131 14.8235 328.508 13.8115 327.197 12.7327C325.886 11.6539 320.69 10.5373 313.871 12.1463Z" fill="#6B994D"/>
<path d="M49.4835 92.5898C41.2443 97.2342 29.3494 83.8354 24.4319 76.5554H10.7926C4.39054 76.5554 -0.589487 62.2708 4.68364 58.4177C10.7926 53.9539 16.0027 50.8487 24.4319 49.4627C33.6055 47.9544 49.4835 49.4627 58.9475 43.6571C68.4115 37.8516 88.7312 43.6571 88.7312 49.4627C88.7312 55.2683 113.783 52.5037 128.257 43.6571C142.731 34.8106 165.835 51.6744 170.01 58.0328C174.185 64.3913 153.866 82.9138 141.896 76.5554C129.927 70.1969 95.9683 92.5898 88.7312 92.5898C81.494 92.5898 59.7826 86.7842 49.4835 92.5898Z" fill="#6B994D"/>
</svg>
