<svg width="1280" height="134" viewBox="0 0 1280 134" fill="none" xmlns="http://www.w3.org/2000/svg">
<mask id="mask0_500_1068" style="mask-type:alpha" maskUnits="userSpaceOnUse" x="0" y="0" width="1280" height="134">
<rect width="1280" height="134" fill="#C4C4C4"/>
</mask>
<g mask="url(#mask0_500_1068)">
<ellipse cx="640" cy="726.421" rx="1128.97" ry="721.132" fill="#4483A7"/>
<path d="M737.6 191.531C718.473 202.079 690.86 171.648 679.444 155.114H647.781C632.919 155.114 619.996 127.487 623.226 113.046C626.457 98.6044 662.643 80.3958 679.444 93.5814C696.244 106.767 737.6 93.5814 759.57 80.3958C781.54 67.2103 828.711 80.3958 828.711 93.5814C828.711 106.767 886.866 100.488 920.468 80.3958C954.069 60.3036 1012.98 127.689 1022.67 142.13C1032.36 156.572 979.916 169.555 952.13 155.114C924.345 140.673 845.511 191.531 828.711 191.531C811.91 191.531 761.508 178.345 737.6 191.531Z" fill="#6B994D"/>
<path d="M1085.12 98.2961C1065.28 97.9434 1055.59 68.7632 1053.23 55.0987C1087.78 61.2697 1217.55 105.349 1229.07 111.079C1234.7 113.881 1229.51 115.928 1229.07 120.336C1228.62 124.743 1211.79 125.625 1206.48 120.336C1201.16 115.046 1178.57 124.303 1168.83 125.625C1159.09 126.947 1133.84 116.809 1130.3 111.961C1126.75 107.112 1109.92 98.7368 1085.12 98.2961Z" fill="#6B994D"/>
<path d="M348.898 63.2359C330.92 71.5989 309.333 49.6251 301.177 38.3846C353.882 27.329 428.734 17.1908 455.308 14.9869C458.414 14.7293 486.378 15.9121 487.926 20.0651C489.475 24.2181 474.747 32.3723 467.637 29.9461C460.527 27.5199 444.326 45.7154 436.158 51.1655C427.99 56.6157 400.836 58.5528 395.512 55.7476C390.188 52.9424 371.371 52.7821 348.898 63.2359Z" fill="#6B994D"/>
<path d="M712.332 27.5865C699.952 30.5099 699.015 14.2834 695.363 6.17102C729.467 7.0526 768.691 9.39812 785.716 11.4605C787.714 11.7024 804.825 15.67 805.255 18.4777C805.685 21.2855 795.373 24.4984 791.226 22.0551C787.079 19.6117 774.531 28.9379 768.691 31.3024C762.85 33.6668 745.55 31.3685 742.574 28.9183C739.598 26.4682 727.806 23.9322 712.332 27.5865Z" fill="#6B994D"/>
<path d="M112.303 210.289C93.6042 220.837 66.6087 190.406 55.4483 173.872H24.494C9.96438 173.872 -1.3378 141.429 10.6296 132.678C24.494 122.539 36.3182 115.487 55.4483 112.339C76.2679 108.913 112.303 112.339 133.782 99.1536C155.26 85.9681 201.376 99.1536 201.376 112.339C201.376 125.525 258.231 119.246 291.08 99.1536C323.93 79.0614 376.362 117.362 385.838 131.803C395.314 146.245 349.198 188.313 322.034 173.872C294.87 159.43 217.8 210.289 201.376 210.289C184.951 210.289 135.677 197.103 112.303 210.289Z" fill="#6B994D"/>
</svg>
