<svg width="61" height="61" viewBox="0 0 61 61" fill="none" xmlns="http://www.w3.org/2000/svg">
<path d="M38.7387 8.7482C36.8465 8.7482 35.3126 6.78985 35.3126 4.3741C35.3126 1.95835 36.8465 0 38.7387 0C40.6308 0 42.1647 1.95835 42.1647 4.3741C42.1647 6.78985 40.6308 8.7482 38.7387 8.7482Z" fill="#246DBA"/>
<path d="M46.2525 8.7482C44.8759 8.7482 43.76 7.39298 43.76 5.72124C43.76 4.0495 44.8759 2.69428 46.2525 2.69428C47.629 2.69428 48.7449 4.0495 48.7449 5.72124C48.7449 7.39298 47.629 8.7482 46.2525 8.7482Z" fill="#246DBA"/>
<path d="M52.1344 11.3934C50.9709 11.3934 50.0276 10.2478 50.0276 8.83462C50.0276 7.42147 50.9709 6.27588 52.1344 6.27588C53.298 6.27588 54.2412 7.42147 54.2412 8.83462C54.2412 10.2478 53.298 11.3934 52.1344 11.3934Z" fill="#246DBA"/>
<path d="M56.7701 15.4019C55.7635 15.4019 54.9475 14.385 54.9475 13.1306C54.9475 11.8762 55.7635 10.8594 56.7701 10.8594C57.7768 10.8594 58.5928 11.8762 58.5928 13.1306C58.5928 14.385 57.7768 15.4019 56.7701 15.4019Z" fill="#246DBA"/>
<path d="M59.429 20.1699C58.5614 20.1699 57.8581 19.2983 57.8581 18.2232C57.8581 17.148 58.5614 16.2764 59.429 16.2764C60.2967 16.2764 61 17.148 61 18.2232C61 19.2983 60.2967 20.1699 59.429 20.1699Z" fill="#246DBA"/>
<path d="M40.7886 38.566C39.3475 45.8397 34.6996 48.5463 35.4587 53.9842C35.9986 57.8038 38.6006 61.1388 42.3109 60.8472C46.3986 60.5227 49.6907 57.7956 49.9302 53.9513C50.0139 51.7465 50.2226 49.5483 50.5554 47.3676C51.3672 42.9812 51.7123 43.014 52.585 39.5887C53.6404 35.3748 56.2384 31.6414 57.0503 27.4562C57.6998 23.9857 56.5794 20.1291 54.4361 17.3198C52.2928 14.5105 47.3322 10.8346 43.5652 10.8962C41.5355 10.9332 38.832 10.5677 36.6643 13.3194C34.2044 16.4573 34.9635 21.9444 35.9418 25.3164C36.6927 27.9285 41.361 35.5965 40.7886 38.566Z" fill="#246DBA"/>
<path d="M22.2613 8.7482C24.1534 8.7482 25.6873 6.78985 25.6873 4.3741C25.6873 1.95835 24.1534 0 22.2613 0C20.3691 0 18.8352 1.95835 18.8352 4.3741C18.8352 6.78985 20.3691 8.7482 22.2613 8.7482Z" fill="#083666"/>
<path d="M14.7476 8.74825C16.1241 8.74825 17.24 7.39304 17.24 5.72129C17.24 4.04955 16.1241 2.69434 14.7476 2.69434C13.371 2.69434 12.2551 4.04955 12.2551 5.72129C12.2551 7.39304 13.371 8.74825 14.7476 8.74825Z" fill="#083666"/>
<path d="M8.86558 11.3934C10.0291 11.3934 10.9724 10.2478 10.9724 8.83462C10.9724 7.42147 10.0291 6.27588 8.86558 6.27588C7.70203 6.27588 6.75879 7.42147 6.75879 8.83462C6.75879 10.2478 7.70203 11.3934 8.86558 11.3934Z" fill="#083666"/>
<path d="M4.22987 15.4019C5.23648 15.4019 6.0525 14.385 6.0525 13.1306C6.0525 11.8762 5.23648 10.8594 4.22987 10.8594C3.22325 10.8594 2.40723 11.8762 2.40723 13.1306C2.40723 14.385 3.22325 15.4019 4.22987 15.4019Z" fill="#083666"/>
<path d="M1.57096 20.1699C2.43858 20.1699 3.14192 19.2983 3.14192 18.2232C3.14192 17.148 2.43858 16.2764 1.57096 16.2764C0.703343 16.2764 0 17.148 0 18.2232C0 19.2983 0.703343 20.1699 1.57096 20.1699Z" fill="#083666"/>
<path d="M20.2114 38.566C21.6524 45.8398 26.3004 48.5464 25.5413 53.9842C25.0014 57.8039 22.3994 61.1389 18.6891 60.8472C14.6014 60.5228 11.3093 57.7956 11.0698 53.9514C10.9861 51.7465 10.7774 49.5483 10.4446 47.3676C9.63278 42.9812 9.28773 43.0141 8.41498 39.5887C7.35955 35.3748 4.76158 31.6414 3.94972 27.4562C3.30022 23.9857 4.42059 20.1291 6.56392 17.3198C8.70724 14.5105 13.6678 10.8347 17.4348 10.8963C19.4645 10.9332 22.168 10.5677 24.3357 13.3195C26.7956 16.4573 26.0365 21.9445 25.0582 25.3164C24.3072 27.9286 19.639 35.5966 20.2114 38.566Z" fill="#083666"/>
</svg>
