<svg width="240" height="240" viewBox="0 0 240 240" fill="none" xmlns="http://www.w3.org/2000/svg">
<path d="M195.056 179.786C186.231 190.893 175.048 199.897 162.316 206.149C149.583 212.401 135.621 215.744 121.438 215.936L121.798 239.985C141.532 239.706 160.892 234.558 178.16 224.999C195.427 215.439 210.067 201.764 220.781 185.186C222.208 182.966 223.541 180.706 224.781 178.407L203.784 166.707C201.24 171.3 198.32 175.674 195.056 179.786Z" fill="#A8C956"/>
<path d="M128.017 24.3096C143.212 25.5618 157.887 30.4313 170.817 38.5117C183.747 46.592 194.557 57.6487 202.344 70.7587L222.961 58.4389C212.162 40.3632 196.795 25.4498 178.404 15.1984C160.014 4.94701 139.25 -0.280998 118.198 0.0400684L118.558 24.0396C121.714 23.9701 124.871 24.0602 128.017 24.3096V24.3096Z" fill="#A8C956"/>
<path d="M222.961 58.4388L202.344 70.7586C211.024 85.2315 215.699 101.752 215.892 118.628H215.962C216.204 135.459 212.015 152.057 203.814 166.757L224.811 178.456C235.073 160.057 240.307 139.278 239.986 118.212C239.665 97.1462 233.8 76.5365 222.981 58.4588L222.961 58.4388Z" fill="#A8C956"/>
<path d="M75.9755 205.276C60.0741 197.063 46.7833 184.571 37.6019 169.207L16.9854 181.526C27.7734 199.625 43.1423 214.56 61.5422 224.823C79.942 235.086 100.722 240.316 121.788 239.985L121.428 215.936C105.631 216.178 90.0182 212.516 75.9755 205.276V205.276Z" fill="#A8C956"/>
<path opacity="0.5" d="M65.5174 40.9292C81.1354 30.1654 99.5935 24.274 118.559 23.9995L118.199 0C97.1437 0.307651 76.541 6.15518 58.463 16.9544C40.385 27.7537 25.4691 43.1238 15.2158 61.5187L36.1523 73.1885C43.3335 60.3224 53.3817 49.284 65.5174 40.9292V40.9292Z" fill="#E4E3E3"/>
<path d="M31.853 157.977C26.0146 144.468 23.3672 129.796 24.1163 115.098C24.8654 100.401 28.9908 86.0734 36.1723 73.2286L15.2358 61.5588C4.95632 79.9495 -0.294438 100.725 0.0127445 121.792C0.319927 142.86 6.17419 163.473 16.9855 181.556L37.6021 169.237C35.4378 165.615 33.5172 161.854 31.853 157.977V157.977Z" fill="#A8C956"/>
<path d="M157.408 53.1831C157.735 46.9128 153.445 41.644 147.826 41.4149C142.207 41.1858 137.386 46.0832 137.059 52.3534C136.732 58.6237 141.022 63.8925 146.642 64.1216C152.261 64.3507 157.081 59.4534 157.408 53.1831Z" fill="#F2F1F1"/>
<path d="M131.964 56.4093C132.209 52.0673 129.091 48.4008 124.999 48.2199C120.908 48.0389 117.391 51.4122 117.146 55.7542C116.9 60.0962 120.018 63.7627 124.11 63.9437C128.202 64.1246 131.718 60.7513 131.964 56.4093Z" fill="#F2F1F1"/>
<path d="M113.108 62.9671C113.299 59.2998 110.653 56.2127 107.197 56.0718C103.741 55.9309 100.785 58.7896 100.594 62.4569C100.403 66.1241 103.049 69.2113 106.505 69.3522C109.96 69.4931 112.917 66.6344 113.108 62.9671Z" fill="#6B994D"/>
<path d="M97.9163 73.5217C98.086 70.2675 95.8017 67.5307 92.8142 67.4089C89.8267 67.287 87.2672 69.8264 87.0975 73.0806C86.9278 76.3348 89.2122 79.0716 92.1997 79.1935C95.1872 79.3153 97.7466 76.7759 97.9163 73.5217Z" fill="#6B994D"/>
<path d="M88.5805 86.381C88.726 83.5899 86.7583 81.2422 84.1855 81.1373C81.6127 81.0324 79.4091 83.21 79.2635 86.0011C79.118 88.7922 81.0857 91.1398 83.6585 91.2447C86.2313 91.3496 88.4349 89.1721 88.5805 86.381Z" fill="#A8C956"/>
<path d="M132.07 69.0643C123.739 68.6 113.141 73.4655 105.506 78.8656C105.688 79.5234 106.833 82.3622 107.22 83.2188C110.708 90.9282 118.07 97.0958 126.982 99.8369L127.087 99.8678L127.37 99.6656L127.087 99.8678C135.666 102.525 144.76 103.808 153.949 103.979C156.693 95.3654 158.254 83.582 152.206 76.1844C146.157 68.7868 138.095 69.4018 132.07 69.0643Z" fill="#A8C956" stroke="white" stroke-width="2"/>
<path d="M133.763 151.062C130.338 156.893 127.859 163.122 126.401 169.564C124.463 177.102 115.357 179.672 108.189 182.413C107.98 182.506 107.769 182.595 107.553 182.686C109.177 191.358 117.961 197.664 128.976 198.882C139.953 200.095 148.129 191.752 150.253 181.91C152.899 169.659 142.949 162.317 138.198 147.957C136.315 148.405 134.718 149.373 133.763 151.062Z" fill="#6B994D" stroke="white" stroke-width="2"/>
<path d="M118.07 131.189C117.27 129.154 116.097 127.25 114.598 125.552V125.552C109.268 119.532 100.369 116.897 91.4263 116.859C94.2724 125.386 99.3349 133.563 101.391 142.422C103.473 151.411 104.49 151.37 106.329 162.849C107.063 167.401 107.158 173.128 107.286 180.065C107.302 180.943 107.391 181.819 107.554 182.686C107.769 182.595 107.98 182.515 108.189 182.413C115.358 179.672 124.464 177.103 126.401 169.564C127.86 163.122 130.338 156.893 133.763 151.062C126.207 146.436 120.976 139.069 118.07 131.189Z" fill="#A8C956" stroke="white" stroke-width="2"/>
<path d="M153.95 103.981C144.76 103.81 135.666 102.525 127.087 99.8694C118.531 105.956 114.902 116.037 114.598 125.554C116.097 127.251 117.27 129.155 118.07 131.189C120.976 139.069 126.207 146.436 133.763 151.062C134.718 149.372 136.315 148.405 138.198 147.957C137.468 145.756 136.907 143.514 136.516 141.247C135.174 133.47 150.115 114.146 152.741 107.404C153.155 106.347 153.564 105.192 153.95 103.981Z" fill="#6B994D" stroke="white" stroke-width="2"/>
<path d="M114.598 125.552C114.902 116.035 118.531 105.955 127.087 99.8678L126.982 99.837C118.07 97.0958 110.708 90.9283 107.22 83.2189C106.833 82.3623 105.688 79.5235 105.506 78.8656C103.119 80.5272 100.913 82.3833 98.9184 84.4095C92.1741 91.4337 88.3244 101.309 89.793 110.401C90.1604 112.586 90.7069 114.744 91.4282 116.859C100.37 116.897 109.268 119.539 114.598 125.552Z" fill="#3A6742" stroke="white" stroke-width="2"/>
</svg>
