<svg width="240" height="240" viewBox="0 0 240 240" fill="none" xmlns="http://www.w3.org/2000/svg">
<g clip-path="url(#clip0_430_5100)">
<path d="M195.08 179.795C186.248 190.9 175.059 199.904 162.322 206.155C149.584 212.405 135.617 215.747 121.43 215.938L121.8 239.99C141.538 239.713 160.902 234.566 178.173 225.006C195.444 215.445 210.086 201.766 220.8 185.185C222.233 182.965 223.587 180.705 224.86 178.405L203.86 166.704C201.297 171.301 198.36 175.679 195.08 179.795V179.795Z" fill="#A8C956"/>
<path d="M128.03 24.2921C143.226 25.5459 157.902 30.4167 170.832 38.4978C183.762 46.5789 194.572 57.6359 202.36 70.7459L222.98 58.4249C212.176 40.3429 196.802 25.4251 178.403 15.1723C160.004 4.91963 139.23 -0.30638 118.17 0.0200192L118.53 24.022C121.699 23.9513 124.87 24.0414 128.03 24.2921V24.2921Z" fill="#A8C956"/>
<path d="M222.98 58.4249L202.36 70.7459C211.04 85.221 215.72 101.742 215.92 118.62L215.99 118.57C216.229 135.404 212.036 152.004 203.83 166.704L224.83 178.405C235.09 160.002 240.321 139.221 239.998 118.153C239.675 97.0855 233.809 76.4746 222.99 58.3949L222.98 58.4249Z" fill="#A8C956"/>
<path opacity="0.5" d="M75.97 205.277C60.0659 197.064 46.7729 184.57 37.59 169.204L16.97 181.525C27.7544 199.637 43.1247 214.584 61.53 224.857C79.9353 235.131 100.724 240.368 121.8 240.04L121.43 215.988C105.626 216.212 90.0116 212.533 75.97 205.277V205.277Z" fill="#E4E3E3"/>
<path opacity="0.5" d="M65.5199 40.9134C81.1249 30.1547 99.5682 24.2628 118.52 23.982L118.17 0.0200195C97.1108 0.324667 76.5035 6.17156 58.422 16.9722C40.3404 27.7729 25.4226 43.1463 15.1699 61.5452L36.1699 73.2161C43.3417 60.3364 53.3849 49.2828 65.5199 40.9134V40.9134Z" fill="#E4E3E3"/>
<path opacity="0.5" d="M31.8401 158.033C25.9955 144.514 23.3458 129.829 24.0968 115.119C24.8477 100.409 28.9791 86.0701 36.1701 73.2161L15.2301 61.5452C4.95228 79.9385 -0.298228 100.715 0.00723557 121.784C0.3127 142.852 6.16336 163.468 16.9701 181.555L37.5901 169.234C35.4333 165.629 33.5126 161.887 31.8401 158.033V158.033Z" fill="#E4E3E3"/>
</g>
<path d="M156.4 53.1831C156.732 46.9128 152.387 41.644 146.697 41.4149C141.007 41.1858 136.125 46.0832 135.794 52.3534C135.463 58.6237 139.808 63.8925 145.498 64.1216C151.188 64.3507 156.069 59.4534 156.4 53.1831Z" fill="#F2F1F1"/>
<path d="M130.634 56.4093C130.883 52.0673 127.725 48.4008 123.581 48.2199C119.438 48.0389 115.877 51.4122 115.629 55.7542C115.38 60.0962 118.538 63.7627 122.681 63.9437C126.825 64.1246 130.385 60.7513 130.634 56.4093Z" fill="#F2F1F1"/>
<path d="M111.54 62.9671C111.733 59.2998 109.054 56.2127 105.554 56.0718C102.055 55.9309 99.0609 58.7896 98.8672 62.4569C98.6736 66.1241 101.353 69.2113 104.853 69.3522C108.352 69.4931 111.346 66.6344 111.54 62.9671Z" fill="#F2F1F1"/>
<path d="M96.1558 73.5217C96.3276 70.2675 94.0144 67.5307 90.9891 67.4089C87.9637 67.287 85.3719 69.8264 85.2001 73.0806C85.0282 76.3348 87.3414 79.0716 90.3668 79.1935C93.3921 79.3153 95.984 76.7759 96.1558 73.5217Z" fill="#6B994D"/>
<path d="M86.7016 86.381C86.849 83.5899 84.8564 81.2422 82.251 81.1373C79.6457 81.0324 77.4141 83.21 77.2667 86.0011C77.1194 88.7922 79.112 91.1398 81.7173 91.2447C84.3227 91.3496 86.5542 89.1721 86.7016 86.381Z" fill="#A8C956"/>
<path d="M130.742 69.0643C122.305 68.6 111.573 73.4655 103.841 78.8656C104.026 79.5234 105.185 82.3622 105.578 83.2188C109.109 90.9282 116.565 97.0958 125.59 99.8369L125.696 99.8678L125.982 99.6656L125.696 99.8678C134.383 102.525 143.593 103.808 152.898 103.979C155.676 95.3654 157.258 83.582 151.132 76.1844C145.007 68.7868 136.843 69.4018 130.742 69.0643Z" fill="#F2F1F1" stroke="white" stroke-width="2"/>
<path d="M132.457 151.062C128.988 156.893 126.478 163.122 125.001 169.564C123.039 177.102 113.818 179.672 106.559 182.413C106.347 182.506 106.133 182.595 105.915 182.686C107.559 191.358 116.455 197.664 127.608 198.882C138.725 200.095 147.004 191.752 149.155 181.91C151.835 169.659 141.758 162.317 136.947 147.957C135.04 148.405 133.424 149.373 132.457 151.062Z" fill="#6B994D" stroke="white" stroke-width="2"/>
<path d="M116.565 131.189C115.754 129.154 114.567 127.25 113.049 125.552V125.552C107.651 119.532 98.6402 116.897 89.5837 116.859C92.4659 125.386 97.5925 133.563 99.6741 142.422C101.783 151.411 102.813 151.37 104.675 162.849C105.419 167.401 105.515 173.128 105.644 180.065C105.66 180.943 105.751 181.819 105.915 182.686C106.133 182.595 106.347 182.515 106.559 182.413C113.818 179.672 123.039 177.103 125.001 169.564C126.478 163.122 128.988 156.893 132.457 151.062C124.805 146.436 119.508 139.069 116.565 131.189Z" fill="#A8C956" stroke="white" stroke-width="2"/>
<path d="M152.898 103.981C143.593 103.81 134.383 102.525 125.696 99.8694C117.031 105.956 113.357 116.037 113.049 125.554C114.566 127.251 115.754 129.155 116.565 131.189C119.507 139.069 124.805 146.436 132.456 151.062C133.424 149.372 135.04 148.405 136.947 147.957C136.208 145.756 135.639 143.514 135.244 141.247C133.885 133.47 149.015 114.146 151.674 107.404C152.094 106.347 152.508 105.192 152.898 103.981Z" fill="#F2F1F1" stroke="white" stroke-width="2"/>
<path d="M113.049 125.552C113.357 116.035 117.032 105.955 125.696 99.8678L125.59 99.837C116.565 97.0958 109.109 90.9283 105.578 83.2189C105.185 82.3623 104.026 79.5235 103.841 78.8656C101.424 80.5272 99.1905 82.3833 97.1705 84.4095C90.3409 91.4337 86.4425 101.309 87.9297 110.401C88.3017 112.586 88.8551 114.744 89.5856 116.859C98.64 116.897 107.651 119.539 113.049 125.552Z" fill="#3A6742" stroke="white" stroke-width="2"/>
<defs>
<clipPath id="clip0_430_5100">
<rect width="240" height="240" fill="white"/>
</clipPath>
</defs>
</svg>
