<svg width="240" height="240" viewBox="0 0 240 240" fill="none" xmlns="http://www.w3.org/2000/svg">
<path d="M195.055 179.786C186.227 190.894 175.04 199.899 162.305 206.151C149.569 212.403 135.603 215.745 121.417 215.936L121.777 239.985C141.512 239.706 160.872 234.558 178.139 224.999C195.407 215.439 210.047 201.764 220.761 185.186C222.188 182.966 223.537 180.706 224.81 178.407L203.814 166.707C201.257 171.299 198.327 175.673 195.055 179.786V179.786Z" fill="#A8C956"/>
<path d="M128.016 24.3096C143.212 25.5618 157.887 30.4313 170.817 38.5117C183.747 46.592 194.557 57.6487 202.344 70.7587L222.961 58.4389C212.162 40.3632 196.794 25.4498 178.404 15.1984C160.014 4.947 139.249 -0.280998 118.198 0.0400684L118.558 24.0396C121.713 23.9704 124.87 24.0605 128.016 24.3096V24.3096Z" fill="#A8C956"/>
<path d="M222.951 58.4388L202.344 70.7586C211.024 85.2315 215.699 101.752 215.892 118.628H215.962C216.204 135.459 212.015 152.057 203.814 166.757L224.811 178.456C235.073 160.057 240.307 139.278 239.986 118.212C239.665 97.1462 233.8 76.5365 222.981 58.4588L222.951 58.4388Z" fill="#A8C956"/>
<path d="M75.9651 205.276C60.0637 197.063 46.7728 184.571 37.5914 169.207L16.9749 181.526C27.763 199.625 43.1318 214.56 61.5317 224.823C79.9316 235.086 100.712 240.316 121.778 239.985L121.418 215.936C105.62 216.178 90.0079 212.516 75.9651 205.276V205.276Z" fill="#A8C956"/>
<path opacity="0.5" d="M65.5068 40.9292C81.1248 30.1654 99.5829 24.274 118.548 23.9995L118.188 0C97.1331 0.307651 76.5304 6.15518 58.4523 16.9544C40.3743 27.7537 25.4584 43.1238 15.2051 61.5187L36.1416 73.1885C43.3249 60.3239 53.3727 49.2858 65.5068 40.9292V40.9292Z" fill="#E4E3E3"/>
<path opacity="0.5" d="M31.8423 157.977C26.0121 144.466 23.3691 129.795 24.1181 115.099C24.8671 100.403 28.988 86.0761 36.1615 73.2285L15.225 61.5587C4.95238 79.9516 -0.294411 100.727 0.012752 121.792C0.319915 142.858 6.1702 163.471 16.9747 181.556L37.5913 169.237C35.4309 165.613 33.5104 161.852 31.8423 157.977V157.977Z" fill="#E4E3E3"/>
<path d="M154.416 53.1831C154.738 46.9128 150.503 41.644 144.955 41.4149C139.407 41.1858 134.647 46.0832 134.325 52.3534C134.002 58.6237 138.238 63.8925 143.786 64.1216C149.334 64.3507 154.093 59.4534 154.416 53.1831Z" fill="#F2F1F1"/>
<path d="M129.293 56.4093C129.535 52.0673 126.457 48.4008 122.417 48.2199C118.377 48.0389 114.905 51.4122 114.663 55.7542C114.421 60.0962 117.499 63.7627 121.539 63.9437C125.579 64.1246 129.051 60.7513 129.293 56.4093Z" fill="#F2F1F1"/>
<path d="M110.676 62.9671C110.865 59.2998 108.252 56.2127 104.84 56.0718C101.428 55.9309 98.5094 58.7896 98.3206 62.4569C98.1318 66.1241 100.745 69.2113 104.157 69.3522C107.569 69.4931 110.488 66.6344 110.676 62.9671Z" fill="#F2F1F1"/>
<path d="M95.6769 73.5217C95.8444 70.2675 93.589 67.5307 90.6393 67.4089C87.6896 67.287 85.1626 69.8264 84.995 73.0806C84.8275 76.3348 87.0829 79.0716 90.0326 79.1935C92.9823 79.3153 95.5093 76.7759 95.6769 73.5217Z" fill="#6B994D"/>
<path d="M86.4592 86.381C86.6029 83.5899 84.6601 81.2422 82.1199 81.1373C79.5797 81.0324 77.4039 83.21 77.2602 86.0011C77.1165 88.7922 79.0593 91.1398 81.5995 91.2447C84.1397 91.3496 86.3155 89.1721 86.4592 86.381Z" fill="#ADCD61"/>
<path d="M129.398 69.0643C121.173 68.6 110.709 73.4655 103.17 78.8656C103.35 79.5234 104.481 82.3622 104.863 83.2188C108.306 90.9282 115.575 97.0958 124.375 99.8369L124.478 99.8678L124.757 99.6656L124.478 99.8678C132.948 102.525 141.928 103.808 151.001 103.979C153.709 95.3654 155.251 83.582 149.279 76.1844C143.307 68.7868 135.347 69.4018 129.398 69.0643Z" fill="#F2F1F1" stroke="white" stroke-width="2"/>
<path d="M131.07 151.062C127.688 156.893 125.241 163.122 123.801 169.564C121.888 177.102 112.897 179.672 105.82 182.413C105.613 182.506 105.404 182.595 105.192 182.686C106.795 191.358 115.468 197.664 126.343 198.882C137.182 200.095 145.254 191.752 147.351 181.91C149.964 169.659 140.139 162.317 135.449 147.957C133.589 148.405 132.013 149.373 131.07 151.062Z" fill="#6B994D" stroke="white" stroke-width="2"/>
<path d="M115.575 131.189C114.785 129.154 113.627 127.25 112.148 125.552V125.552C106.885 119.532 98.0991 116.897 89.269 116.859C92.0791 125.386 97.0776 133.563 99.1072 142.422C101.164 151.411 102.168 151.37 103.983 162.849C104.708 167.401 104.802 173.128 104.928 180.065C104.944 180.943 105.032 181.819 105.192 182.686C105.404 182.595 105.613 182.515 105.82 182.413C112.897 179.672 121.888 177.103 123.801 169.564C125.241 163.122 127.688 156.893 131.07 151.062C123.61 146.436 118.445 139.069 115.575 131.189Z" fill="#A8C956" stroke="white" stroke-width="2"/>
<path d="M151.001 103.981C141.928 103.81 132.948 102.525 124.478 99.8694C116.031 105.956 112.448 116.037 112.147 125.554C113.627 127.251 114.785 129.155 115.575 131.189C118.445 139.069 123.61 146.436 131.07 151.062C132.013 149.372 133.589 148.405 135.449 147.957C134.728 145.756 134.173 143.514 133.788 141.247C132.463 133.47 147.215 114.146 149.807 107.404C150.216 106.347 150.62 105.192 151.001 103.981Z" fill="#6B994D" stroke="white" stroke-width="2"/>
<path d="M112.147 125.552C112.448 116.035 116.031 105.955 124.478 99.8678L124.375 99.837C115.575 97.0958 108.306 90.9283 104.863 83.2189C104.48 82.3623 103.35 79.5235 103.17 78.8656C100.813 80.5272 98.6355 82.3833 96.6661 84.4095C90.0073 91.4337 86.2063 101.309 87.6563 110.401C88.019 112.586 88.5586 114.744 89.2708 116.859C98.0989 116.897 106.885 119.539 112.147 125.552Z" fill="#3A6742" stroke="white" stroke-width="2"/>
</svg>
