<svg width="240" height="240" viewBox="0 0 240 240" fill="none" xmlns="http://www.w3.org/2000/svg">
<path opacity="0.5" d="M195.022 179.764C186.188 190.867 174.999 199.869 162.263 206.12C149.527 212.371 135.561 215.714 121.376 215.909L121.735 239.955C141.467 239.676 160.824 234.529 178.089 224.971C195.354 215.413 209.992 201.739 220.704 185.163C222.134 182.944 223.473 180.684 224.753 178.384L203.76 166.686C201.212 171.279 198.29 175.653 195.022 179.764V179.764Z" fill="#E4E3E3"/>
<path d="M127.993 24.2965C143.193 25.5424 157.874 30.4084 170.81 38.4881C183.745 46.5677 194.56 57.6263 202.35 70.7399L222.963 58.4316C212.159 40.3519 196.786 25.4355 178.39 15.182C159.994 4.92855 139.223 -0.300675 118.166 0.0200139L118.526 24.0166C121.675 23.9466 124.834 24.0166 127.993 24.2965Z" fill="#A8C956"/>
<path d="M222.923 58.4316L202.35 70.7398C211.023 85.2165 215.698 101.737 215.896 118.613L215.966 118.563C216.205 135.392 212.016 151.987 203.819 166.686L224.813 178.384C235.074 159.987 240.307 139.211 239.986 118.148C239.665 97.0841 233.8 76.4771 222.983 58.4016L222.923 58.4316Z" fill="#A8C956"/>
<path opacity="0.5" d="M75.9498 205.25C60.0508 197.039 46.762 184.548 37.582 169.186L16.9685 181.504C27.7536 199.606 43.1204 214.545 61.5194 224.812C79.9183 235.08 100.699 240.313 121.765 239.985L121.375 215.909C105.588 216.144 89.9856 212.484 75.9498 205.25Z" fill="#E4E3E3"/>
<path opacity="0.5" d="M65.5032 40.9241C81.1048 30.1711 99.5413 24.2808 118.486 23.9966L118.127 0C97.0748 0.307613 76.4752 6.15442 58.3999 16.9523C40.3246 27.7503 25.411 43.1185 15.1592 61.5112L36.0925 73.1895C43.2857 60.316 53.35 49.2748 65.5032 40.9241V40.9241Z" fill="#E4E3E3"/>
<path opacity="0.5" d="M31.8438 157.997C26.0063 144.49 23.3592 129.82 24.1082 115.124C24.8572 100.428 28.982 86.1027 36.1624 73.2595L15.2291 61.5812C4.95552 79.9706 -0.292761 100.743 0.0126037 121.806C0.317968 142.869 6.1662 163.48 16.9685 181.564L37.582 169.246C35.4275 165.625 33.5108 161.867 31.8438 157.997V157.997Z" fill="#E4E3E3"/>
<path d="M156.408 53.1831C156.735 46.9128 152.445 41.644 146.826 41.4149C141.207 41.1858 136.386 46.0832 136.059 52.3534C135.732 58.6237 140.023 63.8925 145.642 64.1216C151.261 64.3507 156.081 59.4534 156.408 53.1831Z" fill="#F2F1F1"/>
<path d="M130.964 56.4093C131.209 52.0673 128.091 48.4008 123.999 48.2199C119.908 48.0389 116.391 51.4122 116.146 55.7542C115.9 60.0962 119.018 63.7627 123.11 63.9437C127.202 64.1246 130.718 60.7513 130.964 56.4093Z" fill="#F2F1F1"/>
<path d="M112.108 62.9671C112.299 59.2998 109.653 56.2127 106.197 56.0718C102.742 55.9309 99.7852 58.7896 99.5939 62.4569C99.4027 66.1241 102.049 69.2113 105.505 69.3522C108.96 69.4931 111.917 66.6344 112.108 62.9671Z" fill="#F2F1F1"/>
<path d="M96.9164 73.5217C97.0861 70.2675 94.8018 67.5307 91.8143 67.4089C88.8268 67.287 86.2673 69.8264 86.0977 73.0806C85.928 76.3348 88.2123 79.0716 91.1998 79.1935C94.1873 79.3153 96.7468 76.7759 96.9164 73.5217Z" fill="#F2F1F1"/>
<path d="M87.5805 86.381C87.726 83.5899 85.7583 81.2422 83.1855 81.1373C80.6127 81.0324 78.4091 83.21 78.2635 86.0011C78.118 88.7922 80.0857 91.1398 82.6585 91.2447C85.2313 91.3496 87.4349 89.1721 87.5805 86.381Z" fill="#A8C956"/>
<path d="M131.07 69.0643C122.739 68.6 112.141 73.4655 104.506 78.8656C104.688 79.5234 105.833 82.3622 106.22 83.2188C109.708 90.9282 117.07 97.0958 125.982 99.8369L126.087 99.8678L126.37 99.6656L126.087 99.8678C134.666 102.525 143.76 103.808 152.949 103.979C155.693 95.3654 157.254 83.582 151.206 76.1844C145.157 68.7868 137.095 69.4018 131.07 69.0643Z" fill="#F2F1F1" stroke="white" stroke-width="2"/>
<path d="M132.763 151.062C129.338 156.893 126.86 163.122 125.401 169.564C123.464 177.102 114.358 179.672 107.189 182.413C106.98 182.506 106.769 182.595 106.554 182.686C108.177 191.358 116.962 197.664 127.976 198.882C138.953 200.095 147.129 191.752 149.253 181.91C151.899 169.659 141.949 162.317 137.198 147.957C135.315 148.405 133.718 149.373 132.763 151.062Z" fill="#6B994D" stroke="white" stroke-width="2"/>
<path d="M117.07 131.189C116.27 129.154 115.097 127.25 113.598 125.552V125.552C108.268 119.532 99.3696 116.897 90.4264 116.859C93.2725 125.386 98.335 133.563 100.391 142.422C102.473 151.411 103.491 151.37 105.329 162.849C106.063 167.401 106.158 173.128 106.286 180.065C106.302 180.943 106.391 181.819 106.554 182.686C106.769 182.595 106.98 182.515 107.189 182.413C114.358 179.672 123.464 177.103 125.401 169.564C126.86 163.122 129.338 156.893 132.763 151.062C125.207 146.436 119.976 139.069 117.07 131.189Z" fill="#A8C956" stroke="white" stroke-width="2"/>
<path d="M152.949 103.981C143.76 103.81 134.666 102.525 126.087 99.8694C117.531 105.956 113.902 116.037 113.598 125.554C115.097 127.251 116.27 129.155 117.07 131.189C119.976 139.069 125.207 146.436 132.763 151.062C133.718 149.372 135.315 148.405 137.198 147.957C136.468 145.756 135.907 143.514 135.516 141.247C134.174 133.47 149.115 114.146 151.741 107.404C152.155 106.347 152.564 105.192 152.949 103.981Z" fill="#F2F1F1" stroke="white" stroke-width="2"/>
<path d="M113.598 125.552C113.902 116.035 117.531 105.955 126.087 99.8678L125.982 99.837C117.07 97.0958 109.708 90.9283 106.22 83.2189C105.833 82.3623 104.688 79.5235 104.506 78.8656C102.119 80.5272 99.9131 82.3833 97.9184 84.4095C91.1741 91.4337 87.3244 101.309 88.793 110.401C89.1604 112.586 89.7069 114.744 90.4282 116.859C99.3695 116.897 108.268 119.539 113.598 125.552Z" fill="#F2F1F1" stroke="white" stroke-width="2"/>
</svg>
