<svg width="240" height="240" viewBox="0 0 240 240" fill="none" xmlns="http://www.w3.org/2000/svg">
<path opacity="0.5" d="M195.058 179.784C186.231 190.891 175.046 199.896 162.312 206.148C149.578 212.4 135.614 215.743 121.43 215.935L121.79 239.995C141.525 239.713 160.885 234.563 178.152 225.001C195.42 215.44 210.06 201.763 220.774 185.184C222.214 182.974 223.554 180.704 224.834 178.414L203.837 166.714C201.27 171.301 198.334 175.673 195.058 179.784V179.784Z" fill="#E4E3E3"/>
<path d="M128.019 24.2905C143.214 25.5427 157.889 30.4125 170.82 38.4931C183.75 46.5738 194.56 57.631 202.347 70.7415L222.954 58.4212C212.155 40.3447 196.787 25.4307 178.397 15.1789C160.007 4.92709 139.242 -0.301153 118.19 0.0199273L118.55 24.0205C121.7 23.9305 124.859 24.0305 128.019 24.2905Z" fill="#A8C956"/>
<path opacity="0.5" d="M222.954 58.4212L202.347 70.7415C204.509 74.3404 206.429 78.0787 208.096 81.9317C213.075 93.5186 215.725 105.972 215.895 118.583L215.965 118.533C216.2 135.363 212.011 151.961 203.817 166.664L224.814 178.364C235.076 159.963 240.309 139.183 239.986 118.116C239.663 97.0486 233.795 76.4385 222.974 58.3612L222.954 58.4212Z" fill="#E4E3E3"/>
<path opacity="0.5" d="M75.9667 205.264C60.0682 197.055 46.7829 184.56 37.6127 169.194L16.9958 181.514C27.7844 199.616 43.1547 214.554 61.5566 224.819C79.9585 235.085 100.741 240.316 121.81 239.985L121.43 215.935C105.627 216.182 90.0095 212.516 75.9667 205.264V205.264Z" fill="#E4E3E3"/>
<path opacity="0.5" d="M65.5183 40.9309C81.1258 30.1831 99.5631 24.2926 118.51 24.0005L118.15 0C97.0943 0.304629 76.4901 6.15116 58.4114 16.9512C40.3326 27.7512 25.4171 43.1236 15.1661 61.5213L36.1028 73.2016C43.2954 60.3247 53.3617 49.2814 65.5183 40.9309V40.9309Z" fill="#E4E3E3"/>
<path opacity="0.5" d="M31.8536 157.933C26.0151 144.424 23.3677 129.751 24.1168 115.053C24.8658 100.355 28.9913 86.027 36.1729 73.1816L15.2362 61.5013C4.95802 79.8929 -0.29282 100.669 0.0126026 121.736C0.318025 142.803 6.16892 163.418 16.9759 181.504L37.6127 169.194C35.4444 165.573 33.5204 161.811 31.8536 157.933V157.933Z" fill="#E4E3E3"/>
<path d="M155.408 54.1831C155.735 47.9128 151.445 42.644 145.826 42.4149C140.207 42.1858 135.386 47.0832 135.059 53.3534C134.732 59.6237 139.023 64.8925 144.642 65.1216C150.261 65.3507 155.081 60.4534 155.408 54.1831Z" fill="#F2F1F1"/>
<path d="M129.963 57.4093C130.209 53.0673 127.091 49.4008 122.999 49.2199C118.907 49.0389 115.391 52.4122 115.146 56.7542C114.9 61.0962 118.018 64.7627 122.11 64.9437C126.202 65.1246 129.718 61.7513 129.963 57.4093Z" fill="#F2F1F1"/>
<path d="M111.108 63.9671C111.299 60.2998 108.653 57.2127 105.197 57.0718C101.742 56.9309 98.7852 59.7896 98.5939 63.4569C98.4027 67.1241 101.049 70.2113 104.505 70.3522C107.96 70.4931 110.917 67.6344 111.108 63.9671Z" fill="#F2F1F1"/>
<path d="M95.9163 74.5217C96.086 71.2675 93.8017 68.5307 90.8141 68.4089C87.8266 68.287 85.2672 70.8264 85.0975 74.0806C84.9278 77.3348 87.2121 80.0716 90.1996 80.1935C93.1872 80.3153 95.7466 77.7759 95.9163 74.5217Z" fill="#F2F1F1"/>
<path d="M86.5805 87.381C86.726 84.5899 84.7583 82.2422 82.1855 82.1373C79.6127 82.0324 77.4091 84.21 77.2635 87.0011C77.118 89.7922 79.0857 92.1398 81.6585 92.2447C84.2313 92.3496 86.4349 90.1721 86.5805 87.381Z" fill="#F2F1F1"/>
<path d="M130.07 70.0643C121.739 69.6 111.141 74.4655 103.506 79.8656C103.688 80.5234 104.833 83.3622 105.22 84.2188C108.708 91.9282 116.07 98.0958 124.982 100.837L125.087 100.868L125.37 100.666L125.087 100.868C133.666 103.525 142.76 104.808 151.949 104.979C154.693 96.3654 156.254 84.582 150.206 77.1844C144.157 69.7868 136.095 70.4018 130.07 70.0643Z" fill="#F2F1F1" stroke="white" stroke-width="2"/>
<path d="M131.763 152.062C128.338 157.893 125.86 164.122 124.401 170.564C122.464 178.102 113.358 180.672 106.189 183.413C105.98 183.506 105.769 183.595 105.554 183.686C107.177 192.358 115.962 198.664 126.976 199.882C137.953 201.095 146.129 192.752 148.253 182.91C150.899 170.659 140.949 163.317 136.198 148.957C134.315 149.405 132.718 150.373 131.763 152.062Z" fill="#6B994D" stroke="white" stroke-width="2"/>
<path d="M116.07 132.189C115.27 130.154 114.097 128.25 112.598 126.552V126.552C107.268 120.532 98.3696 117.897 89.4263 117.859C92.2724 126.386 97.335 134.563 99.3906 143.422C101.473 152.411 102.491 152.37 104.329 163.849C105.063 168.401 105.158 174.128 105.286 181.065C105.302 181.943 105.391 182.819 105.554 183.686C105.769 183.595 105.98 183.515 106.189 183.413C113.358 180.672 122.464 178.103 124.401 170.564C125.86 164.122 128.338 157.893 131.763 152.062C124.207 147.436 118.976 140.069 116.07 132.189Z" fill="#F2F1F1" stroke="white" stroke-width="2"/>
<path d="M151.95 104.981C142.76 104.81 133.666 103.525 125.087 100.869C116.531 106.956 112.902 117.037 112.598 126.554C114.097 128.251 115.27 130.155 116.07 132.189C118.976 140.069 124.207 147.436 131.763 152.062C132.718 150.372 134.315 149.405 136.198 148.957C135.468 146.756 134.907 144.514 134.516 142.247C133.174 134.47 148.115 115.146 150.741 108.404C151.155 107.347 151.564 106.192 151.95 104.981Z" fill="#F2F1F1" stroke="white" stroke-width="2"/>
<path d="M112.598 126.552C112.902 117.035 116.531 106.955 125.087 100.868L124.982 100.837C116.07 98.0958 108.708 91.9283 105.22 84.2189C104.833 83.3623 103.688 80.5235 103.506 79.8656C101.119 81.5272 98.9132 83.3833 96.9185 85.4095C90.1743 92.4337 86.3246 102.309 87.7931 111.401C88.1605 113.586 88.707 115.744 89.4284 117.859C98.3696 117.897 107.268 120.539 112.598 126.552Z" fill="#F2F1F1" stroke="white" stroke-width="2"/>
</svg>
