<svg width="241" height="240" viewBox="0 0 241 240" fill="none" xmlns="http://www.w3.org/2000/svg">
<path opacity="0.5" d="M222.988 58.4094C209.603 36.028 189.292 18.616 165.128 8.80886C140.964 -0.998323 114.263 -2.66684 89.0657 4.0558C63.8687 10.7784 41.5475 25.5263 25.4804 46.0673C9.41337 66.6083 0.4751 91.8242 0.0184124 117.899C-0.438275 143.973 7.61147 169.486 22.9494 190.577C38.2872 211.668 60.0783 227.189 85.0244 234.79C109.971 242.391 136.714 241.658 161.206 232.703C185.699 223.748 206.608 207.058 220.768 185.159C222.198 182.949 223.548 180.679 224.828 178.389C235.082 159.986 240.31 139.208 239.987 118.143C239.664 97.0782 233.802 76.4697 222.988 58.3894V58.4094ZM195.088 179.769C185.005 192.429 171.884 202.334 156.946 208.564C142.007 214.793 125.737 217.144 109.646 215.399C93.5552 213.654 78.167 207.869 64.9116 198.582C51.6562 189.295 40.964 176.807 33.829 162.28C26.6939 147.752 23.3477 131.657 24.1012 115.489C24.8548 99.3216 29.6837 83.6071 38.1391 69.8064C46.5945 56.0056 58.4019 44.5666 72.4637 36.5527C86.5254 28.5389 102.385 24.2103 118.568 23.9694C121.718 23.9694 124.878 23.9694 128.038 24.2794C151.79 26.2685 173.95 37.032 190.197 54.4716C206.444 71.9111 215.614 94.7764 215.918 118.609L215.998 118.559C216.286 140.762 208.9 162.383 195.088 179.769V179.769Z" fill="#E4E3E3"/>
<path d="M151.408 54.183C151.735 47.9127 147.445 42.6439 141.826 42.4148C136.207 42.1857 131.386 47.083 131.059 53.3533C130.732 59.6236 135.023 64.8924 140.642 65.1215C146.261 65.3506 151.081 60.4533 151.408 54.183Z" fill="#F2F1F1"/>
<path d="M125.963 57.4093C126.209 53.0673 123.091 49.4008 118.999 49.2199C114.907 49.0389 111.391 52.4122 111.146 56.7542C110.9 61.0962 114.018 64.7627 118.11 64.9437C122.202 65.1246 125.718 61.7513 125.963 57.4093Z" fill="#F2F1F1"/>
<path d="M107.108 63.9671C107.299 60.2998 104.653 57.2127 101.197 57.0718C97.7416 56.9309 94.7852 59.7896 94.5939 63.4569C94.4027 67.1241 97.0491 70.2113 100.505 70.3522C103.96 70.4931 106.917 67.6344 107.108 63.9671Z" fill="#F2F1F1"/>
<path d="M91.9163 74.5217C92.086 71.2675 89.8017 68.5307 86.8142 68.4089C83.8267 68.287 81.2672 70.8264 81.0975 74.0806C80.9278 77.3348 83.2122 80.0716 86.1997 80.1935C89.1872 80.3153 91.7466 77.7759 91.9163 74.5217Z" fill="#F2F1F1"/>
<path d="M82.5805 87.381C82.726 84.5899 80.7583 82.2422 78.1855 82.1373C75.6127 82.0324 73.4091 84.21 73.2635 87.0011C73.118 89.7922 75.0857 92.1398 77.6585 92.2447C80.2313 92.3496 82.4349 90.1721 82.5805 87.381Z" fill="#F2F1F1"/>
<path d="M126.07 70.0642C117.739 69.5999 107.141 74.4654 99.5057 79.8654C99.6878 80.5233 100.833 83.3621 101.22 84.2187C104.708 91.9281 112.07 98.0956 120.982 100.837L121.087 100.868L121.37 100.665L121.087 100.868C129.666 103.525 138.76 104.808 147.949 104.979C150.693 96.3653 152.254 84.5819 146.206 77.1843C140.157 69.7866 132.095 70.4017 126.07 70.0642Z" fill="#F2F1F1" stroke="white" stroke-width="2"/>
<path d="M127.763 152.062C124.338 157.893 121.86 164.122 120.401 170.564C118.464 178.102 109.358 180.672 102.189 183.413C101.98 183.506 101.769 183.595 101.554 183.686C103.177 192.358 111.962 198.664 122.976 199.882C133.953 201.095 142.129 192.752 144.253 182.91C146.899 170.659 136.949 163.317 132.198 148.957C130.315 149.405 128.718 150.373 127.763 152.062Z" fill="#F2F1F1" stroke="white" stroke-width="2"/>
<path d="M112.07 132.189C111.27 130.154 110.097 128.25 108.598 126.552V126.552C103.268 120.532 94.3696 117.897 85.4263 117.859C88.2724 126.386 93.335 134.563 95.3906 143.422C97.4733 152.411 98.4905 152.37 100.329 163.849C101.063 168.401 101.158 174.128 101.286 181.065C101.302 181.943 101.391 182.819 101.554 183.686C101.769 183.595 101.98 183.515 102.189 183.413C109.358 180.672 118.464 178.103 120.401 170.564C121.86 164.122 124.338 157.893 127.763 152.062C120.207 147.436 114.976 140.069 112.07 132.189Z" fill="#F2F1F1" stroke="white" stroke-width="2"/>
<path d="M147.95 104.981C138.76 104.81 129.666 103.525 121.087 100.869C112.531 106.956 108.902 117.037 108.598 126.554C110.097 128.251 111.27 130.155 112.07 132.189C114.976 140.069 120.207 147.436 127.763 152.062C128.718 150.372 130.315 149.405 132.198 148.957C131.468 146.756 130.907 144.514 130.516 142.247C129.174 134.47 144.115 115.146 146.741 108.404C147.155 107.347 147.564 106.192 147.95 104.981Z" fill="#F2F1F1" stroke="white" stroke-width="2"/>
<path d="M108.598 126.552C108.902 117.035 112.531 106.955 121.087 100.868L120.982 100.837C112.07 98.0958 104.708 91.9283 101.22 84.2189C100.833 83.3623 99.6879 80.5235 99.5057 79.8656C97.1186 81.5272 94.9131 83.3833 92.9184 85.4095C86.1742 92.4337 82.3245 102.309 83.7931 111.401C84.1605 113.586 84.707 115.744 85.4283 117.859C94.3696 117.897 103.268 120.539 108.598 126.552Z" fill="#F2F1F1" stroke="white" stroke-width="2"/>
</svg>
