<svg width="176" height="117" viewBox="0 0 176 117" fill="none" xmlns="http://www.w3.org/2000/svg">
<g clip-path="url(#clip0_335_2211)">
<path d="M175.653 -6.77432C175.653 -6.77432 165.505 -12.7605 151.321 -5.09819C137.137 2.56413 85.9661 34.5005 85.9661 34.5005C85.9661 34.5005 38.2544 35.129 31.3643 41.4445C24.4742 47.7599 11.9625 59.7921 11.1841 67.8136H3.08325C3.08325 67.8136 -2.68242 93.0454 1.55541 107.741H36.15C37.332 65.449 99.9194 61.4382 101.563 107.592L173.981 107.412L175.653 -6.77432Z" fill="#F9C941" stroke="#070707" stroke-width="0.1" stroke-miterlimit="10"/>
<path d="M152.503 4.24032L115.602 33.7821L85.9661 34.5005L138.953 1.93567H151.609C151.88 1.90236 152.153 1.96235 152.387 2.10648C152.622 2.2506 152.804 2.47084 152.905 2.73308C153.007 2.99532 153.023 3.28502 152.95 3.55744C152.877 3.82987 152.72 4.06982 152.503 4.24032Z" fill="url(#paint0_linear_335_2211)" stroke="#0A0A0A" stroke-width="0.1" stroke-miterlimit="10"/>
<path d="M159.134 11.753C150.485 18.2779 122.348 39.5289 118.773 44.9763L175.047 43.5696V9.8075H164.899C162.829 9.81321 160.812 10.4937 159.134 11.753Z" fill="url(#paint1_linear_335_2211)" stroke="#0A0A0A" stroke-width="0.1" stroke-miterlimit="10"/>
<path d="M116.669 36.6256L148.063 35.3685C148.063 35.3685 151.321 44.9164 139.674 48.568C132.179 50.7651 124.328 51.3357 116.611 50.2441L116.669 36.6256Z" fill="#F9C941" stroke="black" stroke-width="0.1" stroke-miterlimit="10"/>
<path d="M159.854 59.2534H169.426" stroke="#7F5D38" stroke-width="0.5" stroke-miterlimit="10"/>
<path d="M11.1553 67.8136H39.2634C39.9186 67.8059 40.545 67.5322 41.0084 67.0511C41.4717 66.5701 41.7353 65.9198 41.7428 65.2395V58.2357C41.7428 57.4419 41.439 56.6806 40.8984 56.1193C40.3577 55.558 39.6245 55.2426 38.8599 55.2426L17.3247 55.7813C17.3247 55.7813 11.4147 63.4437 11.1553 67.8136Z" fill="#E5F4F9" stroke="#0A0A0A" stroke-width="0.1" stroke-miterlimit="10"/>
<path d="M69.1877 74.6079C60.7891 74.737 52.7649 78.238 46.7987 84.3765C40.8325 90.5149 37.3881 98.8138 37.1877 107.532L101.216 107.382C100.972 98.6877 97.5055 90.4264 91.5385 84.3205C85.5715 78.2146 77.5648 74.7353 69.1877 74.6079Z" fill="#3F3A3A" stroke="#0A0A0A" stroke-width="0.1" stroke-miterlimit="10"/>
<path d="M69.1877 85.3232C63.469 85.4107 58.0004 87.7718 53.9083 91.9202C49.8161 96.0685 47.4121 101.688 47.1913 107.622H91.1841C90.9702 101.686 88.5685 96.0619 84.4748 91.912C80.3812 87.7622 74.9085 85.4035 69.1877 85.3232Z" fill="#777575" stroke="#0A0A0A" stroke-width="0.1" stroke-miterlimit="10"/>
<path d="M0.575189 83.8266H15.6238C15.6238 83.8266 18.8815 84.2457 19.141 87.0292C19.2846 89.2816 19.2846 91.5413 19.141 93.7936C19.065 94.3331 18.8048 94.8263 18.4079 95.1834C18.0111 95.5405 17.504 95.7377 16.9788 95.7391H0.114005C-0.0551657 91.7619 0.0990578 87.7769 0.575189 83.8266Z" fill="#FCDE81" stroke="#0A0A0A" stroke-width="0.1" stroke-miterlimit="10"/>
<path d="M69.2166 104.748C68.6108 104.734 68.0144 104.905 67.5017 105.24C66.989 105.576 66.5828 106.061 66.3337 106.634H71.9265C71.6925 106.086 71.3138 105.618 70.8342 105.284C70.3546 104.951 69.7938 104.765 69.2166 104.748Z" fill="#222323" stroke="#222323" stroke-width="0.75" stroke-miterlimit="10"/>
<path d="M69.1877 91.8182L69.3895 103.222" stroke="#222323" stroke-width="0.25" stroke-miterlimit="10"/>
<path d="M57.8292 96.4874L65.1517 104.988" stroke="#222323" stroke-width="0.25" stroke-miterlimit="10"/>
<path d="M73.7139 105.137L80.6904 96.3378" stroke="#222323" stroke-width="0.25" stroke-miterlimit="10"/>
</g>
<defs>
<linearGradient id="paint0_linear_335_2211" x1="60.7408" y1="51.3217" x2="160.356" y2="4.89679" gradientUnits="userSpaceOnUse">
<stop stop-color="#65C8D0"/>
<stop offset="0.06" stop-color="#72CDD4"/>
<stop offset="0.29" stop-color="#A4DFE3"/>
<stop offset="0.5" stop-color="#CCEDEF"/>
<stop offset="0.7" stop-color="#E8F7F8"/>
<stop offset="0.87" stop-color="#F9FDFD"/>
<stop offset="1" stop-color="white"/>
</linearGradient>
<linearGradient id="paint1_linear_335_2211" x1="146.132" y1="79.8159" x2="147.903" y2="-19.7919" gradientUnits="userSpaceOnUse">
<stop stop-color="#65C8D0"/>
<stop offset="0.04" stop-color="#71CCD4"/>
<stop offset="0.2" stop-color="#9CDCE1"/>
<stop offset="0.36" stop-color="#C0E8EC"/>
<stop offset="0.51" stop-color="#DCF2F4"/>
<stop offset="0.67" stop-color="#EFF9FA"/>
<stop offset="0.84" stop-color="#FBFEFE"/>
<stop offset="1" stop-color="white"/>
</linearGradient>
<clipPath id="clip0_335_2211">
<rect width="176" height="117" fill="white"/>
</clipPath>
</defs>
</svg>
