<svg width="180" height="315" viewBox="0 0 180 315" fill="none" xmlns="http://www.w3.org/2000/svg">
<path d="M42.1934 97.7232C42.1934 97.7232 36.3573 129.112 58.2556 134.956L62.6113 156.127L51.6578 254.674C51.6578 254.674 -19.1544 288.253 59.6847 309.441C150.393 333.796 180.138 264.181 86.7003 249.582L80.1282 172.934L83.7737 94.8223L42.1934 97.7232Z" fill="#CCCCCC"/>
<path d="M107.307 137.549C107.307 137.549 106.391 144.394 121.991 160.029C137.591 175.663 89.8753 200.856 77.9463 184.802C66.0173 168.749 38.9504 127.939 85.7164 107.726C85.7164 107.726 90.7909 132.5 107.307 137.549Z" fill="white"/>
<path d="M86.6573 102.677C86.6573 102.677 57.297 92.1261 53.1723 97.6285C49.0477 103.131 30.23 101.762 29.3144 77.9465C28.3987 54.1313 57.7591 22.4348 83.9104 25.6438C110.062 28.8528 116.026 49.459 113.271 73.3169C113.271 73.3169 90.3285 73.317 86.6573 102.677Z" fill="white"/>
<path d="M129.359 132.038C129.359 132.038 175.697 156.854 165.146 89.8327C154.594 22.8114 123.369 54.5079 123.369 54.5079C123.369 54.5079 120.151 76.526 113.271 73.3341C113.271 73.317 148.596 94.4195 129.359 132.038Z" fill="white"/>
<path d="M98.2098 195.645C116.942 195.645 134.887 186.702 148.75 170.477C163.023 153.765 171.709 130.985 173.19 106.297C174.713 81.1554 166.386 56.6214 150.358 39.0275C136.786 24.1205 119.509 15.9225 101.71 15.9225C85.0486 15.9225 68.7553 23.3846 55.8422 36.9309C39.1468 54.4393 29.8193 79.9317 30.2471 106.862C30.6408 131.738 37.8632 154.484 50.5795 170.905C56.2653 178.434 63.5028 184.653 71.8017 189.141C79.9349 193.45 89.006 195.684 98.2098 195.645Z" stroke="#999999" stroke-width="2.18" stroke-miterlimit="10"/>
<path d="M104.277 173.207C118.602 173.207 132.328 166.421 142.931 154.098C153.85 141.416 160.491 124.147 161.629 105.398C162.793 86.2808 156.426 67.66 144.163 54.2934C133.783 42.9805 120.57 36.7507 106.956 36.7507C94.2137 36.7507 81.7542 42.4157 71.8704 52.7017C59.1028 65.9998 51.966 85.3481 52.2912 105.757C52.5992 124.644 58.1187 141.921 67.8485 154.389C72.2161 160.111 77.7606 164.83 84.1075 168.226C90.3239 171.507 97.2484 173.217 104.277 173.207V173.207Z" stroke="#999999" stroke-width="1.66" stroke-miterlimit="10"/>
<path d="M102.326 83.6889C102.326 83.6889 64.2202 4.7557 50.5198 10.7459" stroke="#999999" stroke-width="1.88" stroke-miterlimit="10"/>
<path d="M105.321 81.575C105.321 81.575 80.9156 3.00122 67.3864 5.26892" stroke="#999999" stroke-width="1.88" stroke-miterlimit="10"/>
<path d="M108.539 80.2145C108.539 80.2145 96.4901 4.83262 83.7225 4.05389" stroke="#999999" stroke-width="1.88" stroke-miterlimit="10"/>
<path d="M111.85 79.6238C111.85 79.6238 110.995 6.36411 99.0143 3.06952" stroke="#999999" stroke-width="1.96" stroke-miterlimit="10"/>
<path d="M116.411 79.2045C116.411 79.2045 125.166 11.3702 113.545 5.89343" stroke="#999999" stroke-width="2.06" stroke-miterlimit="10"/>
<path d="M120.006 80.1204C120.006 80.1204 137.172 20.3814 127.074 13.4156" stroke="#999999" stroke-width="2.06" stroke-miterlimit="10"/>
<path d="M123.369 81.7286C123.369 81.7286 148.587 28.4332 139.628 20.1155" stroke="#999999" stroke-width="2.15" stroke-miterlimit="10"/>
<path d="M125.987 84.296C125.987 84.296 155.33 36.0409 148.185 25.986" stroke="#999999" stroke-width="2.21" stroke-miterlimit="10"/>
<path d="M128.742 87.5139C128.742 87.5139 162.929 48.2184 156.956 37.2307" stroke="#999999" stroke-width="2.27" stroke-miterlimit="10"/>
<path d="M131.07 91.228C131.07 91.228 168.218 62.1329 163.546 50.7516" stroke="#999999" stroke-width="2.27" stroke-miterlimit="10"/>
<path d="M132.893 95.3439C132.893 95.3439 172.009 76.3636 168.56 64.6143" stroke="#999999" stroke-width="2.27" stroke-miterlimit="10"/>
<path d="M134.22 99.7599C134.22 99.7599 174.396 90.6634 172.146 78.7686" stroke="#999999" stroke-width="2.27" stroke-miterlimit="10"/>
<path d="M135.015 104.354C135.015 104.354 175.44 104.996 174.285 92.9987" stroke="#999999" stroke-width="2.27" stroke-miterlimit="10"/>
<path d="M135.264 109.044C135.264 109.044 175.167 119.313 175.115 107.239" stroke="#999999" stroke-width="2.27" stroke-miterlimit="10"/>
<path d="M134.981 113.708C134.981 113.708 173.575 133.441 174.644 121.409" stroke="#999999" stroke-width="2.27" stroke-miterlimit="10"/>
<path d="M134.151 118.243C134.151 118.243 170.639 147.407 172.847 135.469" stroke="#999999" stroke-width="2.27" stroke-miterlimit="10"/>
<path d="M132.782 122.556C132.782 122.556 166.292 161.064 169.698 149.307" stroke="#999999" stroke-width="2.27" stroke-miterlimit="10"/>
<path d="M130.591 126.544C130.591 126.544 158.129 168.108 162.476 158.104" stroke="#999999" stroke-width="2.04" stroke-miterlimit="10"/>
<path d="M128.426 129.65C128.426 129.65 151.274 179.12 156.888 169.485" stroke="#999999" stroke-width="2.04" stroke-miterlimit="10"/>
<path d="M125.85 132.218C125.85 132.218 142.854 189.329 149.811 180.242" stroke="#999999" stroke-width="2.04" stroke-miterlimit="10"/>
<path d="M122.701 135.401C122.701 135.401 133.278 195.02 142.383 187.319" stroke="#999999" stroke-width="2.04" stroke-miterlimit="10"/>
<path d="M119.253 136.727C119.253 136.727 120.562 202.268 131.301 195.602" stroke="#999999" stroke-width="2.04" stroke-miterlimit="10"/>
<path d="M115.564 137.968C115.564 137.968 107.195 209.363 117.378 203.989" stroke="#999999" stroke-width="1.86" stroke-miterlimit="10"/>
<path d="M111.748 137.352C111.748 137.352 89.4216 210.843 103.575 207.523" stroke="#999999" stroke-width="2.04" stroke-miterlimit="10"/>
<path d="M107.922 136.59C107.922 136.59 71.2882 210.928 86.9653 210.184" stroke="#999999" stroke-width="2.04" stroke-miterlimit="10"/>
<path d="M104.209 135.042C104.209 135.042 52.0086 207.206 68.8238 209.628" stroke="#999999" stroke-width="2.04" stroke-miterlimit="10"/>
<path d="M100.734 130.061C100.734 130.061 43.8531 198.879 58.1953 205.366" stroke="#999999" stroke-width="1.9" stroke-miterlimit="10"/>
<path d="M98.1671 126.946C98.1671 126.946 28.3646 185.136 42.1933 196.073" stroke="#999999" stroke-width="1.9" stroke-miterlimit="10"/>
<path d="M95.9849 123.207C95.9849 123.207 14.9465 166.327 27.1408 181.679" stroke="#999999" stroke-width="1.9" stroke-miterlimit="10"/>
<path d="M94.4192 118.945C94.4192 118.945 5.17433 143 14.4933 162.263" stroke="#999999" stroke-width="1.9" stroke-miterlimit="10"/>
<path d="M91.9629 113.435C91.9629 113.435 1.85375 116.259 7.04807 142.487" stroke="#999999" stroke-width="2.04" stroke-miterlimit="10"/>
<path d="M91.6379 107.718C91.6379 107.718 2.31607 83.8857 3.06912 111.141" stroke="#999999" stroke-width="2.04" stroke-miterlimit="10"/>
<path d="M91.9629 102.018C91.9629 102.018 8.10062 53.2925 4.35249 79.3326" stroke="#999999" stroke-width="2.04" stroke-miterlimit="10"/>
<path d="M94.0427 96.5675C94.0427 96.5675 19.5422 39.5754 11.9603 58.1705" stroke="#999999" stroke-width="1.84" stroke-miterlimit="10"/>
<path d="M95.5996 92.4856C95.5996 92.4856 33.0794 22.7772 22.6394 37.5216" stroke="#999999" stroke-width="1.84" stroke-miterlimit="10"/>
<path d="M97.6966 88.9256C97.6966 88.9256 48.5174 11.2845 36.3573 21.6818" stroke="#999999" stroke-width="1.84" stroke-miterlimit="10"/>
<path d="M2.01651 107.478C2.95782 165.035 37.5211 210.372 85.8788 210.372C134.237 210.372 173.635 165.035 177.212 107.478C180.831 49.3394 137.993 2 89.6184 2C41.2435 2 1.06664 49.211 2.01651 107.478Z" stroke="#999999" stroke-width="3.65" stroke-miterlimit="10"/>
<path d="M109.54 140.749C94.6245 140.749 82.533 126.37 82.533 108.633C82.533 90.8961 94.6245 76.5173 109.54 76.5173C124.456 76.5173 136.547 90.8961 136.547 108.633C136.547 126.37 124.456 140.749 109.54 140.749Z" fill="#CCCCCC"/>
</svg>
