<svg width="113" height="159" viewBox="0 0 113 159" fill="none" xmlns="http://www.w3.org/2000/svg">
<g filter="url(#filter0_d_113_861)">
<path d="M84.8798 48.571C82.7646 46.5083 80.5184 44.5842 78.1553 42.8107C74.3345 39.995 70.2957 37.4876 66.0771 35.3121L63.6764 34.0782C49.0203 34.7599 39.5473 34.7599 24.9116 34.7599C24.7752 35.0803 21.8972 40.6634 19.026 47.6166C41.1637 46.6418 62.7557 50.0435 84.8798 48.571Z" fill="#FBFBF2"/>
<path d="M102.319 82.8261C101.718 78.5928 100.511 72.4371 98.5061 68.197C96.3071 63.541 93.6864 59.096 90.6768 54.9176C88.891 52.5084 86.9087 50.2511 84.7502 48.1688C62.6807 49.6481 41.1569 46.2396 19.0806 47.194C18.4327 48.7755 17.7848 50.4184 17.1641 52.0954C13.72 61.4618 10.2146 72.8189 10.0168 84.3668C9.819 95.9146 11.4149 113.625 12.4242 120.94C13.4336 128.254 16.2366 142.304 17.4369 143.845C18.6372 145.385 91.6862 145.385 93.4866 143.845C95.2871 142.304 96.6988 140.572 97.906 134.219C99.1131 127.866 101.145 117.667 102.319 108.621C103.492 99.5753 102.919 87.0594 102.319 82.8261ZM86.4007 100.721C84.6684 100.939 83.1203 99.1936 83.0384 97.4553C82.7936 91.6595 81.5117 85.9544 79.2533 80.6106C77.9712 77.5021 76.2116 74.8435 74.643 71.9258C72.0855 67.154 69.187 57.5217 77.6029 57.6512C77.9924 57.6564 78.3779 57.7303 78.7418 57.8693C81.8517 58.367 84.1296 62.0958 85.9165 64.4545C90.5765 70.5842 93.3918 77.9149 94.0322 85.587C94.6051 91.9063 93.5412 99.8344 86.4007 100.721Z" fill="#FBF7C6"/>
<path d="M62.9604 27.6907L62.5989 6.85136C62.5989 6.85136 32.0863 4.9358 25.6891 6.85136V27.4862C37.9242 27.9634 50.6571 26.5523 62.9604 27.6907Z" fill="#EE825E"/>
<path d="M34.0982 16.845V27.6907L48.9862 27.2476C48.9862 27.2476 49.0817 19.749 45.7876 16.845H34.0982Z" fill="#933E21"/>
<path d="M30.5927 6.08785L31.1724 27.5817L25.7164 27.5271V6.7491C26.9031 6.00605 30.5927 6.08785 30.5927 6.08785Z" fill="#8D381E"/>
<path d="M63.5332 34.1327C63.9476 33.1216 64.1143 32.0262 64.0194 30.9377C63.9245 29.8491 63.5708 28.799 62.9876 27.8748V27.6907C50.7117 26.5523 37.9514 27.9634 25.7164 27.4862V27.5271C25.7164 27.5271 24.441 32.224 24.441 34.8281C37.7332 34.8281 50.432 34.8281 63.7447 34.2145L63.5332 34.1327Z" fill="#FFFFFD"/>
<path d="M72.3992 85.1507C70.8647 81.3059 64.1743 66.2746 61.4872 63.2002C58.8002 60.1257 52.0756 54.195 48.5293 53.0566C41.3683 50.7524 34.8006 51.6932 29.14 57.2081C24.0591 62.1844 18.078 71.4418 16.9254 81.5718C15.7933 91.5177 15.5887 98.0415 18.5213 104.306L76.9959 104.402C76.8117 100.38 73.9201 89.0023 72.3992 85.1507Z" fill="url(#paint0_linear_113_861)"/>
<path d="M77.0027 104.402L18.5213 104.306C18.5622 104.402 18.6031 104.497 18.6509 104.593C21.7335 110.946 24.6184 116.331 27.701 118.84C30.7836 121.349 36.3692 125.377 40.7954 126.918C45.2216 128.459 49.8864 129.999 55.4515 129.808C61.0167 129.618 67.0455 128.65 70.0941 127.307C73.1426 125.964 75.0726 124.805 75.8433 122.685C76.614 120.565 77.2073 108.444 76.9959 104.402L77.0027 104.402Z" fill="#FFFFFD"/>
<path d="M61.2554 76.6091C61.2536 81.7552 59.2071 86.6899 55.566 90.3281C51.9249 93.9663 46.9873 96.0101 41.8389 96.0101C36.6911 96.0101 31.7541 93.966 28.1141 90.3277C24.4741 86.6893 22.4292 81.7545 22.4292 76.6091C22.4274 74.0619 22.9277 71.5394 23.9017 69.1857C24.8756 66.8319 26.304 64.6931 28.1053 62.8913C29.9066 61.0896 32.0454 59.6603 34.3995 58.6852C36.7536 57.71 39.2769 57.2081 41.8252 57.2081C46.9754 57.2063 51.9155 59.2491 55.5592 62.8873C59.2028 66.5255 61.2518 71.4612 61.2554 76.6091Z" fill="#FCEE23"/>
<path d="M57.4498 76.65C57.4444 80.7758 55.8009 84.7308 52.8802 87.6463C49.9596 90.5618 46.0006 92.1994 41.8729 92.1994C37.7393 92.2012 33.7741 90.5621 30.8492 87.6423C27.9244 84.7226 26.2793 80.7614 26.2756 76.6295C26.2738 74.5837 26.6754 72.5576 27.4574 70.667C28.2394 68.7764 29.3865 67.0584 30.8332 65.6111C32.2798 64.1639 33.9976 63.0158 35.8883 62.2325C37.7791 61.4492 39.8058 61.046 41.8525 61.046C43.9017 61.0469 45.9306 61.4512 47.8234 62.2359C49.7163 63.0205 51.4359 64.1702 52.8843 65.6191C54.3326 67.0681 55.4813 68.788 56.2646 70.6807C57.048 72.5734 57.4507 74.6017 57.4498 76.65Z" fill="#F04F25"/>
<path d="M53.1191 76.65C53.1155 79.635 51.9271 82.4966 49.8148 84.6067C47.7025 86.7168 44.8388 87.9029 41.8525 87.9047C38.8662 87.9047 36.0022 86.719 33.8906 84.6083C31.779 82.4976 30.5927 79.6349 30.5927 76.65C30.5927 73.6638 31.7785 70.7997 33.8898 68.6868C36.001 66.574 38.8649 65.3852 41.8525 65.3816C43.3329 65.3807 44.7989 65.6716 46.1667 66.2376C47.5345 66.8037 48.7771 67.6338 49.8236 68.6804C50.8701 69.7271 51.6998 70.9697 52.2653 72.3372C52.8307 73.7047 53.1209 75.1703 53.1191 76.65Z" fill="#FCEE23"/>
<path d="M43.7553 76.6091C43.7553 77.1244 43.5505 77.6185 43.186 77.9829C42.8215 78.3472 42.3271 78.5519 41.8116 78.5519C41.2972 78.5501 40.8046 78.3446 40.4416 77.9805C40.0785 77.6163 39.8747 77.1232 39.8747 76.6091C39.8747 76.095 40.0785 75.6018 40.4416 75.2377C40.8046 74.8735 41.2972 74.6681 41.8116 74.6662C42.3271 74.6662 42.8215 74.8709 43.186 75.2353C43.5505 75.5996 43.7553 76.0938 43.7553 76.6091Z" fill="#66BAE9"/>
<path d="M43.3938 76.6159C43.3938 77.0281 43.23 77.4234 42.9384 77.7149C42.6468 78.0064 42.2513 78.1702 41.8389 78.1702C41.4258 78.1702 41.0296 78.0066 40.7369 77.7153C40.4442 77.424 40.2789 77.0287 40.2771 76.6159C40.2771 76.2019 40.4416 75.8048 40.7345 75.512C41.0274 75.2193 41.4246 75.0548 41.8389 75.0548C42.0436 75.0548 42.2464 75.0952 42.4355 75.1738C42.6246 75.2523 42.7963 75.3674 42.9408 75.5125C43.0853 75.6575 43.1997 75.8296 43.2774 76.019C43.3551 76.2084 43.3947 76.4112 43.3938 76.6159Z" fill="white"/>
<path d="M42.9641 76.6159C42.9641 76.9142 42.8456 77.2003 42.6345 77.4112C42.4235 77.6222 42.1373 77.7407 41.8389 77.7407C41.6911 77.7407 41.5447 77.7116 41.4082 77.6551C41.2717 77.5985 41.1476 77.5157 41.0431 77.4112C40.9387 77.3068 40.8558 77.1828 40.7992 77.0463C40.7426 76.9099 40.7136 76.7636 40.7136 76.6159C40.7127 76.4676 40.7411 76.3206 40.7972 76.1834C40.8534 76.0461 40.9361 75.9213 41.0407 75.8161C41.1453 75.711 41.2697 75.6275 41.4066 75.5705C41.5436 75.5136 41.6905 75.4843 41.8389 75.4843C41.9872 75.4843 42.1341 75.5136 42.2711 75.5705C42.408 75.6275 42.5324 75.711 42.637 75.8161C42.7416 75.9213 42.8243 76.0461 42.8805 76.1834C42.9366 76.3206 42.965 76.4676 42.9641 76.6159Z" fill="#66BAE9"/>
<path d="M58.0772 71.8781C57.5794 71.1964 56.6791 70.8692 55.4038 70.8692C54.9797 70.8721 54.5562 70.8994 54.1353 70.951C52.4576 71.1623 50.9504 71.4623 49.8182 72.6143L51.8642 66.1246L48.8089 66.6223C47.6563 66.8063 46.4969 67.304 45.8081 69.4172L44.8533 72.4916L42.5959 72.8598C41.7814 72.9846 41.0131 73.3181 40.3657 73.8278C40.4561 73.5132 40.4747 73.1824 40.4203 72.8598C40.3388 72.3098 40.0601 71.8083 39.636 71.4487L39.9361 71.3941C40.6458 71.2661 41.3106 70.9573 41.8661 70.4976C42.4216 70.0378 42.8491 69.4427 43.1074 68.7696L44.0213 65.8929L27.9738 68.5037C27.6036 68.535 27.2533 68.6844 26.9745 68.9299C26.6957 69.1754 26.5033 69.504 26.4257 69.8671L25.1776 73.8619L31.1656 72.8666L25.9073 90.1134L29.1332 89.6294C29.7881 89.491 30.3965 89.1871 30.9003 88.7468C31.4042 88.3064 31.7867 87.7442 32.0112 87.114L32.1886 86.5005L36.5738 85.7438L37.2558 83.5964C37.3569 83.9147 37.5322 84.2045 37.7673 84.4417C38.0396 84.6981 38.3618 84.8958 38.7137 85.0224C39.0657 85.1491 39.44 85.202 39.8133 85.178C40.1152 85.1772 40.4165 85.1498 40.7136 85.0962L46.2036 84.21L46.8311 82.2194C46.9044 82.3986 46.9958 82.5699 47.1039 82.7307C47.6154 83.4124 48.502 83.7396 49.8319 83.7396C50.336 83.7324 50.8392 83.696 51.3391 83.6305C54.9059 83.1738 55.9562 81.8036 56.7473 79.2745L57.0542 78.286H57.1088L58.3228 74.4617C58.4962 74.0438 58.5645 73.5898 58.5217 73.1394C58.4789 72.689 58.3263 72.2559 58.0772 71.8781Z" fill="white"/>
<path d="M54.6127 84.2304C54.6061 84.1647 54.6061 84.0984 54.6127 84.0327C54.6127 83.8964 54.6127 83.8418 54.5172 83.8146C54.5558 83.799 54.5891 83.7728 54.6133 83.739C54.6374 83.7052 54.6514 83.6652 54.6536 83.6237C54.6538 83.5899 54.6469 83.5565 54.6332 83.5256C54.6196 83.4947 54.5995 83.4671 54.5743 83.4446C54.5492 83.422 54.5196 83.4051 54.4874 83.3948C54.4552 83.3846 54.4212 83.3812 54.3876 83.3851H53.9852V84.2849H54.1626V83.8964H54.2853C54.3399 83.8964 54.3945 83.8964 54.3945 83.9782V84.0736C54.3789 84.1432 54.3789 84.2154 54.3945 84.2849H54.5786L54.6127 84.2304ZM54.4627 83.6101C54.4627 83.6415 54.4507 83.6717 54.4291 83.6945C54.4076 83.7173 54.3781 83.731 54.3467 83.7328H54.183V83.4942H54.3467C54.3622 83.4932 54.3777 83.4955 54.3922 83.501C54.4067 83.5064 54.4199 83.5149 54.4309 83.5259C54.4419 83.5369 54.4504 83.55 54.4559 83.5646C54.4613 83.5791 54.4637 83.5946 54.4627 83.6101Z" fill="#08509C"/>
<path d="M54.3058 84.6326C54.0887 84.6324 53.8804 84.5467 53.7261 84.394C53.5752 84.2391 53.4919 84.0308 53.4942 83.8146C53.4933 83.5987 53.5765 83.3909 53.7261 83.2351C53.8016 83.1583 53.8919 83.0976 53.9915 83.0565C54.0911 83.0155 54.1981 82.9951 54.3058 82.9965C54.4136 82.9943 54.5208 83.0144 54.6205 83.0554C54.7203 83.0965 54.8105 83.1577 54.8855 83.2351C54.963 83.3101 55.0242 83.4003 55.0653 83.5C55.1064 83.5997 55.1264 83.7068 55.1242 83.8146C55.1207 84.0304 55.0333 84.2365 54.8806 84.3891C54.7279 84.5418 54.5218 84.6291 54.3058 84.6326ZM54.3058 83.1397C54.1255 83.1368 53.9514 83.2055 53.8216 83.3306C53.6964 83.4603 53.6278 83.6343 53.6306 83.8146C53.6278 83.9948 53.6964 84.1688 53.8216 84.2986C53.8847 84.363 53.9601 84.4142 54.0432 84.4493C54.1263 84.4844 54.2156 84.5027 54.3058 84.5031C54.4867 84.5031 54.6601 84.4313 54.788 84.3034C54.9159 84.1756 54.9878 84.0022 54.9878 83.8214C54.984 83.6412 54.9135 83.4688 54.79 83.3374C54.7263 83.2742 54.6507 83.2242 54.5676 83.1903C54.4845 83.1564 54.3955 83.1392 54.3058 83.1397Z" fill="#08509C"/>
<path d="M48.8566 67.3858C47.9018 67.5357 47.0698 67.8698 46.5037 69.6285L45.4125 73.1802L42.63 73.6369C42.0969 73.7054 41.5871 73.8968 41.1409 74.1961C40.6947 74.4955 40.3242 74.8945 40.0588 75.3616C39.0023 77.6314 38.2523 80.0315 37.8287 82.4989C37.8287 84.2168 39.2268 84.4349 40.4885 84.2168L45.4944 83.4124L50.6298 67.1063L48.8566 67.3858ZM42.8414 81.3537C42.4529 81.4873 42.0451 81.5564 41.6343 81.5582C41.4842 81.4491 41.3683 81.4491 41.416 81.0878L42.855 76.65C43.0323 76.3159 43.1278 76.0978 43.6666 76.0433L44.5396 75.9206L42.8414 81.3537Z" fill="#08509C"/>
<path d="M54.183 71.7486C52.0211 72.0281 50.6162 72.4303 49.6614 74.0459C48.7066 75.6615 48.3724 77.1135 47.5676 79.8948C46.7629 82.6761 48.386 83.1124 51.1413 82.7716C54.374 82.3558 55.1788 81.2241 55.8812 78.9677L55.9699 78.7019L52.6895 79.2404V79.2745C52.631 79.534 52.484 79.765 52.2737 79.928C52.0634 80.0909 51.8029 80.1756 51.5369 80.1675C50.7253 80.2834 50.8071 79.8539 50.9708 79.2881L51.2777 78.3065L56.3995 77.4885L57.4635 74.1277C57.8795 72.7371 57.6681 71.285 54.183 71.7486ZM54.033 75.0139L53.767 75.8524L51.9529 76.1319L52.2462 75.2321C52.3826 74.789 52.6213 74.489 53.351 74.4004C54.0807 74.3118 54.1694 74.5504 54.033 74.9935V75.0139Z" fill="#08509C"/>
<path d="M35.8782 71.2032L31.1042 86.814C30.9258 87.3025 30.6275 87.7382 30.2366 88.0813C29.8457 88.4244 29.3748 88.6637 28.8672 88.7773L26.9303 89.0704L32.2022 71.7963L26.2211 72.7916L27.0804 70.0648C27.1194 69.8527 27.2301 69.6605 27.394 69.5202C27.5579 69.38 27.765 69.3003 27.9806 69.2945L42.7391 66.8881L42.2276 68.5037C42.0168 69.0313 41.6774 69.4979 41.2403 69.861C40.8032 70.2242 40.2822 70.4723 39.7246 70.5829L35.8782 71.2032Z" fill="#08509C"/>
<path d="M39.5473 73.0302C39.451 72.5979 39.1876 72.2213 38.8145 71.9825C38.4414 71.7436 37.989 71.662 37.5559 71.7554C37.1153 71.7969 36.7089 72.0108 36.4253 72.3505C36.1418 72.6901 36.0039 73.128 36.0419 73.5687C36.1396 74.0012 36.4047 74.3773 36.7792 74.6149C37.1536 74.8526 37.607 74.9323 38.0401 74.8367C38.4775 74.7917 38.88 74.5777 39.1616 74.2401C39.4433 73.9026 39.5817 73.4684 39.5473 73.0302Z" fill="#08509C"/>
<path d="M38.9063 75.2661L35.8509 84.9462L32.3795 85.5597L35.4349 75.8933L38.9063 75.2661Z" fill="#08509C"/>
</g>
<defs>
<filter id="filter0_d_113_861" x="0" y="0" width="113" height="159" filterUnits="userSpaceOnUse" color-interpolation-filters="sRGB">
<feFlood flood-opacity="0" result="BackgroundImageFix"/>
<feColorMatrix in="SourceAlpha" type="matrix" values="0 0 0 0 0 0 0 0 0 0 0 0 0 0 0 0 0 0 127 0" result="hardAlpha"/>
<feOffset dy="4"/>
<feGaussianBlur stdDeviation="5"/>
<feComposite in2="hardAlpha" operator="out"/>
<feColorMatrix type="matrix" values="0 0 0 0 0 0 0 0 0 0 0 0 0 0 0 0 0 0 0.25 0"/>
<feBlend mode="normal" in2="BackgroundImageFix" result="effect1_dropShadow_113_861"/>
<feBlend mode="normal" in="SourceGraphic" in2="effect1_dropShadow_113_861" result="shape"/>
</filter>
<linearGradient id="paint0_linear_113_861" x1="9.99234" y1="75.483" x2="103.01" y2="75.483" gradientUnits="userSpaceOnUse">
<stop stop-color="#C2D82E"/>
<stop offset="0.15" stop-color="#B2CD2F"/>
<stop offset="0.44" stop-color="#87AF31"/>
<stop offset="0.84" stop-color="#448035"/>
<stop offset="1" stop-color="#276C36"/>
</linearGradient>
</defs>
</svg>
