<svg width="194" height="186" viewBox="0 0 194 186" fill="none" xmlns="http://www.w3.org/2000/svg">
<g clip-path="url(#clip0_334_5114)">
<path d="M8.48584 62.1705L34.7662 160.83C34.7662 160.83 52.21 187.629 89.0673 185.919C125.925 184.21 140.225 175.663 146.229 168.247C152.232 160.83 175.086 70.1656 174.56 65.3201C174.033 60.4746 148.225 23.6891 108.508 24.2544C68.7904 24.8197 29.9095 19.0994 8.48584 62.1705Z" fill="#E8E8E8"/>
<path d="M89.5261 134.045H100.319V103.532C100.319 103.532 94.9225 95.5506 89.5261 103.532V134.045Z" fill="#B7B6B4"/>
<path d="M62.1664 131.69L72.7433 132.969L70.0451 101.823C70.0451 101.823 64.3384 93.8412 58.915 101.823L62.1664 131.69Z" fill="#6666AD"/>
<path d="M35.3327 121.689L44.8573 126.629L38.8943 95.6718C38.8943 95.6718 35.0359 86.9364 29.6125 94.918L35.3327 121.689Z" fill="#F27F9F"/>
<path d="M89.5261 145.836H100.319V174.802C100.319 174.802 94.9225 182.393 89.5261 174.802V145.836Z" fill="#427DAA"/>
<path d="M115.874 144.961L126.869 143.306L124.683 169.754C124.683 169.754 119.058 179.674 113.634 171.49L115.874 144.961Z" fill="#3985B5"/>
<path d="M140.684 137.989L150.788 134.045L143.261 163.657C143.261 163.657 139.834 170.669 134.397 163.092L140.684 137.989Z" fill="#B7B6B4"/>
<path d="M117.048 133.669L127.908 130.667L130.417 101.513C130.417 101.513 126.248 95.3084 120.515 103.223L117.048 133.669Z" fill="#F9D243"/>
<path d="M143.26 126.629L154.121 121.501L159.827 96.1294C159.827 96.1294 156.401 88.1343 150.977 96.1294L143.26 126.629Z" fill="#5EC1B9"/>
<path d="M37.6938 134.045L48.7969 139.779L54.0989 164.007C54.0989 164.007 49.8492 172.325 44.1021 164.411L37.6938 134.045Z" fill="#897330"/>
<path d="M63.9067 143.306L74.4567 144.907L76.2645 172.244C76.2645 172.244 71.2323 178.866 65.7955 170.494L63.9067 143.306Z" fill="#8B9193"/>
<path d="M45.8828 84.1098C62.9676 84.1098 76.8175 75.5829 76.8175 65.0643C76.8175 54.5458 62.9676 46.0188 45.8828 46.0188C28.798 46.0188 14.948 54.5458 14.948 65.0643C14.948 75.5829 28.798 84.1098 45.8828 84.1098Z" fill="#D49E71"/>
<path d="M100.548 22.5047C92.2378 10.1082 90.0522 13.5674 77.762 8.15658C66.1597 3.05534 69.8023 -0.72684 56.3383 0.0807439C50.7531 1.3325 45.3027 2.77269 42.2268 7.83355C38.3414 13.2174 35.2385 18.6686 30.5976 20.2165C22.4625 23.393 13.7743 26.0176 7.46058 31.4554C6.96449 34.0157 6.69364 36.6143 6.65112 39.2216C25.7813 30.6478 45.6535 41.9136 65.5257 38.0372C78.504 35.8836 92.8179 35.0626 102.869 26.233C102.262 25.1024 101.52 23.8775 100.548 22.5047Z" fill="#F9D243"/>
<path d="M42.2806 7.87396C45.3565 2.75926 50.8069 1.37291 56.3922 0.121155C55.5827 0.121155 54.7328 0.22883 53.7884 0.323048C37.208 1.81708 32.3782 14.1597 29.6126 19.2744C26.847 24.389 13.2211 21.078 9.79438 25.5735C8.61429 27.3506 7.81933 29.354 7.46045 31.4554C13.7607 26.0715 21.0998 26.4215 29.2753 23.2853C33.9432 21.7913 38.3952 13.2982 42.2806 7.87396Z" fill="#F7C743"/>
<path d="M102.882 26.233C92.8313 35.0626 78.5174 35.8836 65.5391 38.0372C45.6669 41.8597 25.7947 30.6478 6.66455 39.2216C6.66455 40.258 6.66455 40.9041 6.66455 40.9041L60.0078 51.12L99.199 37.418C99.199 37.418 109.682 38.7371 102.882 26.233Z" fill="#F9D243"/>
<path d="M174.533 72.8171C173.264 76.7743 171.524 80.0988 168.637 81.7409C162.634 85.1732 153.433 86.2499 150.788 87.1248C145.392 88.8207 129.311 90.5167 124.549 91.6742C115.105 93.9624 33.2013 88.8207 25.3225 83.5984C21.9633 82.0774 4.76232 70.8385 8.48582 61.336C8.48582 61.336 11.184 56.9077 17.9295 61.336C24.675 65.7642 25.7408 71.3635 43.0901 74.3919C60.4395 77.4204 50.1189 77.7165 85.0875 80.2738C120.056 82.8312 152.677 75.9398 163.335 72.4133C173.993 68.8869 174.506 72.8171 174.506 72.8171" fill="#C9C9C9"/>
<path d="M193.987 60.0573C193.474 56.0194 188.671 45.4939 185.636 41.954C180.577 34.8876 179.052 27.3098 173.993 20.2434C171.724 17.2067 169.081 14.4664 166.128 12.0868C166.533 12.7016 166.855 13.3668 167.086 14.0654C174.843 34.1742 186.472 52.7487 183.369 74.3919C182.467 80.8483 180.796 87.1743 178.391 93.2355C185.932 83.706 194.499 68.0524 193.987 60.0573Z" fill="#756328"/>
<path d="M38.3953 65.1182C30.6515 55.831 15.9194 63.5165 8.16207 58.1326C5.01867 55.6156 4.42507 49.5318 3.4807 43.5961C1.2547 46.463 -1.82124 52.3718 1.40309 60.8245C9.82145 82.9119 9.32229 68.3889 20.2904 65.024C32.9315 61.161 28.385 67.1237 39.1778 69.8291C42.8232 70.8061 46.6624 70.8061 50.3078 69.8291C45.7614 69.0753 40.8642 68.7927 38.3953 65.1182Z" fill="#4DA09A"/>
<path d="M61.4918 46.4495C61.3924 45.6417 61.2392 44.8413 61.0331 44.0537C59.2523 37.1085 53.4782 30.594 49.0802 29.1807C44.1829 27.5386 42.564 28.1308 34.4425 29.6383C26.3209 31.1458 25.7408 29.9344 18.5231 31.4419C12.6141 32.6668 7.528 38.7506 5.88211 40.8637C5.51686 41.3343 5.12498 41.7837 4.70839 42.2097C4.27497 42.6358 3.86514 43.0851 3.48071 43.5557C4.42508 49.4914 5.01868 55.5752 8.16208 58.0922C15.9194 63.4761 30.6515 55.7637 38.3953 65.0509C40.8642 68.7254 45.7614 69.008 50.3888 69.7349C54.2287 68.6829 57.6699 66.519 60.2777 63.5165C62.9893 60.2458 62.3822 54.2427 61.4918 46.4495Z" fill="#5EC1B9"/>
<path d="M175.14 65.9258C174.762 64.6875 173.494 63.8261 171.672 63.2338C171.146 67.9178 167.625 70.6771 164.765 72.1038C148.482 79.0625 142.276 90.6647 138.404 106.911C137.708 109.852 136.329 112.588 134.376 114.899C132.424 117.209 129.954 119.028 127.166 120.209C127.705 121.891 128.69 122.901 130.417 122.672C143.26 121.326 141.115 102.482 146.836 96.2909C149.493 93.4105 179.227 79.0355 175.14 65.9258Z" fill="#BE5974"/>
<path d="M138.404 106.884C142.276 90.6378 148.482 79.0355 164.765 72.0768C167.625 70.6501 171.146 67.8909 171.673 63.2069C163.511 60.4342 144.137 62.5204 141.898 57.7288C138.552 50.5413 121.662 52.4526 118.68 50.8105C108.683 45.2381 110.397 49.3434 104.393 45.1708C98.3896 40.9983 106.174 34.4031 106.174 34.4031C106.174 34.4031 94.3828 32.936 91.5362 29.4095C88.6896 25.8831 83.9003 25.6408 79.246 27.0675C61.2355 32.5995 61.5188 42.3174 60.3586 59.0344C59.1984 75.7514 60.6419 65.7642 63.8798 75.8994C67.1176 86.0346 72.0958 75.7513 84.1162 82.1447C91.4958 86.075 115.806 78.1068 123.712 87.1787C130.053 94.4604 124.98 113.385 127.152 120.195C129.944 119.015 132.418 117.194 134.373 114.882C136.328 112.569 137.709 109.829 138.404 106.884Z" fill="#F27191"/>
<path d="M167.086 14.0654C166.855 13.3668 166.533 12.7016 166.128 12.0869C163.419 9.90485 160.451 8.06489 157.291 6.60874C153.612 5.08852 149.595 4.56836 145.648 5.10125C127.948 9.13917 113.769 18.736 101.627 31.3612C97.0675 36.4086 98.0793 43.9729 100.103 50.0433C101.115 52.5602 103.138 55.5887 106.174 56.1002C112.258 56.5982 118.828 55.5887 124.899 55.5887C125.911 55.5887 126.923 54.5792 127.948 54.5792C135.53 54.0812 141.102 59.1286 147.173 63.1665C148.32 64.0981 149.742 64.6278 151.22 64.674C157.291 64.674 163.362 63.1665 169.946 64.674C170.938 64.9647 171.828 65.5276 172.515 66.2987C173.202 67.0697 173.658 68.0179 173.831 69.035L174.155 72.8306C167.032 83.1677 170.553 82.8312 168.408 91.5262C164.887 105.807 171.106 102.294 178.391 93.2356C180.796 87.1743 182.467 80.8484 183.369 74.3919C186.472 52.7487 174.843 34.1743 167.086 14.0654Z" fill="#88762F"/>
</g>
<defs>
<clipPath id="clip0_334_5114">
<rect width="194" height="186" fill="white"/>
</clipPath>
</defs>
</svg>
