<svg width="107" height="75" viewBox="0 0 107 75" fill="none" xmlns="http://www.w3.org/2000/svg">
<g clip-path="url(#clip0_335_2210)">
<path d="M72.1844 2.80286L16.2413 39.8829C16.129 39.9767 15.993 40.0426 15.8669 40.1145C14.8966 40.6672 10.1372 43.659 12.3147 47.9573C14.737 52.7377 23.3769 68.2778 23.3769 68.2778C23.3769 68.2778 26.5361 74.8933 32.1613 72.0414C32.3577 71.9394 32.5476 71.8238 32.7298 71.705L90.8904 33.6315C95.693 30.022 98.5454 28.1076 93.5736 21.094C87.03 11.8077 80.3825 2.93711 80.3825 2.93711C80.3825 2.93711 78.106 -1.12117 72.1844 2.80286Z" fill="url(#paint0_linear_335_2210)"/>
<path d="M76.4548 1.66225C77.0352 1.63175 77.6153 1.73026 78.1529 1.95061C78.6904 2.17095 79.1719 2.5076 79.5623 2.93604C80.9466 4.41474 94.1821 22.3629 94.4199 23.0123C94.6384 23.9133 94.7956 24.8277 94.8904 25.7495C93.9146 23.4343 86.057 13.3873 79.419 3.83704C79.419 3.83704 77.9984 2.02656 76.4548 1.66225Z" fill="url(#paint1_linear_335_2210)"/>
<path d="M31.5112 69.8389L92.6784 30.0894C93.1629 29.7755 93.5803 29.3698 93.9067 28.8954C94.2332 28.4209 94.4624 27.8871 94.5812 27.3244C94.7 26.7618 94.706 26.1812 94.599 25.616C94.492 25.0507 94.274 24.5118 93.9575 24.0301L79.4121 3.58575C79.0958 3.10391 78.6871 2.68863 78.2094 2.36364C77.7318 2.03865 77.1945 1.8103 76.6282 1.69165C76.0619 1.57301 75.4778 1.56638 74.9092 1.67215C74.3406 1.77792 73.7986 1.99401 73.3143 2.30808L14.5033 41.6873C13.526 42.3216 12.8426 43.316 12.6033 44.4518C12.3639 45.5876 12.5883 46.7719 13.2271 47.7442L25.411 68.5584C25.7272 69.0408 26.1358 69.4566 26.6136 69.7821C27.0913 70.1076 27.6289 70.3363 28.1954 70.4552C28.762 70.5742 29.3464 70.5809 29.9154 70.4752C30.4844 70.3694 31.0266 70.1532 31.5112 69.8389Z" fill="#1A1A1A"/>
<path d="M31.5827 68.5971L91.3316 30.0319C93.3582 28.7163 94.522 26.6863 93.1943 24.6627L90.7837 21.279C88.2366 22.9765 87.2453 22.8413 85.7179 20.7175L78.6428 10.6497C77.3341 8.85816 78.2577 8.06315 80.4091 6.69113L78.6489 4.21828C77.3208 2.19983 75.2324 2.24639 73.2034 3.55913L15.0542 42.3953C13.0252 43.708 12.5587 45.1797 13.8797 47.1898L26.0638 68.0041C27.3895 70.0197 29.5561 69.9126 31.5827 68.5971Z" fill="#333333"/>
</g>
<defs>
<linearGradient id="paint0_linear_335_2210" x1="94.9183" y1="9.38792" x2="14.9937" y2="62.7722" gradientUnits="userSpaceOnUse">
<stop stop-color="#666666"/>
<stop offset="0.37" stop-color="#626262"/>
<stop offset="0.69" stop-color="#585858"/>
<stop offset="0.89" stop-color="#4D4D4D"/>
</linearGradient>
<linearGradient id="paint1_linear_335_2210" x1="93.8811" y1="23.7005" x2="79.3541" y2="3.70909" gradientUnits="userSpaceOnUse">
<stop offset="0.47" stop-color="#CCCCCC"/>
<stop offset="0.5" stop-color="#BEBEBE"/>
<stop offset="0.56" stop-color="#ADADAD"/>
<stop offset="0.63" stop-color="#A2A2A2"/>
<stop offset="0.72" stop-color="#9B9B9B"/>
<stop offset="1" stop-color="#999999"/>
</linearGradient>
<clipPath id="clip0_335_2210">
<rect width="106.033" height="73.9598" fill="white" transform="matrix(-0.999971 0.00767116 0.00767116 0.999971 106.03 0)"/>
</clipPath>
</defs>
</svg>
