<svg width="390" height="232" viewBox="0 0 390 232" fill="none" xmlns="http://www.w3.org/2000/svg">
<path d="M0.117299 10.0223C0.0526868 6.68831 2.719 3.94125 6.05346 3.9064L373.968 0.060607C377.201 0.026805 379.88 2.5619 380.024 5.79258L389.634 220.957C389.785 224.346 387.1 227.186 383.708 227.225L10.363 231.496C7.06804 231.534 4.35926 228.907 4.29541 225.613L0.117299 10.0223Z" fill="url(#paint0_linear_312_2373)"/>
<path d="M223.749 90.7565C225.144 107.507 215.912 121.949 197.705 123.466C179.498 124.983 168.003 112.268 166.607 95.5175C165.211 78.7672 174.444 64.3249 192.651 62.8079C210.858 61.2909 222.353 74.0062 223.749 90.7565Z" fill="#F4EAD1"/>
<path d="M185.649 134.728L182.683 144.859L181.206 144.884L178.719 137.687C178.69 137.608 178.66 137.522 178.631 137.429C178.606 137.336 178.581 137.236 178.556 137.129C178.534 137.237 178.51 137.338 178.484 137.431C178.462 137.525 178.438 137.612 178.411 137.692L176.146 144.969L174.669 144.994L171.364 134.968L172.736 134.945C172.876 134.942 172.993 134.975 173.088 135.044C173.187 135.107 173.254 135.197 173.288 135.313L175.287 141.742C175.326 141.881 175.364 142.032 175.399 142.195C175.435 142.358 175.47 142.528 175.506 142.704C175.535 142.526 175.568 142.356 175.602 142.192C175.641 142.023 175.683 141.87 175.728 141.734L177.782 135.238C177.813 135.144 177.877 135.057 177.973 134.976C178.07 134.895 178.186 134.853 178.321 134.851L178.797 134.843C178.942 134.84 179.059 134.876 179.149 134.949C179.239 135.017 179.308 135.105 179.356 135.211L181.621 141.635C181.67 141.77 181.714 141.916 181.754 142.074C181.799 142.227 181.839 142.39 181.874 142.562C181.904 142.389 181.932 142.225 181.957 142.071C181.987 141.912 182.02 141.764 182.055 141.628L183.829 135.136C183.855 135.033 183.917 134.944 184.013 134.867C184.115 134.791 184.233 134.751 184.368 134.749L185.649 134.728ZM190.691 140.349C190.687 140.097 190.646 139.864 190.568 139.651C190.494 139.433 190.386 139.245 190.243 139.089C190.1 138.928 189.923 138.805 189.712 138.72C189.505 138.63 189.266 138.587 188.995 138.592C188.45 138.601 188.023 138.765 187.716 139.083C187.408 139.4 187.217 139.842 187.143 140.408L190.691 140.349ZM187.116 141.333C187.142 141.739 187.211 142.09 187.323 142.387C187.435 142.679 187.582 142.921 187.762 143.114C187.948 143.307 188.165 143.451 188.414 143.544C188.667 143.634 188.948 143.676 189.256 143.67C189.55 143.665 189.804 143.628 190.017 143.56C190.231 143.486 190.416 143.408 190.573 143.326C190.73 143.24 190.865 143.163 190.975 143.095C191.086 143.023 191.188 142.987 191.282 142.985C191.403 142.983 191.497 143.028 191.564 143.12L192 143.666C191.826 143.879 191.629 144.06 191.407 144.208C191.186 144.357 190.95 144.48 190.699 144.577C190.449 144.67 190.191 144.737 189.926 144.779C189.66 144.826 189.402 144.851 189.15 144.855C188.655 144.864 188.194 144.79 187.767 144.634C187.344 144.473 186.974 144.234 186.656 143.917C186.342 143.6 186.093 143.205 185.908 142.732C185.727 142.259 185.631 141.713 185.621 141.092C185.613 140.597 185.682 140.134 185.829 139.702C185.98 139.27 186.198 138.893 186.482 138.571C186.77 138.249 187.121 137.993 187.533 137.804C187.95 137.611 188.422 137.509 188.949 137.501C189.388 137.493 189.795 137.559 190.171 137.697C190.546 137.831 190.872 138.033 191.147 138.304C191.422 138.575 191.638 138.909 191.794 139.308C191.955 139.702 192.039 140.153 192.048 140.662C192.052 140.895 192.029 141.052 191.979 141.132C191.929 141.212 191.836 141.254 191.701 141.256L187.116 141.333ZM194.878 134.293L195.052 144.651L193.547 144.676L193.373 134.318L194.878 134.293ZM201.859 138.796C201.813 138.857 201.77 138.905 201.728 138.938C201.687 138.971 201.626 138.989 201.547 138.99C201.468 138.991 201.383 138.965 201.294 138.91C201.209 138.856 201.105 138.797 200.983 138.734C200.865 138.666 200.721 138.605 200.553 138.552C200.384 138.499 200.173 138.474 199.921 138.478C199.595 138.484 199.309 138.547 199.063 138.668C198.823 138.789 198.62 138.96 198.456 139.182C198.296 139.399 198.177 139.665 198.098 139.979C198.024 140.289 197.99 140.637 197.997 141.024C198.004 141.425 198.054 141.782 198.148 142.093C198.242 142.404 198.372 142.665 198.539 142.877C198.711 143.089 198.914 143.249 199.149 143.357C199.389 143.465 199.656 143.517 199.95 143.512C200.239 143.507 200.474 143.468 200.655 143.395C200.836 143.322 200.986 143.242 201.106 143.156C201.226 143.07 201.327 142.991 201.41 142.92C201.498 142.849 201.59 142.812 201.688 142.81C201.81 142.808 201.904 142.853 201.971 142.946L202.407 143.491C202.238 143.704 202.049 143.885 201.842 144.033C201.634 144.181 201.415 144.304 201.183 144.401C200.951 144.494 200.71 144.561 200.458 144.602C200.207 144.648 199.953 144.674 199.696 144.678C199.253 144.685 198.836 144.611 198.446 144.454C198.061 144.292 197.721 144.058 197.426 143.75C197.137 143.438 196.904 143.056 196.728 142.607C196.557 142.152 196.467 141.633 196.457 141.05C196.448 140.523 196.515 140.034 196.656 139.583C196.798 139.128 197.008 138.735 197.288 138.404C197.571 138.072 197.924 137.812 198.346 137.623C198.767 137.429 199.255 137.327 199.811 137.318C200.329 137.309 200.785 137.386 201.18 137.547C201.579 137.708 201.935 137.94 202.249 138.243L201.859 138.796ZM206.476 137.206C207.004 137.197 207.481 137.276 207.908 137.441C208.341 137.606 208.709 137.845 209.013 138.158C209.321 138.47 209.561 138.851 209.732 139.301C209.903 139.751 209.993 140.258 210.003 140.822C210.012 141.387 209.939 141.897 209.783 142.352C209.628 142.808 209.401 143.199 209.103 143.526C208.81 143.848 208.45 144.099 208.023 144.279C207.602 144.459 207.127 144.553 206.6 144.562C206.068 144.571 205.586 144.493 205.154 144.327C204.726 144.162 204.358 143.923 204.05 143.611C203.741 143.294 203.501 142.911 203.33 142.461C203.159 142.011 203.069 141.504 203.06 140.939C203.05 140.374 203.123 139.864 203.279 139.409C203.435 138.954 203.661 138.565 203.959 138.243C204.257 137.92 204.617 137.669 205.039 137.489C205.465 137.309 205.944 137.215 206.476 137.206ZM206.58 143.386C207.224 143.375 207.699 143.153 208.004 142.718C208.314 142.279 208.462 141.658 208.449 140.855C208.435 140.053 208.266 139.437 207.942 139.009C207.622 138.575 207.14 138.364 206.496 138.375C205.843 138.386 205.361 138.613 205.051 139.057C204.741 139.497 204.593 140.117 204.606 140.92C204.62 141.723 204.789 142.338 205.114 142.767C205.438 143.191 205.927 143.397 206.58 143.386ZM211.509 144.375L211.389 137.236L212.298 137.22C212.504 137.217 212.636 137.31 212.695 137.501L212.804 138.122C212.932 137.97 213.065 137.833 213.203 137.709C213.341 137.581 213.488 137.471 213.645 137.38C213.807 137.284 213.978 137.208 214.16 137.154C214.345 137.099 214.546 137.07 214.76 137.067C214.989 137.063 215.199 137.092 215.392 137.154C215.584 137.216 215.754 137.307 215.9 137.426C216.052 137.545 216.183 137.689 216.293 137.86C216.403 138.031 216.495 138.223 216.568 138.437C216.672 138.188 216.803 137.973 216.964 137.793C217.124 137.613 217.304 137.465 217.502 137.35C217.701 137.234 217.912 137.149 218.135 137.094C218.363 137.034 218.593 137.002 218.827 136.998C219.209 136.992 219.551 137.047 219.852 137.163C220.157 137.28 220.414 137.453 220.623 137.682C220.837 137.908 221.001 138.187 221.114 138.521C221.226 138.855 221.287 139.237 221.294 139.666L221.37 144.209L219.865 144.234L219.789 139.692C219.781 139.188 219.665 138.812 219.441 138.563C219.222 138.31 218.9 138.187 218.476 138.195C218.284 138.198 218.105 138.233 217.938 138.302C217.772 138.37 217.626 138.468 217.502 138.596C217.378 138.724 217.281 138.884 217.209 139.077C217.142 139.265 217.111 139.485 217.115 139.737L217.192 144.279L215.687 144.304L215.611 139.762C215.602 139.239 215.49 138.858 215.276 138.619C215.062 138.376 214.752 138.257 214.346 138.264C214.066 138.269 213.809 138.345 213.573 138.494C213.337 138.638 213.121 138.835 212.925 139.086L213.013 144.349L211.509 144.375ZM227.737 139.726C227.733 139.474 227.691 139.242 227.613 139.028C227.539 138.81 227.431 138.623 227.289 138.467C227.146 138.306 226.969 138.183 226.757 138.097C226.55 138.008 226.312 137.965 226.041 137.969C225.495 137.979 225.068 138.142 224.761 138.46C224.454 138.778 224.263 139.22 224.188 139.786L227.737 139.726ZM224.162 140.71C224.187 141.116 224.256 141.467 224.369 141.764C224.481 142.056 224.627 142.299 224.808 142.492C224.993 142.685 225.21 142.828 225.459 142.922C225.713 143.011 225.993 143.053 226.301 143.048C226.595 143.043 226.849 143.006 227.063 142.937C227.276 142.863 227.462 142.786 227.619 142.704C227.776 142.617 227.91 142.54 228.021 142.473C228.132 142.401 228.234 142.364 228.327 142.363C228.449 142.361 228.543 142.406 228.61 142.498L229.046 143.044C228.872 143.257 228.674 143.437 228.453 143.586C228.231 143.734 227.995 143.857 227.745 143.955C227.494 144.048 227.236 144.115 226.971 144.157C226.706 144.203 226.447 144.228 226.195 144.233C225.701 144.241 225.24 144.167 224.812 144.011C224.39 143.85 224.019 143.611 223.701 143.294C223.388 142.978 223.138 142.583 222.953 142.11C222.773 141.637 222.677 141.09 222.667 140.469C222.658 139.975 222.727 139.512 222.874 139.08C223.026 138.648 223.243 138.271 223.527 137.949C223.816 137.626 224.166 137.371 224.579 137.182C224.995 136.988 225.467 136.887 225.995 136.878C226.433 136.871 226.84 136.936 227.216 137.075C227.592 137.208 227.917 137.41 228.193 137.681C228.468 137.952 228.683 138.287 228.839 138.685C229 139.08 229.085 139.531 229.093 140.039C229.097 140.273 229.074 140.429 229.024 140.51C228.974 140.59 228.882 140.631 228.746 140.633L224.162 140.71ZM232.124 133.947L232.191 137.95C232.198 138.37 232.186 138.783 232.156 139.19C232.125 139.592 232.084 140.026 232.031 140.494L231.016 140.511C230.943 140.046 230.884 139.613 230.84 139.212C230.801 138.807 230.777 138.394 230.77 137.974L230.703 133.97L232.124 133.947ZM230.571 143.186C230.569 143.051 230.59 142.924 230.634 142.807C230.684 142.685 230.752 142.579 230.839 142.488C230.926 142.398 231.028 142.327 231.144 142.273C231.259 142.22 231.387 142.192 231.527 142.19C231.663 142.188 231.789 142.211 231.906 142.26C232.029 142.31 232.132 142.378 232.218 142.465C232.308 142.552 232.38 142.656 232.433 142.777C232.487 142.892 232.514 143.018 232.517 143.153C232.519 143.293 232.495 143.422 232.446 143.54C232.397 143.657 232.328 143.761 232.241 143.851C232.159 143.941 232.057 144.01 231.937 144.059C231.821 144.112 231.695 144.14 231.56 144.143C231.42 144.145 231.291 144.121 231.174 144.072C231.056 144.027 230.953 143.961 230.862 143.874C230.772 143.787 230.701 143.686 230.647 143.57C230.599 143.454 230.573 143.326 230.571 143.186Z" fill="black"/>
<rect x="139.38" y="168.523" width="125.265" height="15.8787" rx="7.93935" transform="rotate(-0.62003 139.38 168.523)" fill="white" fill-opacity="0.5"/>
<path d="M195.837 107.181C202.333 107.181 207.599 101.257 207.599 93.9491C207.599 86.6411 202.333 80.7168 195.837 80.7168C189.341 80.7168 184.075 86.6411 184.075 93.9491C184.075 101.257 189.341 107.181 195.837 107.181Z" fill="#FFF7A2" stroke="#494949" stroke-width="1.5" stroke-linecap="round" stroke-linejoin="round"/>
<path d="M191.133 96.5955C191.133 96.5955 192.897 99.242 195.837 99.242C198.778 99.242 200.542 96.5955 200.542 96.5955" fill="#FFF7A2"/>
<path d="M191.133 96.5955C191.133 96.5955 192.897 99.242 195.837 99.242C198.778 99.242 200.542 96.5955 200.542 96.5955" stroke="#494949" stroke-width="1.5" stroke-linecap="round" stroke-linejoin="round"/>
<path d="M192.309 89.9796H192.319" stroke="#494949" stroke-width="1.5" stroke-linecap="round" stroke-linejoin="round"/>
<path d="M199.366 89.9796H199.376" stroke="#494949" stroke-width="1.5" stroke-linecap="round" stroke-linejoin="round"/>
<defs>
<linearGradient id="paint0_linear_312_2373" x1="194.955" y1="0" x2="194.955" y2="231.564" gradientUnits="userSpaceOnUse">
<stop stop-color="#B0D7FF"/>
<stop offset="1" stop-color="#BAFFC6"/>
</linearGradient>
</defs>
</svg>
