<svg width="96" height="69" viewBox="0 0 96 69" fill="none" xmlns="http://www.w3.org/2000/svg">
<g clip-path="url(#clip0_87_1085)">
<path d="M0.625289 4.04676C0.625289 4.04676 -1.51247 -0.209407 2.12058 0.00595243C5.75362 0.221312 65.8325 7.23748 65.8325 7.23748C66.7219 7.24496 67.5938 7.48496 68.361 7.93348C69.1282 8.38201 69.764 9.02335 70.2047 9.79346C71.7 12.4515 95.1812 56.2657 95.1812 56.2657C95.1812 56.2657 97.8079 62.8399 93.6461 63.3726C89.4843 63.9053 29.2007 52.6613 29.2007 52.6613L0.625289 4.04676Z" fill="#F1F1F1"/>
<path d="M9.59141 54.577C9.59141 54.577 8.20415 54.475 9.05698 52.4518C9.90981 50.4285 16.8973 31.7036 16.8973 31.7036L85.7887 43.1403L77.4652 68.1957L90.0358 63.5428C90.0358 63.5428 90.7806 63.3444 90.4111 64.1549C90.1041 64.8179 78.5397 68.8134 78.5397 68.8134C78.5397 68.8134 77.8176 69.2045 75.8959 68.8474C73.9742 68.4904 9.59141 54.577 9.59141 54.577Z" fill="#4D4D51"/>
<path d="M85.7886 43.1401L92.7932 61.3266C92.7932 61.3266 93.3617 62.3921 91.3547 62.9248C89.3477 63.4575 77.7095 67.9517 77.7095 67.9517L85.7886 43.1401Z" fill="#353538"/>
</g>
<defs>
<clipPath id="clip0_87_1085">
<rect width="96" height="69" fill="white"/>
</clipPath>
</defs>
</svg>
