<svg width="58" height="178" viewBox="0 0 58 178" fill="none" xmlns="http://www.w3.org/2000/svg">
<path opacity="0.75" d="M19.1646 0H39.7458C40.1956 0 40.6271 0.1787 40.9451 0.496788C41.2632 0.814876 41.4419 1.2463 41.4419 1.69614V8.19477H17.4685V1.69614C17.4685 1.2463 17.6472 0.814876 17.9653 0.496788C18.2834 0.1787 18.7148 0 19.1646 0Z" fill="#E2E2E2"/>
<path opacity="0.75" d="M54.3481 51.8396H4.36072C3.41217 51.8379 2.50306 51.4599 1.83295 50.7886C1.16283 50.1172 0.78647 49.2074 0.786472 48.2589V42.4101C0.783933 41.8262 0.924502 41.2505 1.19589 40.7335C5.6779 32.2619 10.9918 24.2573 17.059 16.8381C17.396 16.4289 17.8198 16.0999 18.2998 15.8751C18.7798 15.6503 19.3039 15.5352 19.8339 15.5383H38.394C38.9386 15.5339 39.4769 15.654 39.968 15.8894C40.459 16.1248 40.8898 16.4693 41.2274 16.8965C47.2269 24.5786 52.6569 32.6888 57.474 41.1624C57.772 41.6992 57.9285 42.303 57.9289 42.917V48.2459C57.9306 48.7172 57.8392 49.1842 57.66 49.6202C57.4809 50.0561 57.2174 50.4524 56.8847 50.7863C56.552 51.1202 56.1567 51.3851 55.7214 51.5658C55.2861 51.7466 54.8195 51.8396 54.3481 51.8396Z" fill="#E2E2E2"/>
<path opacity="0.75" d="M40.149 10.9695H18.2356V15.9215H40.149V10.9695Z" fill="#E2E2E2"/>
<path d="M57.8902 48.9019H0.747803V83.793H57.8902V48.9019Z" fill="#7AACCE"/>
<path opacity="0.75" d="M56.2264 135.763C57.3377 130.622 55.2516 126.268 53.484 123.077C54.2768 118.769 53.224 114.551 52.1128 110.561C55.96 100.222 57.9615 91.2276 57.8901 83.8257H0.747645C0.292741 91.1236 2.28132 100.241 5.77108 110.47C4.14588 114.824 3.56925 119.499 4.08794 124.117C2.69723 126.762 1.94989 130.297 1.9109 134.807C0.64442 138.255 0.216725 141.956 0.663163 145.602C-0.189166 149.012 -0.220347 152.575 0.572182 155.999C0.247251 160.841 1.35852 166.124 3.26261 171.655C4.98475 174.046 6.99932 175.391 9.4818 175.04C12.2242 177.094 15.1551 178.114 18.5084 176.847C21.7057 177.757 25.6569 177.698 30.0239 177.12C33.4552 178.095 37.1334 177.77 40.9936 176.568C44.4639 177.276 47.4923 176.633 49.8773 174.345C50.8566 174.352 51.8271 174.16 52.7298 173.78C53.6325 173.4 54.4485 172.841 55.1281 172.135C56.446 167.212 57.1017 162.136 57.0777 157.039C57.7426 153.79 57.7116 150.437 56.9867 147.2C57.5079 143.375 57.2493 139.485 56.2264 135.763Z" fill="#E2E2E2"/>
<path opacity="0.75" d="M41.7734 10.9436H17.0787C16.9917 10.9437 16.906 10.922 16.8296 10.8804C16.7532 10.8389 16.6884 10.7788 16.6412 10.7058C16.594 10.6327 16.5659 10.549 16.5594 10.4622C16.553 10.3754 16.5684 10.2885 16.6043 10.2092L17.4881 8.18164H41.442L42.2543 10.2287C42.2846 10.3076 42.2954 10.3926 42.2859 10.4766C42.2764 10.5605 42.2468 10.641 42.1996 10.7111C42.1525 10.7812 42.0891 10.8389 42.0149 10.8794C41.9408 10.9199 41.8579 10.9419 41.7734 10.9436Z" fill="#C1C1C1"/>
<path d="M53.5164 123.324C49.6563 123.974 45.7181 124.767 41.8189 124.494C45.7181 124.657 49.6173 123.779 53.4774 123.006L53.5424 123.324H53.5164Z" fill="#E2E2E2"/>
<path d="M4.19805 124.027C8.02574 124.8 11.9249 125.677 15.8566 125.515C11.9184 125.788 7.99325 125.015 4.15906 124.345L4.22404 124.027H4.19805Z" fill="#E2E2E2"/>
<path d="M1.9627 134.645C5.79039 135.418 9.68956 136.302 13.6212 136.133C9.68306 136.406 5.75789 135.633 1.92371 134.963L1.98869 134.645H1.9627Z" fill="#E2E2E2"/>
<path d="M0.71538 145.693C4.56257 146.466 8.46174 147.35 12.3609 147.181C8.42925 147.454 4.50408 146.681 0.663391 146.011L0.734876 145.693H0.71538Z" fill="#E2E2E2"/>
<path d="M0.663105 156.143C4.4908 156.922 8.38997 157.8 12.3151 157.631C8.41597 157.91 4.4583 157.137 0.617615 156.461L0.6891 156.143H0.663105Z" fill="#E2E2E2"/>
<path d="M56.2654 136.166C52.4052 136.816 48.467 137.608 44.5679 137.335C48.467 137.498 52.3662 136.621 56.2264 135.847L56.2914 136.166H56.2654Z" fill="#E2E2E2"/>
<path d="M57.0907 147.649C53.1915 148.299 49.2924 149.098 45.3932 148.825C49.2924 148.988 53.1915 148.11 57.0452 147.337L57.1167 147.649H57.0907Z" fill="#E2E2E2"/>
<path d="M57.0907 157.591C53.2305 158.241 49.2924 159.041 45.3932 158.761C49.2924 158.93 53.1915 158.053 57.0452 157.273L57.1167 157.591H57.0907Z" fill="#E2E2E2"/>
</svg>
