<svg width="136" height="127" viewBox="0 0 136 127" fill="none" xmlns="http://www.w3.org/2000/svg">
<ellipse cx="68" cy="68.5" rx="68" ry="58.5" fill="#A8C956"/>
<path d="M95.8282 37.977C93.9405 36.1369 91.9358 34.4204 89.8268 32.8383C86.4168 30.3265 82.8123 28.0897 79.0473 26.1489L76.9048 25.0482C63.8246 25.6563 55.3702 25.6563 42.3082 25.6563C42.1865 25.9421 39.6179 30.9227 37.0554 37.1256C56.8127 36.256 76.0831 39.2906 95.8282 37.977Z" fill="#FBFBF2"/>
<path d="M111.392 68.5355C110.856 64.7591 109.779 59.2676 107.989 55.4851C106.027 51.3316 103.688 47.3662 101.002 43.6387C99.4081 41.4895 97.6389 39.4758 95.7126 37.6182C76.0161 38.9379 56.8067 35.8972 37.1041 36.7486C36.5259 38.1595 35.9477 39.625 35.3938 41.121C32.32 49.4768 29.1915 59.6082 29.015 69.9099C28.8385 80.2116 30.2627 96.0108 31.1636 102.536C32.0644 109.061 34.566 121.595 35.6373 122.969C36.7085 124.344 101.903 124.344 103.51 122.969C105.116 121.595 106.376 120.05 107.454 114.382C108.531 108.715 110.345 99.617 111.392 91.5472C112.439 83.4773 111.927 72.312 111.392 68.5355ZM97.1855 84.4989C95.6395 84.6935 94.2579 83.1367 94.1848 81.586C93.9664 76.4156 92.8222 71.3262 90.8067 66.5591C89.6624 63.786 88.0921 61.4143 86.6921 58.8115C84.4096 54.5546 81.8228 45.9618 89.3338 46.0773C89.6814 46.082 90.0255 46.1479 90.3502 46.2719C93.1257 46.7158 95.1587 50.0423 96.7534 52.1464C100.912 57.6147 103.425 64.1543 103.997 70.9985C104.508 76.6358 103.558 83.7084 97.1855 84.4989Z" fill="#FBF7C6"/>
<path d="M76.2657 19.35L75.9431 0.759486C75.9431 0.759486 48.7114 -0.949358 43.0021 0.759486V19.1676C53.9216 19.5933 65.2854 18.3344 76.2657 19.35Z" fill="#EE825E"/>
<path d="M50.507 9.67467V19.35L63.7941 18.9547C63.7941 18.9547 63.8794 12.2653 60.9395 9.67467H50.507Z" fill="#933E21"/>
<path d="M47.3784 0.0783739L47.8958 19.2527L43.0264 19.2041V0.66826C44.0855 0.00539904 47.3784 0.0783739 47.3784 0.0783739Z" fill="#8D381E"/>
<path d="M76.777 25.0968C77.1468 24.1948 77.2956 23.2176 77.2109 22.2465C77.1262 21.2755 76.8105 20.3387 76.29 19.5142V19.35C65.3341 18.3344 53.9459 19.5933 43.0264 19.1676V19.2041C43.0264 19.2041 41.8882 23.3941 41.8882 25.7171C53.7511 25.7171 65.0845 25.7171 76.9657 25.1698L76.777 25.0968Z" fill="#FFFFFD"/>
<path d="M84.6896 70.6093C83.3201 67.1794 77.3491 53.7701 74.951 51.0275C72.5528 48.2848 66.5514 42.9941 63.3863 41.9785C56.9953 39.923 51.1339 40.7622 46.082 45.682C41.5474 50.1214 36.2094 58.3798 35.1808 67.4166C34.1704 76.2892 33.9878 82.109 36.605 87.6977L88.792 87.7828C88.6277 84.1949 86.0469 74.0452 84.6896 70.6093Z" fill="url(#paint0_linear_570_3412)"/>
<path d="M88.7981 87.7828L36.605 87.6977C36.6415 87.7828 36.6781 87.868 36.7207 87.9531C39.4719 93.6209 42.0465 98.4251 44.7977 100.663C47.5488 102.901 52.5338 106.495 56.4841 107.869C60.4343 109.244 64.5976 110.618 69.5643 110.448C74.531 110.278 79.9116 109.414 82.6323 108.216C85.3531 107.018 87.0756 105.984 87.7634 104.093C88.4512 102.202 88.9807 91.389 88.792 87.7828L88.7981 87.7828Z" fill="#FFFFFD"/>
<path d="M74.744 62.9894C74.7424 67.5802 72.916 71.9823 69.6664 75.2279C66.4168 78.4735 62.0101 80.2968 57.4153 80.2968C52.8211 80.2968 48.415 78.4733 45.1664 75.2276C41.9177 71.9818 40.0927 67.5796 40.0927 62.9894C40.0911 60.7171 40.5377 58.4668 41.4069 56.3671C42.2761 54.2673 43.5509 52.3593 45.1585 50.752C46.7661 49.1447 48.6749 47.8696 50.7759 46.9997C52.8769 46.1298 55.1289 45.682 57.4032 45.682C61.9996 45.6804 66.4085 47.5028 69.6603 50.7483C72.9122 53.9939 74.7408 58.397 74.744 62.9894Z" fill="#FCEE23"/>
<path d="M71.3477 63.0259C71.3428 66.7065 69.876 70.2347 67.2695 72.8356C64.6629 75.4365 61.1296 76.8973 57.4457 76.8973C53.7566 76.8989 50.2177 75.4367 47.6074 72.832C44.997 70.2274 43.5288 66.6936 43.5256 63.0076C43.524 61.1826 43.8824 59.3751 44.5803 57.6886C45.2782 56.002 46.302 54.4693 47.593 53.1783C48.8841 51.8872 50.4172 50.863 52.1046 50.1642C53.7921 49.4655 55.6008 49.1058 57.4275 49.1058C59.2563 49.1066 61.0671 49.4673 62.7564 50.1673C64.4457 50.8672 65.9805 51.8928 67.2731 53.1854C68.5657 54.478 69.5908 56.0123 70.2899 57.7008C70.9891 59.3892 71.3485 61.1987 71.3477 63.0259Z" fill="#F04F25"/>
<path d="M67.4827 63.0259C67.4794 65.6888 66.4188 68.2416 64.5336 70.124C62.6484 72.0064 60.0927 73.0645 57.4275 73.0661C54.7623 73.0661 52.2063 72.0083 50.3217 70.1254C48.4372 68.2425 47.3784 65.6887 47.3784 63.0259C47.3784 60.3619 48.4368 57.8069 50.321 55.9221C52.2052 54.0372 54.7612 52.9767 57.4275 52.9735C58.7487 52.9727 60.0571 53.2322 61.2778 53.7372C62.4985 54.2421 63.6076 54.9827 64.5415 55.9164C65.4755 56.85 66.2159 57.9586 66.7206 59.1785C67.2253 60.3985 67.4843 61.7058 67.4827 63.0259Z" fill="#FCEE23"/>
<path d="M59.1257 62.9894C59.1257 63.4491 58.9429 63.8899 58.6176 64.2149C58.2923 64.54 57.851 64.7226 57.391 64.7226C56.9319 64.721 56.4923 64.5376 56.1683 64.2128C55.8443 63.8879 55.6624 63.448 55.6624 62.9894C55.6624 62.5308 55.8443 62.0909 56.1683 61.766C56.4923 61.4411 56.9319 61.2578 57.391 61.2562C57.851 61.2562 58.2923 61.4388 58.6176 61.7639C58.9429 62.0889 59.1257 62.5297 59.1257 62.9894Z" fill="#66BAE9"/>
<path d="M58.8031 62.9955C58.8031 63.3632 58.6569 63.7159 58.3966 63.9759C58.1364 64.2359 57.7834 64.382 57.4153 64.382C57.0467 64.382 56.6931 64.2361 56.4319 63.9763C56.1706 63.7164 56.0231 63.3638 56.0215 62.9955C56.0215 62.6261 56.1683 62.2719 56.4297 62.0107C56.6911 61.7496 57.0456 61.6029 57.4153 61.6029C57.5981 61.6029 57.779 61.6389 57.9478 61.709C58.1166 61.779 58.2698 61.8817 58.3988 62.0111C58.5277 62.1405 58.6298 62.2941 58.6992 62.463C58.7686 62.6319 58.8039 62.8129 58.8031 62.9955Z" fill="white"/>
<path d="M58.4196 62.9955C58.4196 63.2616 58.3138 63.5168 58.1255 63.705C57.9371 63.8932 57.6817 63.9989 57.4153 63.9989C57.2834 63.9989 57.1528 63.9729 57.031 63.9225C56.9091 63.8721 56.7984 63.7982 56.7052 63.705C56.6119 63.6118 56.5379 63.5012 56.4875 63.3795C56.437 63.2577 56.411 63.1272 56.411 62.9955C56.4102 62.8632 56.4356 62.7321 56.4857 62.6096C56.5358 62.4872 56.6097 62.3758 56.703 62.282C56.7963 62.1882 56.9073 62.1137 57.0296 62.0629C57.1518 62.0121 57.2829 61.986 57.4153 61.986C57.5477 61.986 57.6788 62.0121 57.8011 62.0629C57.9233 62.1137 58.0343 62.1882 58.1276 62.282C58.221 62.3758 58.2948 62.4872 58.3449 62.6096C58.395 62.7321 58.4204 62.8632 58.4196 62.9955Z" fill="#66BAE9"/>
<path d="M71.9076 58.769C71.4633 58.1608 70.6599 57.8689 69.5217 57.8689C69.1432 57.8715 68.7652 57.8959 68.3896 57.9419C66.8922 58.1304 65.5471 58.398 64.5367 59.4258L66.3627 53.6364L63.6359 54.0803C62.6072 54.2445 61.5725 54.6884 60.9578 56.5736L60.1056 59.3163L58.0909 59.6447C57.364 59.7561 56.6783 60.0536 56.1006 60.5082C56.1812 60.2276 56.1979 59.9325 56.1493 59.6447C56.0766 59.1541 55.8278 58.7067 55.4493 58.3858L55.7171 58.3372C56.3506 58.223 56.9438 57.9475 57.4396 57.5374C57.9354 57.1273 58.3169 56.5964 58.5474 55.9959L59.3631 53.4296L45.0411 55.7587C44.7107 55.7866 44.3981 55.9199 44.1493 56.1389C43.9005 56.3579 43.7288 56.651 43.6595 56.975L42.5456 60.5386L47.8897 59.6508L43.1969 75.0364L46.0759 74.6047C46.6603 74.4812 47.2033 74.2101 47.653 73.8173C48.1027 73.4244 48.444 72.9229 48.6444 72.3607L48.8027 71.8134L52.7164 71.1383L53.3251 69.2227C53.4153 69.5067 53.5717 69.7652 53.7816 69.9768C54.0246 70.2055 54.3121 70.3818 54.6262 70.4948C54.9404 70.6078 55.2744 70.655 55.6076 70.6336C55.877 70.6329 56.1459 70.6085 56.411 70.5606L61.3108 69.77L61.8708 67.9943C61.9362 68.1542 62.0178 68.307 62.1142 68.4504C62.5707 69.0585 63.362 69.3504 64.5489 69.3504C64.9988 69.344 65.4479 69.3115 65.894 69.2531C69.0773 68.8457 70.0147 67.6233 70.7207 65.3672L70.9946 64.4854H71.0433L72.1268 61.0738C72.2816 60.701 72.3426 60.2959 72.3044 59.8941C72.2662 59.4923 72.1299 59.106 71.9076 58.769Z" fill="white"/>
<path d="M68.8156 69.7883C68.8097 69.7296 68.8097 69.6706 68.8156 69.6119C68.8156 69.4903 68.8156 69.4416 68.7304 69.4173C68.7648 69.4035 68.7946 69.3801 68.8161 69.3499C68.8377 69.3198 68.8502 69.2841 68.8521 69.247C68.8523 69.2169 68.8461 69.1871 68.8339 69.1596C68.8218 69.132 68.8038 69.1074 68.7814 69.0872C68.759 69.0671 68.7325 69.052 68.7038 69.0428C68.675 69.0337 68.6447 69.0308 68.6148 69.0342H68.2557V69.8369H68.4139V69.4903H68.5235C68.5722 69.4903 68.6209 69.4903 68.6209 69.5633V69.6484C68.607 69.7105 68.607 69.7749 68.6209 69.8369H68.7852L68.8156 69.7883ZM68.6817 69.2349C68.6818 69.2629 68.671 69.2898 68.6518 69.3102C68.6326 69.3306 68.6062 69.3428 68.5782 69.3443H68.4322V69.1315H68.5782C68.5921 69.1306 68.6059 69.1327 68.6189 69.1375C68.6318 69.1424 68.6436 69.15 68.6534 69.1598C68.6632 69.1696 68.6708 69.1813 68.6757 69.1943C68.6806 69.2072 68.6826 69.2211 68.6817 69.2349Z" fill="#08509C"/>
<path d="M68.5417 70.1471C68.348 70.1469 68.1621 70.0704 68.0244 69.9342C67.8897 69.796 67.8153 69.6102 67.8174 69.4173C67.8166 69.2247 67.8908 69.0393 68.0244 68.9004C68.0917 68.8319 68.1723 68.7777 68.2612 68.7411C68.3502 68.7045 68.4456 68.6863 68.5417 68.6876C68.638 68.6856 68.7336 68.7035 68.8226 68.7401C68.9116 68.7767 68.9921 68.8313 69.0591 68.9004C69.1283 68.9673 69.1829 69.0477 69.2195 69.1367C69.2562 69.2256 69.2741 69.3212 69.2721 69.4173C69.269 69.6099 69.191 69.7937 69.0547 69.9299C68.9184 70.0661 68.7345 70.1439 68.5417 70.1471ZM68.5417 68.8153C68.3808 68.8127 68.2254 68.8739 68.1096 68.9855C67.9979 69.1013 67.9366 69.2565 67.9392 69.4173C67.9366 69.5781 67.9979 69.7333 68.1096 69.8491C68.166 69.9066 68.2332 69.9523 68.3073 69.9836C68.3815 70.0149 68.4612 70.0312 68.5417 70.0315C68.7032 70.0315 68.858 69.9675 68.9721 69.8534C69.0863 69.7394 69.1504 69.5847 69.1504 69.4234C69.147 69.2626 69.0841 69.1088 68.9739 68.9916C68.917 68.9353 68.8496 68.8907 68.7754 68.8604C68.7012 68.8301 68.6218 68.8148 68.5417 68.8153Z" fill="#08509C"/>
<path d="M63.6785 54.7614C62.8264 54.8952 62.0838 55.1932 61.5786 56.7621L60.6047 59.9305L58.1214 60.338C57.6457 60.399 57.1907 60.5698 56.7924 60.8369C56.3942 61.1039 56.0635 61.4598 55.8267 61.8765C54.8837 63.9014 54.2144 66.0425 53.8364 68.2436C53.8364 69.7761 55.0841 69.9707 56.2102 69.7761L60.6778 69.0585L65.261 54.5121L63.6785 54.7614ZM58.3101 67.222C57.9633 67.3412 57.5994 67.4029 57.2327 67.4044C57.0988 67.3071 56.9953 67.3071 57.0379 66.9848L58.3222 63.0259C58.4805 62.7279 58.5657 62.5333 59.0465 62.4846L59.8256 62.3752L58.3101 67.222Z" fill="#08509C"/>
<path d="M68.4322 58.6534C66.5027 58.9028 65.2489 59.2616 64.3967 60.7028C63.5446 62.1441 63.2463 63.4394 62.5281 65.9206C61.8099 68.4017 63.2585 68.7909 65.7175 68.4869C68.6026 68.1159 69.3208 67.1064 69.9477 65.0935L70.0269 64.8563L67.0992 65.3368V65.3672C67.047 65.5987 66.9158 65.8048 66.7281 65.9501C66.5404 66.0955 66.3079 66.171 66.0705 66.1638C65.3462 66.2672 65.4193 65.8841 65.5653 65.3793L65.8393 64.5036L70.4103 63.7739L71.3599 60.7758C71.7311 59.5352 71.5425 58.2399 68.4322 58.6534ZM68.2983 61.5664L68.0609 62.3144L66.4418 62.5637L66.7036 61.761C66.8253 61.3657 67.0383 61.0981 67.6896 61.0191C68.3409 60.94 68.42 61.1528 68.2983 61.5481V61.5664Z" fill="#08509C"/>
<path d="M52.0956 58.1669L47.8349 72.0931C47.6757 72.5288 47.4095 72.9176 47.0606 73.2236C46.7118 73.5296 46.2915 73.7432 45.8385 73.8445L44.1099 74.106L48.8149 58.696L43.4769 59.5839L44.2438 57.1513C44.2786 56.9622 44.3774 56.7906 44.5237 56.6655C44.6699 56.5404 44.8548 56.4694 45.0472 56.4642L58.2188 54.3175L57.7623 55.7587C57.5741 56.2294 57.2712 56.6456 56.8811 56.9696C56.491 57.2935 56.026 57.5149 55.5284 57.6135L52.0956 58.1669Z" fill="#08509C"/>
<path d="M55.3702 59.7967C55.2842 59.4111 55.0492 59.0751 54.7162 58.8621C54.3832 58.649 53.9794 58.5762 53.5929 58.6595C53.1997 58.6966 52.837 58.8874 52.5839 59.1903C52.3308 59.4933 52.2078 59.8839 52.2417 60.2771C52.3289 60.6629 52.5655 60.9985 52.8997 61.2105C53.2339 61.4224 53.6385 61.4935 54.025 61.4083C54.4154 61.3682 54.7746 61.1772 55.026 60.8761C55.2773 60.575 55.4008 60.1876 55.3702 59.7967Z" fill="#08509C"/>
<path d="M54.7981 61.7914L52.0712 70.4268L48.9731 70.9741L51.6999 62.3509L54.7981 61.7914Z" fill="#08509C"/>
<defs>
<linearGradient id="paint0_linear_570_3412" x1="28.9932" y1="61.9848" x2="112.009" y2="61.9848" gradientUnits="userSpaceOnUse">
<stop stop-color="#C2D82E"/>
<stop offset="0.15" stop-color="#B2CD2F"/>
<stop offset="0.44" stop-color="#87AF31"/>
<stop offset="0.84" stop-color="#448035"/>
<stop offset="1" stop-color="#276C36"/>
</linearGradient>
</defs>
</svg>
