<svg width="220" height="220" viewBox="0 0 220 220" fill="none" xmlns="http://www.w3.org/2000/svg">
<path d="M60.256 103V100.096H64.768V88.864H64.552L61.144 93.328L58.84 91.528L62.848 86.248H68.368V100.096H71.92V103H60.256ZM87.9426 92.608C87.9426 93.792 87.7586 94.904 87.3906 95.944C87.0386 96.984 86.5746 97.952 85.9986 98.848C85.4386 99.728 84.7986 100.52 84.0786 101.224C83.3746 101.928 82.6626 102.52 81.9426 103H76.9746C77.9986 102.264 78.9186 101.568 79.7346 100.912C80.5506 100.24 81.2546 99.568 81.8466 98.896C82.4546 98.224 82.9506 97.544 83.3346 96.856C83.7186 96.152 83.9986 95.4 84.1746 94.6L83.9586 94.528C83.8146 94.848 83.6386 95.16 83.4306 95.464C83.2386 95.768 82.9906 96.04 82.6866 96.28C82.3986 96.504 82.0546 96.688 81.6546 96.832C81.2546 96.976 80.7906 97.048 80.2626 97.048C79.5746 97.048 78.9266 96.928 78.3186 96.688C77.7266 96.432 77.2066 96.08 76.7586 95.632C76.3266 95.184 75.9826 94.64 75.7266 94C75.4866 93.36 75.3666 92.64 75.3666 91.84C75.3666 90.976 75.5106 90.184 75.7986 89.464C76.1026 88.744 76.5266 88.128 77.0706 87.616C77.6306 87.088 78.2946 86.68 79.0626 86.392C79.8306 86.104 80.6946 85.96 81.6546 85.96C82.6466 85.96 83.5346 86.12 84.3186 86.44C85.1026 86.744 85.7586 87.192 86.2866 87.784C86.8306 88.36 87.2386 89.056 87.5106 89.872C87.7986 90.688 87.9426 91.6 87.9426 92.608ZM81.6546 94.288C82.4546 94.288 83.0786 94.072 83.5266 93.64C83.9746 93.192 84.1986 92.56 84.1986 91.744V91.312C84.1986 90.496 83.9746 89.872 83.5266 89.44C83.0786 88.992 82.4546 88.768 81.6546 88.768C80.8546 88.768 80.2306 88.992 79.7826 89.44C79.3346 89.872 79.1106 90.496 79.1106 91.312V91.744C79.1106 92.56 79.3346 93.192 79.7826 93.64C80.2306 94.072 80.8546 94.288 81.6546 94.288ZM92.3732 97.408V93.952H99.5013V97.408H92.3732ZM116.165 103H104.309V99.712L109.469 95.296C109.933 94.896 110.325 94.536 110.645 94.216C110.965 93.88 111.221 93.56 111.413 93.256C111.621 92.936 111.765 92.624 111.845 92.32C111.941 92.016 111.989 91.688 111.989 91.336V91C111.989 90.68 111.925 90.4 111.797 90.16C111.669 89.92 111.501 89.72 111.293 89.56C111.085 89.4 110.845 89.28 110.573 89.2C110.317 89.12 110.053 89.08 109.781 89.08C109.381 89.08 109.029 89.144 108.725 89.272C108.437 89.4 108.181 89.576 107.957 89.8C107.749 90.008 107.573 90.256 107.429 90.544C107.285 90.816 107.173 91.112 107.093 91.432L103.949 90.232C104.141 89.656 104.405 89.112 104.741 88.6C105.077 88.072 105.493 87.616 105.989 87.232C106.501 86.832 107.101 86.52 107.789 86.296C108.477 86.072 109.253 85.96 110.117 85.96C111.029 85.96 111.837 86.088 112.541 86.344C113.245 86.6 113.837 86.952 114.317 87.4C114.813 87.848 115.189 88.384 115.445 89.008C115.701 89.616 115.829 90.28 115.829 91C115.829 91.72 115.709 92.376 115.469 92.968C115.229 93.56 114.901 94.12 114.485 94.648C114.085 95.16 113.613 95.648 113.069 96.112C112.525 96.576 111.957 97.048 111.365 97.528L108.245 99.976H116.165V103ZM123.476 103L129.092 89.176H123.86V92.224H120.812V86.248H132.668V89.368L127.268 103H123.476ZM140.338 103L151.954 86.248H155.122L143.506 103H140.338ZM141.562 95.464C140.154 95.464 139.082 95.064 138.346 94.264C137.61 93.464 137.242 92.28 137.242 90.712C137.242 89.144 137.61 87.96 138.346 87.16C139.082 86.36 140.154 85.96 141.562 85.96C142.97 85.96 144.042 86.36 144.778 87.16C145.514 87.96 145.882 89.144 145.882 90.712C145.882 92.28 145.514 93.464 144.778 94.264C144.042 95.064 142.97 95.464 141.562 95.464ZM141.562 93.4C141.978 93.4 142.29 93.24 142.498 92.92C142.706 92.584 142.81 92.056 142.81 91.336V90.088C142.81 89.368 142.706 88.848 142.498 88.528C142.29 88.192 141.978 88.024 141.562 88.024C141.146 88.024 140.834 88.192 140.626 88.528C140.418 88.848 140.314 89.368 140.314 90.088V91.336C140.314 92.056 140.418 92.584 140.626 92.92C140.834 93.24 141.146 93.4 141.562 93.4ZM153.898 103.288C152.49 103.288 151.418 102.888 150.682 102.088C149.946 101.288 149.578 100.104 149.578 98.536C149.578 96.968 149.946 95.784 150.682 94.984C151.418 94.184 152.49 93.784 153.898 93.784C155.306 93.784 156.378 94.184 157.114 94.984C157.85 95.784 158.218 96.968 158.218 98.536C158.218 100.104 157.85 101.288 157.114 102.088C156.378 102.888 155.306 103.288 153.898 103.288ZM153.898 101.224C154.314 101.224 154.626 101.064 154.834 100.744C155.042 100.408 155.146 99.88 155.146 99.16V97.912C155.146 97.192 155.042 96.672 154.834 96.352C154.626 96.016 154.314 95.848 153.898 95.848C153.482 95.848 153.17 96.016 152.962 96.352C152.754 96.672 152.65 97.192 152.65 97.912V99.16C152.65 99.88 152.754 100.408 152.962 100.744C153.17 101.064 153.482 101.224 153.898 101.224Z" fill="black"/>
<path d="M150.081 40.2141C136.305 32.2605 120.48 28.5706 104.607 29.611C88.7336 30.6514 73.5255 36.3753 60.9054 46.059C48.2854 55.7427 38.8203 68.9512 33.7071 84.0142C28.5939 99.0772 28.0623 115.318 32.1793 130.683C36.2964 146.048 44.8774 159.848 56.837 170.336C68.7967 180.824 83.5979 187.531 99.369 189.607C115.14 191.683 131.173 189.036 145.439 182.001C159.706 174.965 171.566 163.857 179.52 150.081C190.185 131.608 193.076 109.655 187.555 89.0506C182.034 68.4466 168.554 50.8796 150.081 40.2141ZM165.589 142.038C158.139 154.926 146.451 164.832 132.516 170.068C118.582 175.304 103.263 175.546 89.1691 170.754C75.0756 165.961 63.08 156.43 55.226 143.785C47.372 131.139 44.1457 116.161 46.0968 101.404C48.0479 86.6462 55.0556 73.0217 65.926 62.8516C76.7964 52.6816 90.8568 46.5954 105.711 45.63C120.566 44.6646 135.296 48.8797 147.391 57.5572C159.487 66.2347 168.199 78.8376 172.044 93.2186C174.218 101.386 174.762 109.901 173.644 118.278C172.527 126.655 169.77 134.73 165.531 142.042L165.589 142.038Z" fill="#F1E8CF"/>
<path d="M86.6371 114.624H89.7931C90.3451 114.624 90.8491 114.712 91.3051 114.888C91.7611 115.064 92.1491 115.328 92.4691 115.68C92.7891 116.024 93.0371 116.46 93.2131 116.988C93.3891 117.508 93.4771 118.116 93.4771 118.812C93.4771 119.508 93.3891 120.12 93.2131 120.648C93.0371 121.168 92.7891 121.604 92.4691 121.956C92.1491 122.3 91.7611 122.56 91.3051 122.736C90.8491 122.912 90.3451 123 89.7931 123H86.6371V114.624ZM89.7931 121.38C90.3371 121.38 90.7651 121.228 91.0771 120.924C91.3891 120.62 91.5451 120.132 91.5451 119.46V118.164C91.5451 117.492 91.3891 117.004 91.0771 116.7C90.7651 116.396 90.3371 116.244 89.7931 116.244H88.4611V121.38H89.7931ZM97.8123 114.624V119.76C97.8123 120.352 97.9283 120.796 98.1603 121.092C98.3923 121.38 98.7803 121.524 99.3243 121.524C99.8683 121.524 100.256 121.38 100.488 121.092C100.72 120.796 100.836 120.352 100.836 119.76V114.624H102.612V119.568C102.612 120.184 102.552 120.72 102.432 121.176C102.32 121.624 102.132 121.996 101.868 122.292C101.604 122.58 101.264 122.796 100.848 122.94C100.432 123.076 99.9243 123.144 99.3243 123.144C98.7243 123.144 98.2163 123.076 97.8003 122.94C97.3843 122.796 97.0443 122.58 96.7803 122.292C96.5163 121.996 96.3243 121.624 96.2043 121.176C96.0923 120.72 96.0363 120.184 96.0363 119.568V114.624H97.8123ZM105.496 123V114.624H111.196V116.244H107.32V117.96H110.644V119.568H107.32V121.38H111.196V123H105.496ZM121.273 116.244V123H119.449V116.244H117.181V114.624H123.541V116.244H121.273ZM128.924 123.144C128.372 123.144 127.868 123.052 127.412 122.868C126.956 122.684 126.568 122.412 126.248 122.052C125.928 121.684 125.68 121.232 125.504 120.696C125.328 120.152 125.24 119.524 125.24 118.812C125.24 118.1 125.328 117.476 125.504 116.94C125.68 116.396 125.928 115.944 126.248 115.584C126.568 115.216 126.956 114.94 127.412 114.756C127.868 114.572 128.372 114.48 128.924 114.48C129.476 114.48 129.98 114.572 130.436 114.756C130.892 114.94 131.28 115.216 131.6 115.584C131.92 115.944 132.168 116.396 132.344 116.94C132.52 117.476 132.608 118.1 132.608 118.812C132.608 119.524 132.52 120.152 132.344 120.696C132.168 121.232 131.92 121.684 131.6 122.052C131.28 122.412 130.892 122.684 130.436 122.868C129.98 123.052 129.476 123.144 128.924 123.144ZM128.924 121.524C129.476 121.524 129.904 121.344 130.208 120.984C130.52 120.624 130.676 120.108 130.676 119.436V118.188C130.676 117.516 130.52 117 130.208 116.64C129.904 116.28 129.476 116.1 128.924 116.1C128.372 116.1 127.94 116.28 127.628 116.64C127.324 117 127.172 117.516 127.172 118.188V119.436C127.172 120.108 127.324 120.624 127.628 120.984C127.94 121.344 128.372 121.524 128.924 121.524ZM61.4952 130.624V135.76C61.4952 136.352 61.6112 136.796 61.8432 137.092C62.0752 137.38 62.4632 137.524 63.0072 137.524C63.5512 137.524 63.9392 137.38 64.1712 137.092C64.4032 136.796 64.5192 136.352 64.5192 135.76V130.624H66.2952V135.568C66.2952 136.184 66.2352 136.72 66.1152 137.176C66.0032 137.624 65.8152 137.996 65.5512 138.292C65.2872 138.58 64.9472 138.796 64.5312 138.94C64.1152 139.076 63.6072 139.144 63.0072 139.144C62.4072 139.144 61.8992 139.076 61.4832 138.94C61.0672 138.796 60.7272 138.58 60.4632 138.292C60.1992 137.996 60.0072 137.624 59.8872 137.176C59.7752 136.72 59.7192 136.184 59.7192 135.568V130.624H61.4952ZM71.0032 139H69.1792V130.624H73.1512C73.5352 130.624 73.8832 130.688 74.1952 130.816C74.5072 130.944 74.7712 131.128 74.9872 131.368C75.2112 131.6 75.3832 131.88 75.5032 132.208C75.6232 132.536 75.6832 132.9 75.6832 133.3C75.6832 133.868 75.5552 134.364 75.2992 134.788C75.0512 135.212 74.6712 135.52 74.1592 135.712L75.8032 139H73.7752L72.3112 135.928H71.0032V139ZM72.9232 134.392C73.1952 134.392 73.4072 134.324 73.5592 134.188C73.7192 134.044 73.7992 133.836 73.7992 133.564V133.036C73.7992 132.764 73.7192 132.56 73.5592 132.424C73.4072 132.28 73.1952 132.208 72.9232 132.208H71.0032V134.392H72.9232ZM78.3452 130.624H82.4132C83.1092 130.624 83.6492 130.82 84.0332 131.212C84.4252 131.604 84.6212 132.124 84.6212 132.772C84.6212 133.092 84.5772 133.364 84.4892 133.588C84.4092 133.812 84.2972 133.996 84.1532 134.14C84.0172 134.284 83.8532 134.392 83.6612 134.464C83.4772 134.528 83.2772 134.564 83.0612 134.572V134.644C83.2612 134.644 83.4692 134.68 83.6852 134.752C83.9092 134.824 84.1132 134.94 84.2972 135.1C84.4812 135.252 84.6332 135.452 84.7532 135.7C84.8812 135.948 84.9452 136.252 84.9452 136.612C84.9452 136.94 84.8892 137.252 84.7772 137.548C84.6732 137.836 84.5252 138.088 84.3332 138.304C84.1412 138.52 83.9132 138.692 83.6492 138.82C83.3852 138.94 83.0972 139 82.7852 139H78.3452V130.624ZM80.1692 137.464H82.2692C82.5092 137.464 82.6972 137.4 82.8332 137.272C82.9772 137.136 83.0492 136.948 83.0492 136.708V136.3C83.0492 136.06 82.9772 135.876 82.8332 135.748C82.6972 135.612 82.5092 135.544 82.2692 135.544H80.1692V137.464ZM80.1692 134.056H81.9812C82.2212 134.056 82.4092 133.988 82.5452 133.852C82.6812 133.716 82.7492 133.528 82.7492 133.288V132.928C82.7492 132.688 82.6812 132.5 82.5452 132.364C82.4092 132.228 82.2212 132.16 81.9812 132.16H80.1692V134.056ZM92.4133 139L91.8133 137.008H89.0173L88.4173 139H86.5693L89.3293 130.624H91.5853L94.3093 139H92.4133ZM90.4333 132.28H90.3733L89.4493 135.46H91.3693L90.4333 132.28ZM99.1041 135.04L98.3001 133.36H98.2641V139H96.5481V130.624H98.5401L100.832 134.584L101.636 136.264H101.672V130.624H103.388V139H101.396L99.1041 135.04ZM105.988 139V137.548H107.068V132.076H105.988V130.624H109.972V132.076H108.892V137.548H109.972V139H105.988ZM118.463 139H112.115V137.38L116.243 132.244H112.319V130.624H118.367V132.244L114.227 137.38H118.463V139ZM126.1 139L125.5 137.008H122.704L122.104 139H120.256L123.016 130.624H125.272L127.996 139H126.1ZM124.12 132.28H124.06L123.136 135.46H125.056L124.12 132.28ZM132.942 132.244V139H131.118V132.244H128.85V130.624H135.21V132.244H132.942ZM137.167 139V137.548H138.247V132.076H137.167V130.624H141.151V132.076H140.071V137.548H141.151V139H137.167ZM147.111 139.144C146.559 139.144 146.055 139.052 145.599 138.868C145.143 138.684 144.755 138.412 144.435 138.052C144.115 137.684 143.867 137.232 143.691 136.696C143.515 136.152 143.427 135.524 143.427 134.812C143.427 134.1 143.515 133.476 143.691 132.94C143.867 132.396 144.115 131.944 144.435 131.584C144.755 131.216 145.143 130.94 145.599 130.756C146.055 130.572 146.559 130.48 147.111 130.48C147.663 130.48 148.167 130.572 148.623 130.756C149.079 130.94 149.467 131.216 149.787 131.584C150.107 131.944 150.355 132.396 150.531 132.94C150.707 133.476 150.795 134.1 150.795 134.812C150.795 135.524 150.707 136.152 150.531 136.696C150.355 137.232 150.107 137.684 149.787 138.052C149.467 138.412 149.079 138.684 148.623 138.868C148.167 139.052 147.663 139.144 147.111 139.144ZM147.111 137.524C147.663 137.524 148.091 137.344 148.395 136.984C148.707 136.624 148.863 136.108 148.863 135.436V134.188C148.863 133.516 148.707 133 148.395 132.64C148.091 132.28 147.663 132.1 147.111 132.1C146.559 132.1 146.127 132.28 145.815 132.64C145.511 133 145.359 133.516 145.359 134.188V135.436C145.359 136.108 145.511 136.624 145.815 136.984C146.127 137.344 146.559 137.524 147.111 137.524ZM155.953 135.04L155.149 133.36H155.113V139H153.397V130.624H155.389L157.681 134.584L158.485 136.264H158.521V130.624H160.237V139H158.245L155.953 135.04Z" fill="#A8C956"/>
<path d="M175.836 63.6493C157.786 38.5358 132.336 30.6494 112.493 29.1387L111.909 45.2139C144.836 49.6494 154.836 61.6494 163.336 73.6494C171.836 85.6494 181.164 119 162.5 147L175.836 156C201.5 118 187.336 79.6494 175.836 63.6493Z" fill="#A8C956"/>
</svg>
