<svg width="220" height="220" viewBox="0 0 220 220" fill="none" xmlns="http://www.w3.org/2000/svg">
<path d="M60.256 112V109.096H64.768V97.864H64.552L61.144 102.328L58.84 100.528L62.848 95.248H68.368V109.096H71.92V112H60.256ZM87.0786 98.392H79.4706L79.1106 103.696H79.3026C79.4626 103.296 79.6386 102.936 79.8306 102.616C80.0386 102.28 80.2786 102 80.5506 101.776C80.8226 101.536 81.1506 101.352 81.5346 101.224C81.9186 101.096 82.3746 101.032 82.9026 101.032C83.6226 101.032 84.2946 101.152 84.9186 101.392C85.5426 101.632 86.0866 101.984 86.5506 102.448C87.0146 102.896 87.3826 103.456 87.6546 104.128C87.9266 104.784 88.0626 105.528 88.0626 106.36C88.0626 107.208 87.9186 108 87.6306 108.736C87.3586 109.456 86.9426 110.08 86.3826 110.608C85.8386 111.136 85.1666 111.552 84.3666 111.856C83.5666 112.144 82.6546 112.288 81.6306 112.288C80.8146 112.288 80.0946 112.2 79.4706 112.024C78.8466 111.848 78.2946 111.616 77.8146 111.328C77.3346 111.024 76.9186 110.68 76.5666 110.296C76.2146 109.912 75.9106 109.504 75.6546 109.072L78.2706 107.008C78.6386 107.664 79.0786 108.224 79.5906 108.688C80.1026 109.136 80.7906 109.36 81.6546 109.36C82.5186 109.36 83.1666 109.112 83.5986 108.616C84.0466 108.12 84.2706 107.464 84.2706 106.648V106.456C84.2706 105.688 84.0466 105.08 83.5986 104.632C83.1506 104.184 82.5346 103.96 81.7506 103.96C81.0946 103.96 80.5506 104.096 80.1186 104.368C79.7026 104.624 79.3826 104.88 79.1586 105.136L76.2066 104.728L76.8306 95.248H87.0786V98.392ZM92.3732 106.408V102.952H99.5013V106.408H92.3732ZM116.165 112H104.309V108.712L109.469 104.296C109.933 103.896 110.325 103.536 110.645 103.216C110.965 102.88 111.221 102.56 111.413 102.256C111.621 101.936 111.765 101.624 111.845 101.32C111.941 101.016 111.989 100.688 111.989 100.336V100C111.989 99.68 111.925 99.4 111.797 99.16C111.669 98.92 111.501 98.72 111.293 98.56C111.085 98.4 110.845 98.28 110.573 98.2C110.317 98.12 110.053 98.08 109.781 98.08C109.381 98.08 109.029 98.144 108.725 98.272C108.437 98.4 108.181 98.576 107.957 98.8C107.749 99.008 107.573 99.256 107.429 99.544C107.285 99.816 107.173 100.112 107.093 100.432L103.949 99.232C104.141 98.656 104.405 98.112 104.741 97.6C105.077 97.072 105.493 96.616 105.989 96.232C106.501 95.832 107.101 95.52 107.789 95.296C108.477 95.072 109.253 94.96 110.117 94.96C111.029 94.96 111.837 95.088 112.541 95.344C113.245 95.6 113.837 95.952 114.317 96.4C114.813 96.848 115.189 97.384 115.445 98.008C115.701 98.616 115.829 99.28 115.829 100C115.829 100.72 115.709 101.376 115.469 101.968C115.229 102.56 114.901 103.12 114.485 103.648C114.085 104.16 113.613 104.648 113.069 105.112C112.525 105.576 111.957 106.048 111.365 106.528L108.245 108.976H116.165V112ZM126.692 112.288C124.5 112.288 122.876 111.528 121.82 110.008C120.764 108.488 120.236 106.36 120.236 103.624C120.236 100.888 120.764 98.76 121.82 97.24C122.876 95.72 124.5 94.96 126.692 94.96C128.884 94.96 130.508 95.72 131.564 97.24C132.62 98.76 133.148 100.888 133.148 103.624C133.148 106.36 132.62 108.488 131.564 110.008C130.508 111.528 128.884 112.288 126.692 112.288ZM126.692 109.24C127.652 109.24 128.316 108.888 128.684 108.184C129.052 107.48 129.236 106.488 129.236 105.208V102.04C129.236 100.76 129.052 99.768 128.684 99.064C128.316 98.36 127.652 98.008 126.692 98.008C125.732 98.008 125.068 98.36 124.7 99.064C124.332 99.768 124.148 100.76 124.148 102.04V105.208C124.148 106.488 124.332 107.48 124.7 108.184C125.068 108.888 125.732 109.24 126.692 109.24ZM140.338 112L151.954 95.248H155.122L143.506 112H140.338ZM141.562 104.464C140.154 104.464 139.082 104.064 138.346 103.264C137.61 102.464 137.242 101.28 137.242 99.712C137.242 98.144 137.61 96.96 138.346 96.16C139.082 95.36 140.154 94.96 141.562 94.96C142.97 94.96 144.042 95.36 144.778 96.16C145.514 96.96 145.882 98.144 145.882 99.712C145.882 101.28 145.514 102.464 144.778 103.264C144.042 104.064 142.97 104.464 141.562 104.464ZM141.562 102.4C141.978 102.4 142.29 102.24 142.498 101.92C142.706 101.584 142.81 101.056 142.81 100.336V99.088C142.81 98.368 142.706 97.848 142.498 97.528C142.29 97.192 141.978 97.024 141.562 97.024C141.146 97.024 140.834 97.192 140.626 97.528C140.418 97.848 140.314 98.368 140.314 99.088V100.336C140.314 101.056 140.418 101.584 140.626 101.92C140.834 102.24 141.146 102.4 141.562 102.4ZM153.898 112.288C152.49 112.288 151.418 111.888 150.682 111.088C149.946 110.288 149.578 109.104 149.578 107.536C149.578 105.968 149.946 104.784 150.682 103.984C151.418 103.184 152.49 102.784 153.898 102.784C155.306 102.784 156.378 103.184 157.114 103.984C157.85 104.784 158.218 105.968 158.218 107.536C158.218 109.104 157.85 110.288 157.114 111.088C156.378 111.888 155.306 112.288 153.898 112.288ZM153.898 110.224C154.314 110.224 154.626 110.064 154.834 109.744C155.042 109.408 155.146 108.88 155.146 108.16V106.912C155.146 106.192 155.042 105.672 154.834 105.352C154.626 105.016 154.314 104.848 153.898 104.848C153.482 104.848 153.17 105.016 152.962 105.352C152.754 105.672 152.65 106.192 152.65 106.912V108.16C152.65 108.88 152.754 109.408 152.962 109.744C153.17 110.064 153.482 110.224 153.898 110.224Z" fill="black"/>
<path d="M62.4538 133.132C62.0432 133.132 61.6728 133.062 61.3428 132.923C61.0202 132.784 60.7415 132.582 60.5068 132.318C60.2795 132.054 60.1035 131.739 59.9788 131.372C59.8542 130.998 59.7918 130.58 59.7918 130.118C59.7918 129.656 59.8542 129.242 59.9788 128.875C60.1035 128.508 60.2795 128.197 60.5068 127.94C60.7415 127.676 61.0202 127.474 61.3428 127.335C61.6728 127.196 62.0432 127.126 62.4538 127.126C62.8645 127.126 63.2348 127.196 63.5648 127.335C63.8948 127.474 64.1735 127.676 64.4008 127.94C64.6355 128.197 64.8152 128.508 64.9398 128.875C65.0645 129.242 65.1268 129.656 65.1268 130.118C65.1268 130.58 65.0645 130.998 64.9398 131.372C64.8152 131.739 64.6355 132.054 64.4008 132.318C64.1735 132.582 63.8948 132.784 63.5648 132.923C63.2348 133.062 62.8645 133.132 62.4538 133.132ZM62.4538 131.999C62.8278 131.999 63.1212 131.885 63.3338 131.658C63.5465 131.431 63.6528 131.097 63.6528 130.657V129.59C63.6528 129.157 63.5465 128.827 63.3338 128.6C63.1212 128.373 62.8278 128.259 62.4538 128.259C62.0872 128.259 61.7975 128.373 61.5848 128.6C61.3722 128.827 61.2658 129.157 61.2658 129.59V130.657C61.2658 131.097 61.3722 131.431 61.5848 131.658C61.7975 131.885 62.0872 131.999 62.4538 131.999ZM67.5866 128.369H66.7396V127.258H67.5866V126.433C67.5866 125.927 67.7186 125.538 67.9826 125.267C68.254 124.996 68.65 124.86 69.1706 124.86H70.1716V125.982H68.9946V127.258H70.1716V128.369H68.9946V133H67.5866V128.369ZM77.5189 133C77.0349 133 76.6646 132.875 76.4079 132.626C76.1586 132.369 76.0339 132.006 76.0339 131.537V128.38H75.1869V127.258H75.6269C75.8396 127.258 75.9826 127.21 76.0559 127.115C76.1366 127.012 76.1769 126.862 76.1769 126.664V125.685H77.4419V127.258H78.6189V128.38H77.4419V131.878H78.5309V133H77.5189ZM83.0642 133.132C82.6536 133.132 82.2832 133.062 81.9532 132.923C81.6306 132.784 81.3519 132.582 81.1172 132.318C80.8899 132.054 80.7139 131.739 80.5892 131.372C80.4646 130.998 80.4022 130.58 80.4022 130.118C80.4022 129.656 80.4646 129.242 80.5892 128.875C80.7139 128.508 80.8899 128.197 81.1172 127.94C81.3519 127.676 81.6306 127.474 81.9532 127.335C82.2832 127.196 82.6536 127.126 83.0642 127.126C83.4749 127.126 83.8452 127.196 84.1752 127.335C84.5052 127.474 84.7839 127.676 85.0112 127.94C85.2459 128.197 85.4256 128.508 85.5502 128.875C85.6749 129.242 85.7372 129.656 85.7372 130.118C85.7372 130.58 85.6749 130.998 85.5502 131.372C85.4256 131.739 85.2459 132.054 85.0112 132.318C84.7839 132.582 84.5052 132.784 84.1752 132.923C83.8452 133.062 83.4749 133.132 83.0642 133.132ZM83.0642 131.999C83.4382 131.999 83.7316 131.885 83.9442 131.658C84.1569 131.431 84.2632 131.097 84.2632 130.657V129.59C84.2632 129.157 84.1569 128.827 83.9442 128.6C83.7316 128.373 83.4382 128.259 83.0642 128.259C82.6976 128.259 82.4079 128.373 82.1952 128.6C81.9826 128.827 81.8762 129.157 81.8762 129.59V130.657C81.8762 131.097 81.9826 131.431 82.1952 131.658C82.4079 131.885 82.6976 131.999 83.0642 131.999ZM89.7255 133C89.2415 133 88.8712 132.875 88.6145 132.626C88.3652 132.369 88.2405 132.006 88.2405 131.537V128.38H87.3935V127.258H87.8335C88.0462 127.258 88.1892 127.21 88.2625 127.115C88.3432 127.012 88.3835 126.862 88.3835 126.664V125.685H89.6485V127.258H90.8255V128.38H89.6485V131.878H90.7375V133H89.7255ZM97.2608 133C96.9528 133 96.7071 132.912 96.5238 132.736C96.3478 132.553 96.2378 132.311 96.1938 132.01H96.1278C96.0324 132.384 95.8381 132.666 95.5448 132.857C95.2514 133.04 94.8884 133.132 94.4558 133.132C93.8691 133.132 93.4181 132.978 93.1028 132.67C92.7874 132.362 92.6298 131.951 92.6298 131.438C92.6298 130.844 92.8424 130.404 93.2678 130.118C93.6931 129.825 94.2981 129.678 95.0828 129.678H96.0618V129.26C96.0618 128.937 95.9774 128.688 95.8088 128.512C95.6401 128.336 95.3688 128.248 94.9948 128.248C94.6648 128.248 94.3971 128.321 94.1918 128.468C93.9938 128.607 93.8251 128.776 93.6858 128.974L92.8498 128.226C93.0624 127.896 93.3448 127.632 93.6968 127.434C94.0488 127.229 94.5144 127.126 95.0938 127.126C95.8711 127.126 96.4614 127.302 96.8648 127.654C97.2681 128.006 97.4698 128.512 97.4698 129.172V131.878H98.0418V133H97.2608ZM94.9288 132.109C95.2441 132.109 95.5118 132.039 95.7318 131.9C95.9518 131.761 96.0618 131.555 96.0618 131.284V130.525H95.1598C94.4264 130.525 94.0598 130.76 94.0598 131.229V131.416C94.0598 131.651 94.1331 131.827 94.2798 131.944C94.4338 132.054 94.6501 132.109 94.9288 132.109ZM101.579 133C101.095 133 100.74 132.879 100.512 132.637C100.285 132.395 100.171 132.054 100.171 131.614V124.86H101.579V131.878H102.338V133H101.579ZM110.305 133.132C109.88 133.132 109.499 133.062 109.161 132.923C108.831 132.776 108.549 132.575 108.314 132.318C108.087 132.054 107.911 131.739 107.786 131.372C107.662 130.998 107.599 130.58 107.599 130.118C107.599 129.663 107.658 129.253 107.775 128.886C107.9 128.519 108.076 128.208 108.303 127.951C108.531 127.687 108.809 127.485 109.139 127.346C109.469 127.199 109.843 127.126 110.261 127.126C110.709 127.126 111.097 127.203 111.427 127.357C111.757 127.511 112.029 127.72 112.241 127.984C112.454 128.248 112.612 128.556 112.714 128.908C112.824 129.253 112.879 129.623 112.879 130.019V130.481H109.062V130.624C109.062 131.042 109.18 131.379 109.414 131.636C109.649 131.885 109.997 132.01 110.459 132.01C110.811 132.01 111.097 131.937 111.317 131.79C111.545 131.643 111.746 131.456 111.922 131.229L112.681 132.076C112.447 132.406 112.124 132.666 111.713 132.857C111.31 133.04 110.841 133.132 110.305 133.132ZM110.283 128.182C109.909 128.182 109.612 128.307 109.392 128.556C109.172 128.805 109.062 129.128 109.062 129.524V129.612H111.416V129.513C111.416 129.117 111.317 128.798 111.119 128.556C110.929 128.307 110.65 128.182 110.283 128.182ZM115.108 133V127.258H116.516V128.215H116.571C116.681 127.914 116.857 127.658 117.099 127.445C117.341 127.232 117.678 127.126 118.111 127.126C118.507 127.126 118.848 127.221 119.134 127.412C119.42 127.603 119.633 127.892 119.772 128.281H119.794C119.897 127.958 120.098 127.687 120.399 127.467C120.707 127.24 121.092 127.126 121.554 127.126C122.119 127.126 122.551 127.32 122.852 127.709C123.16 128.098 123.314 128.651 123.314 129.37V133H121.906V129.513C121.906 128.692 121.598 128.281 120.982 128.281C120.843 128.281 120.707 128.303 120.575 128.347C120.45 128.384 120.337 128.442 120.234 128.523C120.139 128.596 120.062 128.692 120.003 128.809C119.944 128.919 119.915 129.051 119.915 129.205V133H118.507V129.513C118.507 128.692 118.199 128.281 117.583 128.281C117.451 128.281 117.319 128.303 117.187 128.347C117.062 128.384 116.949 128.442 116.846 128.523C116.751 128.596 116.67 128.692 116.604 128.809C116.545 128.919 116.516 129.051 116.516 129.205V133H115.108ZM126.567 126.422C126.273 126.422 126.061 126.356 125.929 126.224C125.804 126.092 125.742 125.923 125.742 125.718V125.498C125.742 125.293 125.804 125.124 125.929 124.992C126.061 124.86 126.273 124.794 126.567 124.794C126.853 124.794 127.062 124.86 127.194 124.992C127.326 125.124 127.392 125.293 127.392 125.498V125.718C127.392 125.923 127.326 126.092 127.194 126.224C127.062 126.356 126.853 126.422 126.567 126.422ZM125.863 127.258H127.271V133H125.863V127.258ZM131.774 133.132C131.224 133.132 130.762 133.04 130.388 132.857C130.014 132.666 129.684 132.406 129.398 132.076L130.256 131.24C130.468 131.482 130.699 131.673 130.949 131.812C131.205 131.951 131.499 132.021 131.829 132.021C132.166 132.021 132.408 131.962 132.555 131.845C132.709 131.728 132.786 131.566 132.786 131.361C132.786 131.192 132.731 131.06 132.621 130.965C132.518 130.862 132.338 130.793 132.082 130.756L131.51 130.679C130.886 130.598 130.41 130.422 130.08 130.151C129.757 129.872 129.596 129.469 129.596 128.941C129.596 128.662 129.647 128.413 129.75 128.193C129.852 127.966 129.999 127.775 130.19 127.621C130.38 127.46 130.608 127.339 130.872 127.258C131.143 127.17 131.444 127.126 131.774 127.126C132.052 127.126 132.298 127.148 132.511 127.192C132.731 127.229 132.929 127.287 133.105 127.368C133.281 127.441 133.442 127.537 133.589 127.654C133.735 127.764 133.878 127.889 134.018 128.028L133.193 128.853C133.024 128.677 132.822 128.53 132.588 128.413C132.353 128.296 132.096 128.237 131.818 128.237C131.51 128.237 131.286 128.292 131.147 128.402C131.015 128.512 130.949 128.655 130.949 128.831C130.949 129.022 131.004 129.168 131.114 129.271C131.231 129.366 131.425 129.436 131.697 129.48L132.28 129.557C133.519 129.733 134.139 130.298 134.139 131.251C134.139 131.53 134.08 131.786 133.963 132.021C133.853 132.248 133.695 132.446 133.49 132.615C133.284 132.776 133.035 132.905 132.742 133C132.456 133.088 132.133 133.132 131.774 133.132ZM138.178 133.132C137.628 133.132 137.166 133.04 136.792 132.857C136.418 132.666 136.088 132.406 135.802 132.076L136.66 131.24C136.873 131.482 137.104 131.673 137.353 131.812C137.61 131.951 137.903 132.021 138.233 132.021C138.57 132.021 138.812 131.962 138.959 131.845C139.113 131.728 139.19 131.566 139.19 131.361C139.19 131.192 139.135 131.06 139.025 130.965C138.922 130.862 138.743 130.793 138.486 130.756L137.914 130.679C137.291 130.598 136.814 130.422 136.484 130.151C136.161 129.872 136 129.469 136 128.941C136 128.662 136.051 128.413 136.154 128.193C136.257 127.966 136.403 127.775 136.594 127.621C136.785 127.46 137.012 127.339 137.276 127.258C137.547 127.17 137.848 127.126 138.178 127.126C138.457 127.126 138.702 127.148 138.915 127.192C139.135 127.229 139.333 127.287 139.509 127.368C139.685 127.441 139.846 127.537 139.993 127.654C140.14 127.764 140.283 127.889 140.422 128.028L139.597 128.853C139.428 128.677 139.227 128.53 138.992 128.413C138.757 128.296 138.501 128.237 138.222 128.237C137.914 128.237 137.69 128.292 137.551 128.402C137.419 128.512 137.353 128.655 137.353 128.831C137.353 129.022 137.408 129.168 137.518 129.271C137.635 129.366 137.83 129.436 138.101 129.48L138.684 129.557C139.923 129.733 140.543 130.298 140.543 131.251C140.543 131.53 140.484 131.786 140.367 132.021C140.257 132.248 140.099 132.446 139.894 132.615C139.689 132.776 139.439 132.905 139.146 133C138.86 133.088 138.537 133.132 138.178 133.132ZM143.48 126.422C143.187 126.422 142.974 126.356 142.842 126.224C142.717 126.092 142.655 125.923 142.655 125.718V125.498C142.655 125.293 142.717 125.124 142.842 124.992C142.974 124.86 143.187 124.794 143.48 124.794C143.766 124.794 143.975 124.86 144.107 124.992C144.239 125.124 144.305 125.293 144.305 125.498V125.718C144.305 125.923 144.239 126.092 144.107 126.224C143.975 126.356 143.766 126.422 143.48 126.422ZM142.776 127.258H144.184V133H142.776V127.258ZM149.083 133.132C148.672 133.132 148.302 133.062 147.972 132.923C147.649 132.784 147.371 132.582 147.136 132.318C146.909 132.054 146.733 131.739 146.608 131.372C146.483 130.998 146.421 130.58 146.421 130.118C146.421 129.656 146.483 129.242 146.608 128.875C146.733 128.508 146.909 128.197 147.136 127.94C147.371 127.676 147.649 127.474 147.972 127.335C148.302 127.196 148.672 127.126 149.083 127.126C149.494 127.126 149.864 127.196 150.194 127.335C150.524 127.474 150.803 127.676 151.03 127.94C151.265 128.197 151.444 128.508 151.569 128.875C151.694 129.242 151.756 129.656 151.756 130.118C151.756 130.58 151.694 130.998 151.569 131.372C151.444 131.739 151.265 132.054 151.03 132.318C150.803 132.582 150.524 132.784 150.194 132.923C149.864 133.062 149.494 133.132 149.083 133.132ZM149.083 131.999C149.457 131.999 149.75 131.885 149.963 131.658C150.176 131.431 150.282 131.097 150.282 130.657V129.59C150.282 129.157 150.176 128.827 149.963 128.6C149.75 128.373 149.457 128.259 149.083 128.259C148.716 128.259 148.427 128.373 148.214 128.6C148.001 128.827 147.895 129.157 147.895 129.59V130.657C147.895 131.097 148.001 131.431 148.214 131.658C148.427 131.885 148.716 131.999 149.083 131.999ZM153.994 133V127.258H155.402V128.215H155.457C155.575 127.907 155.758 127.65 156.007 127.445C156.264 127.232 156.616 127.126 157.063 127.126C157.657 127.126 158.112 127.32 158.427 127.709C158.743 128.098 158.9 128.651 158.9 129.37V133H157.492V129.513C157.492 129.102 157.419 128.794 157.272 128.589C157.126 128.384 156.884 128.281 156.546 128.281C156.4 128.281 156.257 128.303 156.117 128.347C155.985 128.384 155.864 128.442 155.754 128.523C155.652 128.596 155.567 128.692 155.501 128.809C155.435 128.919 155.402 129.051 155.402 129.205V133H153.994Z" fill="#08509C"/>
<path d="M150.081 40.2141C136.305 32.2605 120.48 28.5706 104.607 29.611C88.7336 30.6514 73.5255 36.3753 60.9054 46.059C48.2854 55.7427 38.8203 68.9512 33.7071 84.0142C28.5939 99.0772 28.0623 115.318 32.1793 130.683C36.2964 146.048 44.8774 159.848 56.837 170.336C68.7967 180.824 83.5979 187.531 99.369 189.607C115.14 191.683 131.173 189.036 145.439 182.001C159.706 174.965 171.566 163.857 179.52 150.081C190.185 131.608 193.076 109.655 187.555 89.0506C182.034 68.4466 168.554 50.8796 150.081 40.2141ZM165.589 142.038C158.139 154.926 146.451 164.832 132.516 170.068C118.582 175.304 103.263 175.546 89.1691 170.754C75.0756 165.961 63.08 156.43 55.226 143.785C47.372 131.139 44.1457 116.161 46.0968 101.404C48.0479 86.6462 55.0556 73.0217 65.926 62.8516C76.7964 52.6816 90.8568 46.5954 105.711 45.63C120.566 44.6646 135.296 48.8797 147.391 57.5572C159.487 66.2347 168.199 78.8376 172.044 93.2186C174.218 101.386 174.762 109.901 173.644 118.278C172.527 126.655 169.77 134.73 165.531 142.042L165.589 142.038Z" fill="#E9E9E9"/>
<path d="M150.526 40.5474C139.023 33.7596 126.005 29.9581 112.657 29.4892L112.073 45.5644C123.362 45.9915 134.341 49.3776 143.91 55.3834C153.478 61.3893 161.301 69.804 166.594 79.7847L180.796 72.2529C173.847 59.0777 163.365 48.0987 150.526 40.5474Z" fill="#A8C956"/>
<path d="M112.657 29.4892C126.005 29.9581 139.023 33.7596 150.526 40.5474C163.365 48.0987 173.847 59.0777 180.796 72.2529L166.594 79.7847C161.301 69.804 153.478 61.3893 143.91 55.3834C134.341 49.3776 123.362 45.9915 112.073 45.5644L112.657 29.4892Z" fill="#8AC0E8"/>
</svg>
