<svg width="45" height="119" viewBox="0 0 45 119" fill="none" xmlns="http://www.w3.org/2000/svg">
<path fill-rule="evenodd" clip-rule="evenodd" d="M22.3125 0C16.5618 0 11.9 4.66183 11.9 10.4125V76.9485C4.82276 80.6896 0 88.1253 0 96.6875C0 109.01 9.98965 119 22.3125 119C34.6354 119 44.625 109.01 44.625 96.6875C44.625 88.1253 39.8022 80.6895 32.725 76.9485V10.4125C32.725 4.66184 28.0631 0 22.3125 0Z" fill="#F1E8CF"/>
<path fill-rule="evenodd" clip-rule="evenodd" d="M26.25 33.25H19.25V80.8238C12.2606 82.3236 7 88.8561 7 96.6875C7 105.628 13.8556 112.875 22.3125 112.875C30.7694 112.875 37.625 105.628 37.625 96.6875C37.625 89.1865 32.7988 82.8771 26.25 81.0402V33.25Z" fill="#E73832"/>
</svg>
