<svg width="183" height="167" viewBox="0 0 183 167" fill="none" xmlns="http://www.w3.org/2000/svg">
<circle cx="144" cy="45" r="39" fill="#A8C956"/>
<path d="M115.049 41.7228V49.6758H113.745V44.5388C113.745 44.3334 113.756 44.1116 113.778 43.8733L111.375 48.3888C111.261 48.6051 111.087 48.7133 110.852 48.7133H110.643C110.409 48.7133 110.234 48.6051 110.121 48.3888L107.69 43.8568C107.701 43.9778 107.71 44.0969 107.717 44.2143C107.725 44.3316 107.728 44.4398 107.728 44.5388V49.6758H106.425V41.7228H107.541C107.607 41.7228 107.664 41.7246 107.712 41.7283C107.759 41.7319 107.802 41.7411 107.838 41.7558C107.879 41.7704 107.913 41.7943 107.943 41.8273C107.976 41.8603 108.007 41.9043 108.036 41.9593L110.418 46.3758C110.48 46.4931 110.537 46.6141 110.588 46.7388C110.643 46.8634 110.696 46.9918 110.748 47.1238C110.799 46.9881 110.852 46.8579 110.907 46.7333C110.962 46.6049 111.021 46.4821 111.083 46.3648L113.432 41.9593C113.461 41.9043 113.492 41.8603 113.525 41.8273C113.558 41.7943 113.593 41.7704 113.63 41.7558C113.67 41.7411 113.714 41.7319 113.762 41.7283C113.809 41.7246 113.866 41.7228 113.932 41.7228H115.049ZM118.931 44.0328V49.6758H117.567V44.0328H118.931ZM119.118 42.3883C119.118 42.5056 119.095 42.6156 119.047 42.7183C118.999 42.8209 118.935 42.9108 118.854 42.9878C118.777 43.0648 118.686 43.1271 118.579 43.1748C118.473 43.2188 118.359 43.2408 118.238 43.2408C118.121 43.2408 118.009 43.2188 117.903 43.1748C117.8 43.1271 117.71 43.0648 117.633 42.9878C117.556 42.9108 117.494 42.8209 117.446 42.7183C117.402 42.6156 117.38 42.5056 117.38 42.3883C117.38 42.2673 117.402 42.1536 117.446 42.0473C117.494 41.9409 117.556 41.8493 117.633 41.7723C117.71 41.6953 117.8 41.6348 117.903 41.5908C118.009 41.5431 118.121 41.5193 118.238 41.5193C118.359 41.5193 118.473 41.5431 118.579 41.5908C118.686 41.6348 118.777 41.6953 118.854 41.7723C118.935 41.8493 118.999 41.9409 119.047 42.0473C119.095 42.1536 119.118 42.2673 119.118 42.3883ZM125.349 45.2263C125.309 45.2776 125.268 45.3179 125.228 45.3473C125.191 45.3766 125.136 45.3913 125.063 45.3913C124.993 45.3913 124.925 45.3711 124.859 45.3308C124.793 45.2868 124.715 45.2391 124.623 45.1878C124.531 45.1328 124.421 45.0851 124.293 45.0448C124.168 45.0008 124.012 44.9788 123.825 44.9788C123.587 44.9788 123.378 45.0228 123.198 45.1108C123.019 45.1951 122.868 45.3179 122.747 45.4793C122.63 45.6406 122.542 45.8368 122.483 46.0678C122.425 46.2951 122.395 46.5536 122.395 46.8433C122.395 47.1439 122.427 47.4116 122.489 47.6463C122.555 47.8809 122.648 48.0789 122.769 48.2403C122.89 48.3979 123.037 48.5189 123.209 48.6033C123.382 48.6839 123.576 48.7243 123.792 48.7243C124.009 48.7243 124.183 48.6986 124.315 48.6473C124.451 48.5923 124.564 48.5336 124.656 48.4713C124.748 48.4053 124.826 48.3466 124.892 48.2953C124.962 48.2403 125.039 48.2128 125.123 48.2128C125.233 48.2128 125.316 48.2549 125.371 48.3393L125.761 48.8343C125.611 49.0103 125.448 49.1588 125.272 49.2798C125.096 49.3971 124.913 49.4924 124.722 49.5658C124.535 49.6354 124.341 49.6849 124.139 49.7143C123.941 49.7436 123.743 49.7583 123.545 49.7583C123.197 49.7583 122.868 49.6941 122.56 49.5658C122.252 49.4338 121.983 49.2431 121.752 48.9938C121.521 48.7444 121.338 48.4401 121.202 48.0808C121.07 47.7178 121.004 47.3053 121.004 46.8433C121.004 46.4289 121.063 46.0458 121.18 45.6938C121.301 45.3381 121.477 45.0319 121.708 44.7753C121.939 44.5149 122.225 44.3114 122.566 44.1648C122.907 44.0181 123.299 43.9448 123.743 43.9448C124.165 43.9448 124.533 44.0126 124.848 44.1483C125.167 44.2839 125.453 44.4783 125.706 44.7313L125.349 45.2263ZM128.885 45.0118C129.061 44.6744 129.27 44.4104 129.512 44.2198C129.754 44.0254 130.04 43.9283 130.37 43.9283C130.63 43.9283 130.839 43.9851 130.997 44.0988L130.909 45.1163C130.89 45.1823 130.863 45.2299 130.826 45.2593C130.793 45.2849 130.747 45.2978 130.689 45.2978C130.634 45.2978 130.551 45.2886 130.441 45.2703C130.335 45.2519 130.23 45.2428 130.128 45.2428C129.977 45.2428 129.843 45.2648 129.726 45.3088C129.609 45.3528 129.502 45.4169 129.407 45.5013C129.315 45.5819 129.233 45.6809 129.16 45.7983C129.09 45.9156 129.024 46.0494 128.962 46.1998V49.6758H127.603V44.0328H128.401C128.54 44.0328 128.637 44.0584 128.692 44.1098C128.747 44.1574 128.784 44.2454 128.802 44.3738L128.885 45.0118ZM135.032 43.9448C135.45 43.9448 135.83 44.0126 136.171 44.1483C136.516 44.2839 136.809 44.4764 137.051 44.7258C137.297 44.9751 137.485 45.2794 137.617 45.6388C137.749 45.9981 137.815 46.3996 137.815 46.8433C137.815 47.2906 137.749 47.6939 137.617 48.0533C137.485 48.4126 137.297 48.7188 137.051 48.9718C136.809 49.2248 136.516 49.4191 136.171 49.5548C135.83 49.6904 135.45 49.7583 135.032 49.7583C134.611 49.7583 134.228 49.6904 133.883 49.5548C133.538 49.4191 133.243 49.2248 132.997 48.9718C132.755 48.7188 132.567 48.4126 132.431 48.0533C132.299 47.6939 132.233 47.2906 132.233 46.8433C132.233 46.3996 132.299 45.9981 132.431 45.6388C132.567 45.2794 132.755 44.9751 132.997 44.7258C133.243 44.4764 133.538 44.2839 133.883 44.1483C134.228 44.0126 134.611 43.9448 135.032 43.9448ZM135.032 48.7133C135.502 48.7133 135.848 48.5556 136.072 48.2403C136.299 47.9249 136.413 47.4629 136.413 46.8543C136.413 46.2456 136.299 45.7818 136.072 45.4628C135.848 45.1438 135.502 44.9843 135.032 44.9843C134.556 44.9843 134.202 45.1456 133.971 45.4683C133.744 45.7873 133.63 46.2493 133.63 46.8543C133.63 47.4593 133.744 47.9213 133.971 48.2403C134.202 48.5556 134.556 48.7133 135.032 48.7133ZM141.2 48.2128C141.354 48.3998 141.521 48.5318 141.701 48.6088C141.884 48.6858 142.082 48.7243 142.295 48.7243C142.5 48.7243 142.685 48.6858 142.85 48.6088C143.015 48.5318 143.155 48.4144 143.268 48.2568C143.386 48.0991 143.476 47.9011 143.538 47.6628C143.6 47.4208 143.631 47.1366 143.631 46.8103C143.631 46.4803 143.604 46.2016 143.549 45.9743C143.498 45.7433 143.422 45.5563 143.323 45.4133C143.224 45.2703 143.103 45.1658 142.96 45.0998C142.821 45.0338 142.662 45.0008 142.482 45.0008C142.2 45.0008 141.959 45.0613 141.761 45.1823C141.563 45.2996 141.376 45.4664 141.2 45.6828V48.2128ZM141.129 44.8028C141.36 44.5424 141.622 44.3316 141.915 44.1703C142.209 44.0089 142.553 43.9283 142.949 43.9283C143.257 43.9283 143.538 43.9924 143.791 44.1208C144.048 44.2491 144.268 44.4361 144.451 44.6818C144.638 44.9238 144.781 45.2244 144.88 45.5838C144.983 45.9394 145.034 46.3483 145.034 46.8103C145.034 47.2319 144.977 47.6224 144.863 47.9818C144.75 48.3411 144.587 48.6528 144.374 48.9168C144.165 49.1808 143.91 49.3879 143.609 49.5383C143.312 49.6849 142.979 49.7583 142.608 49.7583C142.293 49.7583 142.024 49.7106 141.8 49.6153C141.576 49.5163 141.376 49.3806 141.2 49.2083V51.5183H139.842V44.0328H140.672C140.848 44.0328 140.964 44.1153 141.019 44.2803L141.129 44.8028ZM148.459 41.5028V49.6758H147.1V41.5028H148.459ZM153.783 47.2668C153.391 47.2851 153.061 47.3199 152.793 47.3713C152.526 47.4189 152.311 47.4813 152.15 47.5583C151.989 47.6353 151.873 47.7251 151.803 47.8278C151.734 47.9304 151.699 48.0423 151.699 48.1633C151.699 48.4016 151.769 48.5721 151.908 48.6748C152.051 48.7774 152.236 48.8288 152.463 48.8288C152.742 48.8288 152.982 48.7793 153.184 48.6803C153.389 48.5776 153.589 48.4236 153.783 48.2183V47.2668ZM150.67 44.8193C151.319 44.2253 152.1 43.9283 153.013 43.9283C153.343 43.9283 153.639 43.9833 153.899 44.0933C154.159 44.1996 154.379 44.3499 154.559 44.5443C154.739 44.7349 154.874 44.9641 154.966 45.2318C155.061 45.4994 155.109 45.7928 155.109 46.1118V49.6758H154.493C154.365 49.6758 154.266 49.6574 154.196 49.6208C154.126 49.5804 154.071 49.5016 154.031 49.3843L153.91 48.9773C153.767 49.1056 153.628 49.2193 153.492 49.3183C153.356 49.4136 153.215 49.4943 153.068 49.5603C152.922 49.6263 152.764 49.6758 152.595 49.7088C152.43 49.7454 152.247 49.7638 152.045 49.7638C151.807 49.7638 151.587 49.7326 151.385 49.6703C151.184 49.6043 151.01 49.5071 150.863 49.3788C150.716 49.2504 150.603 49.0909 150.522 48.9003C150.441 48.7096 150.401 48.4878 150.401 48.2348C150.401 48.0918 150.425 47.9506 150.472 47.8113C150.52 47.6683 150.597 47.5326 150.703 47.4043C150.813 47.2759 150.955 47.1549 151.127 47.0413C151.299 46.9276 151.51 46.8286 151.759 46.7443C152.012 46.6599 152.306 46.5921 152.639 46.5408C152.973 46.4858 153.354 46.4528 153.783 46.4418V46.1118C153.783 45.7341 153.703 45.4554 153.541 45.2758C153.38 45.0924 153.147 45.0008 152.843 45.0008C152.623 45.0008 152.44 45.0264 152.293 45.0778C152.15 45.1291 152.023 45.1878 151.913 45.2538C151.803 45.3161 151.703 45.3729 151.611 45.4243C151.523 45.4756 151.424 45.5013 151.314 45.5013C151.219 45.5013 151.138 45.4774 151.072 45.4298C151.006 45.3784 150.953 45.3198 150.912 45.2538L150.67 44.8193ZM160.821 45.1328C160.785 45.1914 160.746 45.2336 160.706 45.2593C160.665 45.2813 160.614 45.2923 160.552 45.2923C160.486 45.2923 160.414 45.2739 160.337 45.2373C160.264 45.2006 160.178 45.1603 160.079 45.1163C159.98 45.0686 159.866 45.0264 159.738 44.9898C159.613 44.9531 159.465 44.9348 159.292 44.9348C159.025 44.9348 158.814 44.9916 158.66 45.1053C158.509 45.2189 158.434 45.3674 158.434 45.5508C158.434 45.6718 158.473 45.7744 158.55 45.8588C158.63 45.9394 158.735 46.0109 158.863 46.0733C158.995 46.1356 159.144 46.1924 159.309 46.2438C159.474 46.2914 159.641 46.3446 159.809 46.4033C159.982 46.4619 160.15 46.5298 160.315 46.6068C160.48 46.6801 160.627 46.7754 160.755 46.8928C160.887 47.0064 160.992 47.1439 161.069 47.3053C161.149 47.4666 161.19 47.6609 161.19 47.8883C161.19 48.1596 161.14 48.4108 161.041 48.6418C160.946 48.8691 160.803 49.0671 160.612 49.2358C160.422 49.4008 160.185 49.5309 159.903 49.6263C159.624 49.7179 159.301 49.7638 158.935 49.7638C158.74 49.7638 158.55 49.7454 158.363 49.7088C158.179 49.6758 158.002 49.6281 157.829 49.5658C157.661 49.5034 157.503 49.4301 157.356 49.3458C157.213 49.2614 157.087 49.1698 156.977 49.0708L157.29 48.5538C157.331 48.4914 157.378 48.4438 157.433 48.4108C157.488 48.3778 157.558 48.3613 157.642 48.3613C157.727 48.3613 157.805 48.3851 157.879 48.4328C157.956 48.4804 158.044 48.5318 158.143 48.5868C158.242 48.6418 158.357 48.6931 158.489 48.7408C158.625 48.7884 158.795 48.8123 159.001 48.8123C159.162 48.8123 159.3 48.7939 159.413 48.7573C159.531 48.7169 159.626 48.6656 159.699 48.6033C159.776 48.5409 159.831 48.4694 159.864 48.3888C159.901 48.3044 159.919 48.2183 159.919 48.1303C159.919 47.9983 159.879 47.8901 159.798 47.8058C159.721 47.7214 159.617 47.6481 159.485 47.5858C159.356 47.5234 159.208 47.4684 159.039 47.4208C158.874 47.3694 158.704 47.3144 158.528 47.2558C158.355 47.1971 158.185 47.1293 158.016 47.0523C157.851 46.9716 157.703 46.8708 157.571 46.7498C157.442 46.6288 157.338 46.4803 157.257 46.3043C157.18 46.1283 157.142 45.9156 157.142 45.6663C157.142 45.4353 157.188 45.2153 157.279 45.0063C157.371 44.7973 157.505 44.6158 157.681 44.4618C157.86 44.3041 158.082 44.1794 158.346 44.0878C158.614 43.9924 158.922 43.9448 159.27 43.9448C159.659 43.9448 160.013 44.0089 160.332 44.1373C160.651 44.2656 160.917 44.4343 161.129 44.6433L160.821 45.1328ZM168.895 49.6758H167.536V45.0503H164.918V48.1083C164.918 48.2843 164.96 48.4218 165.045 48.5208C165.133 48.6198 165.252 48.6693 165.402 48.6693C165.487 48.6693 165.556 48.6601 165.611 48.6418C165.67 48.6198 165.719 48.5978 165.76 48.5758C165.804 48.5538 165.842 48.5336 165.875 48.5153C165.908 48.4933 165.941 48.4823 165.974 48.4823C166.015 48.4823 166.048 48.4933 166.073 48.5153C166.099 48.5336 166.126 48.5629 166.156 48.6033L166.563 49.2633C166.365 49.4283 166.137 49.5529 165.881 49.6373C165.624 49.7216 165.358 49.7638 165.083 49.7638C164.592 49.7638 164.214 49.6263 163.95 49.3513C163.69 49.0726 163.56 48.6894 163.56 48.2018V45.0503H162.982C162.909 45.0503 162.847 45.0264 162.795 44.9788C162.744 44.9311 162.718 44.8596 162.718 44.7643V44.2253L163.626 44.0713L163.912 42.5368C163.93 42.4634 163.965 42.4066 164.016 42.3663C164.068 42.3259 164.134 42.3058 164.214 42.3058H164.918V44.0823H168.895V49.6758ZM169.131 42.3663C169.131 42.4836 169.107 42.5954 169.06 42.7018C169.012 42.8044 168.948 42.8943 168.867 42.9713C168.79 43.0483 168.697 43.1106 168.587 43.1583C168.48 43.2023 168.367 43.2243 168.246 43.2243C168.128 43.2243 168.018 43.2023 167.916 43.1583C167.813 43.1106 167.723 43.0483 167.646 42.9713C167.569 42.8943 167.507 42.8044 167.459 42.7018C167.415 42.5954 167.393 42.4836 167.393 42.3663C167.393 42.2453 167.415 42.1334 167.459 42.0308C167.507 41.9244 167.569 41.8328 167.646 41.7558C167.723 41.6751 167.813 41.6128 167.916 41.5688C168.018 41.5211 168.128 41.4973 168.246 41.4973C168.367 41.4973 168.48 41.5211 168.587 41.5688C168.697 41.6128 168.79 41.6751 168.867 41.7558C168.948 41.8328 169.012 41.9244 169.06 42.0308C169.107 42.1334 169.131 42.2453 169.131 42.3663ZM175.314 45.2263C175.274 45.2776 175.233 45.3179 175.193 45.3473C175.156 45.3766 175.101 45.3913 175.028 45.3913C174.958 45.3913 174.89 45.3711 174.824 45.3308C174.758 45.2868 174.68 45.2391 174.588 45.1878C174.496 45.1328 174.386 45.0851 174.258 45.0448C174.133 45.0008 173.977 44.9788 173.79 44.9788C173.552 44.9788 173.343 45.0228 173.163 45.1108C172.984 45.1951 172.833 45.3179 172.712 45.4793C172.595 45.6406 172.507 45.8368 172.448 46.0678C172.39 46.2951 172.36 46.5536 172.36 46.8433C172.36 47.1439 172.392 47.4116 172.454 47.6463C172.52 47.8809 172.613 48.0789 172.734 48.2403C172.855 48.3979 173.002 48.5189 173.174 48.6033C173.347 48.6839 173.541 48.7243 173.757 48.7243C173.974 48.7243 174.148 48.6986 174.28 48.6473C174.416 48.5923 174.529 48.5336 174.621 48.4713C174.713 48.4053 174.791 48.3466 174.857 48.2953C174.927 48.2403 175.004 48.2128 175.088 48.2128C175.198 48.2128 175.281 48.2549 175.336 48.3393L175.726 48.8343C175.576 49.0103 175.413 49.1588 175.237 49.2798C175.061 49.3971 174.878 49.4924 174.687 49.5658C174.5 49.6354 174.306 49.6849 174.104 49.7143C173.906 49.7436 173.708 49.7583 173.51 49.7583C173.162 49.7583 172.833 49.6941 172.525 49.5658C172.217 49.4338 171.948 49.2431 171.717 48.9938C171.486 48.7444 171.303 48.4401 171.167 48.0808C171.035 47.7178 170.969 47.3053 170.969 46.8433C170.969 46.4289 171.028 46.0458 171.145 45.6938C171.266 45.3381 171.442 45.0319 171.673 44.7753C171.904 44.5149 172.19 44.3114 172.531 44.1648C172.872 44.0181 173.264 43.9448 173.708 43.9448C174.13 43.9448 174.498 44.0126 174.813 44.1483C175.132 44.2839 175.418 44.4783 175.671 44.7313L175.314 45.2263ZM181.011 45.1328C180.974 45.1914 180.936 45.2336 180.896 45.2593C180.855 45.2813 180.804 45.2923 180.742 45.2923C180.676 45.2923 180.604 45.2739 180.527 45.2373C180.454 45.2006 180.368 45.1603 180.269 45.1163C180.17 45.0686 180.056 45.0264 179.928 44.9898C179.803 44.9531 179.654 44.9348 179.482 44.9348C179.214 44.9348 179.004 44.9916 178.85 45.1053C178.699 45.2189 178.624 45.3674 178.624 45.5508C178.624 45.6718 178.663 45.7744 178.74 45.8588C178.82 45.9394 178.925 46.0109 179.053 46.0733C179.185 46.1356 179.334 46.1924 179.499 46.2438C179.664 46.2914 179.83 46.3446 179.999 46.4033C180.171 46.4619 180.34 46.5298 180.505 46.6068C180.67 46.6801 180.817 46.7754 180.945 46.8928C181.077 47.0064 181.182 47.1439 181.259 47.3053C181.339 47.4666 181.38 47.6609 181.38 47.8883C181.38 48.1596 181.33 48.4108 181.231 48.6418C181.136 48.8691 180.993 49.0671 180.802 49.2358C180.611 49.4008 180.375 49.5309 180.093 49.6263C179.814 49.7179 179.491 49.7638 179.125 49.7638C178.93 49.7638 178.74 49.7454 178.553 49.7088C178.369 49.6758 178.191 49.6281 178.019 49.5658C177.85 49.5034 177.693 49.4301 177.546 49.3458C177.403 49.2614 177.277 49.1698 177.167 49.0708L177.48 48.5538C177.52 48.4914 177.568 48.4438 177.623 48.4108C177.678 48.3778 177.748 48.3613 177.832 48.3613C177.916 48.3613 177.995 48.3851 178.069 48.4328C178.146 48.4804 178.234 48.5318 178.333 48.5868C178.432 48.6418 178.547 48.6931 178.679 48.7408C178.815 48.7884 178.985 48.8123 179.191 48.8123C179.352 48.8123 179.489 48.7939 179.603 48.7573C179.72 48.7169 179.816 48.6656 179.889 48.6033C179.966 48.5409 180.021 48.4694 180.054 48.3888C180.091 48.3044 180.109 48.2183 180.109 48.1303C180.109 47.9983 180.069 47.8901 179.988 47.8058C179.911 47.7214 179.807 47.6481 179.675 47.5858C179.546 47.5234 179.398 47.4684 179.229 47.4208C179.064 47.3694 178.894 47.3144 178.718 47.2558C178.545 47.1971 178.375 47.1293 178.206 47.0523C178.041 46.9716 177.893 46.8708 177.761 46.7498C177.632 46.6288 177.528 46.4803 177.447 46.3043C177.37 46.1283 177.332 45.9156 177.332 45.6663C177.332 45.4353 177.377 45.2153 177.469 45.0063C177.561 44.7973 177.695 44.6158 177.871 44.4618C178.05 44.3041 178.272 44.1794 178.536 44.0878C178.804 43.9924 179.112 43.9448 179.46 43.9448C179.849 43.9448 180.203 44.0089 180.522 44.1373C180.841 44.2656 181.106 44.4343 181.319 44.6433L181.011 45.1328Z" fill="black"/>
<circle cx="30" cy="87" r="30" fill="#A8C956" fill-opacity="0.8"/>
<path d="M24.1744 89.1245C24.255 89.1245 24.3265 89.1557 24.3889 89.218L24.9719 89.8505C24.6492 90.2502 24.2514 90.5563 23.7784 90.769C23.309 90.9817 22.7444 91.088 22.0844 91.088C21.494 91.088 20.9624 90.9872 20.4894 90.7855C20.02 90.5838 19.6185 90.3033 19.2849 89.944C18.9512 89.5847 18.6945 89.1557 18.5149 88.657C18.3389 88.1583 18.2509 87.6138 18.2509 87.0235C18.2509 86.4258 18.3462 85.8795 18.5369 85.3845C18.7275 84.8858 18.9952 84.4568 19.3399 84.0975C19.6882 83.7382 20.1025 83.4595 20.5829 83.2615C21.0632 83.0598 21.5949 82.959 22.1779 82.959C22.7572 82.959 23.2706 83.0543 23.7179 83.245C24.1689 83.4357 24.552 83.685 24.8674 83.993L24.3724 84.6805C24.343 84.7245 24.3045 84.763 24.2569 84.796C24.2129 84.829 24.1506 84.8455 24.0699 84.8455C24.0149 84.8455 23.958 84.8308 23.8994 84.8015C23.8407 84.7685 23.7765 84.73 23.7069 84.686C23.6372 84.6383 23.5566 84.587 23.4649 84.532C23.3732 84.477 23.2669 84.4275 23.1459 84.3835C23.0249 84.3358 22.8837 84.2973 22.7224 84.268C22.5647 84.235 22.3814 84.2185 22.1724 84.2185C21.8167 84.2185 21.4904 84.2827 21.1934 84.411C20.9 84.5357 20.647 84.719 20.4344 84.961C20.2217 85.1993 20.0567 85.4927 19.9394 85.841C19.822 86.1857 19.7634 86.5798 19.7634 87.0235C19.7634 87.4708 19.8257 87.8687 19.9504 88.217C20.0787 88.5653 20.251 88.8587 20.4674 89.097C20.6837 89.3353 20.9385 89.5187 21.2319 89.647C21.5252 89.7717 21.8405 89.834 22.1779 89.834C22.3795 89.834 22.561 89.823 22.7224 89.801C22.8874 89.779 23.0377 89.7442 23.1734 89.6965C23.3127 89.6488 23.4429 89.5883 23.5639 89.515C23.6885 89.438 23.8114 89.3445 23.9324 89.2345C23.969 89.2015 24.0075 89.1758 24.0479 89.1575C24.0882 89.1355 24.1304 89.1245 24.1744 89.1245ZM34.388 87.0235C34.388 87.6065 34.2908 88.1473 34.0965 88.646C33.9058 89.141 33.6345 89.57 33.2825 89.933C32.9305 90.296 32.507 90.5802 32.012 90.7855C31.517 90.9872 30.967 91.088 30.362 91.088C29.7606 91.088 29.2125 90.9872 28.7175 90.7855C28.2225 90.5802 27.7971 90.296 27.4415 89.933C27.0895 89.57 26.8163 89.141 26.622 88.646C26.4276 88.1473 26.3305 87.6065 26.3305 87.0235C26.3305 86.4405 26.4276 85.9015 26.622 85.4065C26.8163 84.9078 27.0895 84.477 27.4415 84.114C27.7971 83.751 28.2225 83.4687 28.7175 83.267C29.2125 83.0617 29.7606 82.959 30.362 82.959C30.7653 82.959 31.1448 83.0067 31.5005 83.102C31.8561 83.1937 32.1825 83.3257 32.4795 83.498C32.7765 83.6667 33.0423 83.8738 33.277 84.1195C33.5153 84.3615 33.717 84.6328 33.882 84.9335C34.047 85.2342 34.1716 85.5605 34.256 85.9125C34.344 86.2645 34.388 86.6348 34.388 87.0235ZM32.8755 87.0235C32.8755 86.5872 32.8168 86.1967 32.6995 85.852C32.5821 85.5037 32.4153 85.2085 32.199 84.9665C31.9826 84.7245 31.7186 84.5393 31.407 84.411C31.099 84.2827 30.7506 84.2185 30.362 84.2185C29.9733 84.2185 29.6231 84.2827 29.3115 84.411C29.0035 84.5393 28.7395 84.7245 28.5195 84.9665C28.3031 85.2085 28.1363 85.5037 28.019 85.852C27.9016 86.1967 27.843 86.5872 27.843 87.0235C27.843 87.4598 27.9016 87.8522 28.019 88.2005C28.1363 88.5452 28.3031 88.8385 28.5195 89.0805C28.7395 89.3188 29.0035 89.5022 29.3115 89.6305C29.6231 89.7588 29.9733 89.823 30.362 89.823C30.7506 89.823 31.099 89.7588 31.407 89.6305C31.7186 89.5022 31.9826 89.3188 32.199 89.0805C32.4153 88.8385 32.5821 88.5452 32.6995 88.2005C32.8168 87.8522 32.8755 87.4598 32.8755 87.0235ZM41.1873 89.735C41.3339 89.735 41.4494 89.7772 41.5338 89.8615C41.6218 89.9422 41.6658 90.0503 41.6658 90.186V91H36.2098V90.549C36.2098 90.4573 36.2281 90.362 36.2648 90.263C36.3051 90.1603 36.3674 90.0687 36.4518 89.988L38.8663 87.568C39.0679 87.3627 39.2476 87.1665 39.4053 86.9795C39.5666 86.7925 39.7004 86.6073 39.8068 86.424C39.9131 86.2407 39.9938 86.0555 40.0488 85.8685C40.1074 85.6778 40.1368 85.478 40.1368 85.269C40.1368 85.0783 40.1093 84.9115 40.0543 84.7685C39.9993 84.6218 39.9204 84.499 39.8178 84.4C39.7188 84.301 39.5978 84.2277 39.4548 84.18C39.3154 84.1287 39.1578 84.103 38.9818 84.103C38.8204 84.103 38.6701 84.1268 38.5308 84.1745C38.3951 84.2185 38.2741 84.2827 38.1678 84.367C38.0614 84.4477 37.9716 84.543 37.8983 84.653C37.8249 84.763 37.7699 84.884 37.7333 85.016C37.6709 85.1847 37.5903 85.2965 37.4913 85.3515C37.3923 85.4065 37.2493 85.4193 37.0623 85.39L36.3473 85.2635C36.4023 84.8822 36.5086 84.5485 36.6663 84.2625C36.8239 83.9728 37.0201 83.7327 37.2548 83.542C37.4931 83.3477 37.7644 83.2028 38.0688 83.1075C38.3768 83.0085 38.7068 82.959 39.0588 82.959C39.4254 82.959 39.7609 83.014 40.0653 83.124C40.3696 83.2303 40.6299 83.3825 40.8463 83.5805C41.0626 83.7785 41.2313 84.0168 41.3523 84.2955C41.4733 84.5742 41.5338 84.884 41.5338 85.225C41.5338 85.5183 41.4898 85.7897 41.4018 86.039C41.3174 86.2883 41.2019 86.5267 41.0553 86.754C40.9123 86.9813 40.7436 87.2013 40.5493 87.414C40.3549 87.6267 40.1514 87.843 39.9388 88.063L38.1458 89.8945C38.3181 89.8432 38.4886 89.8047 38.6573 89.779C38.8296 89.7497 38.9928 89.735 39.1468 89.735H41.1873Z" fill="black"/>
<circle cx="90" cy="142" r="25" fill="#A8C956" fill-opacity="0.6"/>
<path d="M70.0235 144.295C70.0968 144.295 70.1618 144.323 70.2185 144.38L70.7485 144.955C70.4552 145.318 70.0935 145.597 69.6635 145.79C69.2368 145.983 68.7235 146.08 68.1235 146.08C67.5868 146.08 67.1035 145.988 66.6735 145.805C66.2468 145.622 65.8818 145.367 65.5785 145.04C65.2752 144.713 65.0418 144.323 64.8785 143.87C64.7185 143.417 64.6385 142.922 64.6385 142.385C64.6385 141.842 64.7252 141.345 64.8985 140.895C65.0718 140.442 65.3152 140.052 65.6285 139.725C65.9452 139.398 66.3218 139.145 66.7585 138.965C67.1952 138.782 67.6785 138.69 68.2085 138.69C68.7352 138.69 69.2018 138.777 69.6085 138.95C70.0185 139.123 70.3668 139.35 70.6535 139.63L70.2035 140.255C70.1768 140.295 70.1418 140.33 70.0985 140.36C70.0585 140.39 70.0018 140.405 69.9285 140.405C69.8785 140.405 69.8268 140.392 69.7735 140.365C69.7202 140.335 69.6618 140.3 69.5985 140.26C69.5352 140.217 69.4618 140.17 69.3785 140.12C69.2952 140.07 69.1985 140.025 69.0885 139.985C68.9785 139.942 68.8502 139.907 68.7035 139.88C68.5602 139.85 68.3935 139.835 68.2035 139.835C67.8802 139.835 67.5835 139.893 67.3135 140.01C67.0468 140.123 66.8168 140.29 66.6235 140.51C66.4302 140.727 66.2802 140.993 66.1735 141.31C66.0668 141.623 66.0135 141.982 66.0135 142.385C66.0135 142.792 66.0702 143.153 66.1835 143.47C66.3002 143.787 66.4568 144.053 66.6535 144.27C66.8502 144.487 67.0818 144.653 67.3485 144.77C67.6152 144.883 67.9018 144.94 68.2085 144.94C68.3918 144.94 68.5568 144.93 68.7035 144.91C68.8535 144.89 68.9902 144.858 69.1135 144.815C69.2402 144.772 69.3585 144.717 69.4685 144.65C69.5818 144.58 69.6935 144.495 69.8035 144.395C69.8368 144.365 69.8718 144.342 69.9085 144.325C69.9452 144.305 69.9835 144.295 70.0235 144.295ZM73.6098 141.42C73.8098 141.233 74.0298 141.082 74.2698 140.965C74.5098 140.848 74.7915 140.79 75.1148 140.79C75.3948 140.79 75.6432 140.838 75.8598 140.935C76.0765 141.028 76.2565 141.162 76.3998 141.335C76.5465 141.505 76.6565 141.71 76.7298 141.95C76.8065 142.187 76.8448 142.448 76.8448 142.735V146H75.6098V142.735C75.6098 142.422 75.5382 142.18 75.3948 142.01C75.2515 141.837 75.0332 141.75 74.7398 141.75C74.5265 141.75 74.3265 141.798 74.1398 141.895C73.9532 141.992 73.7765 142.123 73.6098 142.29V146H72.3748V138.57H73.6098V141.42ZM82.2244 142.845C82.2244 142.685 82.201 142.535 82.1544 142.395C82.111 142.252 82.0444 142.127 81.9544 142.02C81.8644 141.913 81.7494 141.83 81.6094 141.77C81.4727 141.707 81.3127 141.675 81.1294 141.675C80.7727 141.675 80.491 141.777 80.2844 141.98C80.081 142.183 79.951 142.472 79.8944 142.845H82.2244ZM79.8694 143.59C79.8894 143.853 79.936 144.082 80.0094 144.275C80.0827 144.465 80.1794 144.623 80.2994 144.75C80.4194 144.873 80.561 144.967 80.7244 145.03C80.891 145.09 81.0744 145.12 81.2744 145.12C81.4744 145.12 81.646 145.097 81.7894 145.05C81.936 145.003 82.0627 144.952 82.1694 144.895C82.2794 144.838 82.3744 144.787 82.4544 144.74C82.5377 144.693 82.6177 144.67 82.6944 144.67C82.7977 144.67 82.8744 144.708 82.9244 144.785L83.2794 145.235C83.1427 145.395 82.9894 145.53 82.8194 145.64C82.6494 145.747 82.471 145.833 82.2844 145.9C82.101 145.963 81.9127 146.008 81.7194 146.035C81.5294 146.062 81.3444 146.075 81.1644 146.075C80.8077 146.075 80.476 146.017 80.1694 145.9C79.8627 145.78 79.596 145.605 79.3694 145.375C79.1427 145.142 78.9644 144.855 78.8344 144.515C78.7044 144.172 78.6394 143.775 78.6394 143.325C78.6394 142.975 78.696 142.647 78.8094 142.34C78.9227 142.03 79.0844 141.762 79.2944 141.535C79.5077 141.305 79.766 141.123 80.0694 140.99C80.376 140.857 80.721 140.79 81.1044 140.79C81.4277 140.79 81.726 140.842 81.9994 140.945C82.2727 141.048 82.5077 141.2 82.7044 141.4C82.901 141.597 83.0544 141.84 83.1644 142.13C83.2777 142.417 83.3344 142.745 83.3344 143.115C83.3344 143.302 83.3144 143.428 83.2744 143.495C83.2344 143.558 83.1577 143.59 83.0444 143.59H79.8694ZM85.1612 146V140.87H85.9162C86.0762 140.87 86.1812 140.945 86.2312 141.095L86.3112 141.475C86.4012 141.375 86.4945 141.283 86.5912 141.2C86.6912 141.117 86.7962 141.045 86.9062 140.985C87.0195 140.925 87.1395 140.878 87.2662 140.845C87.3962 140.808 87.5378 140.79 87.6912 140.79C88.0145 140.79 88.2795 140.878 88.4862 141.055C88.6962 141.228 88.8528 141.46 88.9562 141.75C89.0362 141.58 89.1362 141.435 89.2562 141.315C89.3762 141.192 89.5078 141.092 89.6512 141.015C89.7945 140.938 89.9462 140.882 90.1062 140.845C90.2695 140.808 90.4328 140.79 90.5962 140.79C90.8795 140.79 91.1312 140.833 91.3512 140.92C91.5712 141.007 91.7562 141.133 91.9062 141.3C92.0562 141.467 92.1695 141.67 92.2462 141.91C92.3262 142.15 92.3662 142.425 92.3662 142.735V146H91.1312V142.735C91.1312 142.408 91.0595 142.163 90.9162 142C90.7728 141.833 90.5628 141.75 90.2862 141.75C90.1595 141.75 90.0412 141.772 89.9312 141.815C89.8245 141.858 89.7295 141.922 89.6462 142.005C89.5662 142.085 89.5028 142.187 89.4562 142.31C89.4095 142.433 89.3862 142.575 89.3862 142.735V146H88.1462V142.735C88.1462 142.392 88.0762 142.142 87.9362 141.985C87.7995 141.828 87.5978 141.75 87.3312 141.75C87.1512 141.75 86.9828 141.795 86.8262 141.885C86.6728 141.972 86.5295 142.092 86.3962 142.245V146H85.1612ZM95.7201 140.87V146H94.4801V140.87H95.7201ZM95.8901 139.375C95.8901 139.482 95.8684 139.582 95.8251 139.675C95.7817 139.768 95.7234 139.85 95.6501 139.92C95.5801 139.99 95.4967 140.047 95.4001 140.09C95.3034 140.13 95.2001 140.15 95.0901 140.15C94.9834 140.15 94.8817 140.13 94.7851 140.09C94.6917 140.047 94.6101 139.99 94.5401 139.92C94.4701 139.85 94.4134 139.768 94.3701 139.675C94.3301 139.582 94.3101 139.482 94.3101 139.375C94.3101 139.265 94.3301 139.162 94.3701 139.065C94.4134 138.968 94.4701 138.885 94.5401 138.815C94.6101 138.745 94.6917 138.69 94.7851 138.65C94.8817 138.607 94.9834 138.585 95.0901 138.585C95.2001 138.585 95.3034 138.607 95.4001 138.65C95.4967 138.69 95.5801 138.745 95.6501 138.815C95.7234 138.885 95.7817 138.968 95.8251 139.065C95.8684 139.162 95.8901 139.265 95.8901 139.375ZM101.554 141.955C101.517 142.002 101.481 142.038 101.444 142.065C101.411 142.092 101.361 142.105 101.294 142.105C101.231 142.105 101.169 142.087 101.109 142.05C101.049 142.01 100.977 141.967 100.894 141.92C100.811 141.87 100.711 141.827 100.594 141.79C100.481 141.75 100.339 141.73 100.169 141.73C99.9525 141.73 99.7625 141.77 99.5991 141.85C99.4358 141.927 99.2991 142.038 99.1891 142.185C99.0825 142.332 99.0025 142.51 98.9491 142.72C98.8958 142.927 98.8691 143.162 98.8691 143.425C98.8691 143.698 98.8975 143.942 98.9541 144.155C99.0141 144.368 99.0991 144.548 99.2091 144.695C99.3191 144.838 99.4525 144.948 99.6091 145.025C99.7658 145.098 99.9425 145.135 100.139 145.135C100.336 145.135 100.494 145.112 100.614 145.065C100.737 145.015 100.841 144.962 100.924 144.905C101.007 144.845 101.079 144.792 101.139 144.745C101.202 144.695 101.272 144.67 101.349 144.67C101.449 144.67 101.524 144.708 101.574 144.785L101.929 145.235C101.792 145.395 101.644 145.53 101.484 145.64C101.324 145.747 101.157 145.833 100.984 145.9C100.814 145.963 100.637 146.008 100.454 146.035C100.274 146.062 100.094 146.075 99.9141 146.075C99.5975 146.075 99.2991 146.017 99.0191 145.9C98.7391 145.78 98.4941 145.607 98.2841 145.38C98.0741 145.153 97.9075 144.877 97.7841 144.55C97.6641 144.22 97.6041 143.845 97.6041 143.425C97.6041 143.048 97.6575 142.7 97.7641 142.38C97.8741 142.057 98.0341 141.778 98.2441 141.545C98.4541 141.308 98.7141 141.123 99.0241 140.99C99.3341 140.857 99.6908 140.79 100.094 140.79C100.477 140.79 100.812 140.852 101.099 140.975C101.389 141.098 101.649 141.275 101.879 141.505L101.554 141.955ZM106.313 143.81C105.957 143.827 105.657 143.858 105.413 143.905C105.17 143.948 104.975 144.005 104.828 144.075C104.682 144.145 104.577 144.227 104.513 144.32C104.45 144.413 104.418 144.515 104.418 144.625C104.418 144.842 104.482 144.997 104.608 145.09C104.738 145.183 104.907 145.23 105.113 145.23C105.367 145.23 105.585 145.185 105.768 145.095C105.955 145.002 106.137 144.862 106.313 144.675V143.81ZM103.483 141.585C104.073 141.045 104.783 140.775 105.613 140.775C105.913 140.775 106.182 140.825 106.418 140.925C106.655 141.022 106.855 141.158 107.018 141.335C107.182 141.508 107.305 141.717 107.388 141.96C107.475 142.203 107.518 142.47 107.518 142.76V146H106.958C106.842 146 106.752 145.983 106.688 145.95C106.625 145.913 106.575 145.842 106.538 145.735L106.428 145.365C106.298 145.482 106.172 145.585 106.048 145.675C105.925 145.762 105.797 145.835 105.663 145.895C105.53 145.955 105.387 146 105.233 146.03C105.083 146.063 104.917 146.08 104.733 146.08C104.517 146.08 104.317 146.052 104.133 145.995C103.95 145.935 103.792 145.847 103.658 145.73C103.525 145.613 103.422 145.468 103.348 145.295C103.275 145.122 103.238 144.92 103.238 144.69C103.238 144.56 103.26 144.432 103.303 144.305C103.347 144.175 103.417 144.052 103.513 143.935C103.613 143.818 103.742 143.708 103.898 143.605C104.055 143.502 104.247 143.412 104.473 143.335C104.703 143.258 104.97 143.197 105.273 143.15C105.577 143.1 105.923 143.07 106.313 143.06V142.76C106.313 142.417 106.24 142.163 106.093 142C105.947 141.833 105.735 141.75 105.458 141.75C105.258 141.75 105.092 141.773 104.958 141.82C104.828 141.867 104.713 141.92 104.613 141.98C104.513 142.037 104.422 142.088 104.338 142.135C104.258 142.182 104.168 142.205 104.068 142.205C103.982 142.205 103.908 142.183 103.848 142.14C103.788 142.093 103.74 142.04 103.703 141.98L103.483 141.585ZM110.831 138.57V146H109.596V138.57H110.831ZM116.092 141.87C116.059 141.923 116.024 141.962 115.987 141.985C115.95 142.005 115.904 142.015 115.847 142.015C115.787 142.015 115.722 141.998 115.652 141.965C115.585 141.932 115.507 141.895 115.417 141.855C115.327 141.812 115.224 141.773 115.107 141.74C114.994 141.707 114.859 141.69 114.702 141.69C114.459 141.69 114.267 141.742 114.127 141.845C113.99 141.948 113.922 142.083 113.922 142.25C113.922 142.36 113.957 142.453 114.027 142.53C114.1 142.603 114.195 142.668 114.312 142.725C114.432 142.782 114.567 142.833 114.717 142.88C114.867 142.923 115.019 142.972 115.172 143.025C115.329 143.078 115.482 143.14 115.632 143.21C115.782 143.277 115.915 143.363 116.032 143.47C116.152 143.573 116.247 143.698 116.317 143.845C116.39 143.992 116.427 144.168 116.427 144.375C116.427 144.622 116.382 144.85 116.292 145.06C116.205 145.267 116.075 145.447 115.902 145.6C115.729 145.75 115.514 145.868 115.257 145.955C115.004 146.038 114.71 146.08 114.377 146.08C114.2 146.08 114.027 146.063 113.857 146.03C113.69 146 113.529 145.957 113.372 145.9C113.219 145.843 113.075 145.777 112.942 145.7C112.812 145.623 112.697 145.54 112.597 145.45L112.882 144.98C112.919 144.923 112.962 144.88 113.012 144.85C113.062 144.82 113.125 144.805 113.202 144.805C113.279 144.805 113.35 144.827 113.417 144.87C113.487 144.913 113.567 144.96 113.657 145.01C113.747 145.06 113.852 145.107 113.972 145.15C114.095 145.193 114.25 145.215 114.437 145.215C114.584 145.215 114.709 145.198 114.812 145.165C114.919 145.128 115.005 145.082 115.072 145.025C115.142 144.968 115.192 144.903 115.222 144.83C115.255 144.753 115.272 144.675 115.272 144.595C115.272 144.475 115.235 144.377 115.162 144.3C115.092 144.223 114.997 144.157 114.877 144.1C114.76 144.043 114.625 143.993 114.472 143.95C114.322 143.903 114.167 143.853 114.007 143.8C113.85 143.747 113.695 143.685 113.542 143.615C113.392 143.542 113.257 143.45 113.137 143.34C113.02 143.23 112.925 143.095 112.852 142.935C112.782 142.775 112.747 142.582 112.747 142.355C112.747 142.145 112.789 141.945 112.872 141.755C112.955 141.565 113.077 141.4 113.237 141.26C113.4 141.117 113.602 141.003 113.842 140.92C114.085 140.833 114.365 140.79 114.682 140.79C115.035 140.79 115.357 140.848 115.647 140.965C115.937 141.082 116.179 141.235 116.372 141.425L116.092 141.87Z" fill="black"/>
<circle cx="65" cy="25" r="25" fill="#A8C956" fill-opacity="0.6"/>
<path d="M47.3554 19.21C47.6088 19.21 47.8288 19.1783 48.0154 19.115C48.2054 19.0517 48.3604 18.965 48.4804 18.855C48.6038 18.7417 48.6954 18.6083 48.7554 18.455C48.8154 18.3017 48.8454 18.1333 48.8454 17.95C48.8454 17.5833 48.7238 17.3017 48.4804 17.105C48.2404 16.9083 47.8721 16.81 47.3754 16.81H46.5154V19.21H47.3554ZM50.8154 23H49.6004C49.3704 23 49.2038 22.91 49.1004 22.73L47.5804 20.415C47.5238 20.3283 47.4604 20.2667 47.3904 20.23C47.3238 20.1933 47.2238 20.175 47.0904 20.175H46.5154V23H45.1704V15.77H47.3754C47.8654 15.77 48.2854 15.8217 48.6354 15.925C48.9888 16.025 49.2771 16.1667 49.5004 16.35C49.7271 16.5333 49.8938 16.7533 50.0004 17.01C50.1071 17.2633 50.1604 17.5433 50.1604 17.85C50.1604 18.0933 50.1238 18.3233 50.0504 18.54C49.9804 18.7567 49.8771 18.9533 49.7404 19.13C49.6071 19.3067 49.4404 19.4617 49.2404 19.595C49.0438 19.7283 48.8188 19.8333 48.5654 19.91C48.6521 19.96 48.7321 20.02 48.8054 20.09C48.8788 20.1567 48.9454 20.2367 49.0054 20.33L50.8154 23ZM55.2742 19.845C55.2742 19.685 55.2508 19.535 55.2042 19.395C55.1608 19.2517 55.0942 19.1267 55.0042 19.02C54.9142 18.9133 54.7992 18.83 54.6592 18.77C54.5225 18.7067 54.3625 18.675 54.1792 18.675C53.8225 18.675 53.5408 18.7767 53.3342 18.98C53.1308 19.1833 53.0008 19.4717 52.9442 19.845H55.2742ZM52.9192 20.59C52.9392 20.8533 52.9858 21.0817 53.0592 21.275C53.1325 21.465 53.2292 21.6233 53.3492 21.75C53.4692 21.8733 53.6108 21.9667 53.7742 22.03C53.9408 22.09 54.1242 22.12 54.3242 22.12C54.5242 22.12 54.6958 22.0967 54.8392 22.05C54.9858 22.0033 55.1125 21.9517 55.2192 21.895C55.3292 21.8383 55.4242 21.7867 55.5042 21.74C55.5875 21.6933 55.6675 21.67 55.7442 21.67C55.8475 21.67 55.9242 21.7083 55.9742 21.785L56.3292 22.235C56.1925 22.395 56.0392 22.53 55.8692 22.64C55.6992 22.7467 55.5208 22.8333 55.3342 22.9C55.1508 22.9633 54.9625 23.0083 54.7692 23.035C54.5792 23.0617 54.3942 23.075 54.2142 23.075C53.8575 23.075 53.5258 23.0167 53.2192 22.9C52.9125 22.78 52.6458 22.605 52.4192 22.375C52.1925 22.1417 52.0142 21.855 51.8842 21.515C51.7542 21.1717 51.6892 20.775 51.6892 20.325C51.6892 19.975 51.7458 19.6467 51.8592 19.34C51.9725 19.03 52.1342 18.7617 52.3442 18.535C52.5575 18.305 52.8158 18.1233 53.1192 17.99C53.4258 17.8567 53.7708 17.79 54.1542 17.79C54.4775 17.79 54.7758 17.8417 55.0492 17.945C55.3225 18.0483 55.5575 18.2 55.7542 18.4C55.9508 18.5967 56.1042 18.84 56.2142 19.13C56.3275 19.4167 56.3842 19.745 56.3842 20.115C56.3842 20.3017 56.3642 20.4283 56.3242 20.495C56.2842 20.5583 56.2075 20.59 56.0942 20.59H52.9192ZM58.211 23V17.87H58.966C59.126 17.87 59.231 17.945 59.281 18.095L59.361 18.475C59.451 18.375 59.5443 18.2833 59.641 18.2C59.741 18.1167 59.846 18.045 59.956 17.985C60.0693 17.925 60.1893 17.8783 60.316 17.845C60.446 17.8083 60.5876 17.79 60.741 17.79C61.0643 17.79 61.3293 17.8783 61.536 18.055C61.746 18.2283 61.9026 18.46 62.006 18.75C62.086 18.58 62.186 18.435 62.306 18.315C62.426 18.1917 62.5576 18.0917 62.701 18.015C62.8443 17.9383 62.996 17.8817 63.156 17.845C63.3193 17.8083 63.4826 17.79 63.646 17.79C63.9293 17.79 64.181 17.8333 64.401 17.92C64.621 18.0067 64.806 18.1333 64.956 18.3C65.106 18.4667 65.2193 18.67 65.296 18.91C65.376 19.15 65.416 19.425 65.416 19.735V23H64.181V19.735C64.181 19.4083 64.1093 19.1633 63.966 19C63.8226 18.8333 63.6126 18.75 63.336 18.75C63.2093 18.75 63.091 18.7717 62.981 18.815C62.8743 18.8583 62.7793 18.9217 62.696 19.005C62.616 19.085 62.5526 19.1867 62.506 19.31C62.4593 19.4333 62.436 19.575 62.436 19.735V23H61.196V19.735C61.196 19.3917 61.126 19.1417 60.986 18.985C60.8493 18.8283 60.6476 18.75 60.381 18.75C60.201 18.75 60.0326 18.795 59.876 18.885C59.7226 18.9717 59.5793 19.0917 59.446 19.245V23H58.211ZM69.7599 17.79C70.1399 17.79 70.4849 17.8517 70.7949 17.975C71.1082 18.0983 71.3749 18.2733 71.5949 18.5C71.8182 18.7267 71.9899 19.0033 72.1099 19.33C72.2299 19.6567 72.2899 20.0217 72.2899 20.425C72.2899 20.8317 72.2299 21.1983 72.1099 21.525C71.9899 21.8517 71.8182 22.13 71.5949 22.36C71.3749 22.59 71.1082 22.7667 70.7949 22.89C70.4849 23.0133 70.1399 23.075 69.7599 23.075C69.3765 23.075 69.0282 23.0133 68.7149 22.89C68.4015 22.7667 68.1332 22.59 67.9099 22.36C67.6899 22.13 67.5182 21.8517 67.3949 21.525C67.2749 21.1983 67.2149 20.8317 67.2149 20.425C67.2149 20.0217 67.2749 19.6567 67.3949 19.33C67.5182 19.0033 67.6899 18.7267 67.9099 18.5C68.1332 18.2733 68.4015 18.0983 68.7149 17.975C69.0282 17.8517 69.3765 17.79 69.7599 17.79ZM69.7599 22.125C70.1865 22.125 70.5015 21.9817 70.7049 21.695C70.9115 21.4083 71.0149 20.9883 71.0149 20.435C71.0149 19.8817 70.9115 19.46 70.7049 19.17C70.5015 18.88 70.1865 18.735 69.7599 18.735C69.3265 18.735 69.0049 18.8817 68.7949 19.175C68.5882 19.465 68.4849 19.885 68.4849 20.435C68.4849 20.985 68.5882 21.405 68.7949 21.695C69.0049 21.9817 69.3265 22.125 69.7599 22.125ZM78.6008 17.87L76.5658 23H75.4458L73.4108 17.87H74.4308C74.5242 17.87 74.6008 17.8917 74.6608 17.935C74.7242 17.9783 74.7658 18.0333 74.7858 18.1L75.7758 20.84C75.8292 21 75.8758 21.1567 75.9158 21.31C75.9558 21.4633 75.9908 21.6167 76.0208 21.77C76.0542 21.6167 76.0908 21.4633 76.1308 21.31C76.1708 21.1567 76.2192 21 76.2758 20.84L77.2858 18.1C77.3092 18.0333 77.3508 17.9783 77.4108 17.935C77.4708 17.8917 77.5425 17.87 77.6258 17.87H78.6008ZM83.3078 19.845C83.3078 19.685 83.2844 19.535 83.2378 19.395C83.1944 19.2517 83.1278 19.1267 83.0378 19.02C82.9478 18.9133 82.8328 18.83 82.6928 18.77C82.5561 18.7067 82.3961 18.675 82.2128 18.675C81.8561 18.675 81.5744 18.7767 81.3678 18.98C81.1644 19.1833 81.0344 19.4717 80.9778 19.845H83.3078ZM80.9528 20.59C80.9728 20.8533 81.0194 21.0817 81.0928 21.275C81.1661 21.465 81.2628 21.6233 81.3828 21.75C81.5028 21.8733 81.6444 21.9667 81.8078 22.03C81.9744 22.09 82.1578 22.12 82.3578 22.12C82.5578 22.12 82.7294 22.0967 82.8728 22.05C83.0194 22.0033 83.1461 21.9517 83.2528 21.895C83.3628 21.8383 83.4578 21.7867 83.5378 21.74C83.6211 21.6933 83.7011 21.67 83.7778 21.67C83.8811 21.67 83.9578 21.7083 84.0078 21.785L84.3628 22.235C84.2261 22.395 84.0728 22.53 83.9028 22.64C83.7328 22.7467 83.5544 22.8333 83.3678 22.9C83.1844 22.9633 82.9961 23.0083 82.8028 23.035C82.6128 23.0617 82.4278 23.075 82.2478 23.075C81.8911 23.075 81.5594 23.0167 81.2528 22.9C80.9461 22.78 80.6794 22.605 80.4528 22.375C80.2261 22.1417 80.0478 21.855 79.9178 21.515C79.7878 21.1717 79.7228 20.775 79.7228 20.325C79.7228 19.975 79.7794 19.6467 79.8928 19.34C80.0061 19.03 80.1678 18.7617 80.3778 18.535C80.5911 18.305 80.8494 18.1233 81.1528 17.99C81.4594 17.8567 81.8044 17.79 82.1878 17.79C82.5111 17.79 82.8094 17.8417 83.0828 17.945C83.3561 18.0483 83.5911 18.2 83.7878 18.4C83.9844 18.5967 84.1378 18.84 84.2478 19.13C84.3611 19.4167 84.4178 19.745 84.4178 20.115C84.4178 20.3017 84.3978 20.4283 84.3578 20.495C84.3178 20.5583 84.2411 20.59 84.1278 20.59H80.9528ZM43.7002 35V29.87H44.4552C44.6152 29.87 44.7202 29.945 44.7702 30.095L44.8502 30.475C44.9402 30.375 45.0336 30.2833 45.1302 30.2C45.2302 30.1167 45.3352 30.045 45.4452 29.985C45.5586 29.925 45.6786 29.8783 45.8052 29.845C45.9352 29.8083 46.0769 29.79 46.2302 29.79C46.5536 29.79 46.8186 29.8783 47.0252 30.055C47.2352 30.2283 47.3919 30.46 47.4952 30.75C47.5752 30.58 47.6752 30.435 47.7952 30.315C47.9152 30.1917 48.0469 30.0917 48.1902 30.015C48.3336 29.9383 48.4852 29.8817 48.6452 29.845C48.8086 29.8083 48.9719 29.79 49.1352 29.79C49.4186 29.79 49.6702 29.8333 49.8902 29.92C50.1102 30.0067 50.2952 30.1333 50.4452 30.3C50.5952 30.4667 50.7086 30.67 50.7852 30.91C50.8652 31.15 50.9052 31.425 50.9052 31.735V35H49.6702V31.735C49.6702 31.4083 49.5986 31.1633 49.4552 31C49.3119 30.8333 49.1019 30.75 48.8252 30.75C48.6986 30.75 48.5802 30.7717 48.4702 30.815C48.3636 30.8583 48.2686 30.9217 48.1852 31.005C48.1052 31.085 48.0419 31.1867 47.9952 31.31C47.9486 31.4333 47.9252 31.575 47.9252 31.735V35H46.6852V31.735C46.6852 31.3917 46.6152 31.1417 46.4752 30.985C46.3386 30.8283 46.1369 30.75 45.8702 30.75C45.6902 30.75 45.5219 30.795 45.3652 30.885C45.2119 30.9717 45.0686 31.0917 44.9352 31.245V35H43.7002ZM54.2591 29.87V35H53.0191V29.87H54.2591ZM54.4291 28.375C54.4291 28.4817 54.4075 28.5817 54.3641 28.675C54.3208 28.7683 54.2625 28.85 54.1891 28.92C54.1191 28.99 54.0358 29.0467 53.9391 29.09C53.8425 29.13 53.7391 29.15 53.6291 29.15C53.5225 29.15 53.4208 29.13 53.3241 29.09C53.2308 29.0467 53.1491 28.99 53.0791 28.92C53.0091 28.85 52.9525 28.7683 52.9091 28.675C52.8691 28.5817 52.8491 28.4817 52.8491 28.375C52.8491 28.265 52.8691 28.1617 52.9091 28.065C52.9525 27.9683 53.0091 27.885 53.0791 27.815C53.1491 27.745 53.2308 27.69 53.3241 27.65C53.4208 27.6067 53.5225 27.585 53.6291 27.585C53.7391 27.585 53.8425 27.6067 53.9391 27.65C54.0358 27.69 54.1191 27.745 54.1891 27.815C54.2625 27.885 54.3208 27.9683 54.3641 28.065C54.4075 28.1617 54.4291 28.265 54.4291 28.375ZM57.5732 30.5C57.6765 30.3967 57.7849 30.3017 57.8982 30.215C58.0149 30.125 58.1365 30.05 58.2632 29.99C58.3932 29.9267 58.5315 29.8783 58.6782 29.845C58.8249 29.8083 58.9849 29.79 59.1582 29.79C59.4382 29.79 59.6865 29.8383 59.9032 29.935C60.1199 30.0283 60.2999 30.1617 60.4432 30.335C60.5899 30.505 60.6999 30.71 60.7732 30.95C60.8499 31.1867 60.8882 31.4483 60.8882 31.735V35H59.6532V31.735C59.6532 31.4217 59.5815 31.18 59.4382 31.01C59.2949 30.8367 59.0765 30.75 58.7832 30.75C58.5699 30.75 58.3699 30.7983 58.1832 30.895C57.9965 30.9917 57.8199 31.1233 57.6532 31.29V35H56.4182V29.87H57.1732C57.3332 29.87 57.4382 29.945 57.4882 30.095L57.5732 30.5ZM66.2677 31.845C66.2677 31.685 66.2444 31.535 66.1977 31.395C66.1544 31.2517 66.0877 31.1267 65.9977 31.02C65.9077 30.9133 65.7927 30.83 65.6527 30.77C65.5161 30.7067 65.3561 30.675 65.1727 30.675C64.8161 30.675 64.5344 30.7767 64.3277 30.98C64.1244 31.1833 63.9944 31.4717 63.9377 31.845H66.2677ZM63.9127 32.59C63.9327 32.8533 63.9794 33.0817 64.0527 33.275C64.1261 33.465 64.2227 33.6233 64.3427 33.75C64.4627 33.8733 64.6044 33.9667 64.7677 34.03C64.9344 34.09 65.1177 34.12 65.3177 34.12C65.5177 34.12 65.6894 34.0967 65.8327 34.05C65.9794 34.0033 66.1061 33.9517 66.2127 33.895C66.3227 33.8383 66.4177 33.7867 66.4977 33.74C66.5811 33.6933 66.6611 33.67 66.7377 33.67C66.8411 33.67 66.9177 33.7083 66.9677 33.785L67.3227 34.235C67.1861 34.395 67.0327 34.53 66.8627 34.64C66.6927 34.7467 66.5144 34.8333 66.3277 34.9C66.1444 34.9633 65.9561 35.0083 65.7627 35.035C65.5727 35.0617 65.3877 35.075 65.2077 35.075C64.8511 35.075 64.5194 35.0167 64.2127 34.9C63.9061 34.78 63.6394 34.605 63.4127 34.375C63.1861 34.1417 63.0077 33.855 62.8777 33.515C62.7477 33.1717 62.6827 32.775 62.6827 32.325C62.6827 31.975 62.7394 31.6467 62.8527 31.34C62.9661 31.03 63.1277 30.7617 63.3377 30.535C63.5511 30.305 63.8094 30.1233 64.1127 29.99C64.4194 29.8567 64.7644 29.79 65.1477 29.79C65.4711 29.79 65.7694 29.8417 66.0427 29.945C66.3161 30.0483 66.5511 30.2 66.7477 30.4C66.9444 30.5967 67.0977 30.84 67.2077 31.13C67.3211 31.4167 67.3777 31.745 67.3777 32.115C67.3777 32.3017 67.3577 32.4283 67.3177 32.495C67.2777 32.5583 67.2011 32.59 67.0877 32.59H63.9127ZM70.3695 30.76C70.5295 30.4533 70.7195 30.2133 70.9395 30.04C71.1595 29.8633 71.4195 29.775 71.7195 29.775C71.9562 29.775 72.1462 29.8267 72.2895 29.93L72.2095 30.855C72.1929 30.915 72.1679 30.9583 72.1345 30.985C72.1045 31.0083 72.0629 31.02 72.0095 31.02C71.9595 31.02 71.8845 31.0117 71.7845 30.995C71.6879 30.9783 71.5929 30.97 71.4995 30.97C71.3629 30.97 71.2412 30.99 71.1345 31.03C71.0279 31.07 70.9312 31.1283 70.8445 31.205C70.7612 31.2783 70.6862 31.3683 70.6195 31.475C70.5562 31.5817 70.4962 31.7033 70.4395 31.84V35H69.2045V29.87H69.9295C70.0562 29.87 70.1445 29.8933 70.1945 29.94C70.2445 29.9833 70.2779 30.0633 70.2945 30.18L70.3695 30.76ZM76.4766 32.81C76.12 32.8267 75.82 32.8583 75.5766 32.905C75.3333 32.9483 75.1383 33.005 74.9916 33.075C74.845 33.145 74.74 33.2267 74.6766 33.32C74.6133 33.4133 74.5816 33.515 74.5816 33.625C74.5816 33.8417 74.645 33.9967 74.7716 34.09C74.9016 34.1833 75.07 34.23 75.2766 34.23C75.53 34.23 75.7483 34.185 75.9316 34.095C76.1183 34.0017 76.3 33.8617 76.4766 33.675V32.81ZM73.6466 30.585C74.2366 30.045 74.9466 29.775 75.7766 29.775C76.0766 29.775 76.345 29.825 76.5816 29.925C76.8183 30.0217 77.0183 30.1583 77.1816 30.335C77.345 30.5083 77.4683 30.7167 77.5516 30.96C77.6383 31.2033 77.6816 31.47 77.6816 31.76V35H77.1216C77.005 35 76.915 34.9833 76.8516 34.95C76.7883 34.9133 76.7383 34.8417 76.7016 34.735L76.5916 34.365C76.4616 34.4817 76.335 34.585 76.2116 34.675C76.0883 34.7617 75.96 34.835 75.8266 34.895C75.6933 34.955 75.55 35 75.3966 35.03C75.2466 35.0633 75.08 35.08 74.8966 35.08C74.68 35.08 74.48 35.0517 74.2966 34.995C74.1133 34.935 73.955 34.8467 73.8216 34.73C73.6883 34.6133 73.585 34.4683 73.5116 34.295C73.4383 34.1217 73.4016 33.92 73.4016 33.69C73.4016 33.56 73.4233 33.4317 73.4666 33.305C73.51 33.175 73.58 33.0517 73.6766 32.935C73.7766 32.8183 73.905 32.7083 74.0616 32.605C74.2183 32.5017 74.41 32.4117 74.6366 32.335C74.8666 32.2583 75.1333 32.1967 75.4366 32.15C75.74 32.1 76.0866 32.07 76.4766 32.06V31.76C76.4766 31.4167 76.4033 31.1633 76.2566 31C76.11 30.8333 75.8983 30.75 75.6216 30.75C75.4216 30.75 75.255 30.7733 75.1216 30.82C74.9916 30.8667 74.8766 30.92 74.7766 30.98C74.6766 31.0367 74.585 31.0883 74.5016 31.135C74.4216 31.1817 74.3316 31.205 74.2316 31.205C74.145 31.205 74.0716 31.1833 74.0116 31.14C73.9516 31.0933 73.9033 31.04 73.8666 30.98L73.6466 30.585ZM80.9948 27.57V35H79.7598V27.57H80.9948ZM86.2552 30.87C86.2219 30.9233 86.1869 30.9617 86.1502 30.985C86.1136 31.005 86.0669 31.015 86.0102 31.015C85.9502 31.015 85.8852 30.9983 85.8152 30.965C85.7486 30.9317 85.6702 30.895 85.5802 30.855C85.4902 30.8117 85.3869 30.7733 85.2702 30.74C85.1569 30.7067 85.0219 30.69 84.8652 30.69C84.6219 30.69 84.4302 30.7417 84.2902 30.845C84.1536 30.9483 84.0852 31.0833 84.0852 31.25C84.0852 31.36 84.1202 31.4533 84.1902 31.53C84.2636 31.6033 84.3586 31.6683 84.4752 31.725C84.5952 31.7817 84.7302 31.8333 84.8802 31.88C85.0302 31.9233 85.1819 31.9717 85.3352 32.025C85.4919 32.0783 85.6452 32.14 85.7952 32.21C85.9452 32.2767 86.0786 32.3633 86.1952 32.47C86.3152 32.5733 86.4102 32.6983 86.4802 32.845C86.5536 32.9917 86.5902 33.1683 86.5902 33.375C86.5902 33.6217 86.5452 33.85 86.4552 34.06C86.3686 34.2667 86.2386 34.4467 86.0652 34.6C85.8919 34.75 85.6769 34.8683 85.4202 34.955C85.1669 35.0383 84.8736 35.08 84.5402 35.08C84.3636 35.08 84.1902 35.0633 84.0202 35.03C83.8536 35 83.6919 34.9567 83.5352 34.9C83.3819 34.8433 83.2386 34.7767 83.1052 34.7C82.9752 34.6233 82.8602 34.54 82.7602 34.45L83.0452 33.98C83.0819 33.9233 83.1252 33.88 83.1752 33.85C83.2252 33.82 83.2886 33.805 83.3652 33.805C83.4419 33.805 83.5136 33.8267 83.5802 33.87C83.6502 33.9133 83.7302 33.96 83.8202 34.01C83.9102 34.06 84.0152 34.1067 84.1352 34.15C84.2586 34.1933 84.4136 34.215 84.6002 34.215C84.7469 34.215 84.8719 34.1983 84.9752 34.165C85.0819 34.1283 85.1686 34.0817 85.2352 34.025C85.3052 33.9683 85.3552 33.9033 85.3852 33.83C85.4186 33.7533 85.4352 33.675 85.4352 33.595C85.4352 33.475 85.3986 33.3767 85.3252 33.3C85.2552 33.2233 85.1602 33.1567 85.0402 33.1C84.9236 33.0433 84.7886 32.9933 84.6352 32.95C84.4852 32.9033 84.3302 32.8533 84.1702 32.8C84.0136 32.7467 83.8586 32.685 83.7052 32.615C83.5552 32.5417 83.4202 32.45 83.3002 32.34C83.1836 32.23 83.0886 32.095 83.0152 31.935C82.9452 31.775 82.9102 31.5817 82.9102 31.355C82.9102 31.145 82.9519 30.945 83.0352 30.755C83.1186 30.565 83.2402 30.4 83.4002 30.26C83.5636 30.1167 83.7652 30.0033 84.0052 29.92C84.2486 29.8333 84.5286 29.79 84.8452 29.79C85.1986 29.79 85.5202 29.8483 85.8102 29.965C86.1002 30.0817 86.3419 30.235 86.5352 30.425L86.2552 30.87Z" fill="black"/>
<circle cx="90" cy="83" r="20" fill="#A8C956" fill-opacity="0.4"/>
<path d="M84.8869 77.108C84.8869 77.532 84.8162 77.9213 84.6749 78.276C84.5335 78.6307 84.3349 78.936 84.0789 79.192C83.8229 79.448 83.5149 79.6467 83.1549 79.788C82.7949 79.9293 82.3949 80 81.9549 80H79.7509V74.216H81.9549C82.3949 74.216 82.7949 74.288 83.1549 74.432C83.5149 74.5733 83.8229 74.772 84.0789 75.028C84.3349 75.2813 84.5335 75.5853 84.6749 75.94C84.8162 76.2947 84.8869 76.684 84.8869 77.108ZM83.7829 77.108C83.7829 76.7907 83.7402 76.5067 83.6549 76.256C83.5722 76.0027 83.4509 75.7893 83.2909 75.616C83.1335 75.44 82.9415 75.3053 82.7149 75.212C82.4909 75.1187 82.2375 75.072 81.9549 75.072H80.8309V79.144H81.9549C82.2375 79.144 82.4909 79.0973 82.7149 79.004C82.9415 78.9107 83.1335 78.7773 83.2909 78.604C83.4509 78.428 83.5722 78.2147 83.6549 77.964C83.7402 77.7107 83.7829 77.4253 83.7829 77.108ZM88.9901 77.476C88.9901 77.348 88.9715 77.228 88.9341 77.116C88.8995 77.0013 88.8461 76.9013 88.7741 76.816C88.7021 76.7307 88.6101 76.664 88.4981 76.616C88.3888 76.5653 88.2608 76.54 88.1141 76.54C87.8288 76.54 87.6035 76.6213 87.4381 76.784C87.2755 76.9467 87.1715 77.1773 87.1261 77.476H88.9901ZM87.1061 78.072C87.1221 78.2827 87.1595 78.4653 87.2181 78.62C87.2768 78.772 87.3541 78.8987 87.4501 79C87.5461 79.0987 87.6595 79.1733 87.7901 79.224C87.9235 79.272 88.0701 79.296 88.2301 79.296C88.3901 79.296 88.5275 79.2773 88.6421 79.24C88.7595 79.2027 88.8608 79.1613 88.9461 79.116C89.0341 79.0707 89.1101 79.0293 89.1741 78.992C89.2408 78.9547 89.3048 78.936 89.3661 78.936C89.4488 78.936 89.5101 78.9667 89.5501 79.028L89.8341 79.388C89.7248 79.516 89.6021 79.624 89.4661 79.712C89.3301 79.7973 89.1875 79.8667 89.0381 79.92C88.8915 79.9707 88.7408 80.0067 88.5861 80.028C88.4341 80.0493 88.2861 80.06 88.1421 80.06C87.8568 80.06 87.5915 80.0133 87.3461 79.92C87.1008 79.824 86.8875 79.684 86.7061 79.5C86.5248 79.3133 86.3821 79.084 86.2781 78.812C86.1741 78.5373 86.1221 78.22 86.1221 77.86C86.1221 77.58 86.1675 77.3173 86.2581 77.072C86.3488 76.824 86.4781 76.6093 86.6461 76.428C86.8168 76.244 87.0235 76.0987 87.2661 75.992C87.5115 75.8853 87.7875 75.832 88.0941 75.832C88.3528 75.832 88.5915 75.8733 88.8101 75.956C89.0288 76.0387 89.2168 76.16 89.3741 76.32C89.5315 76.4773 89.6541 76.672 89.7421 76.904C89.8328 77.1333 89.8781 77.396 89.8781 77.692C89.8781 77.8413 89.8621 77.9427 89.8301 77.996C89.7981 78.0467 89.7368 78.072 89.6461 78.072H87.1061ZM93.5076 78.248C93.2222 78.2613 92.9822 78.2867 92.7876 78.324C92.5929 78.3587 92.4369 78.404 92.3196 78.46C92.2022 78.516 92.1182 78.5813 92.0676 78.656C92.0169 78.7307 91.9916 78.812 91.9916 78.9C91.9916 79.0733 92.0422 79.1973 92.1436 79.272C92.2476 79.3467 92.3822 79.384 92.5476 79.384C92.7502 79.384 92.9249 79.348 93.0716 79.276C93.2209 79.2013 93.3662 79.0893 93.5076 78.94V78.248ZM91.2436 76.468C91.7156 76.036 92.2836 75.82 92.9476 75.82C93.1876 75.82 93.4022 75.86 93.5916 75.94C93.7809 76.0173 93.9409 76.1267 94.0716 76.268C94.2022 76.4067 94.3009 76.5733 94.3676 76.768C94.4369 76.9627 94.4716 77.176 94.4716 77.408V80H94.0236C93.9302 80 93.8582 79.9867 93.8076 79.96C93.7569 79.9307 93.7169 79.8733 93.6876 79.788L93.5996 79.492C93.4956 79.5853 93.3942 79.668 93.2956 79.74C93.1969 79.8093 93.0942 79.868 92.9876 79.916C92.8809 79.964 92.7662 80 92.6436 80.024C92.5236 80.0507 92.3902 80.064 92.2436 80.064C92.0702 80.064 91.9102 80.0413 91.7636 79.996C91.6169 79.948 91.4902 79.8773 91.3836 79.784C91.2769 79.6907 91.1942 79.5747 91.1356 79.436C91.0769 79.2973 91.0476 79.136 91.0476 78.952C91.0476 78.848 91.0649 78.7453 91.0996 78.644C91.1342 78.54 91.1902 78.4413 91.2676 78.348C91.3476 78.2547 91.4502 78.1667 91.5756 78.084C91.7009 78.0013 91.8542 77.9293 92.0356 77.868C92.2196 77.8067 92.4329 77.7573 92.6756 77.72C92.9182 77.68 93.1956 77.656 93.5076 77.648V77.408C93.5076 77.1333 93.4489 76.9307 93.3316 76.8C93.2142 76.6667 93.0449 76.6 92.8236 76.6C92.6636 76.6 92.5302 76.6187 92.4236 76.656C92.3196 76.6933 92.2276 76.736 92.1476 76.784C92.0676 76.8293 91.9942 76.8707 91.9276 76.908C91.8636 76.9453 91.7916 76.964 91.7116 76.964C91.6422 76.964 91.5836 76.9467 91.5356 76.912C91.4876 76.8747 91.4489 76.832 91.4196 76.784L91.2436 76.468ZM98.6981 76.944C98.5861 76.808 98.4634 76.712 98.3301 76.656C98.1994 76.6 98.0581 76.572 97.9061 76.572C97.7567 76.572 97.6221 76.6 97.5021 76.656C97.3821 76.712 97.2794 76.7973 97.1941 76.912C97.1087 77.024 97.0434 77.168 96.9981 77.344C96.9527 77.5173 96.9301 77.7227 96.9301 77.96C96.9301 78.2 96.9487 78.404 96.9861 78.572C97.0261 78.7373 97.0821 78.8733 97.1541 78.98C97.2261 79.084 97.3141 79.16 97.4181 79.208C97.5221 79.2533 97.6381 79.276 97.7661 79.276C97.9714 79.276 98.1461 79.2333 98.2901 79.148C98.4341 79.0627 98.5701 78.9413 98.6981 78.784V76.944ZM99.6861 74.056V80H99.0821C98.9514 80 98.8687 79.94 98.8341 79.82L98.7501 79.424C98.5847 79.6133 98.3941 79.7667 98.1781 79.884C97.9647 80.0013 97.7154 80.06 97.4301 80.06C97.2061 80.06 97.0007 80.0133 96.8141 79.92C96.6274 79.8267 96.4661 79.692 96.3301 79.516C96.1967 79.3373 96.0927 79.1173 96.0181 78.856C95.9461 78.5947 95.9101 78.296 95.9101 77.96C95.9101 77.656 95.9514 77.3733 96.0341 77.112C96.1167 76.8507 96.2354 76.624 96.3901 76.432C96.5447 76.24 96.7301 76.0907 96.9461 75.984C97.1621 75.8747 97.4047 75.82 97.6741 75.82C97.9034 75.82 98.0994 75.856 98.2621 75.928C98.4247 76 98.5701 76.0973 98.6981 76.22V74.056H99.6861ZM84.5207 84.612C84.5207 84.7347 84.486 84.8467 84.4167 84.948L81.4487 89.14H84.4527V90H80.0527V89.576C80.0527 89.5227 80.062 89.472 80.0807 89.424C80.0993 89.3733 80.1233 89.3267 80.1527 89.284L83.1287 85.072H80.2407V84.216H84.5207V84.612ZM87.5885 85.832C87.8925 85.832 88.1685 85.8813 88.4165 85.98C88.6672 86.0787 88.8805 86.2187 89.0565 86.4C89.2352 86.5813 89.3725 86.8027 89.4685 87.064C89.5645 87.3253 89.6125 87.6173 89.6125 87.94C89.6125 88.2653 89.5645 88.5587 89.4685 88.82C89.3725 89.0813 89.2352 89.304 89.0565 89.488C88.8805 89.672 88.6672 89.8133 88.4165 89.912C88.1685 90.0107 87.8925 90.06 87.5885 90.06C87.2819 90.06 87.0032 90.0107 86.7525 89.912C86.5019 89.8133 86.2872 89.672 86.1085 89.488C85.9325 89.304 85.7952 89.0813 85.6965 88.82C85.6005 88.5587 85.5525 88.2653 85.5525 87.94C85.5525 87.6173 85.6005 87.3253 85.6965 87.064C85.7952 86.8027 85.9325 86.5813 86.1085 86.4C86.2872 86.2187 86.5019 86.0787 86.7525 85.98C87.0032 85.8813 87.2819 85.832 87.5885 85.832ZM87.5885 89.3C87.9299 89.3 88.1819 89.1853 88.3445 88.956C88.5099 88.7267 88.5925 88.3907 88.5925 87.948C88.5925 87.5053 88.5099 87.168 88.3445 86.936C88.1819 86.704 87.9299 86.588 87.5885 86.588C87.2419 86.588 86.9845 86.7053 86.8165 86.94C86.6512 87.172 86.5685 87.508 86.5685 87.948C86.5685 88.388 86.6512 88.724 86.8165 88.956C86.9845 89.1853 87.2419 89.3 87.5885 89.3ZM92.0103 86.4C92.0929 86.3173 92.1796 86.2413 92.2703 86.172C92.3636 86.1 92.4609 86.04 92.5623 85.992C92.6663 85.9413 92.7769 85.9027 92.8943 85.876C93.0116 85.8467 93.1396 85.832 93.2783 85.832C93.5023 85.832 93.7009 85.8707 93.8743 85.948C94.0476 86.0227 94.1916 86.1293 94.3063 86.268C94.4236 86.404 94.5116 86.568 94.5703 86.76C94.6316 86.9493 94.6623 87.1587 94.6623 87.388V90H93.6743V87.388C93.6743 87.1373 93.6169 86.944 93.5023 86.808C93.3876 86.6693 93.2129 86.6 92.9783 86.6C92.8076 86.6 92.6476 86.6387 92.4983 86.716C92.3489 86.7933 92.2076 86.8987 92.0743 87.032V90H91.0863V85.896H91.6903C91.8183 85.896 91.9023 85.956 91.9423 86.076L92.0103 86.4ZM98.9659 87.476C98.9659 87.348 98.9472 87.228 98.9099 87.116C98.8752 87.0013 98.8219 86.9013 98.7499 86.816C98.6779 86.7307 98.5859 86.664 98.4739 86.616C98.3646 86.5653 98.2366 86.54 98.0899 86.54C97.8046 86.54 97.5792 86.6213 97.4139 86.784C97.2512 86.9467 97.1472 87.1773 97.1019 87.476H98.9659ZM97.0819 88.072C97.0979 88.2827 97.1352 88.4653 97.1939 88.62C97.2526 88.772 97.3299 88.8987 97.4259 89C97.5219 89.0987 97.6352 89.1733 97.7659 89.224C97.8992 89.272 98.0459 89.296 98.2059 89.296C98.3659 89.296 98.5032 89.2773 98.6179 89.24C98.7352 89.2027 98.8366 89.1613 98.9219 89.116C99.0099 89.0707 99.0859 89.0293 99.1499 88.992C99.2166 88.9547 99.2806 88.936 99.3419 88.936C99.4246 88.936 99.4859 88.9667 99.5259 89.028L99.8099 89.388C99.7006 89.516 99.5779 89.624 99.4419 89.712C99.3059 89.7973 99.1632 89.8667 99.0139 89.92C98.8672 89.9707 98.7166 90.0067 98.5619 90.028C98.4099 90.0493 98.2619 90.06 98.1179 90.06C97.8326 90.06 97.5672 90.0133 97.3219 89.92C97.0766 89.824 96.8632 89.684 96.6819 89.5C96.5006 89.3133 96.3579 89.084 96.2539 88.812C96.1499 88.5373 96.0979 88.22 96.0979 87.86C96.0979 87.58 96.1432 87.3173 96.2339 87.072C96.3246 86.824 96.4539 86.6093 96.6219 86.428C96.7926 86.244 96.9992 86.0987 97.2419 85.992C97.4872 85.8853 97.7632 85.832 98.0699 85.832C98.3286 85.832 98.5672 85.8733 98.7859 85.956C99.0046 86.0387 99.1926 86.16 99.3499 86.32C99.5072 86.4773 99.6299 86.672 99.7179 86.904C99.8086 87.1333 99.8539 87.396 99.8539 87.692C99.8539 87.8413 99.8379 87.9427 99.8059 87.996C99.7739 88.0467 99.7126 88.072 99.6219 88.072H97.0819Z" fill="black"/>
<circle cx="141" cy="109" r="16" fill="#A8C956" fill-opacity="0.2"/>
<path d="M138.984 109.469C138.984 109.84 138.922 110.181 138.799 110.491C138.675 110.802 138.501 111.069 138.277 111.293C138.053 111.517 137.784 111.691 137.469 111.814C137.154 111.938 136.804 112 136.419 112H134.49V106.939H136.419C136.804 106.939 137.154 107.002 137.469 107.128C137.784 107.252 138.053 107.425 138.277 107.649C138.501 107.871 138.675 108.137 138.799 108.447C138.922 108.758 138.984 109.098 138.984 109.469ZM138.018 109.469C138.018 109.192 137.981 108.943 137.906 108.724C137.834 108.502 137.728 108.316 137.588 108.164C137.45 108.01 137.282 107.892 137.084 107.81C136.888 107.729 136.666 107.688 136.419 107.688H135.435V111.251H136.419C136.666 111.251 136.888 111.21 137.084 111.128C137.282 111.047 137.45 110.93 137.588 110.778C137.728 110.624 137.834 110.438 137.906 110.218C137.981 109.997 138.018 109.747 138.018 109.469ZM141.143 108.409V112H140.275V108.409H141.143ZM141.262 107.362C141.262 107.437 141.247 107.507 141.217 107.572C141.186 107.638 141.146 107.695 141.094 107.744C141.045 107.793 140.987 107.833 140.919 107.863C140.852 107.891 140.779 107.905 140.702 107.905C140.628 107.905 140.556 107.891 140.489 107.863C140.423 107.833 140.366 107.793 140.317 107.744C140.268 107.695 140.229 107.638 140.198 107.572C140.17 107.507 140.156 107.437 140.156 107.362C140.156 107.285 140.17 107.213 140.198 107.145C140.229 107.078 140.268 107.019 140.317 106.97C140.366 106.921 140.423 106.883 140.489 106.855C140.556 106.825 140.628 106.809 140.702 106.809C140.779 106.809 140.852 106.825 140.919 106.855C140.987 106.883 141.045 106.921 141.094 106.97C141.146 107.019 141.186 107.078 141.217 107.145C141.247 107.213 141.262 107.285 141.262 107.362ZM143.47 109.032C143.582 108.817 143.715 108.649 143.869 108.528C144.023 108.404 144.205 108.342 144.415 108.342C144.581 108.342 144.714 108.379 144.814 108.451L144.758 109.098C144.746 109.14 144.729 109.171 144.706 109.189C144.685 109.206 144.655 109.214 144.618 109.214C144.583 109.214 144.531 109.208 144.461 109.196C144.393 109.185 144.326 109.179 144.261 109.179C144.165 109.179 144.08 109.193 144.006 109.221C143.931 109.249 143.863 109.29 143.803 109.343C143.744 109.395 143.692 109.458 143.645 109.532C143.601 109.607 143.559 109.692 143.519 109.788V112H142.655V108.409H143.162C143.251 108.409 143.313 108.425 143.348 108.458C143.383 108.488 143.406 108.544 143.418 108.626L143.47 109.032ZM147.093 112.056C146.78 112.056 146.54 111.968 146.372 111.793C146.206 111.616 146.123 111.372 146.123 111.062V109.056H145.756C145.709 109.056 145.67 109.041 145.637 109.011C145.604 108.981 145.588 108.935 145.588 108.874V108.531L146.165 108.437L146.347 107.457C146.359 107.41 146.381 107.374 146.414 107.348C146.447 107.323 146.489 107.31 146.54 107.31H146.988V108.44H147.947V109.056H146.988V111.002C146.988 111.114 147.015 111.202 147.068 111.265C147.124 111.328 147.2 111.359 147.296 111.359C147.35 111.359 147.394 111.354 147.429 111.342C147.466 111.328 147.498 111.314 147.523 111.3C147.551 111.286 147.576 111.273 147.597 111.261C147.618 111.247 147.639 111.24 147.66 111.24C147.686 111.24 147.707 111.247 147.723 111.261C147.739 111.273 147.757 111.292 147.775 111.317L148.034 111.737C147.908 111.842 147.764 111.922 147.6 111.975C147.437 112.029 147.268 112.056 147.093 112.056Z" fill="black"/>
<circle cx="30" cy="142" r="16" fill="#A8C956" fill-opacity="0.2"/>
<path d="M11.8229 140.688V142.186H13.7199V142.938H11.8229V145H10.8779V139.939H14.0699V140.688H11.8229ZM15.8715 142.032C15.9835 141.817 16.1165 141.649 16.2705 141.528C16.4245 141.404 16.6065 141.342 16.8165 141.342C16.9822 141.342 17.1152 141.379 17.2155 141.451L17.1595 142.098C17.1478 142.14 17.1303 142.171 17.107 142.189C17.086 142.206 17.0568 142.214 17.0195 142.214C16.9845 142.214 16.932 142.208 16.862 142.196C16.7943 142.185 16.7278 142.179 16.6625 142.179C16.5668 142.179 16.4817 142.193 16.407 142.221C16.3323 142.249 16.2647 142.29 16.204 142.343C16.1457 142.395 16.0932 142.458 16.0465 142.532C16.0022 142.607 15.9602 142.692 15.9205 142.788V145H15.056V141.409H15.5635C15.6522 141.409 15.714 141.425 15.749 141.458C15.784 141.488 15.8073 141.544 15.819 141.626L15.8715 142.032ZM20.1465 143.467C19.8968 143.479 19.6868 143.501 19.5165 143.533C19.3461 143.564 19.2096 143.603 19.107 143.652C19.0043 143.701 18.9308 143.759 18.8865 143.824C18.8421 143.889 18.82 143.96 18.82 144.037C18.82 144.189 18.8643 144.298 18.953 144.363C19.044 144.428 19.1618 144.461 19.3065 144.461C19.4838 144.461 19.6366 144.429 19.765 144.366C19.8956 144.301 20.0228 144.203 20.1465 144.072V143.467ZM18.1655 141.909C18.5785 141.531 19.0755 141.342 19.6565 141.342C19.8665 141.342 20.0543 141.377 20.22 141.447C20.3856 141.515 20.5256 141.611 20.64 141.734C20.7543 141.856 20.8406 142.002 20.899 142.172C20.9596 142.342 20.99 142.529 20.99 142.732V145H20.598C20.5163 145 20.4533 144.988 20.409 144.965C20.3646 144.939 20.3296 144.889 20.304 144.814L20.227 144.555C20.136 144.637 20.0473 144.709 19.961 144.772C19.8746 144.833 19.7848 144.884 19.6915 144.926C19.5981 144.968 19.4978 145 19.3905 145.021C19.2855 145.044 19.1688 145.056 19.0405 145.056C18.8888 145.056 18.7488 145.036 18.6205 144.996C18.4921 144.954 18.3813 144.893 18.288 144.811C18.1946 144.729 18.1223 144.628 18.071 144.506C18.0196 144.385 17.994 144.244 17.994 144.083C17.994 143.992 18.0091 143.902 18.0395 143.813C18.0698 143.722 18.1188 143.636 18.1865 143.554C18.2565 143.473 18.3463 143.396 18.456 143.323C18.5656 143.251 18.6998 143.188 18.8585 143.134C19.0195 143.081 19.2061 143.038 19.4185 143.005C19.6308 142.97 19.8735 142.949 20.1465 142.942V142.732C20.1465 142.492 20.0951 142.314 19.9925 142.2C19.8898 142.083 19.7416 142.025 19.548 142.025C19.408 142.025 19.2913 142.041 19.198 142.074C19.107 142.107 19.0265 142.144 18.9565 142.186C18.8865 142.226 18.8223 142.262 18.764 142.294C18.708 142.327 18.645 142.343 18.575 142.343C18.5143 142.343 18.463 142.328 18.421 142.298C18.379 142.265 18.3451 142.228 18.3195 142.186L18.1655 141.909ZM23.7466 143.117C23.854 143.117 23.9473 143.103 24.0266 143.075C24.106 143.045 24.1713 143.004 24.2226 142.952C24.2763 142.901 24.316 142.839 24.3416 142.767C24.3696 142.695 24.3836 142.615 24.3836 142.529C24.3836 142.352 24.33 142.212 24.2226 142.109C24.1176 142.004 23.959 141.951 23.7466 141.951C23.5343 141.951 23.3745 142.004 23.2671 142.109C23.1621 142.212 23.1096 142.352 23.1096 142.529C23.1096 142.613 23.1225 142.691 23.1481 142.763C23.1761 142.836 23.2158 142.899 23.2671 142.952C23.3208 143.004 23.3873 143.045 23.4666 143.075C23.5483 143.103 23.6416 143.117 23.7466 143.117ZM24.7231 145.161C24.7231 145.091 24.7021 145.034 24.6601 144.989C24.6181 144.945 24.561 144.911 24.4886 144.888C24.4163 144.862 24.3311 144.844 24.2331 144.832C24.1375 144.82 24.0348 144.812 23.9251 144.807C23.8178 144.8 23.7058 144.795 23.5891 144.79C23.4748 144.785 23.3628 144.776 23.2531 144.762C23.1575 144.816 23.0793 144.879 23.0186 144.951C22.9603 145.023 22.9311 145.107 22.9311 145.203C22.9311 145.266 22.9463 145.324 22.9766 145.378C23.0093 145.434 23.0595 145.482 23.1271 145.522C23.1971 145.561 23.287 145.592 23.3966 145.613C23.5063 145.636 23.6405 145.648 23.7991 145.648C23.9601 145.648 24.099 145.635 24.2156 145.609C24.3323 145.586 24.428 145.552 24.5026 145.508C24.5796 145.466 24.6356 145.414 24.6706 145.354C24.7056 145.295 24.7231 145.231 24.7231 145.161ZM25.5841 141.531V141.853C25.5841 141.956 25.5223 142.019 25.3986 142.042L25.0766 142.102C25.1256 142.226 25.1501 142.361 25.1501 142.508C25.1501 142.685 25.114 142.846 25.0416 142.991C24.9716 143.133 24.8736 143.255 24.7476 143.355C24.6216 143.455 24.4723 143.533 24.2996 143.589C24.1293 143.643 23.945 143.67 23.7466 143.67C23.6766 143.67 23.609 143.666 23.5436 143.659C23.4783 143.652 23.4141 143.643 23.3511 143.631C23.2391 143.699 23.1831 143.775 23.1831 143.859C23.1831 143.931 23.2158 143.985 23.2811 144.02C23.3488 144.053 23.4375 144.076 23.5471 144.09C23.6568 144.104 23.7816 144.113 23.9216 144.118C24.0616 144.12 24.2051 144.127 24.3521 144.139C24.4991 144.151 24.6426 144.172 24.7826 144.202C24.9226 144.23 25.0475 144.275 25.1571 144.338C25.2668 144.401 25.3543 144.488 25.4196 144.597C25.4873 144.705 25.5211 144.844 25.5211 145.014C25.5211 145.173 25.4815 145.327 25.4021 145.476C25.3251 145.625 25.212 145.758 25.0626 145.875C24.9156 145.992 24.7336 146.085 24.5166 146.155C24.302 146.227 24.057 146.264 23.7816 146.264C23.511 146.264 23.2753 146.237 23.0746 146.183C22.874 146.132 22.7071 146.062 22.5741 145.973C22.4411 145.887 22.342 145.786 22.2766 145.672C22.2113 145.558 22.1786 145.439 22.1786 145.315C22.1786 145.147 22.2288 145.007 22.3291 144.895C22.4318 144.781 22.5718 144.69 22.7491 144.622C22.6535 144.573 22.5776 144.508 22.5216 144.426C22.4656 144.344 22.4376 144.237 22.4376 144.104C22.4376 144.05 22.447 143.995 22.4656 143.939C22.4866 143.881 22.5158 143.824 22.5531 143.768C22.5928 143.712 22.6418 143.659 22.7001 143.61C22.7585 143.559 22.8273 143.514 22.9066 143.474C22.7246 143.376 22.5811 143.245 22.4761 143.082C22.3735 142.919 22.3221 142.727 22.3221 142.508C22.3221 142.331 22.3571 142.171 22.4271 142.028C22.4995 141.884 22.5986 141.761 22.7246 141.661C22.853 141.558 23.0035 141.48 23.1761 141.426C23.3511 141.373 23.5413 141.346 23.7466 141.346C23.9006 141.346 24.0453 141.362 24.1806 141.395C24.316 141.425 24.4396 141.471 24.5516 141.531H25.5841ZM27.5779 142.032C27.6899 141.817 27.8229 141.649 27.9769 141.528C28.1309 141.404 28.3129 141.342 28.5229 141.342C28.6886 141.342 28.8216 141.379 28.9219 141.451L28.8659 142.098C28.8542 142.14 28.8367 142.171 28.8134 142.189C28.7924 142.206 28.7632 142.214 28.7259 142.214C28.6909 142.214 28.6384 142.208 28.5684 142.196C28.5007 142.185 28.4342 142.179 28.3689 142.179C28.2732 142.179 28.1881 142.193 28.1134 142.221C28.0387 142.249 27.9711 142.29 27.9104 142.343C27.8521 142.395 27.7996 142.458 27.7529 142.532C27.7086 142.607 27.6666 142.692 27.6269 142.788V145H26.7624V141.409H27.2699C27.3586 141.409 27.4204 141.425 27.4554 141.458C27.4904 141.488 27.5137 141.544 27.5254 141.626L27.5779 142.032ZM31.8529 143.467C31.6032 143.479 31.3932 143.501 31.2229 143.533C31.0525 143.564 30.916 143.603 30.8134 143.652C30.7107 143.701 30.6372 143.759 30.5929 143.824C30.5485 143.889 30.5264 143.96 30.5264 144.037C30.5264 144.189 30.5707 144.298 30.6594 144.363C30.7504 144.428 30.8682 144.461 31.0129 144.461C31.1902 144.461 31.343 144.429 31.4714 144.366C31.602 144.301 31.7292 144.203 31.8529 144.072V143.467ZM29.8719 141.909C30.2849 141.531 30.7819 141.342 31.3629 141.342C31.5729 141.342 31.7607 141.377 31.9264 141.447C32.092 141.515 32.232 141.611 32.3464 141.734C32.4607 141.856 32.547 142.002 32.6054 142.172C32.666 142.342 32.6964 142.529 32.6964 142.732V145H32.3044C32.2227 145 32.1597 144.988 32.1154 144.965C32.071 144.939 32.036 144.889 32.0104 144.814L31.9334 144.555C31.8424 144.637 31.7537 144.709 31.6674 144.772C31.581 144.833 31.4912 144.884 31.3979 144.926C31.3045 144.968 31.2042 145 31.0969 145.021C30.9919 145.044 30.8752 145.056 30.7469 145.056C30.5952 145.056 30.4552 145.036 30.3269 144.996C30.1985 144.954 30.0877 144.893 29.9944 144.811C29.901 144.729 29.8287 144.628 29.7774 144.506C29.726 144.385 29.7004 144.244 29.7004 144.083C29.7004 143.992 29.7155 143.902 29.7459 143.813C29.7762 143.722 29.8252 143.636 29.8929 143.554C29.9629 143.473 30.0527 143.396 30.1624 143.323C30.272 143.251 30.4062 143.188 30.5649 143.134C30.7259 143.081 30.9125 143.038 31.1249 143.005C31.3372 142.97 31.5799 142.949 31.8529 142.942V142.732C31.8529 142.492 31.8015 142.314 31.6989 142.2C31.5962 142.083 31.448 142.025 31.2544 142.025C31.1144 142.025 30.9977 142.041 30.9044 142.074C30.8134 142.107 30.7329 142.144 30.6629 142.186C30.5929 142.226 30.5287 142.262 30.4704 142.294C30.4144 142.327 30.3514 142.343 30.2814 142.343C30.2207 142.343 30.1694 142.328 30.1274 142.298C30.0854 142.265 30.0515 142.228 30.0259 142.186L29.8719 141.909ZM34.9491 141.85C35.0214 141.778 35.0972 141.711 35.1766 141.65C35.2582 141.587 35.3434 141.535 35.4321 141.493C35.5231 141.449 35.6199 141.415 35.7226 141.391C35.8252 141.366 35.9372 141.353 36.0586 141.353C36.2546 141.353 36.4284 141.387 36.5801 141.454C36.7317 141.52 36.8577 141.613 36.9581 141.734C37.0607 141.853 37.1377 141.997 37.1891 142.165C37.2427 142.331 37.2696 142.514 37.2696 142.714V145H36.4051V142.714C36.4051 142.495 36.3549 142.326 36.2546 142.207C36.1542 142.086 36.0014 142.025 35.7961 142.025C35.6467 142.025 35.5067 142.059 35.3761 142.126C35.2454 142.194 35.1217 142.286 35.0051 142.403V145H34.1406V141.409H34.6691C34.7811 141.409 34.8546 141.461 34.8896 141.566L34.9491 141.85ZM41.2942 142.168C41.2686 142.201 41.2429 142.227 41.2172 142.245C41.1939 142.264 41.1589 142.273 41.1122 142.273C41.0679 142.273 41.0247 142.261 40.9827 142.235C40.9407 142.207 40.8906 142.177 40.8322 142.144C40.7739 142.109 40.7039 142.079 40.6222 142.053C40.5429 142.025 40.4437 142.011 40.3247 142.011C40.1731 142.011 40.0401 142.039 39.9257 142.095C39.8114 142.149 39.7157 142.227 39.6387 142.329C39.5641 142.432 39.5081 142.557 39.4707 142.704C39.4334 142.849 39.4147 143.013 39.4147 143.197C39.4147 143.389 39.4346 143.559 39.4742 143.708C39.5162 143.858 39.5757 143.984 39.6527 144.086C39.7297 144.187 39.8231 144.264 39.9327 144.317C40.0424 144.369 40.1661 144.394 40.3037 144.394C40.4414 144.394 40.5522 144.378 40.6362 144.345C40.7226 144.31 40.7949 144.273 40.8532 144.233C40.9116 144.191 40.9617 144.154 41.0037 144.121C41.0481 144.086 41.0971 144.069 41.1507 144.069C41.2207 144.069 41.2732 144.096 41.3082 144.149L41.5567 144.464C41.4611 144.576 41.3572 144.671 41.2452 144.748C41.1332 144.823 41.0166 144.883 40.8952 144.93C40.7762 144.974 40.6526 145.006 40.5242 145.025C40.3982 145.043 40.2722 145.053 40.1462 145.053C39.9246 145.053 39.7157 145.012 39.5197 144.93C39.3237 144.846 39.1522 144.725 39.0052 144.566C38.8582 144.407 38.7416 144.214 38.6552 143.985C38.5712 143.754 38.5292 143.491 38.5292 143.197C38.5292 142.934 38.5666 142.69 38.6412 142.466C38.7182 142.24 38.8302 142.045 38.9772 141.881C39.1242 141.716 39.3062 141.586 39.5232 141.493C39.7402 141.4 39.9899 141.353 40.2722 141.353C40.5406 141.353 40.7751 141.396 40.9757 141.483C41.1787 141.569 41.3607 141.692 41.5217 141.853L41.2942 142.168ZM44.9807 142.791C44.9807 142.679 44.9643 142.574 44.9317 142.476C44.9013 142.376 44.8547 142.289 44.7917 142.214C44.7287 142.139 44.6482 142.081 44.5502 142.039C44.4545 141.995 44.3425 141.972 44.2142 141.972C43.9645 141.972 43.7673 142.044 43.6227 142.186C43.4803 142.328 43.3893 142.53 43.3497 142.791H44.9807ZM43.3322 143.313C43.3462 143.497 43.3788 143.657 43.4302 143.792C43.4815 143.925 43.5492 144.036 43.6332 144.125C43.7172 144.211 43.8163 144.277 43.9307 144.321C44.0473 144.363 44.1757 144.384 44.3157 144.384C44.4557 144.384 44.5758 144.368 44.6762 144.335C44.7788 144.302 44.8675 144.266 44.9422 144.226C45.0192 144.187 45.0857 144.151 45.1417 144.118C45.2 144.085 45.256 144.069 45.3097 144.069C45.382 144.069 45.4357 144.096 45.4707 144.149L45.7192 144.464C45.6235 144.576 45.5162 144.671 45.3972 144.748C45.2782 144.823 45.1533 144.883 45.0227 144.93C44.8943 144.974 44.7625 145.006 44.6272 145.025C44.4942 145.043 44.3647 145.053 44.2387 145.053C43.989 145.053 43.7568 145.012 43.5422 144.93C43.3275 144.846 43.1408 144.723 42.9822 144.562C42.8235 144.399 42.6987 144.198 42.6077 143.96C42.5167 143.72 42.4712 143.442 42.4712 143.127C42.4712 142.882 42.5108 142.653 42.5902 142.438C42.6695 142.221 42.7827 142.033 42.9297 141.874C43.079 141.713 43.2598 141.586 43.4722 141.493C43.6868 141.4 43.9283 141.353 44.1967 141.353C44.423 141.353 44.6318 141.389 44.8232 141.461C45.0145 141.534 45.179 141.64 45.3167 141.78C45.4543 141.918 45.5617 142.088 45.6387 142.291C45.718 142.492 45.7577 142.721 45.7577 142.98C45.7577 143.111 45.7437 143.2 45.7157 143.246C45.6877 143.291 45.634 143.313 45.5547 143.313H43.3322ZM49.2274 142.109C49.2041 142.146 49.1796 142.173 49.1539 142.189C49.1282 142.203 49.0956 142.21 49.0559 142.21C49.0139 142.21 48.9684 142.199 48.9194 142.175C48.8727 142.152 48.8179 142.126 48.7549 142.098C48.6919 142.068 48.6196 142.041 48.5379 142.018C48.4586 141.995 48.3641 141.983 48.2544 141.983C48.0841 141.983 47.9499 142.019 47.8519 142.091C47.7562 142.164 47.7084 142.258 47.7084 142.375C47.7084 142.452 47.7329 142.517 47.7819 142.571C47.8332 142.622 47.8997 142.668 47.9814 142.707C48.0654 142.747 48.1599 142.783 48.2649 142.816C48.3699 142.846 48.4761 142.88 48.5834 142.917C48.6931 142.955 48.8004 142.998 48.9054 143.047C49.0104 143.094 49.1037 143.154 49.1854 143.229C49.2694 143.301 49.3359 143.389 49.3849 143.491C49.4362 143.594 49.4619 143.718 49.4619 143.862C49.4619 144.035 49.4304 144.195 49.3674 144.342C49.3067 144.487 49.2157 144.613 49.0944 144.72C48.9731 144.825 48.8226 144.908 48.6429 144.968C48.4656 145.027 48.2602 145.056 48.0269 145.056C47.9032 145.056 47.7819 145.044 47.6629 145.021C47.5462 145 47.4331 144.97 47.3234 144.93C47.2161 144.89 47.1157 144.844 47.0224 144.79C46.9314 144.736 46.8509 144.678 46.7809 144.615L46.9804 144.286C47.0061 144.246 47.0364 144.216 47.0714 144.195C47.1064 144.174 47.1507 144.163 47.2044 144.163C47.2581 144.163 47.3082 144.179 47.3549 144.209C47.4039 144.239 47.4599 144.272 47.5229 144.307C47.5859 144.342 47.6594 144.375 47.7434 144.405C47.8297 144.435 47.9382 144.45 48.0689 144.45C48.1716 144.45 48.2591 144.439 48.3314 144.415C48.4061 144.39 48.4667 144.357 48.5134 144.317C48.5624 144.278 48.5974 144.232 48.6184 144.181C48.6417 144.127 48.6534 144.072 48.6534 144.016C48.6534 143.932 48.6277 143.864 48.5764 143.81C48.5274 143.756 48.4609 143.71 48.3769 143.67C48.2952 143.63 48.2007 143.595 48.0934 143.565C47.9884 143.532 47.8799 143.497 47.7679 143.46C47.6582 143.423 47.5497 143.379 47.4424 143.33C47.3374 143.279 47.2429 143.215 47.1589 143.138C47.0772 143.061 47.0107 142.966 46.9594 142.854C46.9104 142.742 46.8859 142.607 46.8859 142.448C46.8859 142.301 46.9151 142.161 46.9734 142.028C47.0317 141.895 47.1169 141.78 47.2289 141.682C47.3432 141.582 47.4844 141.502 47.6524 141.444C47.8227 141.383 48.0187 141.353 48.2404 141.353C48.4877 141.353 48.7129 141.394 48.9159 141.475C49.1189 141.557 49.2881 141.664 49.4234 141.797L49.2274 142.109Z" fill="black"/>
</svg>
