<svg width="190" height="154" viewBox="0 0 190 154" fill="none" xmlns="http://www.w3.org/2000/svg">
<circle cx="118" cy="72" r="72" fill="#D9E694"/>
<path d="M68.184 65.5727H74.496C75.6 65.5727 76.608 65.7487 77.52 66.1007C78.432 66.4527 79.208 66.9807 79.848 67.6847C80.488 68.3727 80.984 69.2447 81.336 70.3007C81.688 71.3407 81.864 72.5567 81.864 73.9487C81.864 75.3407 81.688 76.5647 81.336 77.6207C80.984 78.6607 80.488 79.5327 79.848 80.2367C79.208 80.9247 78.432 81.4447 77.52 81.7967C76.608 82.1487 75.6 82.3247 74.496 82.3247H68.184V65.5727ZM74.496 79.0847C75.584 79.0847 76.44 78.7807 77.064 78.1727C77.688 77.5647 78 76.5887 78 75.2447V72.6527C78 71.3087 77.688 70.3327 77.064 69.7247C76.44 69.1167 75.584 68.8127 74.496 68.8127H71.832V79.0847H74.496ZM90.7263 82.3247H87.0783V65.5727H95.0223C95.7903 65.5727 96.4863 65.7007 97.1103 65.9567C97.7343 66.2127 98.2623 66.5807 98.6943 67.0607C99.1423 67.5247 99.4863 68.0847 99.7263 68.7407C99.9663 69.3967 100.086 70.1247 100.086 70.9247C100.086 72.0607 99.8303 73.0527 99.3183 73.9007C98.8223 74.7487 98.0623 75.3647 97.0383 75.7487L100.326 82.3247H96.2703L93.3423 76.1807H90.7263V82.3247ZM94.5663 73.1087C95.1103 73.1087 95.5343 72.9727 95.8383 72.7007C96.1583 72.4127 96.3183 71.9967 96.3183 71.4527V70.3967C96.3183 69.8527 96.1583 69.4447 95.8383 69.1727C95.5343 68.8847 95.1103 68.7407 94.5663 68.7407H90.7263V73.1087H94.5663ZM108.553 82.3247V75.7727L102.817 65.5727H106.897L110.497 72.2447H110.545L114.001 65.5727H117.961L112.225 75.7487V82.3247H108.553ZM122.195 82.3247V65.5727H133.595V68.8127H125.843V72.2447H132.491V75.4607H125.843V79.0847H133.595V82.3247H122.195ZM142.581 82.3247H138.933V65.5727H146.877C147.645 65.5727 148.341 65.7007 148.965 65.9567C149.589 66.2127 150.117 66.5807 150.549 67.0607C150.997 67.5247 151.341 68.0847 151.581 68.7407C151.821 69.3967 151.941 70.1247 151.941 70.9247C151.941 72.0607 151.685 73.0527 151.173 73.9007C150.677 74.7487 149.917 75.3647 148.893 75.7487L152.181 82.3247H148.125L145.197 76.1807H142.581V82.3247ZM146.421 73.1087C146.965 73.1087 147.389 72.9727 147.693 72.7007C148.013 72.4127 148.173 71.9967 148.173 71.4527V70.3967C148.173 69.8527 148.013 69.4447 147.693 69.1727C147.389 68.8847 146.965 68.7407 146.421 68.7407H142.581V73.1087H146.421ZM162.689 82.6127C161.217 82.6127 159.969 82.3647 158.945 81.8687C157.921 81.3567 157.049 80.7007 156.329 79.9007L158.729 77.4767C159.865 78.7567 161.265 79.3967 162.929 79.3967C163.825 79.3967 164.489 79.2127 164.921 78.8447C165.353 78.4767 165.569 77.9887 165.569 77.3807C165.569 76.9167 165.441 76.5327 165.185 76.2287C164.929 75.9087 164.409 75.6927 163.625 75.5807L161.969 75.3647C160.193 75.1407 158.889 74.6047 158.057 73.7567C157.241 72.9087 156.833 71.7807 156.833 70.3727C156.833 69.6207 156.977 68.9327 157.265 68.3087C157.553 67.6847 157.961 67.1487 158.489 66.7007C159.033 66.2527 159.689 65.9087 160.457 65.6687C161.241 65.4127 162.129 65.2847 163.121 65.2847C164.385 65.2847 165.497 65.4847 166.457 65.8847C167.417 66.2847 168.241 66.8687 168.929 67.6367L166.505 70.0847C166.105 69.6207 165.617 69.2447 165.041 68.9567C164.481 68.6527 163.769 68.5007 162.905 68.5007C162.089 68.5007 161.481 68.6447 161.081 68.9327C160.681 69.2207 160.481 69.6207 160.481 70.1327C160.481 70.7087 160.633 71.1247 160.937 71.3807C161.257 71.6367 161.769 71.8207 162.473 71.9327L164.129 72.1967C165.857 72.4687 167.137 73.0047 167.969 73.8047C168.801 74.5887 169.217 75.7087 169.217 77.1647C169.217 77.9647 169.073 78.7007 168.785 79.3727C168.497 80.0447 168.073 80.6207 167.513 81.1007C166.969 81.5807 166.289 81.9567 165.473 82.2287C164.657 82.4847 163.729 82.6127 162.689 82.6127Z" fill="black"/>
<circle cx="46" cy="122" r="32" fill="#C8D5AE"/>
<path d="M4.36399 144.168C3.08532 144.168 2.13799 143.725 1.52199 142.838C0.905986 141.951 0.597986 140.71 0.597986 139.114C0.597986 137.518 0.905986 136.277 1.52199 135.39C2.13799 134.503 3.08532 134.06 4.36399 134.06C5.64265 134.06 6.58999 134.503 7.20599 135.39C7.82199 136.277 8.12999 137.518 8.12999 139.114C8.12999 140.71 7.82199 141.951 7.20599 142.838C6.58999 143.725 5.64265 144.168 4.36399 144.168ZM4.36399 142.39C4.92399 142.39 5.31132 142.185 5.52599 141.774C5.74065 141.363 5.84799 140.785 5.84799 140.038V138.19C5.84799 137.443 5.74065 136.865 5.52599 136.454C5.31132 136.043 4.92399 135.838 4.36399 135.838C3.80399 135.838 3.41665 136.043 3.20199 136.454C2.98732 136.865 2.87999 137.443 2.87999 138.19V140.038C2.87999 140.785 2.98732 141.363 3.20199 141.774C3.41665 142.185 3.80399 142.39 4.36399 142.39ZM11.9885 144.154C11.5685 144.154 11.2559 144.051 11.0505 143.846C10.8545 143.631 10.7565 143.361 10.7565 143.034V142.754C10.7565 142.427 10.8545 142.161 11.0505 141.956C11.2559 141.741 11.5685 141.634 11.9885 141.634C12.4085 141.634 12.7165 141.741 12.9125 141.956C13.1179 142.161 13.2205 142.427 13.2205 142.754V143.034C13.2205 143.361 13.1179 143.631 12.9125 143.846C12.7165 144.051 12.4085 144.154 11.9885 144.154ZM19.6685 144.168C19.0898 144.168 18.5718 144.079 18.1145 143.902C17.6572 143.715 17.2698 143.454 16.9525 143.118C16.6445 142.773 16.4065 142.362 16.2385 141.886C16.0798 141.41 16.0005 140.878 16.0005 140.29C16.0005 139.609 16.1032 138.965 16.3085 138.358C16.5232 137.742 16.7938 137.177 17.1205 136.664C17.4565 136.141 17.8298 135.675 18.2405 135.264C18.6605 134.853 19.0805 134.508 19.5005 134.228H22.3985C21.8012 134.657 21.2645 135.068 20.7885 135.46C20.3125 135.843 19.8972 136.23 19.5425 136.622C19.1972 137.014 18.9078 137.415 18.6745 137.826C18.4505 138.227 18.2918 138.661 18.1985 139.128L18.3245 139.17C18.4085 138.983 18.5065 138.801 18.6185 138.624C18.7398 138.447 18.8845 138.293 19.0525 138.162C19.2298 138.022 19.4352 137.91 19.6685 137.826C19.9018 137.742 20.1725 137.7 20.4805 137.7C20.8818 137.7 21.2552 137.775 21.6005 137.924C21.9552 138.064 22.2585 138.265 22.5105 138.526C22.7718 138.787 22.9725 139.109 23.1125 139.492C23.2618 139.865 23.3365 140.281 23.3365 140.738C23.3365 141.242 23.2478 141.704 23.0705 142.124C22.9025 142.544 22.6552 142.908 22.3285 143.216C22.0112 143.515 21.6285 143.748 21.1805 143.916C20.7325 144.084 20.2285 144.168 19.6685 144.168ZM19.6685 142.53C20.1352 142.53 20.4992 142.404 20.7605 142.152C21.0218 141.891 21.1525 141.522 21.1525 141.046V140.794C21.1525 140.318 21.0218 139.954 20.7605 139.702C20.4992 139.441 20.1352 139.31 19.6685 139.31C19.2018 139.31 18.8378 139.441 18.5765 139.702C18.3152 139.954 18.1845 140.318 18.1845 140.794V141.046C18.1845 141.522 18.3152 141.891 18.5765 142.152C18.8378 142.404 19.2018 142.53 19.6685 142.53ZM29.547 139.744L28.273 141.284V144H26.145V134.228H28.273V138.876H28.357L29.743 136.986L31.941 134.228H34.349L31.059 138.246L34.643 144H32.137L29.547 139.744ZM42.7945 142.446H42.7245C42.6499 142.941 42.3979 143.351 41.9685 143.678C41.5392 144.005 40.9559 144.168 40.2185 144.168C39.6585 144.168 39.1359 144.061 38.6505 143.846C38.1652 143.631 37.7405 143.314 37.3765 142.894C37.0125 142.474 36.7279 141.951 36.5225 141.326C36.3172 140.701 36.2145 139.977 36.2145 139.156C36.2145 138.335 36.3219 137.607 36.5365 136.972C36.7512 136.337 37.0499 135.805 37.4325 135.376C37.8245 134.947 38.2912 134.62 38.8325 134.396C39.3739 134.172 39.9759 134.06 40.6385 134.06C41.5159 134.06 42.2719 134.251 42.9065 134.634C43.5412 135.007 44.0405 135.572 44.4045 136.328L42.6685 137.322C42.5192 136.939 42.2859 136.617 41.9685 136.356C41.6512 136.085 41.2079 135.95 40.6385 135.95C39.9759 135.95 39.4485 136.141 39.0565 136.524C38.6645 136.907 38.4685 137.509 38.4685 138.33V139.898C38.4685 140.71 38.6645 141.312 39.0565 141.704C39.4485 142.087 39.9759 142.278 40.6385 142.278C40.8999 142.278 41.1472 142.25 41.3805 142.194C41.6139 142.129 41.8192 142.035 41.9965 141.914C42.1739 141.783 42.3092 141.629 42.4025 141.452C42.5052 141.275 42.5565 141.065 42.5565 140.822V140.332H40.7365V138.554H44.5865V144H42.7945V142.446ZM56.4316 144.168C55.769 144.168 55.1716 144.065 54.6396 143.86C54.1076 143.645 53.655 143.333 53.2816 142.922C52.9083 142.502 52.619 141.984 52.4136 141.368C52.2083 140.743 52.1056 140.015 52.1056 139.184C52.1056 138.363 52.2083 137.635 52.4136 137C52.619 136.356 52.9083 135.819 53.2816 135.39C53.655 134.951 54.1076 134.62 54.6396 134.396C55.1716 134.172 55.769 134.06 56.4316 134.06C57.337 134.06 58.0836 134.247 58.6716 134.62C59.2596 134.984 59.731 135.563 60.0856 136.356L58.2516 137.308C58.121 136.897 57.9156 136.571 57.6356 136.328C57.365 136.076 56.9636 135.95 56.4316 135.95C55.8063 135.95 55.3023 136.155 54.9196 136.566C54.5463 136.967 54.3596 137.555 54.3596 138.33V139.898C54.3596 140.673 54.5463 141.265 54.9196 141.676C55.3023 142.077 55.8063 142.278 56.4316 142.278C56.9543 142.278 57.3696 142.138 57.6776 141.858C57.995 141.569 58.2283 141.223 58.3776 140.822L60.1136 141.83C59.7496 142.577 59.269 143.155 58.6716 143.566C58.0836 143.967 57.337 144.168 56.4316 144.168ZM66.605 144.168C65.961 144.168 65.373 144.061 64.841 143.846C64.309 143.631 63.8564 143.314 63.483 142.894C63.1097 142.465 62.8204 141.937 62.615 141.312C62.4097 140.677 62.307 139.945 62.307 139.114C62.307 138.283 62.4097 137.555 62.615 136.93C62.8204 136.295 63.1097 135.768 63.483 135.348C63.8564 134.919 64.309 134.597 64.841 134.382C65.373 134.167 65.961 134.06 66.605 134.06C67.249 134.06 67.837 134.167 68.369 134.382C68.901 134.597 69.3537 134.919 69.727 135.348C70.1004 135.768 70.3897 136.295 70.595 136.93C70.8004 137.555 70.903 138.283 70.903 139.114C70.903 139.945 70.8004 140.677 70.595 141.312C70.3897 141.937 70.1004 142.465 69.727 142.894C69.3537 143.314 68.901 143.631 68.369 143.846C67.837 144.061 67.249 144.168 66.605 144.168ZM66.605 142.278C67.249 142.278 67.7484 142.068 68.103 141.648C68.467 141.228 68.649 140.626 68.649 139.842V138.386C68.649 137.602 68.467 137 68.103 136.58C67.7484 136.16 67.249 135.95 66.605 135.95C65.961 135.95 65.457 136.16 65.093 136.58C64.7384 137 64.561 137.602 64.561 138.386V139.842C64.561 140.626 64.7384 141.228 65.093 141.648C65.457 142.068 65.961 142.278 66.605 142.278ZM77.3008 144H73.2548V142.768L74.7808 141.606C74.9581 141.475 75.1028 141.363 75.2148 141.27C75.3361 141.167 75.4341 141.074 75.5088 140.99C75.5835 140.897 75.6348 140.808 75.6628 140.724C75.7001 140.64 75.7188 140.547 75.7188 140.444V140.43C75.7188 140.243 75.6488 140.117 75.5088 140.052C75.3781 139.987 75.2475 139.954 75.1168 139.954C74.8835 139.954 74.7061 140.019 74.5848 140.15C74.4728 140.271 74.3935 140.416 74.3468 140.584L73.1008 140.122C73.2315 139.73 73.4741 139.403 73.8288 139.142C74.1928 138.881 74.6688 138.75 75.2568 138.75C75.8915 138.75 76.3815 138.899 76.7268 139.198C77.0721 139.497 77.2448 139.879 77.2448 140.346C77.2448 140.589 77.1981 140.808 77.1048 141.004C77.0208 141.2 76.9041 141.382 76.7548 141.55C76.6055 141.709 76.4328 141.858 76.2368 141.998C76.0501 142.138 75.8541 142.264 75.6488 142.376L74.8228 142.838H77.3008V144ZM83.0067 144.168C82.4467 144.168 81.9474 144.079 81.5087 143.902C81.07 143.715 80.6967 143.459 80.3887 143.132C80.09 142.796 79.8614 142.39 79.7027 141.914C79.5534 141.438 79.4787 140.906 79.4787 140.318C79.4787 139.739 79.5534 139.217 79.7027 138.75C79.852 138.274 80.0714 137.868 80.3607 137.532C80.6594 137.196 81.0234 136.939 81.4527 136.762C81.882 136.575 82.372 136.482 82.9227 136.482C83.5294 136.482 84.0474 136.585 84.4767 136.79C84.9154 136.995 85.27 137.271 85.5407 137.616C85.8207 137.961 86.0214 138.363 86.1427 138.82C86.2734 139.268 86.3387 139.739 86.3387 140.234V140.85H81.6207V140.962C81.6207 141.447 81.7514 141.835 82.0127 142.124C82.274 142.404 82.6847 142.544 83.2447 142.544C83.674 142.544 84.024 142.46 84.2947 142.292C84.5654 142.115 84.8174 141.905 85.0507 141.662L86.0867 142.95C85.76 143.333 85.3307 143.631 84.7987 143.846C84.276 144.061 83.6787 144.168 83.0067 144.168ZM82.9647 138.008C82.5447 138.008 82.2134 138.148 81.9707 138.428C81.7374 138.699 81.6207 139.063 81.6207 139.52V139.632H84.1967V139.506C84.1967 139.058 84.094 138.699 83.8887 138.428C83.6927 138.148 83.3847 138.008 82.9647 138.008Z" fill="black"/>
<path d="M10.6651 126.32L8.45315 116.548H10.5531L11.4771 121.238L11.9951 123.954H12.0372L12.6532 121.238L13.7311 116.548H16.0552L17.1472 121.238L17.7491 123.954H17.7912L18.3092 121.238L19.2471 116.548H21.2632L18.9952 126.32H16.5732L15.3412 121.028L14.8651 118.886H14.8232L14.3332 121.028L13.1012 126.32H10.6651ZM29.6259 126.32L28.9259 123.996H25.6639L24.9639 126.32H22.8079L26.0279 116.548H28.6599L31.8379 126.32H29.6259ZM27.3159 118.48H27.2459L26.1679 122.19H28.4079L27.3159 118.48ZM37.6138 126.488C36.7552 126.488 36.0272 126.343 35.4298 126.054C34.8325 125.755 34.3238 125.372 33.9038 124.906L35.3038 123.492C35.9665 124.238 36.7832 124.612 37.7538 124.612C38.2765 124.612 38.6638 124.504 38.9158 124.29C39.1678 124.075 39.2938 123.79 39.2938 123.436C39.2938 123.165 39.2192 122.941 39.0698 122.764C38.9205 122.577 38.6172 122.451 38.1598 122.386L37.1938 122.26C36.1578 122.129 35.3972 121.816 34.9118 121.322C34.4358 120.827 34.1978 120.169 34.1978 119.348C34.1978 118.909 34.2818 118.508 34.4498 118.144C34.6178 117.78 34.8558 117.467 35.1638 117.206C35.4812 116.944 35.8638 116.744 36.3118 116.604C36.7692 116.454 37.2872 116.38 37.8658 116.38C38.6032 116.38 39.2518 116.496 39.8118 116.73C40.3718 116.963 40.8525 117.304 41.2538 117.752L39.8398 119.18C39.6065 118.909 39.3218 118.69 38.9858 118.522C38.6592 118.344 38.2438 118.256 37.7398 118.256C37.2638 118.256 36.9092 118.34 36.6758 118.508C36.4425 118.676 36.3258 118.909 36.3258 119.208C36.3258 119.544 36.4145 119.786 36.5918 119.936C36.7785 120.085 37.0772 120.192 37.4878 120.258L38.4538 120.412C39.4618 120.57 40.2085 120.883 40.6938 121.35C41.1792 121.807 41.4218 122.46 41.4218 123.31C41.4218 123.776 41.3378 124.206 41.1698 124.598C41.0018 124.99 40.7545 125.326 40.4278 125.606C40.1105 125.886 39.7138 126.105 39.2378 126.264C38.7618 126.413 38.2205 126.488 37.6138 126.488ZM50.2982 122.316H46.5742V126.32H44.4462V116.548H46.5742V120.44H50.2982V116.548H52.4262V126.32H50.2982V122.316ZM55.837 126.32V116.548H62.487V118.438H57.965V120.44H61.843V122.316H57.965V124.43H62.487V126.32H55.837ZM67.7289 126.32H65.6009V116.548H70.2349C70.6829 116.548 71.0889 116.622 71.4529 116.772C71.8169 116.921 72.1249 117.136 72.3769 117.416C72.6383 117.686 72.8389 118.013 72.9789 118.396C73.1189 118.778 73.1889 119.203 73.1889 119.67C73.1889 120.332 73.0396 120.911 72.7409 121.406C72.4516 121.9 72.0083 122.26 71.4109 122.484L73.3289 126.32H70.9629L69.2549 122.736H67.7289V126.32ZM69.9689 120.944C70.2863 120.944 70.5336 120.864 70.7109 120.706C70.8976 120.538 70.9909 120.295 70.9909 119.978V119.362C70.9909 119.044 70.8976 118.806 70.7109 118.648C70.5336 118.48 70.2863 118.396 69.9689 118.396H67.7289V120.944H69.9689ZM79.4585 126.488C78.5999 126.488 77.8719 126.343 77.2745 126.054C76.6772 125.755 76.1685 125.372 75.7485 124.906L77.1485 123.492C77.8112 124.238 78.6279 124.612 79.5985 124.612C80.1212 124.612 80.5085 124.504 80.7605 124.29C81.0125 124.075 81.1385 123.79 81.1385 123.436C81.1385 123.165 81.0639 122.941 80.9145 122.764C80.7652 122.577 80.4619 122.451 80.0045 122.386L79.0385 122.26C78.0025 122.129 77.2419 121.816 76.7565 121.322C76.2805 120.827 76.0425 120.169 76.0425 119.348C76.0425 118.909 76.1265 118.508 76.2945 118.144C76.4625 117.78 76.7005 117.467 77.0085 117.206C77.3259 116.944 77.7085 116.744 78.1565 116.604C78.6139 116.454 79.1319 116.38 79.7105 116.38C80.4479 116.38 81.0965 116.496 81.6565 116.73C82.2165 116.963 82.6972 117.304 83.0985 117.752L81.6845 119.18C81.4512 118.909 81.1665 118.69 80.8305 118.522C80.5039 118.344 80.0885 118.256 79.5845 118.256C79.1085 118.256 78.7539 118.34 78.5205 118.508C78.2872 118.676 78.1705 118.909 78.1705 119.208C78.1705 119.544 78.2592 119.786 78.4365 119.936C78.6232 120.085 78.9219 120.192 79.3325 120.258L80.2985 120.412C81.3065 120.57 82.0532 120.883 82.5385 121.35C83.0239 121.807 83.2665 122.46 83.2665 123.31C83.2665 123.776 83.1825 124.206 83.0145 124.598C82.8465 124.99 82.5992 125.326 82.2725 125.606C81.9552 125.886 81.5585 126.105 81.0825 126.264C80.6065 126.413 80.0652 126.488 79.4585 126.488Z" fill="black"/>
</svg>
