<svg width="160" height="160" viewBox="0 0 160 160" fill="none" xmlns="http://www.w3.org/2000/svg">
<circle cx="80" cy="80" r="80" fill="#B1DEFF" fill-opacity="0.88"/>
<path d="M26.256 94V91.096H30.768V79.864H30.552L27.144 84.328L24.84 82.528L28.848 77.248H34.368V91.096H37.92V94H26.256ZM47.7506 94.288C45.5586 94.288 43.9346 93.528 42.8786 92.008C41.8226 90.488 41.2946 88.36 41.2946 85.624C41.2946 82.888 41.8226 80.76 42.8786 79.24C43.9346 77.72 45.5586 76.96 47.7506 76.96C49.9426 76.96 51.5666 77.72 52.6226 79.24C53.6786 80.76 54.2066 82.888 54.2066 85.624C54.2066 88.36 53.6786 90.488 52.6226 92.008C51.5666 93.528 49.9426 94.288 47.7506 94.288ZM47.7506 91.24C48.7106 91.24 49.3746 90.888 49.7426 90.184C50.1106 89.48 50.2946 88.488 50.2946 87.208V84.04C50.2946 82.76 50.1106 81.768 49.7426 81.064C49.3746 80.36 48.7106 80.008 47.7506 80.008C46.7906 80.008 46.1266 80.36 45.7586 81.064C45.3906 81.768 45.2066 82.76 45.2066 84.04V87.208C45.2066 88.488 45.3906 89.48 45.7586 90.184C46.1266 90.888 46.7906 91.24 47.7506 91.24ZM64.3012 94.288C62.1092 94.288 60.4852 93.528 59.4292 92.008C58.3732 90.488 57.8452 88.36 57.8452 85.624C57.8452 82.888 58.3732 80.76 59.4292 79.24C60.4852 77.72 62.1092 76.96 64.3012 76.96C66.4932 76.96 68.1172 77.72 69.1733 79.24C70.2292 80.76 70.7572 82.888 70.7572 85.624C70.7572 88.36 70.2292 90.488 69.1733 92.008C68.1172 93.528 66.4932 94.288 64.3012 94.288ZM64.3012 91.24C65.2613 91.24 65.9253 90.888 66.2933 90.184C66.6613 89.48 66.8453 88.488 66.8453 87.208V84.04C66.8453 82.76 66.6613 81.768 66.2933 81.064C65.9253 80.36 65.2613 80.008 64.3012 80.008C63.3412 80.008 62.6772 80.36 62.3092 81.064C61.9412 81.768 61.7572 82.76 61.7572 84.04V87.208C61.7572 88.488 61.9412 89.48 62.3092 90.184C62.6772 90.888 63.3412 91.24 64.3012 91.24ZM74.9239 88.408V84.952H82.0519V88.408H74.9239ZM87.7476 94V91.096H92.2596V79.864H92.0436L88.6356 84.328L86.3316 82.528L90.3396 77.248H95.8596V91.096H99.4116V94H87.7476ZM115.266 94H103.41V90.712L108.57 86.296C109.034 85.896 109.426 85.536 109.746 85.216C110.066 84.88 110.322 84.56 110.514 84.256C110.722 83.936 110.866 83.624 110.946 83.32C111.042 83.016 111.09 82.688 111.09 82.336V82C111.09 81.68 111.026 81.4 110.898 81.16C110.77 80.92 110.602 80.72 110.394 80.56C110.186 80.4 109.946 80.28 109.674 80.2C109.418 80.12 109.154 80.08 108.882 80.08C108.482 80.08 108.13 80.144 107.826 80.272C107.538 80.4 107.282 80.576 107.058 80.8C106.85 81.008 106.674 81.256 106.53 81.544C106.386 81.816 106.274 82.112 106.194 82.432L103.05 81.232C103.242 80.656 103.506 80.112 103.842 79.6C104.178 79.072 104.594 78.616 105.09 78.232C105.602 77.832 106.202 77.52 106.89 77.296C107.578 77.072 108.354 76.96 109.218 76.96C110.13 76.96 110.938 77.088 111.642 77.344C112.346 77.6 112.938 77.952 113.418 78.4C113.914 78.848 114.29 79.384 114.546 80.008C114.802 80.616 114.93 81.28 114.93 82C114.93 82.72 114.81 83.376 114.57 83.968C114.33 84.56 114.002 85.12 113.586 85.648C113.186 86.16 112.714 86.648 112.17 87.112C111.626 87.576 111.058 88.048 110.466 88.528L107.346 90.976H115.266V94ZM125.793 94.288C123.601 94.288 121.977 93.528 120.921 92.008C119.865 90.488 119.337 88.36 119.337 85.624C119.337 82.888 119.865 80.76 120.921 79.24C121.977 77.72 123.601 76.96 125.793 76.96C127.985 76.96 129.609 77.72 130.665 79.24C131.721 80.76 132.249 82.888 132.249 85.624C132.249 88.36 131.721 90.488 130.665 92.008C129.609 93.528 127.985 94.288 125.793 94.288ZM125.793 91.24C126.753 91.24 127.417 90.888 127.785 90.184C128.153 89.48 128.337 88.488 128.337 87.208V84.04C128.337 82.76 128.153 81.768 127.785 81.064C127.417 80.36 126.753 80.008 125.793 80.008C124.833 80.008 124.169 80.36 123.801 81.064C123.433 81.768 123.249 82.76 123.249 84.04V87.208C123.249 88.488 123.433 89.48 123.801 90.184C124.169 90.888 124.833 91.24 125.793 91.24Z" fill="black"/>
<path d="M56.3484 114V107.175H58.2724V108.332H58.3504C58.4717 107.968 58.6797 107.66 58.9744 107.409C59.2691 107.149 59.6721 107.019 60.1834 107.019C60.6514 107.019 61.0501 107.136 61.3794 107.37C61.7087 107.604 61.9471 107.946 62.0944 108.397H62.1334C62.1941 108.206 62.2851 108.029 62.4064 107.864C62.5364 107.691 62.6924 107.543 62.8744 107.422C63.0564 107.301 63.2601 107.205 63.4854 107.136C63.7107 107.058 63.9534 107.019 64.2134 107.019C64.8721 107.019 65.3747 107.253 65.7214 107.721C66.0767 108.189 66.2544 108.856 66.2544 109.723V114H64.3304V109.879C64.3304 109.012 64.0184 108.579 63.3944 108.579C63.1084 108.579 62.8484 108.661 62.6144 108.826C62.3804 108.991 62.2634 109.242 62.2634 109.58V114H60.3394V109.879C60.3394 109.012 60.0274 108.579 59.4034 108.579C59.2647 108.579 59.1261 108.601 58.9874 108.644C58.8574 108.679 58.7361 108.739 58.6234 108.826C58.5194 108.913 58.4327 109.021 58.3634 109.151C58.3027 109.272 58.2724 109.415 58.2724 109.58V114H56.3484ZM70.0966 106.447C69.7066 106.447 69.4206 106.36 69.2386 106.187C69.0653 106.005 68.9786 105.775 68.9786 105.498V105.212C68.9786 104.935 69.0653 104.709 69.2386 104.536C69.4206 104.354 69.7066 104.263 70.0966 104.263C70.4866 104.263 70.7683 104.354 70.9416 104.536C71.1236 104.709 71.2146 104.935 71.2146 105.212V105.498C71.2146 105.775 71.1236 106.005 70.9416 106.187C70.7683 106.36 70.4866 106.447 70.0966 106.447ZM69.1346 107.175H71.0586V114H69.1346V107.175ZM75.9353 114C75.2767 114 74.7913 113.84 74.4793 113.519C74.176 113.198 74.0243 112.735 74.0243 112.128V104.38H75.9483V112.505H76.8063V114H75.9353ZM80.9393 114C80.2806 114 79.7953 113.84 79.4833 113.519C79.18 113.198 79.0283 112.735 79.0283 112.128V104.38H80.9523V112.505H81.8103V114H80.9393ZM85.0959 106.447C84.7059 106.447 84.4199 106.36 84.2379 106.187C84.0645 106.005 83.9779 105.775 83.9779 105.498V105.212C83.9779 104.935 84.0645 104.709 84.2379 104.536C84.4199 104.354 84.7059 104.263 85.0959 104.263C85.4859 104.263 85.7675 104.354 85.9409 104.536C86.1229 104.709 86.2139 104.935 86.2139 105.212V105.498C86.2139 105.775 86.1229 106.005 85.9409 106.187C85.7675 106.36 85.4859 106.447 85.0959 106.447ZM84.1339 107.175H86.0579V114H84.1339V107.175ZM91.7926 114.156C91.2899 114.156 90.8392 114.074 90.4406 113.909C90.0506 113.744 89.7169 113.506 89.4396 113.194C89.1709 112.882 88.9629 112.505 88.8156 112.063C88.6682 111.621 88.5946 111.127 88.5946 110.581C88.5946 110.035 88.6682 109.541 88.8156 109.099C88.9629 108.657 89.1709 108.284 89.4396 107.981C89.7169 107.669 90.0506 107.431 90.4406 107.266C90.8392 107.101 91.2899 107.019 91.7926 107.019C92.2952 107.019 92.7416 107.101 93.1316 107.266C93.5302 107.431 93.8639 107.669 94.1326 107.981C94.4099 108.284 94.6222 108.657 94.7696 109.099C94.9169 109.541 94.9906 110.035 94.9906 110.581C94.9906 111.127 94.9169 111.621 94.7696 112.063C94.6222 112.505 94.4099 112.882 94.1326 113.194C93.8639 113.506 93.5302 113.744 93.1316 113.909C92.7416 114.074 92.2952 114.156 91.7926 114.156ZM91.7926 112.635C92.1739 112.635 92.4686 112.518 92.6766 112.284C92.8846 112.05 92.9886 111.716 92.9886 111.283V109.892C92.9886 109.459 92.8846 109.125 92.6766 108.891C92.4686 108.657 92.1739 108.54 91.7926 108.54C91.4112 108.54 91.1166 108.657 90.9086 108.891C90.7006 109.125 90.5966 109.459 90.5966 109.892V111.283C90.5966 111.716 90.7006 112.05 90.9086 112.284C91.1166 112.518 91.4112 112.635 91.7926 112.635ZM97.5315 114V107.175H99.4555V108.332H99.5335C99.6548 107.977 99.8671 107.669 100.17 107.409C100.474 107.149 100.894 107.019 101.431 107.019C102.133 107.019 102.662 107.253 103.017 107.721C103.381 108.189 103.563 108.856 103.563 109.723V114H101.639V109.879C101.639 109.437 101.57 109.112 101.431 108.904C101.293 108.687 101.046 108.579 100.69 108.579C100.534 108.579 100.383 108.601 100.235 108.644C100.088 108.679 99.9538 108.739 99.8325 108.826C99.7198 108.913 99.6288 109.021 99.5595 109.151C99.4901 109.272 99.4555 109.415 99.4555 109.58V114H97.5315Z" fill="#08509C"/>
<path d="M88.55 28H72.45C70.5453 28 69 29.5117 69 31.375V60.625C69 62.4883 70.5453 64 72.45 64H88.55C90.4547 64 92 62.4883 92 60.625V31.375C92 29.5117 90.4547 28 88.55 28ZM80.5 61.75C79.2278 61.75 78.2 60.7445 78.2 59.5C78.2 58.2555 79.2278 57.25 80.5 57.25C81.7722 57.25 82.8 58.2555 82.8 59.5C82.8 60.7445 81.7722 61.75 80.5 61.75ZM88.55 54.1562C88.55 54.6203 88.1619 55 87.6875 55H73.3125C72.8381 55 72.45 54.6203 72.45 54.1562V32.2188C72.45 31.7547 72.8381 31.375 73.3125 31.375H87.6875C88.1619 31.375 88.55 31.7547 88.55 32.2188V54.1562Z" fill="white"/>
</svg>
