<svg width="180" height="120" viewBox="0 0 180 120" fill="none" xmlns="http://www.w3.org/2000/svg">
<rect width="180" height="30" fill="#75C4FF"/>
<path d="M9.754 9.8635C9.997 9.8635 10.21 9.832 10.393 9.769C10.579 9.706 10.7335 9.6175 10.8565 9.5035C10.9825 9.3865 11.077 9.2485 11.14 9.0895C11.203 8.9275 11.2345 8.749 11.2345 8.554C11.2345 8.161 11.1115 7.852 10.8655 7.627C10.6225 7.402 10.252 7.2895 9.754 7.2895L8.755 7.2895L8.755 9.8635L9.754 9.8635ZM9.754 6.538C10.168 6.538 10.528 6.586 10.834 6.682C11.14 6.778 11.3935 6.9145 11.5945 7.0915C11.7955 7.2655 11.944 7.477 12.04 7.726C12.139 7.975 12.1885 8.251 12.1885 8.554C12.1885 8.857 12.136 9.136 12.031 9.391C11.926 9.643 11.7715 9.8605 11.5675 10.0435C11.3635 10.2265 11.1085 10.369 10.8025 10.471C10.4995 10.57 10.15 10.6195 9.754 10.6195L8.755 10.6195L8.755 13L7.7965 13L7.7965 6.538L9.754 6.538ZM14.2661 9.3055C14.4131 9.0055 14.5901 8.77 14.7971 8.599C15.0041 8.428 15.2531 8.3425 15.5441 8.3425C15.6431 8.3425 15.7361 8.3545 15.8231 8.3785C15.9131 8.3995 15.9911 8.4325 16.0571 8.4775L15.9986 9.139C15.9776 9.22 15.9281 9.2605 15.8501 9.2605C15.8081 9.2605 15.7451 9.253 15.6611 9.238C15.5771 9.22 15.4871 9.211 15.3911 9.211C15.2501 9.211 15.1256 9.232 15.0176 9.274C14.9096 9.313 14.8121 9.373 14.7251 9.454C14.6411 9.532 14.5661 9.6295 14.5001 9.7465C14.4341 9.8605 14.3726 9.991 14.3156 10.138L14.3156 13L13.4381 13L13.4381 8.428L13.9421 8.428C14.0381 8.428 14.1026 8.446 14.1356 8.482C14.1716 8.515 14.1971 8.575 14.2121 8.662L14.2661 9.3055ZM18.967 8.356C19.303 8.356 19.606 8.4115 19.876 8.5225C20.149 8.6305 20.38 8.788 20.569 8.995C20.761 9.199 20.908 9.4465 21.01 9.7375C21.112 10.0255 21.163 10.3495 21.163 10.7095C21.163 11.0695 21.112 11.395 21.01 11.686C20.908 11.977 20.761 12.2245 20.569 12.4285C20.38 12.6325 20.149 12.79 19.876 12.901C19.606 13.009 19.303 13.063 18.967 13.063C18.628 13.063 18.322 13.009 18.049 12.901C17.779 12.79 17.548 12.6325 17.356 12.4285C17.164 12.2245 17.0155 11.977 16.9105 11.686C16.8085 11.395 16.7575 11.0695 16.7575 10.7095C16.7575 10.3495 16.8085 10.0255 16.9105 9.7375C17.0155 9.4465 17.164 9.199 17.356 8.995C17.548 8.788 17.779 8.6305 18.049 8.5225C18.322 8.4115 18.628 8.356 18.967 8.356ZM18.967 12.379C19.399 12.379 19.7215 12.2335 19.9345 11.9425C20.1475 11.6515 20.254 11.242 20.254 10.714C20.254 10.186 20.1475 9.7765 19.9345 9.4855C19.7215 9.1915 19.399 9.0445 18.967 9.0445C18.529 9.0445 18.202 9.1915 17.986 9.4855C17.773 9.7765 17.6665 10.186 17.6665 10.714C17.6665 11.242 17.773 11.6515 17.986 11.9425C18.202 12.2335 18.529 12.379 18.967 12.379ZM25.5416 9.535C25.3976 9.346 25.2416 9.214 25.0736 9.139C24.9086 9.064 24.7226 9.0265 24.5156 9.0265C24.1136 9.0265 23.8016 9.172 23.5796 9.463C23.3606 9.751 23.2511 10.1725 23.2511 10.7275C23.2511 11.0185 23.2751 11.2675 23.3231 11.4745C23.3741 11.6785 23.4461 11.8465 23.5391 11.9785C23.6351 12.1075 23.7521 12.2035 23.8901 12.2665C24.0281 12.3265 24.1841 12.3565 24.3581 12.3565C24.6131 12.3565 24.8336 12.2995 25.0196 12.1855C25.2056 12.0715 25.3796 11.911 25.5416 11.704L25.5416 9.535ZM26.4236 6.358L26.4236 13L25.8926 13C25.7696 13 25.6931 12.9415 25.6631 12.8245L25.5866 12.298C25.3916 12.529 25.1696 12.715 24.9206 12.856C24.6746 12.994 24.3896 13.063 24.0656 13.063C23.8046 13.063 23.5676 13.012 23.3546 12.91C23.1446 12.808 22.9646 12.6595 22.8146 12.4645C22.6646 12.2665 22.5491 12.022 22.4681 11.731C22.3871 11.44 22.3466 11.1055 22.3466 10.7275C22.3466 10.3885 22.3916 10.0735 22.4816 9.7825C22.5716 9.4915 22.7021 9.2395 22.8731 9.0265C23.0441 8.8135 23.2511 8.647 23.4941 8.527C23.7371 8.404 24.0116 8.3425 24.3176 8.3425C24.5936 8.3425 24.8276 8.3875 25.0196 8.4775C25.2146 8.5675 25.3886 8.695 25.5416 8.86L25.5416 6.358L26.4236 6.358ZM31.9018 8.428L31.9018 13L31.3753 13C31.2553 13 31.1773 12.9415 31.1413 12.8245L31.0783 12.3655C30.9793 12.4705 30.8758 12.5665 30.7678 12.6535C30.6598 12.7405 30.5443 12.8155 30.4213 12.8785C30.2983 12.9385 30.1678 12.985 30.0298 13.018C29.8918 13.054 29.7433 13.072 29.5843 13.072C29.3323 13.072 29.1103 13.03 28.9183 12.946C28.7293 12.862 28.5703 12.745 28.4413 12.595C28.3123 12.442 28.2148 12.259 28.1488 12.046C28.0828 11.833 28.0498 11.5975 28.0498 11.3395L28.0498 8.428L28.9318 8.428L28.9318 11.3395C28.9318 11.6665 29.0068 11.9215 29.1568 12.1045C29.3068 12.2845 29.5363 12.3745 29.8453 12.3745C30.0703 12.3745 30.2803 12.322 30.4753 12.217C30.6703 12.109 30.8533 11.962 31.0243 11.776L31.0243 8.428L31.9018 8.428ZM36.7821 9.283C36.7551 9.316 36.7281 9.343 36.7011 9.364C36.6771 9.382 36.6411 9.391 36.5931 9.391C36.5451 9.391 36.4941 9.373 36.4401 9.337C36.3891 9.298 36.3231 9.2575 36.2421 9.2155C36.1641 9.1705 36.0681 9.13 35.9541 9.094C35.8431 9.055 35.7051 9.0355 35.5401 9.0355C35.3241 9.0355 35.1336 9.0745 34.9686 9.1525C34.8036 9.2305 34.6656 9.3415 34.5546 9.4855C34.4466 9.6295 34.3641 9.805 34.3071 10.012C34.2501 10.219 34.2216 10.4515 34.2216 10.7095C34.2216 10.9765 34.2516 11.215 34.3116 11.425C34.3716 11.632 34.4571 11.8075 34.5681 11.9515C34.6791 12.0925 34.8141 12.2005 34.9731 12.2755C35.1321 12.3475 35.3091 12.3835 35.5041 12.3835C35.6931 12.3835 35.8491 12.361 35.9721 12.316C36.0951 12.268 36.1971 12.217 36.2781 12.163C36.3591 12.109 36.4266 12.0595 36.4806 12.0145C36.5346 11.9665 36.5901 11.9425 36.6471 11.9425C36.7191 11.9425 36.7746 11.9695 36.8136 12.0235L37.0656 12.3475C36.9606 12.4765 36.8421 12.586 36.7101 12.676C36.5811 12.766 36.4431 12.8395 36.2961 12.8965C36.1491 12.9535 35.9946 12.9955 35.8326 13.0225C35.6736 13.0495 35.5116 13.063 35.3466 13.063C35.0616 13.063 34.7946 13.0105 34.5456 12.9055C34.2996 12.8005 34.0851 12.6475 33.9021 12.4465C33.7221 12.2455 33.5796 11.9995 33.4746 11.7085C33.3696 11.4145 33.3171 11.0815 33.3171 10.7095C33.3171 10.3705 33.3636 10.057 33.4566 9.769C33.5526 9.481 33.6921 9.2335 33.8751 9.0265C34.0611 8.8165 34.2891 8.653 34.5591 8.536C34.8291 8.416 35.1381 8.356 35.4861 8.356C35.8131 8.356 36.1011 8.4085 36.3501 8.5135C36.5991 8.6185 36.8211 8.767 37.0161 8.959L36.7821 9.283ZM42.6698 13L41.7878 13L41.7878 9.139L39.4928 9.139L39.4928 11.8165C39.4928 11.9965 39.5363 12.1315 39.6233 12.2215C39.7133 12.3085 39.8273 12.352 39.9653 12.352C40.0463 12.352 40.1153 12.3415 40.1723 12.3205C40.2323 12.2995 40.2833 12.277 40.3253 12.253C40.3673 12.226 40.4033 12.202 40.4333 12.181C40.4633 12.16 40.4903 12.1495 40.5143 12.1495C40.5443 12.1495 40.5668 12.157 40.5818 12.172C40.5998 12.184 40.6178 12.205 40.6358 12.235L40.8968 12.658C40.7528 12.79 40.5818 12.892 40.3838 12.964C40.1858 13.036 39.9803 13.072 39.7673 13.072C39.3983 13.072 39.1133 12.9685 38.9123 12.7615C38.7143 12.5545 38.6153 12.259 38.6153 11.875L38.6153 9.139L38.0843 9.139C38.0333 9.139 37.9898 9.124 37.9538 9.094C37.9208 9.061 37.9043 9.013 37.9043 8.95L37.9043 8.5945L38.6513 8.491L38.8448 7.1275C38.8568 7.0765 38.8793 7.0375 38.9123 7.0105C38.9483 6.9805 38.9933 6.9655 39.0473 6.9655L39.4928 6.9655L39.4928 8.5L42.6698 8.5L42.6698 13ZM42.8678 6.988C42.8678 7.069 42.8513 7.147 42.8183 7.222C42.7853 7.294 42.7403 7.3585 42.6833 7.4155C42.6293 7.4695 42.5648 7.513 42.4898 7.546C42.4148 7.576 42.3368 7.591 42.2558 7.591C42.1748 7.591 42.0983 7.576 42.0263 7.546C41.9543 7.513 41.8898 7.4695 41.8328 7.4155C41.7788 7.3585 41.7353 7.294 41.7023 7.222C41.6723 7.147 41.6573 7.069 41.6573 6.988C41.6573 6.904 41.6723 6.8245 41.7023 6.7495C41.7353 6.6745 41.7788 6.61 41.8328 6.556C41.8898 6.499 41.9543 6.4555 42.0263 6.4255C42.0983 6.3925 42.1748 6.376 42.2558 6.376C42.3368 6.376 42.4148 6.3925 42.4898 6.4255C42.5648 6.4555 42.6293 6.499 42.6833 6.556C42.7403 6.61 42.7853 6.6745 42.8183 6.7495C42.8513 6.8245 42.8678 6.904 42.8678 6.988ZM46.3437 8.356C46.6797 8.356 46.9827 8.4115 47.2527 8.5225C47.5257 8.6305 47.7567 8.788 47.9457 8.995C48.1377 9.199 48.2847 9.4465 48.3867 9.7375C48.4887 10.0255 48.5397 10.3495 48.5397 10.7095C48.5397 11.0695 48.4887 11.395 48.3867 11.686C48.2847 11.977 48.1377 12.2245 47.9457 12.4285C47.7567 12.6325 47.5257 12.79 47.2527 12.901C46.9827 13.009 46.6797 13.063 46.3437 13.063C46.0047 13.063 45.6987 13.009 45.4257 12.901C45.1557 12.79 44.9247 12.6325 44.7327 12.4285C44.5407 12.2245 44.3922 11.977 44.2872 11.686C44.1852 11.395 44.1342 11.0695 44.1342 10.7095C44.1342 10.3495 44.1852 10.0255 44.2872 9.7375C44.3922 9.4465 44.5407 9.199 44.7327 8.995C44.9247 8.788 45.1557 8.6305 45.4257 8.5225C45.6987 8.4115 46.0047 8.356 46.3437 8.356ZM46.3437 12.379C46.7757 12.379 47.0982 12.2335 47.3112 11.9425C47.5242 11.6515 47.6307 11.242 47.6307 10.714C47.6307 10.186 47.5242 9.7765 47.3112 9.4855C47.0982 9.1915 46.7757 9.0445 46.3437 9.0445C45.9057 9.0445 45.5787 9.1915 45.3627 9.4855C45.1497 9.7765 45.0432 10.186 45.0432 10.714C45.0432 11.242 45.1497 11.6515 45.3627 11.9425C45.5787 12.2335 45.9057 12.379 46.3437 12.379ZM50.7942 9.0625C50.8932 8.9575 50.9967 8.8615 51.1047 8.7745C51.2127 8.6875 51.3267 8.614 51.4467 8.554C51.5697 8.491 51.7002 8.443 51.8382 8.41C51.9792 8.374 52.1292 8.356 52.2882 8.356C52.5402 8.356 52.7607 8.398 52.9497 8.482C53.1417 8.566 53.3022 8.6845 53.4312 8.8375C53.5602 8.9875 53.6577 9.169 53.7237 9.382C53.7897 9.595 53.8227 9.8305 53.8227 10.0885L53.8227 13L52.9407 13L52.9407 10.0885C52.9407 9.7615 52.8657 9.508 52.7157 9.328C52.5657 9.145 52.3362 9.0535 52.0272 9.0535C51.8022 9.0535 51.5907 9.1075 51.3927 9.2155C51.1977 9.3205 51.0162 9.4645 50.8482 9.6475L50.8482 13L49.9707 13L49.9707 8.428L50.4972 8.428C50.6202 8.428 50.6967 8.4865 50.7267 8.6035L50.7942 9.0625ZM9.61 23.3745C9.814 23.3745 9.9955 23.346 10.1545 23.289C10.3135 23.232 10.4485 23.1525 10.5595 23.0505C10.6705 22.9455 10.7545 22.821 10.8115 22.677C10.8685 22.533 10.897 22.3755 10.897 22.2045C10.897 21.9945 10.8625 21.8145 10.7935 21.6645C10.7245 21.5115 10.6315 21.387 10.5145 21.291C10.3975 21.192 10.261 21.12 10.105 21.075C9.949 21.027 9.784 21.003 9.61 21.003C9.433 21.003 9.2665 21.027 9.1105 21.075C8.9545 21.12 8.818 21.192 8.701 21.291C8.584 21.387 8.491 21.5115 8.422 21.6645C8.356 21.8145 8.323 21.9945 8.323 22.2045C8.323 22.3755 8.3515 22.533 8.4085 22.677C8.4655 22.821 8.5495 22.9455 8.6605 23.0505C8.7715 23.1525 8.9065 23.232 9.0655 23.289C9.2245 23.346 9.406 23.3745 9.61 23.3745ZM9.61 18.141C9.424 18.141 9.2605 18.1695 9.1195 18.2265C8.9815 18.2805 8.866 18.3555 8.773 18.4515C8.68 18.5475 8.6095 18.6585 8.5615 18.7845C8.5165 18.9105 8.494 19.0455 8.494 19.1895C8.494 19.3305 8.5135 19.4685 8.5525 19.6035C8.5945 19.7355 8.659 19.854 8.746 19.959C8.836 20.061 8.9515 20.1435 9.0925 20.2065C9.2335 20.2695 9.406 20.301 9.61 20.301C9.811 20.301 9.982 20.2695 10.123 20.2065C10.267 20.1435 10.3825 20.061 10.4695 19.959C10.5595 19.854 10.624 19.7355 10.663 19.6035C10.705 19.4685 10.726 19.3305 10.726 19.1895C10.726 19.0455 10.702 18.9105 10.654 18.7845C10.609 18.6585 10.54 18.5475 10.447 18.4515C10.354 18.3555 10.237 18.2805 10.096 18.2265C9.958 18.1695 9.796 18.141 9.61 18.141ZM10.5775 20.6295C10.9795 20.7495 11.284 20.943 11.491 21.21C11.701 21.477 11.806 21.8145 11.806 22.2225C11.806 22.5045 11.752 22.7595 11.644 22.9875C11.539 23.2155 11.389 23.4105 11.194 23.5725C11.002 23.7315 10.771 23.8545 10.501 23.9415C10.231 24.0285 9.934 24.072 9.61 24.072C9.286 24.072 8.989 24.0285 8.719 23.9415C8.449 23.8545 8.2165 23.7315 8.0215 23.5725C7.8295 23.4105 7.6795 23.2155 7.5715 22.9875C7.4665 22.7595 7.414 22.5045 7.414 22.2225C7.414 21.8145 7.5175 21.477 7.7245 21.21C7.9345 20.943 8.2405 20.7495 8.6425 20.6295C8.3095 20.5035 8.059 20.316 7.891 20.067C7.723 19.815 7.639 19.5165 7.639 19.1715C7.639 18.9315 7.6855 18.708 7.7785 18.501C7.8745 18.291 8.008 18.1095 8.179 17.9565C8.353 17.8035 8.5615 17.6835 8.8045 17.5965C9.0475 17.5095 9.316 17.466 9.61 17.466C9.904 17.466 10.1725 17.5095 10.4155 17.5965C10.6585 17.6835 10.8655 17.8035 11.0365 17.9565C11.2105 18.1095 11.344 18.291 11.437 18.501C11.533 18.708 11.581 18.9315 11.581 19.1715C11.581 19.5165 11.497 19.815 11.329 20.067C11.161 20.316 10.9105 20.5035 10.5775 20.6295ZM17.1092 23.1675C17.2052 23.1675 17.2802 23.196 17.3342 23.253C17.3882 23.307 17.4152 23.379 17.4152 23.469L17.4152 24L13.0772 24L13.0772 23.6985C13.0772 23.6385 13.0892 23.5755 13.1132 23.5095C13.1372 23.4405 13.1777 23.379 13.2347 23.325L15.2777 21.2775C15.4487 21.1065 15.6032 20.9415 15.7412 20.7825C15.8792 20.6235 15.9962 20.466 16.0922 20.31C16.1882 20.151 16.2617 19.989 16.3127 19.824C16.3667 19.659 16.3937 19.485 16.3937 19.302C16.3937 19.122 16.3652 18.9645 16.3082 18.8295C16.2512 18.6915 16.1732 18.5775 16.0742 18.4875C15.9752 18.3975 15.8582 18.33 15.7232 18.285C15.5882 18.24 15.4427 18.2175 15.2867 18.2175C15.1307 18.2175 14.9867 18.24 14.8547 18.285C14.7257 18.33 14.6102 18.393 14.5082 18.474C14.4062 18.555 14.3207 18.651 14.2517 18.762C14.1827 18.873 14.1332 18.993 14.1032 19.122C14.0612 19.236 14.0072 19.3125 13.9412 19.3515C13.8782 19.3905 13.7852 19.3995 13.6622 19.3785L13.2032 19.2975C13.2452 18.9975 13.3277 18.7335 13.4507 18.5055C13.5737 18.2775 13.7282 18.087 13.9142 17.934C14.1002 17.778 14.3132 17.661 14.5532 17.583C14.7962 17.505 15.0572 17.466 15.3362 17.466C15.6182 17.466 15.8777 17.508 16.1147 17.592C16.3547 17.673 16.5617 17.7915 16.7357 17.9475C16.9097 18.1035 17.0462 18.294 17.1452 18.519C17.2442 18.741 17.2937 18.993 17.2937 19.275C17.2937 19.515 17.2577 19.7385 17.1857 19.9455C17.1167 20.1495 17.0207 20.3445 16.8977 20.5305C16.7777 20.7165 16.6367 20.898 16.4747 21.075C16.3157 21.249 16.1462 21.426 15.9662 21.606L14.3282 23.28C14.4542 23.247 14.5802 23.22 14.7062 23.199C14.8352 23.178 14.9567 23.1675 15.0707 23.1675L17.1092 23.1675ZM21.6204 19.0995C21.6204 19.3515 21.5799 19.5765 21.4989 19.7745C21.4209 19.9725 21.3159 20.1405 21.1839 20.2785C21.0519 20.4135 20.8974 20.5185 20.7204 20.5935C20.5464 20.6655 20.3634 20.7015 20.1714 20.7015C19.9644 20.7015 19.7724 20.6655 19.5954 20.5935C19.4214 20.5185 19.2699 20.4135 19.1409 20.2785C19.0119 20.1405 18.9099 19.9725 18.8349 19.7745C18.7629 19.5765 18.7269 19.3515 18.7269 19.0995C18.7269 18.8415 18.7629 18.612 18.8349 18.411C18.9099 18.21 19.0119 18.0405 19.1409 17.9025C19.2699 17.7615 19.4214 17.655 19.5954 17.583C19.7724 17.508 19.9644 17.4705 20.1714 17.4705C20.3784 17.4705 20.5689 17.508 20.7429 17.583C20.9199 17.655 21.0729 17.7615 21.2019 17.9025C21.3339 18.0405 21.4359 18.21 21.5079 18.411C21.5829 18.612 21.6204 18.8415 21.6204 19.0995ZM20.9364 19.0995C20.9364 18.9075 20.9154 18.7455 20.8734 18.6135C20.8344 18.4785 20.7804 18.3705 20.7114 18.2895C20.6424 18.2055 20.5614 18.1455 20.4684 18.1095C20.3754 18.0705 20.2764 18.051 20.1714 18.051C20.0664 18.051 19.9674 18.0705 19.8744 18.1095C19.7814 18.1455 19.7004 18.2055 19.6314 18.2895C19.5654 18.3705 19.5129 18.4785 19.4739 18.6135C19.4349 18.7455 19.4154 18.9075 19.4154 19.0995C19.4154 19.2855 19.4349 19.4445 19.4739 19.5765C19.5129 19.7055 19.5654 19.8105 19.6314 19.8915C19.7004 19.9725 19.7814 20.031 19.8744 20.067C19.9674 20.103 20.0664 20.121 20.1714 20.121C20.2764 20.121 20.3754 20.103 20.4684 20.067C20.5614 20.031 20.6424 19.9725 20.7114 19.8915C20.7804 19.8105 20.8344 19.7055 20.8734 19.5765C20.9154 19.4445 20.9364 19.2855 20.9364 19.0995ZM23.8704 17.682C23.9034 17.643 23.9409 17.61 23.9829 17.583C24.0279 17.553 24.0894 17.538 24.1674 17.538L24.8019 17.538L20.0589 23.8605C20.0259 23.9025 19.9869 23.937 19.9419 23.964C19.8969 23.988 19.8429 24 19.7799 24L19.1274 24L23.8704 17.682ZM25.2159 22.4745C25.2159 22.7265 25.1754 22.9515 25.0944 23.1495C25.0164 23.3475 24.9114 23.5155 24.7794 23.6535C24.6474 23.7885 24.4929 23.8935 24.3159 23.9685C24.1419 24.0405 23.9589 24.0765 23.7669 24.0765C23.5599 24.0765 23.3679 24.0405 23.1909 23.9685C23.0169 23.8935 22.8654 23.7885 22.7364 23.6535C22.6074 23.5155 22.5054 23.3475 22.4304 23.1495C22.3584 22.9515 22.3224 22.7265 22.3224 22.4745C22.3224 22.2165 22.3584 21.987 22.4304 21.786C22.5054 21.585 22.6074 21.4155 22.7364 21.2775C22.8654 21.1365 23.0169 21.03 23.1909 20.958C23.3679 20.886 23.5599 20.85 23.7669 20.85C23.9739 20.85 24.1644 20.886 24.3384 20.958C24.5154 21.03 24.6684 21.1365 24.7974 21.2775C24.9294 21.4155 25.0314 21.585 25.1034 21.786C25.1784 21.987 25.2159 22.2165 25.2159 22.4745ZM24.5319 22.4745C24.5319 22.2825 24.5109 22.1205 24.4689 21.9885C24.4299 21.8565 24.3759 21.75 24.3069 21.669C24.2379 21.585 24.1569 21.525 24.0639 21.489C23.9709 21.45 23.8719 21.4305 23.7669 21.4305C23.6589 21.4305 23.5584 21.45 23.4654 21.489C23.3754 21.525 23.2959 21.585 23.2269 21.669C23.1609 21.75 23.1084 21.8565 23.0694 21.9885C23.0304 22.1205 23.0109 22.2825 23.0109 22.4745C23.0109 22.6635 23.0304 22.8225 23.0694 22.9515C23.1084 23.0805 23.1609 23.1855 23.2269 23.2665C23.2959 23.3475 23.3754 23.406 23.4654 23.442C23.5584 23.478 23.6589 23.496 23.7669 23.496C23.8719 23.496 23.9709 23.478 24.0639 23.442C24.1569 23.406 24.2379 23.3475 24.3069 23.2665C24.3759 23.1855 24.4299 23.0805 24.4689 22.9515C24.5109 22.8225 24.5319 22.6635 24.5319 22.4745Z" fill="black"/>
<rect y="30" width="75" height="30" fill="#75C4FF" fill-opacity="0.7"/>
<path d="M10.3165 42.2305C10.5745 42.2305 10.8055 42.187 11.0095 42.1C11.2135 42.013 11.386 41.8915 11.527 41.7355C11.668 41.5765 11.776 41.389 11.851 41.173C11.926 40.954 11.9635 40.7125 11.9635 40.4485L11.9635 36.538L12.9175 36.538L12.9175 40.4485C12.9175 40.8265 12.8575 41.176 12.7375 41.497C12.6175 41.818 12.445 42.0955 12.22 42.3295C11.995 42.5635 11.722 42.7465 11.401 42.8785C11.08 43.0105 10.7185 43.0765 10.3165 43.0765C9.9145 43.0765 9.553 43.0105 9.232 42.8785C8.911 42.7465 8.638 42.5635 8.413 42.3295C8.188 42.0955 8.0155 41.818 7.8955 41.497C7.7755 41.176 7.7155 40.8265 7.7155 40.4485L7.7155 36.538L8.674 36.538L8.674 40.444C8.674 40.708 8.71 40.9495 8.782 41.1685C8.857 41.3875 8.965 41.5765 9.106 41.7355C9.247 41.8915 9.4195 42.013 9.6235 42.1C9.8275 42.187 10.0585 42.2305 10.3165 42.2305ZM17.1883 39.2155C17.1643 39.2545 17.1388 39.283 17.1118 39.301C17.0848 39.316 17.0503 39.3235 17.0083 39.3235C16.9603 39.3235 16.9063 39.307 16.8463 39.274C16.7893 39.241 16.7188 39.205 16.6348 39.166C16.5538 39.127 16.4578 39.091 16.3468 39.058C16.2358 39.025 16.1038 39.0085 15.9508 39.0085C15.8248 39.0085 15.7093 39.025 15.6043 39.058C15.5023 39.088 15.4153 39.1315 15.3433 39.1885C15.2713 39.2425 15.2158 39.3085 15.1768 39.3865C15.1378 39.4615 15.1183 39.5425 15.1183 39.6295C15.1183 39.7435 15.1513 39.838 15.2173 39.913C15.2863 39.988 15.3748 40.0525 15.4828 40.1065C15.5938 40.1605 15.7183 40.21 15.8563 40.255C15.9973 40.297 16.1398 40.342 16.2838 40.39C16.4308 40.438 16.5733 40.4935 16.7113 40.5565C16.8523 40.6165 16.9768 40.693 17.0848 40.786C17.1958 40.876 17.2843 40.9855 17.3503 41.1145C17.4193 41.2435 17.4538 41.401 17.4538 41.587C17.4538 41.8 17.4148 41.998 17.3368 42.181C17.2618 42.361 17.1493 42.517 16.9993 42.649C16.8523 42.781 16.6693 42.8845 16.4503 42.9595C16.2313 43.0345 15.9808 43.072 15.6988 43.072C15.3838 43.072 15.0928 43.0195 14.8258 42.9145C14.5588 42.8095 14.3353 42.676 14.1553 42.514L14.3623 42.1765C14.3863 42.1345 14.4163 42.103 14.4523 42.082C14.4883 42.058 14.5363 42.046 14.5963 42.046C14.6533 42.046 14.7118 42.067 14.7718 42.109C14.8318 42.151 14.9038 42.1975 14.9878 42.2485C15.0718 42.2965 15.1738 42.3415 15.2938 42.3835C15.4138 42.4225 15.5638 42.442 15.7438 42.442C15.8938 42.442 16.0243 42.424 16.1353 42.388C16.2463 42.349 16.3378 42.298 16.4098 42.235C16.4848 42.169 16.5403 42.094 16.5763 42.01C16.6123 41.926 16.6303 41.8375 16.6303 41.7445C16.6303 41.6245 16.5958 41.5255 16.5268 41.4475C16.4608 41.3665 16.3723 41.2975 16.2613 41.2405C16.1533 41.1835 16.0288 41.134 15.8878 41.092C15.7468 41.05 15.6028 41.005 15.4558 40.957C15.3088 40.909 15.1648 40.8535 15.0238 40.7905C14.8828 40.7275 14.7568 40.648 14.6458 40.552C14.5378 40.456 14.4493 40.339 14.3803 40.201C14.3143 40.063 14.2813 39.895 14.2813 39.697C14.2813 39.52 14.3173 39.3505 14.3893 39.1885C14.4643 39.0265 14.5708 38.884 14.7088 38.761C14.8498 38.638 15.0223 38.5405 15.2263 38.4685C15.4333 38.3935 15.6688 38.356 15.9328 38.356C16.2358 38.356 16.5088 38.404 16.7518 38.5C16.9978 38.596 17.2078 38.728 17.3818 38.896L17.1883 39.2155ZM21.3124 40.9705C20.9554 40.9825 20.6524 41.011 20.4034 41.056C20.1544 41.098 19.9519 41.155 19.7959 41.227C19.6399 41.299 19.5274 41.3845 19.4584 41.4835C19.3894 41.5795 19.3549 41.6875 19.3549 41.8075C19.3549 41.9215 19.3729 42.0205 19.4089 42.1045C19.4479 42.1855 19.4989 42.253 19.5619 42.307C19.6279 42.358 19.7044 42.3955 19.7914 42.4195C19.8784 42.4435 19.9729 42.4555 20.0749 42.4555C20.2099 42.4555 20.3329 42.442 20.4439 42.415C20.5579 42.388 20.6644 42.3505 20.7634 42.3025C20.8624 42.2515 20.9569 42.19 21.0469 42.118C21.1369 42.046 21.2254 41.9635 21.3124 41.8705L21.3124 40.9705ZM18.7384 39.067C18.9934 38.824 19.2694 38.6425 19.5664 38.5225C19.8664 38.4025 20.1949 38.3425 20.5519 38.3425C20.8129 38.3425 21.0439 38.386 21.2449 38.473C21.4459 38.557 21.6154 38.6755 21.7534 38.8285C21.8914 38.9815 21.9949 39.1645 22.0639 39.3775C22.1359 39.5905 22.1719 39.826 22.1719 40.084L22.1719 43L21.7804 43C21.6934 43 21.6274 42.9865 21.5824 42.9595C21.5374 42.9295 21.5014 42.8755 21.4744 42.7975L21.3799 42.397C21.2629 42.505 21.1474 42.601 21.0334 42.685C20.9194 42.766 20.7994 42.8365 20.6734 42.8965C20.5504 42.9535 20.4184 42.997 20.2774 43.027C20.1364 43.057 19.9804 43.072 19.8094 43.072C19.6294 43.072 19.4599 43.048 19.3009 43C19.1449 42.949 19.0084 42.8725 18.8914 42.7705C18.7744 42.6685 18.6814 42.541 18.6124 42.388C18.5464 42.235 18.5134 42.0565 18.5134 41.8525C18.5134 41.6725 18.5614 41.5 18.6574 41.335C18.7564 41.167 18.9154 41.017 19.1344 40.885C19.3564 40.753 19.6444 40.645 19.9984 40.561C20.3554 40.477 20.7934 40.429 21.3124 40.417L21.3124 40.084C21.3124 39.739 21.2389 39.481 21.0919 39.31C20.9449 39.139 20.7289 39.0535 20.4439 39.0535C20.2519 39.0535 20.0899 39.0775 19.9579 39.1255C19.8289 39.1735 19.7164 39.2275 19.6204 39.2875C19.5274 39.3445 19.4449 39.397 19.3729 39.445C19.3039 39.493 19.2319 39.517 19.1569 39.517C19.0969 39.517 19.0444 39.5005 18.9994 39.4675C18.9574 39.4345 18.9229 39.3955 18.8959 39.3505L18.7384 39.067ZM25.4047 40.7185C25.5607 40.7185 25.6972 40.6975 25.8142 40.6555C25.9342 40.6135 26.0332 40.555 26.1112 40.48C26.1922 40.402 26.2522 40.309 26.2912 40.201C26.3332 40.093 26.3542 39.9745 26.3542 39.8455C26.3542 39.5815 26.2732 39.3715 26.1112 39.2155C25.9522 39.0565 25.7167 38.977 25.4047 38.977C25.0957 38.977 24.8602 39.0565 24.6982 39.2155C24.5392 39.3715 24.4597 39.5815 24.4597 39.8455C24.4597 39.9745 24.4792 40.093 24.5182 40.201C24.5602 40.306 24.6202 40.3975 24.6982 40.4755C24.7792 40.5505 24.8782 40.6105 24.9952 40.6555C25.1152 40.6975 25.2517 40.7185 25.4047 40.7185ZM26.8042 43.2385C26.8042 43.1305 26.7742 43.045 26.7142 42.982C26.6542 42.916 26.5717 42.865 26.4667 42.829C26.3647 42.79 26.2447 42.763 26.1067 42.748C25.9687 42.73 25.8232 42.7165 25.6702 42.7075C25.5202 42.6985 25.3657 42.691 25.2067 42.685C25.0477 42.676 24.8947 42.661 24.7477 42.64C24.5917 42.718 24.4627 42.8125 24.3607 42.9235C24.2617 43.0345 24.2122 43.165 24.2122 43.315C24.2122 43.411 24.2362 43.501 24.2842 43.585C24.3352 43.669 24.4117 43.741 24.5137 43.801C24.6187 43.864 24.7492 43.912 24.9052 43.945C25.0642 43.981 25.2532 43.999 25.4722 43.999C25.6882 43.999 25.8787 43.9795 26.0437 43.9405C26.2087 43.9045 26.3467 43.852 26.4577 43.783C26.5717 43.717 26.6572 43.6375 26.7142 43.5445C26.7742 43.4515 26.8042 43.3495 26.8042 43.2385ZM27.6952 38.599L27.6952 38.9275C27.6952 39.0355 27.6277 39.103 27.4927 39.13L27.0022 39.202C27.0442 39.295 27.0772 39.394 27.1012 39.499C27.1252 39.601 27.1372 39.709 27.1372 39.823C27.1372 40.048 27.0937 40.252 27.0067 40.435C26.9197 40.615 26.7997 40.7695 26.6467 40.8985C26.4937 41.0275 26.3107 41.1265 26.0977 41.1955C25.8877 41.2645 25.6567 41.299 25.4047 41.299C25.1977 41.299 25.0042 41.2765 24.8242 41.2315C24.7342 41.2855 24.6652 41.3455 24.6172 41.4115C24.5722 41.4745 24.5497 41.5375 24.5497 41.6005C24.5497 41.7055 24.5932 41.7835 24.6802 41.8345C24.7702 41.8855 24.8857 41.923 25.0267 41.947C25.1707 41.968 25.3342 41.9815 25.5172 41.9875C25.7032 41.9935 25.8907 42.004 26.0797 42.019C26.2717 42.031 26.4592 42.055 26.6422 42.091C26.8282 42.124 26.9917 42.1795 27.1327 42.2575C27.2767 42.3325 27.3922 42.4375 27.4792 42.5725C27.5692 42.7045 27.6142 42.877 27.6142 43.09C27.6142 43.288 27.5647 43.48 27.4657 43.666C27.3697 43.852 27.2287 44.017 27.0427 44.161C26.8567 44.305 26.6302 44.4205 26.3632 44.5075C26.0962 44.5945 25.7932 44.638 25.4542 44.638C25.1152 44.638 24.8197 44.605 24.5677 44.539C24.3187 44.473 24.1102 44.3845 23.9422 44.2735C23.7772 44.1625 23.6527 44.0335 23.5687 43.8865C23.4877 43.7395 23.4472 43.5865 23.4472 43.4275C23.4472 43.2055 23.5162 43.018 23.6542 42.865C23.7922 42.709 23.9827 42.5875 24.2257 42.5005C24.0937 42.4405 23.9887 42.3595 23.9107 42.2575C23.8327 42.1525 23.7937 42.0145 23.7937 41.8435C23.7937 41.7775 23.8057 41.71 23.8297 41.641C23.8537 41.569 23.8897 41.4985 23.9377 41.4295C23.9887 41.3575 24.0502 41.29 24.1222 41.227C24.1972 41.164 24.2827 41.107 24.3787 41.056C24.1537 40.93 23.9767 40.7635 23.8477 40.5565C23.7187 40.3465 23.6542 40.102 23.6542 39.823C23.6542 39.598 23.6977 39.3955 23.7847 39.2155C23.8717 39.0355 23.9917 38.881 24.1447 38.752C24.3007 38.623 24.4852 38.524 24.6982 38.455C24.9142 38.386 25.1497 38.3515 25.4047 38.3515C25.8007 38.3515 26.1412 38.434 26.4262 38.599L27.6952 38.599ZM31.91 40.2055C31.91 40.0315 31.8845 39.871 31.8335 39.724C31.7855 39.577 31.7135 39.4495 31.6175 39.3415C31.5215 39.2335 31.4045 39.1495 31.2665 39.0895C31.1285 39.0295 30.9695 38.9995 30.7895 38.9995C30.4205 38.9995 30.1295 39.106 29.9165 39.319C29.7065 39.532 29.573 39.8275 29.516 40.2055L31.91 40.2055ZM32.6345 42.3475C32.5265 42.4735 32.402 42.583 32.261 42.676C32.12 42.766 31.97 42.8395 31.811 42.8965C31.652 42.9535 31.487 42.9955 31.316 43.0225C31.148 43.0495 30.9815 43.063 30.8165 43.063C30.5015 43.063 30.209 43.0105 29.939 42.9055C29.672 42.7975 29.4395 42.6415 29.2415 42.4375C29.0465 42.2305 28.8935 41.9755 28.7825 41.6725C28.6745 41.3665 28.6205 41.0155 28.6205 40.6195C28.6205 40.3015 28.67 40.006 28.769 39.733C28.868 39.457 29.009 39.217 29.192 39.013C29.378 38.809 29.6045 38.6485 29.8715 38.5315C30.1385 38.4145 30.4385 38.356 30.7715 38.356C31.0505 38.356 31.307 38.4025 31.541 38.4955C31.778 38.5855 31.982 38.7175 32.153 38.8915C32.324 39.0655 32.4575 39.28 32.5535 39.535C32.6525 39.79 32.702 40.081 32.702 40.408C32.702 40.543 32.687 40.6345 32.657 40.6825C32.627 40.7275 32.5715 40.75 32.4905 40.75L29.4935 40.75C29.5025 41.023 29.5415 41.2615 29.6105 41.4655C29.6795 41.6665 29.774 41.8345 29.894 41.9695C30.017 42.1045 30.1625 42.205 30.3305 42.271C30.4985 42.337 30.686 42.37 30.893 42.37C31.088 42.37 31.256 42.3475 31.397 42.3025C31.541 42.2575 31.664 42.2095 31.766 42.1585C31.871 42.1045 31.958 42.055 32.027 42.01C32.099 41.965 32.162 41.9425 32.216 41.9425C32.288 41.9425 32.3435 41.9695 32.3825 42.0235L32.6345 42.3475ZM11.599 53.3295L11.599 54L8.107 54L8.107 53.3295L9.475 53.3295L9.475 49.095C9.475 48.96 9.4795 48.8205 9.4885 48.6765L8.3905 49.608C8.3485 49.641 8.3065 49.662 8.2645 49.671C8.2225 49.68 8.182 49.6815 8.143 49.6755C8.107 49.6695 8.074 49.6575 8.044 49.6395C8.017 49.6185 7.9945 49.5975 7.9765 49.5765L7.702 49.194L9.637 47.5245L10.3525 47.5245L10.3525 53.3295L11.599 53.3295ZM14.3507 49.95C14.6807 49.881 14.9792 49.8465 15.2462 49.8465C15.5822 49.8465 15.8792 49.8975 16.1372 49.9995C16.3952 50.0985 16.6112 50.2365 16.7852 50.4135C16.9622 50.5875 17.0942 50.7945 17.1812 51.0345C17.2712 51.2715 17.3162 51.5295 17.3162 51.8085C17.3162 52.1505 17.2562 52.461 17.1362 52.74C17.0162 53.019 16.8512 53.2575 16.6412 53.4555C16.4312 53.6535 16.1822 53.8065 15.8942 53.9145C15.6092 54.0195 15.3017 54.072 14.9717 54.072C14.7767 54.072 14.5907 54.0525 14.4137 54.0135C14.2397 53.9745 14.0762 53.9235 13.9232 53.8605C13.7702 53.7945 13.6277 53.7195 13.4957 53.6355C13.3667 53.5515 13.2512 53.463 13.1492 53.37L13.4192 52.992C13.4762 52.908 13.5527 52.866 13.6487 52.866C13.7117 52.866 13.7807 52.89 13.8557 52.938C13.9337 52.983 14.0252 53.034 14.1302 53.091C14.2352 53.148 14.3597 53.2005 14.5037 53.2485C14.6477 53.2935 14.8187 53.316 15.0167 53.316C15.2357 53.316 15.4322 53.2815 15.6062 53.2125C15.7832 53.1405 15.9317 53.04 16.0517 52.911C16.1747 52.782 16.2677 52.6275 16.3307 52.4475C16.3967 52.2675 16.4297 52.068 16.4297 51.849C16.4297 51.654 16.4012 51.4785 16.3442 51.3225C16.2872 51.1665 16.2017 51.033 16.0877 50.922C15.9737 50.811 15.8312 50.727 15.6602 50.67C15.4892 50.61 15.2897 50.58 15.0617 50.58C14.7437 50.58 14.4047 50.637 14.0447 50.751L13.4912 50.589L14.0177 47.538L17.1137 47.538L17.1137 47.9205C17.1137 48.0465 17.0732 48.15 16.9922 48.231C16.9142 48.309 16.7822 48.348 16.5962 48.348L14.6297 48.348L14.3507 49.95ZM21.6204 49.0995C21.6204 49.3515 21.5799 49.5765 21.4989 49.7745C21.4209 49.9725 21.3159 50.1405 21.1839 50.2785C21.0519 50.4135 20.8974 50.5185 20.7204 50.5935C20.5464 50.6655 20.3634 50.7015 20.1714 50.7015C19.9644 50.7015 19.7724 50.6655 19.5954 50.5935C19.4214 50.5185 19.2699 50.4135 19.1409 50.2785C19.0119 50.1405 18.9099 49.9725 18.8349 49.7745C18.7629 49.5765 18.7269 49.3515 18.7269 49.0995C18.7269 48.8415 18.7629 48.612 18.8349 48.411C18.9099 48.21 19.0119 48.0405 19.1409 47.9025C19.2699 47.7615 19.4214 47.655 19.5954 47.583C19.7724 47.508 19.9644 47.4705 20.1714 47.4705C20.3784 47.4705 20.5689 47.508 20.7429 47.583C20.9199 47.655 21.0729 47.7615 21.2019 47.9025C21.3339 48.0405 21.4359 48.21 21.5079 48.411C21.5829 48.612 21.6204 48.8415 21.6204 49.0995ZM20.9364 49.0995C20.9364 48.9075 20.9154 48.7455 20.8734 48.6135C20.8344 48.4785 20.7804 48.3705 20.7114 48.2895C20.6424 48.2055 20.5614 48.1455 20.4684 48.1095C20.3754 48.0705 20.2764 48.051 20.1714 48.051C20.0664 48.051 19.9674 48.0705 19.8744 48.1095C19.7814 48.1455 19.7004 48.2055 19.6314 48.2895C19.5654 48.3705 19.5129 48.4785 19.4739 48.6135C19.4349 48.7455 19.4154 48.9075 19.4154 49.0995C19.4154 49.2855 19.4349 49.4445 19.4739 49.5765C19.5129 49.7055 19.5654 49.8105 19.6314 49.8915C19.7004 49.9725 19.7814 50.031 19.8744 50.067C19.9674 50.103 20.0664 50.121 20.1714 50.121C20.2764 50.121 20.3754 50.103 20.4684 50.067C20.5614 50.031 20.6424 49.9725 20.7114 49.8915C20.7804 49.8105 20.8344 49.7055 20.8734 49.5765C20.9154 49.4445 20.9364 49.2855 20.9364 49.0995ZM23.8704 47.682C23.9034 47.643 23.9409 47.61 23.9829 47.583C24.0279 47.553 24.0894 47.538 24.1674 47.538L24.8019 47.538L20.0589 53.8605C20.0259 53.9025 19.9869 53.937 19.9419 53.964C19.8969 53.988 19.8429 54 19.7799 54L19.1274 54L23.8704 47.682ZM25.2159 52.4745C25.2159 52.7265 25.1754 52.9515 25.0944 53.1495C25.0164 53.3475 24.9114 53.5155 24.7794 53.6535C24.6474 53.7885 24.4929 53.8935 24.3159 53.9685C24.1419 54.0405 23.9589 54.0765 23.7669 54.0765C23.5599 54.0765 23.3679 54.0405 23.1909 53.9685C23.0169 53.8935 22.8654 53.7885 22.7364 53.6535C22.6074 53.5155 22.5054 53.3475 22.4304 53.1495C22.3584 52.9515 22.3224 52.7265 22.3224 52.4745C22.3224 52.2165 22.3584 51.987 22.4304 51.786C22.5054 51.585 22.6074 51.4155 22.7364 51.2775C22.8654 51.1365 23.0169 51.03 23.1909 50.958C23.3679 50.886 23.5599 50.85 23.7669 50.85C23.9739 50.85 24.1644 50.886 24.3384 50.958C24.5154 51.03 24.6684 51.1365 24.7974 51.2775C24.9294 51.4155 25.0314 51.585 25.1034 51.786C25.1784 51.987 25.2159 52.2165 25.2159 52.4745ZM24.5319 52.4745C24.5319 52.2825 24.5109 52.1205 24.4689 51.9885C24.4299 51.8565 24.3759 51.75 24.3069 51.669C24.2379 51.585 24.1569 51.525 24.0639 51.489C23.9709 51.45 23.8719 51.4305 23.7669 51.4305C23.6589 51.4305 23.5584 51.45 23.4654 51.489C23.3754 51.525 23.2959 51.585 23.2269 51.669C23.1609 51.75 23.1084 51.8565 23.0694 51.9885C23.0304 52.1205 23.0109 52.2825 23.0109 52.4745C23.0109 52.6635 23.0304 52.8225 23.0694 52.9515C23.1084 53.0805 23.1609 53.1855 23.2269 53.2665C23.2959 53.3475 23.3754 53.406 23.4654 53.442C23.5584 53.478 23.6589 53.496 23.7669 53.496C23.8719 53.496 23.9709 53.478 24.0639 53.442C24.1569 53.406 24.2379 53.3475 24.3069 53.2665C24.3759 53.1855 24.4299 53.0805 24.4689 52.9515C24.5109 52.8225 24.5319 52.6635 24.5319 52.4745Z" fill="black"/>
<rect y="60" width="57.0652" height="30" fill="#75C4FF" fill-opacity="0.4"/>
<path d="M12.202 67.339L10.15 67.339L10.15 73L9.196 73L9.196 67.339L7.135 67.339L7.135 66.538L12.202 66.538L12.202 67.339ZM13.2642 69.3055C13.4112 69.0055 13.5882 68.77 13.7952 68.599C14.0022 68.428 14.2512 68.3425 14.5422 68.3425C14.6412 68.3425 14.7342 68.3545 14.8212 68.3785C14.9112 68.3995 14.9892 68.4325 15.0552 68.4775L14.9967 69.139C14.9757 69.22 14.9262 69.2605 14.8482 69.2605C14.8062 69.2605 14.7432 69.253 14.6592 69.238C14.5752 69.22 14.4852 69.211 14.3892 69.211C14.2482 69.211 14.1237 69.232 14.0157 69.274C13.9077 69.313 13.8102 69.373 13.7232 69.454C13.6392 69.532 13.5642 69.6295 13.4982 69.7465C13.4322 69.8605 13.3707 69.991 13.3137 70.138L13.3137 73L12.4362 73L12.4362 68.428L12.9402 68.428C13.0362 68.428 13.1007 68.446 13.1337 68.482C13.1697 68.515 13.1952 68.575 13.2102 68.662L13.2642 69.3055ZM18.5703 70.9705C18.2133 70.9825 17.9103 71.011 17.6613 71.056C17.4123 71.098 17.2098 71.155 17.0538 71.227C16.8978 71.299 16.7853 71.3845 16.7163 71.4835C16.6473 71.5795 16.6128 71.6875 16.6128 71.8075C16.6128 71.9215 16.6308 72.0205 16.6668 72.1045C16.7058 72.1855 16.7568 72.253 16.8198 72.307C16.8858 72.358 16.9623 72.3955 17.0493 72.4195C17.1363 72.4435 17.2308 72.4555 17.3328 72.4555C17.4678 72.4555 17.5908 72.442 17.7018 72.415C17.8158 72.388 17.9223 72.3505 18.0213 72.3025C18.1203 72.2515 18.2148 72.19 18.3048 72.118C18.3948 72.046 18.4833 71.9635 18.5703 71.8705L18.5703 70.9705ZM15.9963 69.067C16.2513 68.824 16.5273 68.6425 16.8243 68.5225C17.1243 68.4025 17.4528 68.3425 17.8098 68.3425C18.0708 68.3425 18.3018 68.386 18.5028 68.473C18.7038 68.557 18.8733 68.6755 19.0113 68.8285C19.1493 68.9815 19.2528 69.1645 19.3218 69.3775C19.3938 69.5905 19.4298 69.826 19.4298 70.084L19.4298 73L19.0383 73C18.9513 73 18.8853 72.9865 18.8403 72.9595C18.7953 72.9295 18.7593 72.8755 18.7323 72.7975L18.6378 72.397C18.5208 72.505 18.4053 72.601 18.2913 72.685C18.1773 72.766 18.0573 72.8365 17.9313 72.8965C17.8083 72.9535 17.6763 72.997 17.5353 73.027C17.3943 73.057 17.2383 73.072 17.0673 73.072C16.8873 73.072 16.7178 73.048 16.5588 73C16.4028 72.949 16.2663 72.8725 16.1493 72.7705C16.0323 72.6685 15.9393 72.541 15.8703 72.388C15.8043 72.235 15.7713 72.0565 15.7713 71.8525C15.7713 71.6725 15.8193 71.5 15.9153 71.335C16.0143 71.167 16.1733 71.017 16.3923 70.885C16.6143 70.753 16.9023 70.645 17.2563 70.561C17.6133 70.477 18.0513 70.429 18.5703 70.417L18.5703 70.084C18.5703 69.739 18.4968 69.481 18.3498 69.31C18.2028 69.139 17.9868 69.0535 17.7018 69.0535C17.5098 69.0535 17.3478 69.0775 17.2158 69.1255C17.0868 69.1735 16.9743 69.2275 16.8783 69.2875C16.7853 69.3445 16.7028 69.397 16.6308 69.445C16.5618 69.493 16.4898 69.517 16.4148 69.517C16.3548 69.517 16.3023 69.5005 16.2573 69.4675C16.2153 69.4345 16.1808 69.3955 16.1538 69.3505L15.9963 69.067ZM21.8795 69.0625C21.9785 68.9575 22.082 68.8615 22.19 68.7745C22.298 68.6875 22.412 68.614 22.532 68.554C22.655 68.491 22.7855 68.443 22.9235 68.41C23.0645 68.374 23.2145 68.356 23.3735 68.356C23.6255 68.356 23.846 68.398 24.035 68.482C24.227 68.566 24.3875 68.6845 24.5165 68.8375C24.6455 68.9875 24.743 69.169 24.809 69.382C24.875 69.595 24.908 69.8305 24.908 70.0885L24.908 73L24.026 73L24.026 70.0885C24.026 69.7615 23.951 69.508 23.801 69.328C23.651 69.145 23.4215 69.0535 23.1125 69.0535C22.8875 69.0535 22.676 69.1075 22.478 69.2155C22.283 69.3205 22.1015 69.4645 21.9335 69.6475L21.9335 73L21.056 73L21.056 68.428L21.5825 68.428C21.7055 68.428 21.782 68.4865 21.812 68.6035L21.8795 69.0625ZM29.2391 69.2155C29.2151 69.2545 29.1896 69.283 29.1626 69.301C29.1356 69.316 29.1011 69.3235 29.0591 69.3235C29.0111 69.3235 28.9571 69.307 28.8971 69.274C28.8401 69.241 28.7696 69.205 28.6856 69.166C28.6046 69.127 28.5086 69.091 28.3976 69.058C28.2866 69.025 28.1546 69.0085 28.0016 69.0085C27.8756 69.0085 27.7601 69.025 27.6551 69.058C27.5531 69.088 27.4661 69.1315 27.3941 69.1885C27.3221 69.2425 27.2666 69.3085 27.2276 69.3865C27.1886 69.4615 27.1691 69.5425 27.1691 69.6295C27.1691 69.7435 27.2021 69.838 27.2681 69.913C27.3371 69.988 27.4256 70.0525 27.5336 70.1065C27.6446 70.1605 27.7691 70.21 27.9071 70.255C28.0481 70.297 28.1906 70.342 28.3346 70.39C28.4816 70.438 28.6241 70.4935 28.7621 70.5565C28.9031 70.6165 29.0276 70.693 29.1356 70.786C29.2466 70.876 29.3351 70.9855 29.4011 71.1145C29.4701 71.2435 29.5046 71.401 29.5046 71.587C29.5046 71.8 29.4656 71.998 29.3876 72.181C29.3126 72.361 29.2001 72.517 29.0501 72.649C28.9031 72.781 28.7201 72.8845 28.5011 72.9595C28.2821 73.0345 28.0316 73.072 27.7496 73.072C27.4346 73.072 27.1436 73.0195 26.8766 72.9145C26.6096 72.8095 26.3861 72.676 26.2061 72.514L26.4131 72.1765C26.4371 72.1345 26.4671 72.103 26.5031 72.082C26.5391 72.058 26.5871 72.046 26.6471 72.046C26.7041 72.046 26.7626 72.067 26.8226 72.109C26.8826 72.151 26.9546 72.1975 27.0386 72.2485C27.1226 72.2965 27.2246 72.3415 27.3446 72.3835C27.4646 72.4225 27.6146 72.442 27.7946 72.442C27.9446 72.442 28.0751 72.424 28.1861 72.388C28.2971 72.349 28.3886 72.298 28.4606 72.235C28.5356 72.169 28.5911 72.094 28.6271 72.01C28.6631 71.926 28.6811 71.8375 28.6811 71.7445C28.6811 71.6245 28.6466 71.5255 28.5776 71.4475C28.5116 71.3665 28.4231 71.2975 28.3121 71.2405C28.2041 71.1835 28.0796 71.134 27.9386 71.092C27.7976 71.05 27.6536 71.005 27.5066 70.957C27.3596 70.909 27.2156 70.8535 27.0746 70.7905C26.9336 70.7275 26.8076 70.648 26.6966 70.552C26.5886 70.456 26.5001 70.339 26.4311 70.201C26.3651 70.063 26.3321 69.895 26.3321 69.697C26.3321 69.52 26.3681 69.3505 26.4401 69.1885C26.5151 69.0265 26.6216 68.884 26.7596 68.761C26.9006 68.638 27.0731 68.5405 27.2771 68.4685C27.4841 68.3935 27.7196 68.356 27.9836 68.356C28.2866 68.356 28.5596 68.404 28.8026 68.5C29.0486 68.596 29.2586 68.728 29.4326 68.896L29.2391 69.2155ZM31.7838 71.875C31.9278 72.064 32.0823 72.196 32.2473 72.271C32.4153 72.346 32.6028 72.3835 32.8098 72.3835C33.2118 72.3835 33.5223 72.2395 33.7413 71.9515C33.9633 71.6605 34.0743 71.2375 34.0743 70.6825C34.0743 70.3915 34.0488 70.144 33.9978 69.94C33.9498 69.733 33.8778 69.565 33.7818 69.436C33.6888 69.304 33.5733 69.208 33.4353 69.148C33.2973 69.085 33.1413 69.0535 32.9673 69.0535C32.7123 69.0535 32.4903 69.1105 32.3013 69.2245C32.1153 69.3385 31.9428 69.5005 31.7838 69.7105L31.7838 71.875ZM31.7388 69.112C31.8348 68.998 31.9368 68.8945 32.0448 68.8015C32.1558 68.7055 32.2743 68.6245 32.4003 68.5585C32.5263 68.4895 32.6598 68.437 32.8008 68.401C32.9448 68.362 33.0978 68.3425 33.2598 68.3425C33.5208 68.3425 33.7563 68.3935 33.9663 68.4955C34.1793 68.5975 34.3608 68.7475 34.5108 68.9455C34.6608 69.1435 34.7763 69.388 34.8573 69.679C34.9413 69.97 34.9833 70.3045 34.9833 70.6825C34.9833 71.0215 34.9368 71.3365 34.8438 71.6275C34.7538 71.9155 34.6233 72.166 34.4523 72.379C34.2843 72.592 34.0773 72.76 33.8313 72.883C33.5883 73.003 33.3138 73.063 33.0078 73.063C32.7348 73.063 32.5008 73.018 32.3058 72.928C32.1108 72.838 31.9368 72.712 31.7838 72.55L31.7838 74.5345L30.9063 74.5345L30.9063 68.428L31.4328 68.428C31.5558 68.428 31.6323 68.4865 31.6623 68.6035L31.7388 69.112ZM38.3688 68.356C38.7048 68.356 39.0078 68.4115 39.2778 68.5225C39.5508 68.6305 39.7818 68.788 39.9708 68.995C40.1628 69.199 40.3098 69.4465 40.4118 69.7375C40.5138 70.0255 40.5648 70.3495 40.5648 70.7095C40.5648 71.0695 40.5138 71.395 40.4118 71.686C40.3098 71.977 40.1628 72.2245 39.9708 72.4285C39.7818 72.6325 39.5508 72.79 39.2778 72.901C39.0078 73.009 38.7048 73.063 38.3688 73.063C38.0298 73.063 37.7238 73.009 37.4508 72.901C37.1808 72.79 36.9498 72.6325 36.7578 72.4285C36.5658 72.2245 36.4173 71.977 36.3123 71.686C36.2103 71.395 36.1593 71.0695 36.1593 70.7095C36.1593 70.3495 36.2103 70.0255 36.3123 69.7375C36.4173 69.4465 36.5658 69.199 36.7578 68.995C36.9498 68.788 37.1808 68.6305 37.4508 68.5225C37.7238 68.4115 38.0298 68.356 38.3688 68.356ZM38.3688 72.379C38.8008 72.379 39.1233 72.2335 39.3363 71.9425C39.5493 71.6515 39.6558 71.242 39.6558 70.714C39.6558 70.186 39.5493 69.7765 39.3363 69.4855C39.1233 69.1915 38.8008 69.0445 38.3688 69.0445C37.9308 69.0445 37.6038 69.1915 37.3878 69.4855C37.1748 69.7765 37.0683 70.186 37.0683 70.714C37.0683 71.242 37.1748 71.6515 37.3878 71.9425C37.6038 72.2335 37.9308 72.379 38.3688 72.379ZM42.8238 69.3055C42.9708 69.0055 43.1478 68.77 43.3548 68.599C43.5618 68.428 43.8108 68.3425 44.1018 68.3425C44.2008 68.3425 44.2938 68.3545 44.3808 68.3785C44.4708 68.3995 44.5488 68.4325 44.6148 68.4775L44.5563 69.139C44.5353 69.22 44.4858 69.2605 44.4078 69.2605C44.3658 69.2605 44.3028 69.253 44.2188 69.238C44.1348 69.22 44.0448 69.211 43.9488 69.211C43.8078 69.211 43.6833 69.232 43.5753 69.274C43.4673 69.313 43.3698 69.373 43.2828 69.454C43.1988 69.532 43.1238 69.6295 43.0578 69.7465C42.9918 69.8605 42.9303 69.991 42.8733 70.138L42.8733 73L41.9958 73L41.9958 68.428L42.4998 68.428C42.5958 68.428 42.6603 68.446 42.6933 68.482C42.7293 68.515 42.7548 68.575 42.7698 68.662L42.8238 69.3055ZM47.1742 73.072C46.8052 73.072 46.5202 72.9685 46.3192 72.7615C46.1212 72.5545 46.0222 72.259 46.0222 71.875L46.0222 69.139L45.4912 69.139C45.4402 69.139 45.3967 69.124 45.3607 69.094C45.3277 69.061 45.3112 69.013 45.3112 68.95L45.3112 68.5945L46.0537 68.491L46.2517 67.1275C46.2637 67.0765 46.2862 67.0375 46.3192 67.0105C46.3552 66.9805 46.4002 66.9655 46.4542 66.9655L46.8997 66.9655L46.8997 68.5L48.1957 68.5L48.1957 69.139L46.8997 69.139L46.8997 71.8165C46.8997 71.9965 46.9432 72.1315 47.0302 72.2215C47.1202 72.3085 47.2342 72.352 47.3722 72.352C47.4532 72.352 47.5222 72.3415 47.5792 72.3205C47.6392 72.2995 47.6902 72.277 47.7322 72.253C47.7742 72.226 47.8102 72.202 47.8402 72.181C47.8702 72.16 47.8972 72.1495 47.9212 72.1495C47.9512 72.1495 47.9737 72.157 47.9887 72.172C48.0067 72.184 48.0247 72.205 48.0427 72.235L48.3037 72.658C48.1597 72.79 47.9887 72.892 47.7907 72.964C47.5927 73.036 47.3872 73.072 47.1742 73.072ZM11.437 83.1675C11.533 83.1675 11.608 83.196 11.662 83.253C11.716 83.307 11.743 83.379 11.743 83.469L11.743 84L7.405 84L7.405 83.6985C7.405 83.6385 7.417 83.5755 7.441 83.5095C7.465 83.4405 7.5055 83.379 7.5625 83.325L9.6055 81.2775C9.7765 81.1065 9.931 80.9415 10.069 80.7825C10.207 80.6235 10.324 80.466 10.42 80.31C10.516 80.151 10.5895 79.989 10.6405 79.824C10.6945 79.659 10.7215 79.485 10.7215 79.302C10.7215 79.122 10.693 78.9645 10.636 78.8295C10.579 78.6915 10.501 78.5775 10.402 78.4875C10.303 78.3975 10.186 78.33 10.051 78.285C9.916 78.24 9.7705 78.2175 9.6145 78.2175C9.4585 78.2175 9.3145 78.24 9.1825 78.285C9.0535 78.33 8.938 78.393 8.836 78.474C8.734 78.555 8.6485 78.651 8.5795 78.762C8.5105 78.873 8.461 78.993 8.431 79.122C8.389 79.236 8.335 79.3125 8.269 79.3515C8.206 79.3905 8.113 79.3995 7.99 79.3785L7.531 79.2975C7.573 78.9975 7.6555 78.7335 7.7785 78.5055C7.9015 78.2775 8.056 78.087 8.242 77.934C8.428 77.778 8.641 77.661 8.881 77.583C9.124 77.505 9.385 77.466 9.664 77.466C9.946 77.466 10.2055 77.508 10.4425 77.592C10.6825 77.673 10.8895 77.7915 11.0635 77.9475C11.2375 78.1035 11.374 78.294 11.473 78.519C11.572 78.741 11.6215 78.993 11.6215 79.275C11.6215 79.515 11.5855 79.7385 11.5135 79.9455C11.4445 80.1495 11.3485 80.3445 11.2255 80.5305C11.1055 80.7165 10.9645 80.898 10.8025 81.075C10.6435 81.249 10.474 81.426 10.294 81.606L8.656 83.28C8.782 83.247 8.908 83.22 9.034 83.199C9.163 83.178 9.2845 83.1675 9.3985 83.1675L11.437 83.1675ZM15.9482 79.0995C15.9482 79.3515 15.9077 79.5765 15.8267 79.7745C15.7487 79.9725 15.6437 80.1405 15.5117 80.2785C15.3797 80.4135 15.2252 80.5185 15.0482 80.5935C14.8742 80.6655 14.6912 80.7015 14.4992 80.7015C14.2922 80.7015 14.1002 80.6655 13.9232 80.5935C13.7492 80.5185 13.5977 80.4135 13.4687 80.2785C13.3397 80.1405 13.2377 79.9725 13.1627 79.7745C13.0907 79.5765 13.0547 79.3515 13.0547 79.0995C13.0547 78.8415 13.0907 78.612 13.1627 78.411C13.2377 78.21 13.3397 78.0405 13.4687 77.9025C13.5977 77.7615 13.7492 77.655 13.9232 77.583C14.1002 77.508 14.2922 77.4705 14.4992 77.4705C14.7062 77.4705 14.8967 77.508 15.0707 77.583C15.2477 77.655 15.4007 77.7615 15.5297 77.9025C15.6617 78.0405 15.7637 78.21 15.8357 78.411C15.9107 78.612 15.9482 78.8415 15.9482 79.0995ZM15.2642 79.0995C15.2642 78.9075 15.2432 78.7455 15.2012 78.6135C15.1622 78.4785 15.1082 78.3705 15.0392 78.2895C14.9702 78.2055 14.8892 78.1455 14.7962 78.1095C14.7032 78.0705 14.6042 78.051 14.4992 78.051C14.3942 78.051 14.2952 78.0705 14.2022 78.1095C14.1092 78.1455 14.0282 78.2055 13.9592 78.2895C13.8932 78.3705 13.8407 78.4785 13.8017 78.6135C13.7627 78.7455 13.7432 78.9075 13.7432 79.0995C13.7432 79.2855 13.7627 79.4445 13.8017 79.5765C13.8407 79.7055 13.8932 79.8105 13.9592 79.8915C14.0282 79.9725 14.1092 80.031 14.2022 80.067C14.2952 80.103 14.3942 80.121 14.4992 80.121C14.6042 80.121 14.7032 80.103 14.7962 80.067C14.8892 80.031 14.9702 79.9725 15.0392 79.8915C15.1082 79.8105 15.1622 79.7055 15.2012 79.5765C15.2432 79.4445 15.2642 79.2855 15.2642 79.0995ZM18.1982 77.682C18.2312 77.643 18.2687 77.61 18.3107 77.583C18.3557 77.553 18.4172 77.538 18.4952 77.538L19.1297 77.538L14.3867 83.8605C14.3537 83.9025 14.3147 83.937 14.2697 83.964C14.2247 83.988 14.1707 84 14.1077 84L13.4552 84L18.1982 77.682ZM19.5437 82.4745C19.5437 82.7265 19.5032 82.9515 19.4222 83.1495C19.3442 83.3475 19.2392 83.5155 19.1072 83.6535C18.9752 83.7885 18.8207 83.8935 18.6437 83.9685C18.4697 84.0405 18.2867 84.0765 18.0947 84.0765C17.8877 84.0765 17.6957 84.0405 17.5187 83.9685C17.3447 83.8935 17.1932 83.7885 17.0642 83.6535C16.9352 83.5155 16.8332 83.3475 16.7582 83.1495C16.6862 82.9515 16.6502 82.7265 16.6502 82.4745C16.6502 82.2165 16.6862 81.987 16.7582 81.786C16.8332 81.585 16.9352 81.4155 17.0642 81.2775C17.1932 81.1365 17.3447 81.03 17.5187 80.958C17.6957 80.886 17.8877 80.85 18.0947 80.85C18.3017 80.85 18.4922 80.886 18.6662 80.958C18.8432 81.03 18.9962 81.1365 19.1252 81.2775C19.2572 81.4155 19.3592 81.585 19.4312 81.786C19.5062 81.987 19.5437 82.2165 19.5437 82.4745ZM18.8597 82.4745C18.8597 82.2825 18.8387 82.1205 18.7967 81.9885C18.7577 81.8565 18.7037 81.75 18.6347 81.669C18.5657 81.585 18.4847 81.525 18.3917 81.489C18.2987 81.45 18.1997 81.4305 18.0947 81.4305C17.9867 81.4305 17.8862 81.45 17.7932 81.489C17.7032 81.525 17.6237 81.585 17.5547 81.669C17.4887 81.75 17.4362 81.8565 17.3972 81.9885C17.3582 82.1205 17.3387 82.2825 17.3387 82.4745C17.3387 82.6635 17.3582 82.8225 17.3972 82.9515C17.4362 83.0805 17.4887 83.1855 17.5547 83.2665C17.6237 83.3475 17.7032 83.406 17.7932 83.442C17.8862 83.478 17.9867 83.496 18.0947 83.496C18.1997 83.496 18.2987 83.478 18.3917 83.442C18.4847 83.406 18.5657 83.3475 18.6347 83.2665C18.7037 83.1855 18.7577 83.0805 18.7967 82.9515C18.8387 82.8225 18.8597 82.6635 18.8597 82.4745Z" fill="black"/>
<rect opacity="0.4" y="90" width="43" height="30" fill="#BBE2FF"/>
<path d="M9.691 99.589C9.919 99.589 10.117 99.5605 10.285 99.5035C10.456 99.4465 10.5955 99.3685 10.7035 99.2695C10.8145 99.1675 10.897 99.0475 10.951 98.9095C11.005 98.7715 11.032 98.62 11.032 98.455C11.032 98.125 10.9225 97.8715 10.7035 97.6945C10.4875 97.5175 10.156 97.429 9.709 97.429L8.935 97.429L8.935 99.589L9.691 99.589ZM12.805 103L11.7115 103C11.5045 103 11.3545 102.919 11.2615 102.757L9.8935 100.673C9.8425 100.595 9.7855 100.54 9.7225 100.507C9.6625 100.474 9.5725 100.457 9.4525 100.457L8.935 100.457L8.935 103L7.7245 103L7.7245 96.493L9.709 96.493C10.15 96.493 10.528 96.5395 10.843 96.6325C11.161 96.7225 11.4205 96.85 11.6215 97.015C11.8255 97.18 11.9755 97.378 12.0715 97.609C12.1675 97.837 12.2155 98.089 12.2155 98.365C12.2155 98.584 12.1825 98.791 12.1165 98.986C12.0535 99.181 11.9605 99.358 11.8375 99.517C11.7175 99.676 11.5675 99.8155 11.3875 99.9355C11.2105 100.055 11.008 100.15 10.78 100.219C10.858 100.264 10.93 100.318 10.996 100.381C11.062 100.441 11.122 100.513 11.176 100.597L12.805 103ZM16.4594 100.16C16.4594 100.016 16.4384 99.8815 16.3964 99.7555C16.3574 99.6265 16.2974 99.514 16.2164 99.418C16.1354 99.322 16.0319 99.247 15.9059 99.193C15.7829 99.136 15.6389 99.1075 15.4739 99.1075C15.1529 99.1075 14.8994 99.199 14.7134 99.382C14.5304 99.565 14.4134 99.8245 14.3624 100.16L16.4594 100.16ZM14.3399 100.831C14.3579 101.068 14.3999 101.273 14.4659 101.447C14.5319 101.618 14.6189 101.761 14.7269 101.875C14.8349 101.986 14.9624 102.07 15.1094 102.127C15.2594 102.181 15.4244 102.208 15.6044 102.208C15.7844 102.208 15.9389 102.187 16.0679 102.145C16.1999 102.103 16.3139 102.056 16.4099 102.005C16.5089 101.954 16.5944 101.908 16.6664 101.866C16.7414 101.824 16.8134 101.803 16.8824 101.803C16.9754 101.803 17.0444 101.837 17.0894 101.906L17.4089 102.311C17.2859 102.455 17.1479 102.577 16.9949 102.676C16.8419 102.772 16.6814 102.85 16.5134 102.91C16.3484 102.967 16.1789 103.007 16.0049 103.031C15.8339 103.055 15.6674 103.067 15.5054 103.067C15.1844 103.067 14.8859 103.015 14.6099 102.91C14.3339 102.802 14.0939 102.644 13.8899 102.437C13.6859 102.227 13.5254 101.969 13.4084 101.663C13.2914 101.354 13.2329 100.997 13.2329 100.592C13.2329 100.277 13.2839 99.982 13.3859 99.706C13.4879 99.427 13.6334 99.1855 13.8224 98.9815C14.0144 98.7745 14.2469 98.611 14.5199 98.491C14.7959 98.371 15.1064 98.311 15.4514 98.311C15.7424 98.311 16.0109 98.3575 16.2569 98.4505C16.5029 98.5435 16.7144 98.68 16.8914 98.86C17.0684 99.037 17.2064 99.256 17.3054 99.517C17.4074 99.775 17.4584 100.07 17.4584 100.403C17.4584 100.571 17.4404 100.685 17.4044 100.745C17.3684 100.802 17.2994 100.831 17.1974 100.831L14.3399 100.831ZM22.0515 99.3595C22.0185 99.4015 21.9855 99.4345 21.9525 99.4585C21.9225 99.4825 21.8775 99.4945 21.8175 99.4945C21.7605 99.4945 21.705 99.478 21.651 99.445C21.597 99.409 21.5325 99.37 21.4575 99.328C21.3825 99.283 21.2925 99.244 21.1875 99.211C21.0855 99.175 20.958 99.157 20.805 99.157C20.61 99.157 20.439 99.193 20.292 99.265C20.145 99.334 20.022 99.4345 19.923 99.5665C19.827 99.6985 19.755 99.859 19.707 100.048C19.659 100.234 19.635 100.445 19.635 100.682C19.635 100.928 19.6605 101.147 19.7115 101.339C19.7655 101.531 19.842 101.693 19.941 101.825C20.04 101.954 20.16 102.053 20.301 102.122C20.442 102.188 20.601 102.221 20.778 102.221C20.955 102.221 21.0975 102.2 21.2055 102.158C21.3165 102.113 21.4095 102.065 21.4845 102.014C21.5595 101.96 21.624 101.912 21.678 101.87C21.735 101.825 21.798 101.803 21.867 101.803C21.957 101.803 22.0245 101.837 22.0695 101.906L22.389 102.311C22.266 102.455 22.1325 102.577 21.9885 102.676C21.8445 102.772 21.6945 102.85 21.5385 102.91C21.3855 102.967 21.2265 103.007 21.0615 103.031C20.8995 103.055 20.7375 103.067 20.5755 103.067C20.2905 103.067 20.022 103.015 19.77 102.91C19.518 102.802 19.2975 102.646 19.1085 102.442C18.9195 102.238 18.7695 101.989 18.6585 101.695C18.5505 101.398 18.4965 101.06 18.4965 100.682C18.4965 100.343 18.5445 100.03 18.6405 99.742C18.7395 99.451 18.8835 99.2005 19.0725 98.9905C19.2615 98.7775 19.4955 98.611 19.7745 98.491C20.0535 98.371 20.3745 98.311 20.7375 98.311C21.0825 98.311 21.384 98.3665 21.642 98.4775C21.903 98.5885 22.137 98.7475 22.344 98.9545L22.0515 99.3595ZM27.7313 98.383L25.2158 104.269C25.1828 104.347 25.1393 104.405 25.0853 104.444C25.0343 104.486 24.9548 104.507 24.8468 104.507L24.0188 104.507L24.8828 102.653L23.0153 98.383L23.9918 98.383C24.0788 98.383 24.1463 98.404 24.1943 98.446C24.2453 98.488 24.2828 98.536 24.3068 98.59L25.2878 100.984C25.3208 101.065 25.3478 101.146 25.3688 101.227C25.3928 101.308 25.4153 101.39 25.4363 101.474C25.4633 101.39 25.4903 101.308 25.5173 101.227C25.5443 101.143 25.5743 101.06 25.6073 100.979L26.5343 98.59C26.5583 98.53 26.5973 98.4805 26.6513 98.4415C26.7083 98.4025 26.7713 98.383 26.8403 98.383L27.7313 98.383ZM31.9018 99.3595C31.8688 99.4015 31.8358 99.4345 31.8028 99.4585C31.7728 99.4825 31.7278 99.4945 31.6678 99.4945C31.6108 99.4945 31.5553 99.478 31.5013 99.445C31.4473 99.409 31.3828 99.37 31.3078 99.328C31.2328 99.283 31.1428 99.244 31.0378 99.211C30.9358 99.175 30.8083 99.157 30.6553 99.157C30.4603 99.157 30.2893 99.193 30.1423 99.265C29.9953 99.334 29.8723 99.4345 29.7733 99.5665C29.6773 99.6985 29.6053 99.859 29.5573 100.048C29.5093 100.234 29.4853 100.445 29.4853 100.682C29.4853 100.928 29.5108 101.147 29.5618 101.339C29.6158 101.531 29.6923 101.693 29.7913 101.825C29.8903 101.954 30.0103 102.053 30.1513 102.122C30.2923 102.188 30.4513 102.221 30.6283 102.221C30.8053 102.221 30.9478 102.2 31.0558 102.158C31.1668 102.113 31.2598 102.065 31.3348 102.014C31.4098 101.96 31.4743 101.912 31.5283 101.87C31.5853 101.825 31.6483 101.803 31.7173 101.803C31.8073 101.803 31.8748 101.837 31.9198 101.906L32.2393 102.311C32.1163 102.455 31.9828 102.577 31.8388 102.676C31.6948 102.772 31.5448 102.85 31.3888 102.91C31.2358 102.967 31.0768 103.007 30.9118 103.031C30.7498 103.055 30.5878 103.067 30.4258 103.067C30.1408 103.067 29.8723 103.015 29.6203 102.91C29.3683 102.802 29.1478 102.646 28.9588 102.442C28.7698 102.238 28.6198 101.989 28.5088 101.695C28.4008 101.398 28.3468 101.06 28.3468 100.682C28.3468 100.343 28.3948 100.03 28.4908 99.742C28.5898 99.451 28.7338 99.2005 28.9228 98.9905C29.1118 98.7775 29.3458 98.611 29.6248 98.491C29.9038 98.371 30.2248 98.311 30.5878 98.311C30.9328 98.311 31.2343 98.3665 31.4923 98.4775C31.7533 98.5885 31.9873 98.7475 32.1943 98.9545L31.9018 99.3595ZM34.5126 96.313L34.5126 103L33.4011 103L33.4011 96.313L34.5126 96.313ZM39.046 100.16C39.046 100.016 39.025 99.8815 38.983 99.7555C38.944 99.6265 38.884 99.514 38.803 99.418C38.722 99.322 38.6185 99.247 38.4925 99.193C38.3695 99.136 38.2255 99.1075 38.0605 99.1075C37.7395 99.1075 37.486 99.199 37.3 99.382C37.117 99.565 37 99.8245 36.949 100.16L39.046 100.16ZM36.9265 100.831C36.9445 101.068 36.9865 101.273 37.0525 101.447C37.1185 101.618 37.2055 101.761 37.3135 101.875C37.4215 101.986 37.549 102.07 37.696 102.127C37.846 102.181 38.011 102.208 38.191 102.208C38.371 102.208 38.5255 102.187 38.6545 102.145C38.7865 102.103 38.9005 102.056 38.9965 102.005C39.0955 101.954 39.181 101.908 39.253 101.866C39.328 101.824 39.4 101.803 39.469 101.803C39.562 101.803 39.631 101.837 39.676 101.906L39.9955 102.311C39.8725 102.455 39.7345 102.577 39.5815 102.676C39.4285 102.772 39.268 102.85 39.1 102.91C38.935 102.967 38.7655 103.007 38.5915 103.031C38.4205 103.055 38.254 103.067 38.092 103.067C37.771 103.067 37.4725 103.015 37.1965 102.91C36.9205 102.802 36.6805 102.644 36.4765 102.437C36.2725 102.227 36.112 101.969 35.995 101.663C35.878 101.354 35.8195 100.997 35.8195 100.592C35.8195 100.277 35.8705 99.982 35.9725 99.706C36.0745 99.427 36.22 99.1855 36.409 98.9815C36.601 98.7745 36.8335 98.611 37.1065 98.491C37.3825 98.371 37.693 98.311 38.038 98.311C38.329 98.311 38.5975 98.3575 38.8435 98.4505C39.0895 98.5435 39.301 98.68 39.478 98.86C39.655 99.037 39.793 99.256 39.892 99.517C39.994 99.775 40.045 100.07 40.045 100.403C40.045 100.571 40.027 100.685 39.991 100.745C39.955 100.802 39.886 100.831 39.784 100.831L36.9265 100.831ZM44.2286 99.562C44.1026 99.409 43.9646 99.301 43.8146 99.238C43.6676 99.175 43.5086 99.1435 43.3376 99.1435C43.1696 99.1435 43.0181 99.175 42.8831 99.238C42.7481 99.301 42.6326 99.397 42.5366 99.526C42.4406 99.652 42.3671 99.814 42.3161 100.012C42.2651 100.207 42.2396 100.438 42.2396 100.705C42.2396 100.975 42.2606 101.204 42.3026 101.393C42.3476 101.579 42.4106 101.732 42.4916 101.852C42.5726 101.969 42.6716 102.055 42.7886 102.109C42.9056 102.16 43.0361 102.185 43.1801 102.185C43.4111 102.185 43.6076 102.137 43.7696 102.041C43.9316 101.945 44.0846 101.809 44.2286 101.632L44.2286 99.562ZM45.3401 96.313L45.3401 103L44.6606 103C44.5136 103 44.4206 102.932 44.3816 102.797L44.2871 102.352C44.1011 102.565 43.8866 102.737 43.6436 102.869C43.4036 103.001 43.1231 103.067 42.8021 103.067C42.5501 103.067 42.3191 103.015 42.1091 102.91C41.8991 102.805 41.7176 102.653 41.5646 102.455C41.4146 102.254 41.2976 102.007 41.2136 101.713C41.1326 101.419 41.0921 101.083 41.0921 100.705C41.0921 100.363 41.1386 100.045 41.2316 99.751C41.3246 99.457 41.4581 99.202 41.6321 98.986C41.8061 98.77 42.0146 98.602 42.2576 98.482C42.5006 98.359 42.7736 98.2975 43.0766 98.2975C43.3346 98.2975 43.5551 98.338 43.7381 98.419C43.9211 98.5 44.0846 98.6095 44.2286 98.7475L44.2286 96.313L45.3401 96.313ZM9.421 110.805C9.28 110.874 9.1255 110.928 8.9575 110.967C9.1255 111.006 9.28 111.06 9.421 111.129L11.0545 111.97C11.1235 112.003 11.173 112.045 11.203 112.096C11.233 112.147 11.248 112.203 11.248 112.263L11.248 113.055L7.6795 111.192L7.6795 110.742L11.248 108.883L11.248 109.675C11.248 109.735 11.233 109.791 11.203 109.842C11.173 109.89 11.1235 109.932 11.0545 109.968L9.421 110.805ZM17.3297 113.167L17.3297 114L13.7297 114L13.7297 113.167L15.0482 113.167L15.0482 109.374C15.0482 109.224 15.0527 109.069 15.0617 108.91L14.1257 109.693C14.0717 109.735 14.0177 109.762 13.9637 109.774C13.9127 109.783 13.8632 109.783 13.8152 109.774C13.7702 109.765 13.7297 109.75 13.6937 109.729C13.6577 109.705 13.6307 109.68 13.6127 109.653L13.2617 109.171L15.2462 107.484L16.1597 107.484L16.1597 113.167L17.3297 113.167ZM21.6969 109.068C21.6969 109.314 21.6549 109.536 21.5709 109.734C21.4899 109.932 21.3804 110.101 21.2424 110.242C21.1044 110.38 20.9439 110.487 20.7609 110.562C20.5779 110.637 20.3874 110.674 20.1894 110.674C19.9734 110.674 19.7739 110.637 19.5909 110.562C19.4079 110.487 19.2489 110.38 19.1139 110.242C18.9819 110.101 18.8784 109.932 18.8034 109.734C18.7284 109.536 18.6909 109.314 18.6909 109.068C18.6909 108.816 18.7284 108.588 18.8034 108.384C18.8784 108.18 18.9819 108.007 19.1139 107.866C19.2489 107.725 19.4079 107.617 19.5909 107.542C19.7739 107.464 19.9734 107.425 20.1894 107.425C20.4054 107.425 20.6049 107.464 20.7879 107.542C20.9739 107.617 21.1344 107.725 21.2694 107.866C21.4044 108.007 21.5094 108.18 21.5844 108.384C21.6594 108.588 21.6969 108.816 21.6969 109.068ZM20.8419 109.068C20.8419 108.894 20.8239 108.748 20.7879 108.631C20.7549 108.514 20.7084 108.42 20.6484 108.348C20.5914 108.276 20.5224 108.225 20.4414 108.195C20.3634 108.162 20.2794 108.145 20.1894 108.145C20.0994 108.145 20.0154 108.162 19.9374 108.195C19.8594 108.225 19.7919 108.276 19.7349 108.348C19.6809 108.42 19.6374 108.514 19.6044 108.631C19.5714 108.748 19.5549 108.894 19.5549 109.068C19.5549 109.236 19.5714 109.377 19.6044 109.491C19.6374 109.602 19.6809 109.692 19.7349 109.761C19.7919 109.83 19.8594 109.879 19.9374 109.909C20.0154 109.939 20.0994 109.954 20.1894 109.954C20.2794 109.954 20.3634 109.939 20.4414 109.909C20.5224 109.879 20.5914 109.83 20.6484 109.761C20.7084 109.692 20.7549 109.602 20.7879 109.491C20.8239 109.377 20.8419 109.236 20.8419 109.068ZM23.8614 107.668C23.9004 107.623 23.9454 107.583 23.9964 107.547C24.0504 107.511 24.1254 107.493 24.2214 107.493L25.0314 107.493L20.1984 113.833C20.1594 113.881 20.1129 113.922 20.0589 113.955C20.0049 113.985 19.9389 114 19.8609 114L19.0329 114L23.8614 107.668ZM25.3734 112.47C25.3734 112.716 25.3314 112.938 25.2474 113.136C25.1664 113.334 25.0569 113.503 24.9189 113.644C24.7809 113.782 24.6204 113.89 24.4374 113.968C24.2544 114.043 24.0639 114.081 23.8659 114.081C23.6499 114.081 23.4504 114.043 23.2674 113.968C23.0844 113.89 22.9254 113.782 22.7904 113.644C22.6584 113.503 22.5549 113.334 22.4799 113.136C22.4049 112.938 22.3674 112.716 22.3674 112.47C22.3674 112.218 22.4049 111.99 22.4799 111.786C22.5549 111.582 22.6584 111.409 22.7904 111.268C22.9254 111.127 23.0844 111.019 23.2674 110.944C23.4504 110.866 23.6499 110.827 23.8659 110.827C24.0819 110.827 24.2814 110.866 24.4644 110.944C24.6504 111.019 24.8094 111.127 24.9414 111.268C25.0764 111.409 25.1814 111.582 25.2564 111.786C25.3344 111.99 25.3734 112.218 25.3734 112.47ZM24.5139 112.47C24.5139 112.296 24.4974 112.15 24.4644 112.033C24.4314 111.916 24.3849 111.822 24.3249 111.75C24.2679 111.678 24.1989 111.627 24.1179 111.597C24.0399 111.564 23.9559 111.547 23.8659 111.547C23.7759 111.547 23.6919 111.564 23.6139 111.597C23.5359 111.627 23.4684 111.678 23.4114 111.75C23.3544 111.822 23.3094 111.916 23.2764 112.033C23.2464 112.15 23.2314 112.296 23.2314 112.47C23.2314 112.638 23.2464 112.779 23.2764 112.893C23.3094 113.007 23.3544 113.098 23.4114 113.167C23.4684 113.236 23.5359 113.286 23.6139 113.316C23.6919 113.346 23.7759 113.361 23.8659 113.361C23.9559 113.361 24.0399 113.346 24.1179 113.316C24.1989 113.286 24.2679 113.236 24.3249 113.167C24.3849 113.098 24.4314 113.007 24.4644 112.893C24.4974 112.779 24.5139 112.638 24.5139 112.47Z" fill="#BD484A"/>
</svg>
