<svg width="220" height="220" viewBox="0 0 220 220" fill="none" xmlns="http://www.w3.org/2000/svg">
<circle cx="109.43" cy="102.43" r="80.43" fill="#FFEFD8"/>
<path d="M109.017 103.706H29C29 147.035 57.4931 184.768 113.288 182.936C210.053 179.76 222.458 25.7139 108.946 22L109.017 103.706Z" fill="#D07D7E"/>
<path d="M64.488 135L60.696 118.248H64.296L65.88 126.288L66.768 130.944H66.84L67.896 126.288L69.744 118.248H73.728L75.6 126.288L76.632 130.944H76.704L77.592 126.288L79.2 118.248H82.656L78.768 135H74.616L72.504 125.928L71.688 122.256H71.616L70.776 125.928L68.664 135H64.488ZM95.7452 135C95.1052 135 94.5692 134.8 94.1372 134.4C93.7212 134 93.4572 133.464 93.3452 132.792H93.2012C93.0092 133.608 92.5852 134.232 91.9292 134.664C91.2732 135.08 90.4652 135.288 89.5052 135.288C88.2412 135.288 87.2732 134.952 86.6012 134.28C85.9292 133.608 85.5932 132.72 85.5932 131.616C85.5932 130.288 86.0732 129.304 87.0332 128.664C88.0092 128.008 89.3292 127.68 90.9932 127.68H92.9852V126.888C92.9852 126.28 92.8252 125.8 92.5052 125.448C92.1852 125.08 91.6492 124.896 90.8972 124.896C90.1932 124.896 89.6332 125.048 89.2172 125.352C88.8012 125.656 88.4572 126 88.1852 126.384L86.0732 124.512C86.5852 123.76 87.2252 123.176 87.9932 122.76C88.7772 122.328 89.8332 122.112 91.1612 122.112C92.9532 122.112 94.2972 122.504 95.1932 123.288C96.0892 124.072 96.5372 125.216 96.5372 126.72V132.24H97.7132V135H95.7452ZM90.8252 132.816C91.4172 132.816 91.9212 132.688 92.3372 132.432C92.7692 132.176 92.9852 131.76 92.9852 131.184V129.696H91.2572C89.8652 129.696 89.1692 130.168 89.1692 131.112V131.472C89.1692 131.936 89.3132 132.28 89.6012 132.504C89.8892 132.712 90.2972 132.816 90.8252 132.816ZM106.529 135.288C105.313 135.288 104.289 135.096 103.457 134.712C102.625 134.312 101.881 133.752 101.225 133.032L103.313 130.92C103.761 131.416 104.257 131.808 104.801 132.096C105.345 132.384 105.961 132.528 106.649 132.528C107.353 132.528 107.841 132.424 108.113 132.216C108.385 131.992 108.521 131.696 108.521 131.328C108.521 130.736 108.097 130.384 107.249 130.272L105.881 130.104C103.049 129.752 101.633 128.456 101.633 126.216C101.633 125.608 101.745 125.056 101.969 124.56C102.209 124.048 102.537 123.616 102.953 123.264C103.385 122.896 103.897 122.616 104.489 122.424C105.097 122.216 105.777 122.112 106.529 122.112C107.185 122.112 107.761 122.16 108.257 122.256C108.769 122.336 109.217 122.464 109.601 122.64C110.001 122.8 110.361 123.008 110.681 123.264C111.017 123.504 111.345 123.776 111.665 124.08L109.625 126.168C109.225 125.768 108.769 125.456 108.257 125.232C107.761 124.992 107.249 124.872 106.721 124.872C106.113 124.872 105.681 124.968 105.425 125.16C105.169 125.352 105.041 125.608 105.041 125.928C105.041 126.264 105.129 126.528 105.305 126.72C105.497 126.896 105.849 127.024 106.361 127.104L107.777 127.296C110.545 127.664 111.929 128.928 111.929 131.088C111.929 131.696 111.801 132.256 111.545 132.768C111.289 133.28 110.921 133.728 110.441 134.112C109.977 134.48 109.409 134.768 108.737 134.976C108.081 135.184 107.345 135.288 106.529 135.288ZM120.74 135C119.507 135 118.571 134.688 117.931 134.064C117.307 133.44 116.995 132.528 116.995 131.328V125.16H115.219V122.4H116.107C116.587 122.4 116.915 122.288 117.091 122.064C117.267 121.824 117.355 121.488 117.355 121.056V118.992H120.547V122.4H123.043V125.16H120.547V132.24H122.852V135H120.74ZM132.833 135.288C131.873 135.288 131.017 135.136 130.265 134.832C129.513 134.512 128.873 134.072 128.345 133.512C127.833 132.936 127.441 132.24 127.169 131.424C126.913 130.608 126.785 129.696 126.785 128.688C126.785 127.696 126.913 126.8 127.169 126C127.425 125.184 127.801 124.488 128.297 123.912C128.809 123.336 129.433 122.896 130.169 122.592C130.905 122.272 131.745 122.112 132.689 122.112C133.729 122.112 134.617 122.288 135.353 122.64C136.105 122.992 136.713 123.464 137.177 124.056C137.657 124.648 138.001 125.336 138.209 126.12C138.433 126.888 138.545 127.696 138.545 128.544V129.6H130.457V129.792C130.457 130.624 130.681 131.288 131.129 131.784C131.577 132.264 132.281 132.504 133.241 132.504C133.977 132.504 134.577 132.36 135.041 132.072C135.505 131.768 135.937 131.408 136.337 130.992L138.113 133.2C137.553 133.856 136.817 134.368 135.905 134.736C135.009 135.104 133.985 135.288 132.833 135.288ZM132.761 124.728C132.041 124.728 131.473 124.968 131.057 125.448C130.657 125.912 130.457 126.536 130.457 127.32V127.512H134.873V127.296C134.873 126.528 134.697 125.912 134.345 125.448C134.009 124.968 133.481 124.728 132.761 124.728ZM150.942 132.888H150.822C150.726 133.224 150.574 133.544 150.366 133.848C150.158 134.136 149.902 134.392 149.598 134.616C149.31 134.824 148.974 134.984 148.59 135.096C148.222 135.224 147.838 135.288 147.438 135.288C145.838 135.288 144.63 134.728 143.814 133.608C142.998 132.472 142.59 130.832 142.59 128.688C142.59 126.544 142.998 124.912 143.814 123.792C144.63 122.672 145.838 122.112 147.438 122.112C148.254 122.112 148.974 122.336 149.598 122.784C150.238 123.232 150.646 123.808 150.822 124.512H150.942V117.24H154.494V135H150.942V132.888ZM148.614 132.408C149.286 132.408 149.838 132.248 150.27 131.928C150.718 131.592 150.942 131.136 150.942 130.56V126.84C150.942 126.264 150.718 125.816 150.27 125.496C149.838 125.16 149.286 124.992 148.614 124.992C147.942 124.992 147.382 125.232 146.934 125.712C146.502 126.176 146.286 126.808 146.286 127.608V129.792C146.286 130.592 146.502 131.232 146.934 131.712C147.382 132.176 147.942 132.408 148.614 132.408Z" fill="black"/>
<path d="M49.14 72.04V80.62C49.14 81.7133 49.3467 82.5333 49.76 83.08C50.1867 83.6267 50.9 83.9 51.9 83.9C52.9 83.9 53.6067 83.6267 54.02 83.08C54.4467 82.5333 54.66 81.7133 54.66 80.62V72.04H57.26V80.28C57.26 81.3067 57.16 82.1933 56.96 82.94C56.7733 83.6867 56.4667 84.3067 56.04 84.8C55.6133 85.2933 55.0533 85.66 54.36 85.9C53.68 86.1267 52.8533 86.24 51.88 86.24C50.8933 86.24 50.06 86.1267 49.38 85.9C48.7133 85.66 48.1667 85.2933 47.74 84.8C47.3133 84.3067 47.0067 83.6867 46.82 82.94C46.6333 82.1933 46.54 81.3067 46.54 80.28V72.04H49.14ZM65.5086 86.24C64.5086 86.24 63.6686 86.0733 62.9886 85.74C62.3086 85.3933 61.7086 84.92 61.1886 84.32L62.7486 82.8C63.1353 83.24 63.5553 83.5867 64.0086 83.84C64.4753 84.0933 65.0086 84.22 65.6086 84.22C66.2219 84.22 66.6619 84.1133 66.9286 83.9C67.2086 83.6867 67.3486 83.3933 67.3486 83.02C67.3486 82.7133 67.2486 82.4733 67.0486 82.3C66.8619 82.1133 66.5353 81.9867 66.0686 81.92L65.0286 81.78C63.8953 81.6333 63.0286 81.3133 62.4286 80.82C61.8419 80.3133 61.5486 79.58 61.5486 78.62C61.5486 78.1133 61.6419 77.66 61.8286 77.26C62.0153 76.8467 62.2819 76.5 62.6286 76.22C62.9753 75.9267 63.3886 75.7067 63.8686 75.56C64.3619 75.4 64.9086 75.32 65.5086 75.32C66.0153 75.32 66.4619 75.36 66.8486 75.44C67.2486 75.5067 67.6086 75.6133 67.9286 75.76C68.2486 75.8933 68.5419 76.0667 68.8086 76.28C69.0753 76.48 69.3353 76.7067 69.5886 76.96L68.0886 78.46C67.7819 78.14 67.4153 77.8733 66.9886 77.66C66.5619 77.4467 66.0953 77.34 65.5886 77.34C65.0286 77.34 64.6219 77.44 64.3686 77.64C64.1286 77.84 64.0086 78.1 64.0086 78.42C64.0086 78.7667 64.1086 79.0333 64.3086 79.22C64.5219 79.3933 64.8753 79.52 65.3686 79.6L66.4286 79.74C68.6819 80.06 69.8086 81.0867 69.8086 82.82C69.8086 83.3267 69.7019 83.7933 69.4886 84.22C69.2886 84.6333 69.0019 84.9933 68.6286 85.3C68.2553 85.5933 67.8019 85.8267 67.2686 86C66.7486 86.16 66.1619 86.24 65.5086 86.24ZM78.0891 86.24C77.3157 86.24 76.6224 86.1133 76.0091 85.86C75.4091 85.5933 74.8957 85.2267 74.4691 84.76C74.0557 84.28 73.7357 83.7067 73.5091 83.04C73.2824 82.36 73.1691 81.6 73.1691 80.76C73.1691 79.9333 73.2757 79.1867 73.4891 78.52C73.7157 77.8533 74.0357 77.2867 74.4491 76.82C74.8624 76.34 75.3691 75.9733 75.9691 75.72C76.5691 75.4533 77.2491 75.32 78.0091 75.32C78.8224 75.32 79.5291 75.46 80.1291 75.74C80.7291 76.02 81.2224 76.4 81.6091 76.88C81.9957 77.36 82.2824 77.92 82.4691 78.56C82.6691 79.1867 82.7691 79.86 82.7691 80.58V81.42H75.8291V81.68C75.8291 82.44 76.0424 83.0533 76.4691 83.52C76.8957 83.9733 77.5291 84.2 78.3691 84.2C79.0091 84.2 79.5291 84.0667 79.9291 83.8C80.3424 83.5333 80.7091 83.1933 81.0291 82.78L82.4091 84.32C81.9824 84.92 81.3957 85.3933 80.6491 85.74C79.9157 86.0733 79.0624 86.24 78.0891 86.24ZM78.0491 77.24C77.3691 77.24 76.8291 77.4667 76.4291 77.92C76.0291 78.3733 75.8291 78.96 75.8291 79.68V79.84H80.1091V79.66C80.1091 78.94 79.9291 78.36 79.5691 77.92C79.2224 77.4667 78.7157 77.24 78.0491 77.24ZM93.3014 84.26H93.2014C93.0147 84.86 92.6614 85.34 92.1414 85.7C91.6214 86.06 91.0147 86.24 90.3214 86.24C89.0014 86.24 87.9881 85.7667 87.2814 84.82C86.5881 83.8733 86.2414 82.52 86.2414 80.76C86.2414 79.0133 86.5881 77.6733 87.2814 76.74C87.9881 75.7933 89.0014 75.32 90.3214 75.32C91.0147 75.32 91.6214 75.5 92.1414 75.86C92.6614 76.2067 93.0147 76.68 93.2014 77.28H93.3014V71.2H95.8614V86H93.3014V84.26ZM91.1414 84.12C91.7547 84.12 92.2681 83.9733 92.6814 83.68C93.0947 83.3867 93.3014 82.9667 93.3014 82.42V79.1C93.3014 78.5933 93.0947 78.1867 92.6814 77.88C92.2681 77.5733 91.7547 77.42 91.1414 77.42C90.4747 77.42 89.9347 77.6467 89.5214 78.1C89.1214 78.54 88.9214 79.1333 88.9214 79.88V81.68C88.9214 82.4267 89.1214 83.02 89.5214 83.46C89.9347 83.9 90.4747 84.12 91.1414 84.12Z" fill="black"/>
</svg>
