<svg width="220" height="220" viewBox="0 0 220 220" fill="none" xmlns="http://www.w3.org/2000/svg">
<path d="M82.7074 109.363V106.459H87.2194V95.2268H87.0034L83.5954 99.6908L81.2914 97.8908L85.2994 92.6108H90.8194V106.459H94.3714V109.363H82.7074ZM100.722 109.627C100.002 109.627 99.466 109.451 99.114 109.099C98.778 108.731 98.61 108.267 98.61 107.707V107.227C98.61 106.667 98.778 106.211 99.114 105.859C99.466 105.491 100.002 105.307 100.722 105.307C101.442 105.307 101.97 105.491 102.306 105.859C102.658 106.211 102.834 106.667 102.834 107.227V107.707C102.834 108.267 102.658 108.731 102.306 109.099C101.97 109.451 101.442 109.627 100.722 109.627ZM119.12 95.7548H111.512L111.152 101.059H111.344C111.504 100.659 111.68 100.299 111.872 99.9788C112.08 99.6428 112.32 99.3628 112.592 99.1388C112.864 98.8988 113.192 98.7148 113.576 98.5868C113.96 98.4588 114.416 98.3948 114.944 98.3948C115.664 98.3948 116.336 98.5148 116.96 98.7548C117.584 98.9948 118.128 99.3468 118.592 99.8108C119.056 100.259 119.424 100.819 119.696 101.491C119.968 102.147 120.104 102.891 120.104 103.723C120.104 104.571 119.96 105.363 119.672 106.099C119.4 106.819 118.984 107.443 118.424 107.971C117.88 108.499 117.208 108.915 116.408 109.219C115.608 109.507 114.696 109.651 113.672 109.651C112.856 109.651 112.136 109.563 111.512 109.387C110.888 109.211 110.336 108.979 109.856 108.691C109.376 108.387 108.96 108.043 108.608 107.659C108.256 107.275 107.952 106.867 107.696 106.435L110.312 104.371C110.68 105.027 111.12 105.587 111.632 106.051C112.144 106.499 112.832 106.723 113.696 106.723C114.56 106.723 115.208 106.475 115.64 105.979C116.088 105.483 116.312 104.827 116.312 104.011V103.819C116.312 103.051 116.088 102.443 115.64 101.995C115.192 101.547 114.576 101.323 113.792 101.323C113.136 101.323 112.592 101.459 112.16 101.731C111.744 101.987 111.424 102.243 111.2 102.499L108.248 102.091L108.872 92.6108H119.12V95.7548ZM127.438 109.363L139.054 92.6108H142.222L130.606 109.363H127.438ZM128.662 101.827C127.254 101.827 126.182 101.427 125.446 100.627C124.71 99.8268 124.342 98.6428 124.342 97.0748C124.342 95.5068 124.71 94.3228 125.446 93.5228C126.182 92.7228 127.254 92.3228 128.662 92.3228C130.07 92.3228 131.142 92.7228 131.878 93.5228C132.614 94.3228 132.982 95.5068 132.982 97.0748C132.982 98.6428 132.614 99.8268 131.878 100.627C131.142 101.427 130.07 101.827 128.662 101.827ZM128.662 99.7628C129.078 99.7628 129.39 99.6028 129.598 99.2828C129.806 98.9468 129.91 98.4188 129.91 97.6988V96.4508C129.91 95.7308 129.806 95.2108 129.598 94.8908C129.39 94.5548 129.078 94.3868 128.662 94.3868C128.246 94.3868 127.934 94.5548 127.726 94.8908C127.518 95.2108 127.414 95.7308 127.414 96.4508V97.6988C127.414 98.4188 127.518 98.9468 127.726 99.2828C127.934 99.6028 128.246 99.7628 128.662 99.7628ZM140.998 109.651C139.59 109.651 138.518 109.251 137.782 108.451C137.046 107.651 136.678 106.467 136.678 104.899C136.678 103.331 137.046 102.147 137.782 101.347C138.518 100.547 139.59 100.147 140.998 100.147C142.406 100.147 143.478 100.547 144.214 101.347C144.95 102.147 145.318 103.331 145.318 104.899C145.318 106.467 144.95 107.651 144.214 108.451C143.478 109.251 142.406 109.651 140.998 109.651ZM140.998 107.587C141.414 107.587 141.726 107.427 141.934 107.107C142.142 106.771 142.246 106.243 142.246 105.523V104.275C142.246 103.555 142.142 103.035 141.934 102.715C141.726 102.379 141.414 102.211 140.998 102.211C140.582 102.211 140.27 102.379 140.062 102.715C139.854 103.035 139.75 103.555 139.75 104.275V105.523C139.75 106.243 139.854 106.771 140.062 107.107C140.27 107.427 140.582 107.587 140.998 107.587ZM83.6227 129.363V127.79H84.7927V121.862H83.6227V120.289H87.9387V121.862H86.7687V127.79H87.9387V129.363H83.6227ZM90.6511 129.363V122.538H92.5751V123.695H92.6531C92.7744 123.339 92.9867 123.032 93.2901 122.772C93.5934 122.512 94.0137 122.382 94.5511 122.382C95.2531 122.382 95.7817 122.616 96.1371 123.084C96.5011 123.552 96.6831 124.219 96.6831 125.086V129.363H94.7591V125.242C94.7591 124.8 94.6897 124.475 94.5511 124.267C94.4124 124.05 94.1654 123.942 93.8101 123.942C93.6541 123.942 93.5024 123.963 93.3551 124.007C93.2077 124.041 93.0734 124.102 92.9521 124.189C92.8394 124.275 92.7484 124.384 92.6791 124.514C92.6097 124.635 92.5751 124.778 92.5751 124.943V129.363H90.6511ZM102.321 129.519C101.81 129.519 101.355 129.436 100.956 129.272C100.558 129.098 100.224 128.86 99.9552 128.557C99.6865 128.245 99.4829 127.868 99.3442 127.426C99.2055 126.984 99.1362 126.49 99.1362 125.944C99.1362 125.398 99.2055 124.908 99.3442 124.475C99.4829 124.033 99.6865 123.656 99.9552 123.344C100.224 123.032 100.558 122.793 100.956 122.629C101.355 122.464 101.81 122.382 102.321 122.382C103.015 122.382 103.591 122.538 104.05 122.85C104.518 123.162 104.852 123.599 105.051 124.163L103.491 124.839C103.431 124.579 103.305 124.358 103.114 124.176C102.924 123.994 102.659 123.903 102.321 123.903C101.931 123.903 101.637 124.033 101.437 124.293C101.238 124.544 101.138 124.886 101.138 125.32V126.594C101.138 127.027 101.238 127.369 101.437 127.621C101.637 127.872 101.931 127.998 102.321 127.998C102.668 127.998 102.941 127.907 103.14 127.725C103.348 127.534 103.5 127.287 103.595 126.984L105.09 127.634C104.865 128.284 104.514 128.76 104.037 129.064C103.569 129.367 102.997 129.519 102.321 129.519ZM107.451 129.363V122.538H109.375V124.02H109.44C109.475 123.829 109.535 123.647 109.622 123.474C109.709 123.292 109.821 123.131 109.96 122.993C110.107 122.854 110.281 122.746 110.48 122.668C110.679 122.581 110.913 122.538 111.182 122.538H111.52V124.332H111.039C110.476 124.332 110.055 124.405 109.778 124.553C109.509 124.7 109.375 124.973 109.375 125.372V129.363H107.451ZM116.66 129.519C116.14 129.519 115.677 129.436 115.269 129.272C114.862 129.098 114.515 128.86 114.229 128.557C113.952 128.245 113.74 127.868 113.592 127.426C113.454 126.984 113.384 126.49 113.384 125.944C113.384 125.406 113.454 124.921 113.592 124.488C113.731 124.046 113.935 123.669 114.203 123.357C114.481 123.045 114.819 122.806 115.217 122.642C115.616 122.468 116.071 122.382 116.582 122.382C117.146 122.382 117.627 122.477 118.025 122.668C118.433 122.858 118.762 123.114 119.013 123.435C119.273 123.755 119.46 124.128 119.572 124.553C119.694 124.969 119.754 125.406 119.754 125.866V126.438H115.373V126.542C115.373 126.992 115.495 127.352 115.737 127.621C115.98 127.881 116.361 128.011 116.881 128.011C117.28 128.011 117.605 127.933 117.856 127.777C118.108 127.612 118.342 127.417 118.558 127.192L119.52 128.388C119.217 128.743 118.818 129.02 118.324 129.22C117.839 129.419 117.284 129.519 116.66 129.519ZM116.621 123.799C116.231 123.799 115.924 123.929 115.698 124.189C115.482 124.44 115.373 124.778 115.373 125.203V125.307H117.765V125.19C117.765 124.774 117.67 124.44 117.479 124.189C117.297 123.929 117.011 123.799 116.621 123.799ZM127.327 129.363C126.981 129.363 126.69 129.254 126.456 129.038C126.231 128.821 126.088 128.531 126.027 128.167H125.949C125.845 128.609 125.616 128.947 125.26 129.181C124.905 129.406 124.467 129.519 123.947 129.519C123.263 129.519 122.738 129.337 122.374 128.973C122.01 128.609 121.828 128.128 121.828 127.53C121.828 126.81 122.088 126.277 122.608 125.931C123.137 125.575 123.852 125.398 124.753 125.398H125.832V124.969C125.832 124.639 125.746 124.379 125.572 124.189C125.399 123.989 125.109 123.89 124.701 123.89C124.32 123.89 124.017 123.972 123.791 124.137C123.566 124.301 123.38 124.488 123.232 124.696L122.088 123.682C122.366 123.274 122.712 122.958 123.128 122.733C123.553 122.499 124.125 122.382 124.844 122.382C125.815 122.382 126.543 122.594 127.028 123.019C127.514 123.443 127.756 124.063 127.756 124.878V127.868H128.393V129.363H127.327ZM124.662 128.18C124.983 128.18 125.256 128.11 125.481 127.972C125.715 127.833 125.832 127.608 125.832 127.296V126.49H124.896C124.142 126.49 123.765 126.745 123.765 127.257V127.452C123.765 127.703 123.843 127.889 123.999 128.011C124.155 128.123 124.376 128.18 124.662 128.18ZM133.169 129.519C132.51 129.519 131.955 129.415 131.505 129.207C131.054 128.99 130.651 128.687 130.296 128.297L131.427 127.153C131.669 127.421 131.938 127.634 132.233 127.79C132.527 127.946 132.861 128.024 133.234 128.024C133.615 128.024 133.879 127.967 134.027 127.855C134.174 127.733 134.248 127.573 134.248 127.374C134.248 127.053 134.018 126.862 133.559 126.802L132.818 126.711C131.284 126.52 130.517 125.818 130.517 124.605C130.517 124.275 130.577 123.976 130.699 123.708C130.829 123.43 131.006 123.196 131.232 123.006C131.466 122.806 131.743 122.655 132.064 122.551C132.393 122.438 132.761 122.382 133.169 122.382C133.524 122.382 133.836 122.408 134.105 122.46C134.382 122.503 134.625 122.572 134.833 122.668C135.049 122.754 135.244 122.867 135.418 123.006C135.6 123.136 135.777 123.283 135.951 123.448L134.846 124.579C134.629 124.362 134.382 124.193 134.105 124.072C133.836 123.942 133.559 123.877 133.273 123.877C132.943 123.877 132.709 123.929 132.571 124.033C132.432 124.137 132.363 124.275 132.363 124.449C132.363 124.631 132.41 124.774 132.506 124.878C132.61 124.973 132.8 125.042 133.078 125.086L133.845 125.19C135.344 125.389 136.094 126.074 136.094 127.244C136.094 127.573 136.024 127.876 135.886 128.154C135.747 128.431 135.548 128.674 135.288 128.882C135.036 129.081 134.729 129.237 134.365 129.35C134.009 129.462 133.611 129.519 133.169 129.519ZM141.422 129.519C140.902 129.519 140.439 129.436 140.031 129.272C139.624 129.098 139.277 128.86 138.991 128.557C138.714 128.245 138.502 127.868 138.354 127.426C138.216 126.984 138.146 126.49 138.146 125.944C138.146 125.406 138.216 124.921 138.354 124.488C138.493 124.046 138.697 123.669 138.965 123.357C139.243 123.045 139.581 122.806 139.979 122.642C140.378 122.468 140.833 122.382 141.344 122.382C141.908 122.382 142.389 122.477 142.787 122.668C143.195 122.858 143.524 123.114 143.775 123.435C144.035 123.755 144.222 124.128 144.334 124.553C144.456 124.969 144.516 125.406 144.516 125.866V126.438H140.135V126.542C140.135 126.992 140.257 127.352 140.499 127.621C140.742 127.881 141.123 128.011 141.643 128.011C142.042 128.011 142.367 127.933 142.618 127.777C142.87 127.612 143.104 127.417 143.32 127.192L144.282 128.388C143.979 128.743 143.58 129.02 143.086 129.22C142.601 129.419 142.046 129.519 141.422 129.519ZM141.383 123.799C140.993 123.799 140.686 123.929 140.46 124.189C140.244 124.44 140.135 124.778 140.135 125.203V125.307H142.527V125.19C142.527 124.774 142.432 124.44 142.241 124.189C142.059 123.929 141.773 123.799 141.383 123.799Z" fill="black"/>
<path d="M150.081 40.2141C136.305 32.2605 120.48 28.5706 104.607 29.611C88.7336 30.6514 73.5255 36.3753 60.9054 46.059C48.2854 55.7427 38.8203 68.9512 33.7071 84.0142C28.5939 99.0772 28.0623 115.318 32.1793 130.683C36.2964 146.049 44.8774 159.848 56.837 170.336C68.7967 180.824 83.5979 187.531 99.369 189.607C115.14 191.683 131.173 189.036 145.439 182.001C159.706 174.965 171.566 163.857 179.52 150.081C190.185 131.608 193.076 109.655 187.555 89.0506C182.034 68.4466 168.554 50.8796 150.081 40.2141V40.2141ZM165.589 142.038C158.139 154.926 146.451 164.832 132.516 170.068C118.582 175.304 103.263 175.546 89.1691 170.754C75.0756 165.961 63.08 156.43 55.226 143.785C47.372 131.139 44.1457 116.161 46.0968 101.404C48.0479 86.6462 55.0556 73.0217 65.926 62.8516C76.7964 52.6816 90.8568 46.5954 105.711 45.63C120.566 44.6646 135.296 48.8797 147.391 57.5572C159.487 66.2347 168.199 78.8376 172.044 93.2186C174.218 101.386 174.762 109.901 173.644 118.278C172.527 126.655 169.77 134.73 165.531 142.042L165.589 142.038Z" fill="#F1E8CF"/>
<path d="M150.526 40.5474C139.023 33.7596 126.005 29.9581 112.657 29.4892L112.073 45.5644C123.362 45.9915 134.341 49.3776 143.91 55.3834C153.478 61.3893 161.301 69.804 166.594 79.7847L180.796 72.2529C173.847 59.0777 163.365 48.0987 150.526 40.5474V40.5474Z" fill="#A8C956"/>
</svg>
