<svg width="240" height="240" viewBox="0 0 240 240" fill="none" xmlns="http://www.w3.org/2000/svg">
<path d="M195.068 179.801C186.233 190.902 175.043 199.904 162.307 206.155C149.571 212.407 135.606 215.754 121.42 215.954L121.78 239.955C141.517 239.676 160.88 234.528 178.15 224.968C195.42 215.407 210.062 201.731 220.778 185.152C222.211 182.932 223.564 180.671 224.838 178.371L203.838 166.671C201.283 171.283 198.35 175.675 195.068 179.801V179.801Z" fill="#A8C956"/>
<path d="M128.02 24.3115C143.218 25.5597 157.895 30.428 170.826 38.5095C183.757 46.591 194.566 57.6507 202.348 70.7644L222.968 58.4436C212.167 40.3753 196.803 25.4664 178.419 15.2133C160.035 4.96033 139.278 -0.276011 118.231 0.0298856L118.591 24.0314C121.737 23.9665 124.884 24.06 128.02 24.3115Z" fill="#A8C956"/>
<path d="M222.968 58.4436L202.348 70.7643C211.029 85.2384 215.705 101.761 215.898 118.637H215.978C216.215 135.47 212.021 152.07 203.818 166.77L224.818 178.471C235.077 160.069 240.309 139.288 239.986 118.221C239.663 97.1535 233.797 76.543 222.978 58.4636L222.968 58.4436Z" fill="#A8C956"/>
<path d="M75.9618 205.293C60.0555 197.074 46.7626 184.573 37.5828 169.201L16.9634 181.521C27.753 199.622 43.124 214.557 61.5264 224.822C79.9288 235.086 100.712 240.316 121.781 239.985L121.421 215.984C105.619 216.214 90.0048 212.542 75.9618 205.293V205.293Z" fill="#A8C956"/>
<path d="M65.502 40.9325C81.1222 30.1678 99.5829 24.276 118.551 24.0015L118.191 0C97.132 0.304642 76.5253 6.15141 58.4442 16.9519C40.3632 27.7524 25.4457 43.1253 15.1934 61.5238L36.1528 73.1946C43.3355 60.334 53.3769 49.296 65.502 40.9325V40.9325Z" fill="#A8C956"/>
<path d="M31.833 157.99C26.002 144.478 23.3587 129.806 24.1078 115.108C24.8569 100.411 28.9784 86.0833 36.1529 73.2346L15.2335 61.5538C4.95695 79.9471 -0.292845 100.723 0.0126074 121.791C0.31806 142.859 6.16797 163.474 16.9734 181.561L37.5829 169.201C35.4241 165.593 33.5034 161.848 31.833 157.99V157.99Z" fill="#A8C956"/>
<path d="M157.408 53.1831C157.735 46.9128 153.445 41.644 147.826 41.4149C142.207 41.1858 137.386 46.0832 137.059 52.3534C136.732 58.6237 141.022 63.8925 146.642 64.1216C152.261 64.3507 157.081 59.4534 157.408 53.1831Z" fill="#3A6742"/>
<path d="M131.964 56.4093C132.209 52.0673 129.091 48.4008 124.999 48.2199C120.908 48.0389 117.391 51.4122 117.146 55.7542C116.9 60.0962 120.018 63.7627 124.11 63.9437C128.202 64.1246 131.718 60.7513 131.964 56.4093Z" fill="#A8C956"/>
<path d="M113.108 62.9671C113.299 59.2998 110.653 56.2127 107.197 56.0718C103.741 55.9309 100.785 58.7896 100.594 62.4569C100.403 66.1241 103.049 69.2113 106.505 69.3522C109.96 69.4931 112.917 66.6344 113.108 62.9671Z" fill="#6B994D"/>
<path d="M97.9163 73.5217C98.086 70.2675 95.8017 67.5307 92.8142 67.4089C89.8267 67.287 87.2672 69.8264 87.0975 73.0806C86.9278 76.3348 89.2122 79.0716 92.1997 79.1935C95.1872 79.3153 97.7466 76.7759 97.9163 73.5217Z" fill="#6B994D"/>
<path d="M88.5805 86.381C88.726 83.5899 86.7583 81.2422 84.1855 81.1373C81.6127 81.0324 79.4091 83.21 79.2635 86.0011C79.118 88.7922 81.0857 91.1398 83.6585 91.2447C86.2313 91.3496 88.4349 89.1721 88.5805 86.381Z" fill="#A8C956"/>
<path d="M132.07 69.0643C123.739 68.6 113.141 73.4655 105.506 78.8656C105.688 79.5234 106.833 82.3622 107.22 83.2188C110.708 90.9282 118.07 97.0958 126.982 99.8369L127.087 99.8678L127.37 99.6656L127.087 99.8678C135.666 102.525 144.76 103.808 153.949 103.979C156.693 95.3654 158.254 83.582 152.206 76.1844C146.157 68.7868 138.095 69.4018 132.07 69.0643Z" fill="#A8C956" stroke="white" stroke-width="2"/>
<path d="M133.763 151.062C130.338 156.893 127.859 163.122 126.401 169.564C124.463 177.102 115.357 179.672 108.189 182.413C107.98 182.506 107.769 182.595 107.553 182.686C109.177 191.358 117.961 197.664 128.976 198.882C139.953 200.095 148.129 191.752 150.253 181.91C152.899 169.659 142.949 162.317 138.198 147.957C136.315 148.405 134.718 149.373 133.763 151.062Z" fill="#6B994D" stroke="white" stroke-width="2"/>
<path d="M118.07 131.189C117.27 129.154 116.097 127.25 114.598 125.552V125.552C109.268 119.532 100.369 116.897 91.4263 116.859C94.2724 125.386 99.3349 133.563 101.391 142.422C103.473 151.411 104.49 151.37 106.329 162.849C107.063 167.401 107.158 173.128 107.286 180.065C107.302 180.943 107.391 181.819 107.554 182.686C107.769 182.595 107.98 182.515 108.189 182.413C115.358 179.672 124.464 177.103 126.401 169.564C127.86 163.122 130.338 156.893 133.763 151.062C126.207 146.436 120.976 139.069 118.07 131.189Z" fill="#A8C956" stroke="white" stroke-width="2"/>
<path d="M153.95 103.981C144.76 103.81 135.666 102.525 127.087 99.8694C118.531 105.956 114.902 116.037 114.598 125.554C116.097 127.251 117.27 129.155 118.07 131.189C120.976 139.069 126.207 146.436 133.763 151.062C134.718 149.372 136.315 148.405 138.198 147.957C137.468 145.756 136.907 143.514 136.516 141.247C135.174 133.47 150.115 114.146 152.741 107.404C153.155 106.347 153.564 105.192 153.95 103.981Z" fill="#6B994D" stroke="white" stroke-width="2"/>
<path d="M114.598 125.552C114.902 116.035 118.531 105.955 127.087 99.8678L126.982 99.837C118.07 97.0958 110.708 90.9283 107.22 83.2189C106.833 82.3623 105.688 79.5235 105.506 78.8656C103.119 80.5272 100.913 82.3833 98.9184 84.4095C92.1741 91.4337 88.3244 101.309 89.793 110.401C90.1604 112.586 90.7069 114.744 91.4282 116.859C100.37 116.897 109.268 119.539 114.598 125.552Z" fill="#3A6742" stroke="white" stroke-width="2"/>
</svg>
