<svg width="240" height="240" viewBox="0 0 240 240" fill="none" xmlns="http://www.w3.org/2000/svg">
<path opacity="0.5" d="M195.022 179.764C186.188 190.867 174.999 199.869 162.263 206.12C149.527 212.371 135.561 215.714 121.376 215.909L121.735 239.955C141.467 239.676 160.824 234.529 178.089 224.971C195.354 215.413 209.992 201.739 220.704 185.163C222.134 182.944 223.473 180.684 224.753 178.384L203.76 166.686C201.212 171.279 198.29 175.653 195.022 179.764V179.764Z" fill="#E4E3E3"/>
<path d="M127.993 24.2965C143.193 25.5424 157.874 30.4084 170.81 38.4881C183.745 46.5677 194.56 57.6263 202.35 70.7399L222.963 58.4316C212.159 40.3519 196.786 25.4355 178.39 15.182C159.994 4.92855 139.223 -0.300675 118.166 0.0200139L118.526 24.0166C121.675 23.9466 124.834 24.0166 127.993 24.2965Z" fill="#A8C956"/>
<path d="M222.923 58.4316L202.35 70.7398C211.023 85.2165 215.698 101.737 215.896 118.613L215.966 118.563C216.205 135.392 212.016 151.987 203.819 166.686L224.813 178.384C235.074 159.987 240.307 139.211 239.986 118.148C239.665 97.0841 233.8 76.4771 222.983 58.4016L222.923 58.4316Z" fill="#A8C956"/>
<path opacity="0.5" d="M75.9498 205.25C60.0508 197.039 46.762 184.548 37.582 169.186L16.9685 181.504C27.7536 199.606 43.1204 214.545 61.5194 224.812C79.9183 235.08 100.699 240.313 121.765 239.985L121.375 215.909C105.588 216.144 89.9856 212.484 75.9498 205.25Z" fill="#E4E3E3"/>
<path opacity="0.5" d="M65.5032 40.9241C81.1048 30.1711 99.5413 24.2808 118.486 23.9966L118.127 0C97.0748 0.307613 76.4752 6.15442 58.3999 16.9523C40.3246 27.7503 25.411 43.1185 15.1592 61.5112L36.0925 73.1895C43.2857 60.316 53.35 49.2748 65.5032 40.9241V40.9241Z" fill="#E4E3E3"/>
<path opacity="0.5" d="M31.8438 157.997C26.0063 144.49 23.3592 129.82 24.1082 115.124C24.8572 100.428 28.982 86.1027 36.1624 73.2595L15.2291 61.5812C4.95552 79.9706 -0.292761 100.743 0.0126037 121.806C0.317968 142.869 6.1662 163.48 16.9685 181.564L37.582 169.246C35.4275 165.625 33.5108 161.867 31.8438 157.997V157.997Z" fill="#E4E3E3"/>
<path d="M156.408 54.1831C156.735 47.9128 152.445 42.644 146.826 42.4149C141.207 42.1858 136.386 47.0832 136.059 53.3534C135.732 59.6237 140.023 64.8925 145.642 65.1216C151.261 65.3507 156.081 60.4534 156.408 54.1831Z" fill="#F2F1F1"/>
<path d="M130.963 57.4093C131.209 53.0673 128.091 49.4008 123.999 49.2199C119.907 49.0389 116.391 52.4122 116.146 56.7542C115.9 61.0962 119.018 64.7627 123.11 64.9437C127.202 65.1246 130.718 61.7513 130.963 57.4093Z" fill="#F2F1F1"/>
<path d="M112.108 63.9671C112.299 60.2998 109.653 57.2127 106.197 57.0718C102.742 56.9309 99.7852 59.7896 99.5939 63.4569C99.4027 67.1241 102.049 70.2113 105.505 70.3522C108.96 70.4931 111.917 67.6344 112.108 63.9671Z" fill="#F2F1F1"/>
<path d="M96.9163 74.5217C97.086 71.2675 94.8017 68.5307 91.8142 68.4089C88.8267 68.287 86.2672 70.8264 86.0975 74.0806C85.9278 77.3348 88.2122 80.0716 91.1997 80.1935C94.1872 80.3153 96.7466 77.7759 96.9163 74.5217Z" fill="#F2F1F1"/>
<path d="M87.5805 87.381C87.726 84.5899 85.7583 82.2422 83.1855 82.1373C80.6127 82.0324 78.4091 84.21 78.2635 87.0011C78.118 89.7922 80.0857 92.1398 82.6585 92.2447C85.2313 92.3496 87.4349 90.1721 87.5805 87.381Z" fill="#F2F1F1"/>
<path d="M131.07 70.0643C122.739 69.6 112.141 74.4655 104.506 79.8656C104.688 80.5234 105.833 83.3622 106.22 84.2188C109.708 91.9282 117.07 98.0958 125.982 100.837L126.087 100.868L126.37 100.666L126.087 100.868C134.666 103.525 143.76 104.808 152.949 104.979C155.693 96.3654 157.254 84.582 151.206 77.1844C145.157 69.7868 137.095 70.4018 131.07 70.0643Z" fill="#F2F1F1" stroke="white" stroke-width="2"/>
<path d="M132.763 152.062C129.338 157.893 126.86 164.122 125.401 170.564C123.464 178.102 114.358 180.672 107.189 183.413C106.98 183.506 106.769 183.595 106.554 183.686C108.177 192.358 116.962 198.664 127.976 199.882C138.953 201.095 147.129 192.752 149.253 182.91C151.899 170.659 141.949 163.317 137.198 148.957C135.315 149.405 133.718 150.373 132.763 152.062Z" fill="#6B994D" stroke="white" stroke-width="2"/>
<path d="M117.07 132.189C116.27 130.154 115.097 128.25 113.598 126.552V126.552C108.268 120.532 99.3696 117.897 90.4264 117.859C93.2725 126.386 98.335 134.563 100.391 143.422C102.473 152.411 103.491 152.37 105.329 163.849C106.063 168.401 106.158 174.128 106.286 181.065C106.302 181.943 106.391 182.819 106.554 183.686C106.769 183.595 106.98 183.515 107.189 183.413C114.358 180.672 123.464 178.103 125.401 170.564C126.86 164.122 129.338 157.893 132.763 152.062C125.207 147.436 119.976 140.069 117.07 132.189Z" fill="#A8C956" stroke="white" stroke-width="2"/>
<path d="M152.949 104.981C143.76 104.81 134.666 103.525 126.087 100.869C117.531 106.956 113.902 117.037 113.598 126.554C115.097 128.251 116.27 130.155 117.07 132.189C119.976 140.069 125.207 147.436 132.763 152.062C133.718 150.372 135.315 149.405 137.198 148.957C136.468 146.756 135.907 144.514 135.516 142.247C134.174 134.47 149.115 115.146 151.741 108.404C152.155 107.347 152.564 106.192 152.949 104.981Z" fill="#F2F1F1" stroke="white" stroke-width="2"/>
<path d="M113.598 126.552C113.902 117.035 117.531 106.955 126.087 100.868L125.982 100.837C117.07 98.0958 109.708 91.9283 106.22 84.2189C105.833 83.3623 104.688 80.5235 104.506 79.8656C102.119 81.5272 99.9131 83.3833 97.9184 85.4095C91.1741 92.4337 87.3244 102.309 88.793 111.401C89.1604 113.586 89.7069 115.744 90.4282 117.859C99.3695 117.897 108.268 120.539 113.598 126.552Z" fill="#F2F1F1" stroke="white" stroke-width="2"/>
</svg>
