<svg width="28" height="160" viewBox="0 0 28 160" fill="none" xmlns="http://www.w3.org/2000/svg">
<g clip-path="url(#clip0_197_1822)">
<path d="M12.7522 20.4713C14.5596 18.751 12.0911 15.5692 14.261 14.539C17.7744 13.6357 17.3479 15.7772 19.5178 17.8375C19.1552 15.0871 18.2382 14.539 20.4081 12.1285C20.8996 12.0551 21.3832 11.9396 21.8529 11.7834C23.1645 10.1849 24.3747 9.41356 25.6436 9.24609C25.9794 9.88043 26.31 10.7025 26.1767 11.276C25.9048 12.367 25.5156 12.5345 25.9368 13.1638C26.358 13.793 27.6802 15.828 27.6802 15.828C27.6802 15.828 28.2506 16.8835 27.4669 17.0865C27.1075 17.1484 26.7671 17.2853 26.4699 17.4874C26.4699 17.4874 27.3762 18.6596 27.227 19.2585C27.0777 19.8573 26.6299 24.4955 24.0281 24.2418C21.4264 23.9881 20.9572 23.8663 20.9572 23.8663C20.9572 23.8663 20.5094 23.4857 20.0882 24.252C19.769 24.8654 19.3292 25.4149 18.7927 25.8708C18.4288 26.3465 18.1546 26.8788 17.9823 27.4439C17.8917 27.8144 17.801 28.8446 17.801 28.8446V30.2502L10.401 21.1158C11.5313 21.3492 11.8085 21.1361 12.7522 20.4713Z" fill="#DDC09B" stroke="black" stroke-width="0.5" stroke-miterlimit="10"/>
<path d="M6.40783 4.99353C7.33614 4.19569 8.14516 3.28048 8.81231 2.27348C8.81231 2.27348 9.95855 0.842426 11.43 0.471973C12.9015 0.101521 15.13 0.416155 16.2709 0.268989C17.4119 0.121823 18.2222 -0.0151974 18.974 0.416152C19.7257 0.8475 19.8483 1.47169 20.9892 1.7305C22.1302 1.98931 22.9459 2.10096 23.4257 2.74544C23.9055 3.38993 23.607 3.97351 24.5986 4.17649C25.5903 4.37948 26.198 4.74994 26.3686 5.55175C26.4682 6.02095 26.7335 6.44358 27.1204 6.74937C27.3336 7.00818 27.4829 7.03862 27.243 7.52579C27.0031 8.01296 26.8538 9.01268 25.9475 8.64223C25.0411 8.27178 25.6436 9.21567 25.6436 9.21567C25.6436 9.21567 25.3663 8.70821 25.6436 9.21567C24.3747 9.39836 23.1645 10.1697 21.853 11.753C21.3832 11.9092 20.8997 12.0247 20.4081 12.0981C18.2382 14.5086 19.1553 15.0566 19.5178 17.8071C17.3479 15.7468 17.8011 13.6611 14.261 14.5086C12.0911 15.5235 14.5596 18.7206 12.7522 20.4409C11.8246 21.1057 11.5313 21.3188 10.4011 21.1108L9.92655 20.5272C9.92655 20.5272 9.05754 20.583 8.90293 19.5528C8.74832 18.5227 8.90294 18.5379 8.48176 18.0964C8.06058 17.6549 8.72702 17.8376 8.09258 16.9241C7.84595 16.5 7.52081 16.1218 7.1329 15.8077C7.1329 15.8077 6.77038 15.7214 6.64775 14.7471C6.52513 13.7727 5.68811 13.2247 5.68811 12.6868C5.68811 12.1488 5.32557 10.0834 5.68811 9.71299C6.05064 9.34253 5.52814 7.93684 5.52814 7.93684C5.52814 7.93684 5.26691 5.8207 6.40783 4.99353Z" fill="#513A31" stroke="black" stroke-width="0.5" stroke-miterlimit="10"/>
<path d="M1.05518 47.083C1.01786 45.8346 2.92115 34.2542 3.29968 33.0616C4.30199 29.9458 7.03169 23.3436 10.1132 23.8866C12.1605 24.2469 16.5109 31.1231 20.0243 33.5285L23.8416 65.4483C23.905 65.9347 23.7633 66.4252 23.4475 66.8123C23.1318 67.1994 22.6676 67.4517 22.1569 67.5137C12.4377 68.5287 2.27072 66.2654 2.27072 66.2654L1.05518 47.083Z" fill="white" stroke="black" stroke-width="0.5" stroke-miterlimit="10"/>
<path d="M19.6617 33.6556L17.8063 34.8177L17.2199 34.4371C17.2199 34.4371 15.3326 34.2645 14.7035 33.0263C14.0743 31.7881 9.73991 25.8304 9.73991 25.8304L7.66065 24.6074L9.10547 20.0402C9.10547 20.0402 9.52665 20.9993 10.0331 20.5476L18.4141 30.6666L20.0935 33.0314L19.6617 33.6556Z" fill="white" stroke="black" stroke-width="0.5" stroke-miterlimit="10"/>
<path d="M23.3563 67.0772C23.3563 67.0772 24.3426 70.4011 23.3563 79.3782C22.37 88.3554 15.2366 148.952 15.2366 148.952L2.27592 149.653C2.27592 149.653 5.11225 123.701 4.52046 116.667C3.92867 109.634 4.28586 89.4566 3.10229 86.3712C1.91871 83.2858 -1.86659 75.0089 2.27059 66.2399L23.3563 67.0772Z" fill="white" stroke="black" stroke-width="0.5" stroke-miterlimit="10"/>
<path d="M10.4011 48.8844L8.70039 58.4603C8.63234 58.8201 8.65748 59.1902 8.77361 59.5386C8.88973 59.887 9.09334 60.2032 9.36682 60.4598L19.022 69.4724C19.405 69.8272 19.6479 70.2967 19.7098 70.802C19.8111 71.7256 19.7418 73.1668 18.4675 73.791L5.05372 64.1744C5.05372 64.1744 2.45198 62.7129 2.80919 60.5156C3.16639 58.3183 3.51827 49.1737 3.51827 49.1737L10.4011 48.8844Z" fill="#DDC09B" stroke="black" stroke-width="0.5" stroke-miterlimit="10"/>
<path d="M1.10306 49.1738L1.03375 44.5254C1.03375 44.5254 1.46561 26.4442 8.9829 30.5649C16.5002 34.6855 13.8611 48.3974 13.7812 49.1738H1.10306Z" fill="white" stroke="black" stroke-width="0.5" stroke-miterlimit="10"/>
<path d="M16.4362 15.4374C15.7805 14.6153 13.4666 13.6054 13.456 16.7162C13.456 19.2536 17.0174 20.2685 17.0227 19.081C17.0227 18.2995 16.7614 18.3147 16.7614 18.3147" stroke="black" stroke-width="0.5" stroke-miterlimit="10"/>
<path d="M15.5406 15.7213C15.5406 15.7213 15.3593 16.3151 14.9595 16.3912C14.5596 16.4673 14.2398 16.6906 14.5596 17.0864C14.8795 17.4822 14.6556 17.8222 15.1781 17.8019C15.7006 17.7816 16.1431 17.9187 16.1004 18.1267" stroke="black" stroke-width="0.5" stroke-miterlimit="10"/>
<path d="M24.0548 14.1989C23.8075 14.1989 23.607 14.008 23.607 13.7726C23.607 13.5372 23.8075 13.3463 24.0548 13.3463C24.3022 13.3463 24.5027 13.5372 24.5027 13.7726C24.5027 14.008 24.3022 14.1989 24.0548 14.1989Z" fill="#020202"/>
<path d="M27.2109 19.2686C26.3311 19.5532 25.3771 19.5532 24.4972 19.2686" stroke="#020202" stroke-width="0.5" stroke-miterlimit="10"/>
<path d="M13.616 149.054L23.3725 155.788C23.3725 155.788 30.2287 159.67 25.8569 159.848C22.5301 159.975 11.0836 159.731 5.80548 159.609C5.44773 159.603 5.09474 159.53 4.76683 159.394C4.43891 159.258 4.14253 159.061 3.89478 158.815C3.64702 158.569 3.45278 158.28 3.32321 157.962C3.19363 157.645 3.13129 157.306 3.13978 156.965L3.34237 149.653L13.616 149.054Z" fill="white" stroke="black" stroke-width="0.5" stroke-miterlimit="10"/>
</g>
<defs>
<clipPath id="clip0_197_1822">
<rect width="27.75" height="160" fill="white" transform="matrix(-1 0 0 1 28 0)"/>
</clipPath>
</defs>
</svg>
