<svg width="29" height="162" viewBox="0 0 29 162" fill="none" xmlns="http://www.w3.org/2000/svg">
<path d="M12.7575 21.4713C14.5649 19.751 12.0911 16.5692 14.261 15.539C17.7744 14.6357 17.3479 16.7772 19.5178 18.8375C19.1606 16.0871 18.2382 15.539 20.4081 13.1285C20.9015 13.0556 21.3869 12.9401 21.8582 12.7834C23.1644 11.1849 24.38 10.4136 25.6436 10.2461C25.9848 10.8804 26.3153 11.7025 26.1767 12.276C25.9048 13.367 25.5156 13.5345 25.9314 14.1638C26.3473 14.793 27.6801 16.828 27.6801 16.828C27.6801 16.828 28.2506 17.8835 27.4669 18.0865C27.107 18.1466 26.7661 18.2837 26.4699 18.4874C26.4699 18.4874 27.3763 19.6596 27.227 20.2585C27.0777 20.8573 26.6245 25.4955 24.0281 25.2418C21.4317 24.9881 20.9626 24.8663 20.9626 24.8663C20.9626 24.8663 20.5147 24.4857 20.0936 25.252C19.7724 25.8643 19.3329 26.4135 18.798 26.8708C18.4341 27.3465 18.1599 27.8788 17.9876 28.4439C17.897 28.8144 17.8064 29.8446 17.8064 29.8446V31.2502L10.4011 22.1158C11.5313 22.3492 11.8299 22.1361 12.7575 21.4713Z" fill="#DDC09B" stroke="black" stroke-width="0.5" stroke-miterlimit="10"/>
<path d="M6.42374 5.99349C7.35047 5.19421 8.15929 4.27922 8.82821 3.27345C9.49746 2.44364 10.402 1.81329 11.4353 1.45671C12.9067 1.08626 15.1299 1.4009 16.2709 1.25373C17.4118 1.10656 18.2275 0.969544 18.9792 1.40089C19.7309 1.83224 19.8482 2.45643 20.9945 2.71524C22.1407 2.97405 22.9458 3.0857 23.4256 3.73018C23.9054 4.37467 23.6069 4.95825 24.5985 5.16123C25.5902 5.36422 26.1979 5.73469 26.3739 6.53649C26.4734 7.00569 26.7387 7.42832 27.1256 7.73411C27.3335 7.99292 27.4882 8.02337 27.2482 8.51054C27.0083 8.99771 26.8537 9.99743 25.9527 9.62697C25.0517 9.25652 25.6435 10.2004 25.6435 10.2004C25.6435 10.2004 25.3716 9.69295 25.6435 10.2004C24.3799 10.3831 23.1644 11.1545 21.8582 12.7378C21.3868 12.8944 20.9014 13.0099 20.408 13.0828C18.2381 15.4933 19.1605 16.0414 19.5177 18.7919C17.3478 16.7315 17.8063 14.6458 14.2609 15.4933C12.091 16.5083 14.5648 19.7053 12.7575 21.4256C11.8298 22.0904 11.5312 22.3036 10.401 22.0955L9.93181 21.5119C9.93181 21.5119 9.05746 21.5677 8.90818 20.5376C8.7589 19.5074 8.90818 19.5226 8.487 19.0811C8.06581 18.6396 8.72691 18.8223 8.09781 17.9089C7.84891 17.4848 7.52207 17.1066 7.13282 16.7924C7.13282 16.7924 6.77561 16.7062 6.65299 15.7318C6.53036 14.7575 5.69334 14.2094 5.69334 13.6715C5.69334 13.1336 5.3308 11.0682 5.69334 10.6977C6.05588 10.3273 5.5334 8.92158 5.5334 8.92158C5.5334 8.92158 5.27216 6.82067 6.42374 5.99349Z" fill="#513A31" stroke="black" stroke-width="0.5" stroke-miterlimit="10"/>
<path d="M1.05506 48.083C1.01774 46.8346 2.92105 35.2542 3.30491 34.0616C4.30722 30.9458 7.0369 24.3436 10.1185 24.8866C12.1604 25.2469 16.5162 32.1231 20.0296 34.5285L23.8468 66.4483C23.9102 66.9355 23.7677 67.4266 23.4508 67.8139C23.134 68.2012 22.6685 68.4529 22.1568 68.5137C12.443 69.5287 2.27596 67.2653 2.27596 67.2653L1.05506 48.083Z" fill="white" stroke="black" stroke-width="0.5" stroke-miterlimit="10"/>
<path d="M19.6617 34.6554L17.8117 35.8175L17.2252 35.4369C17.2252 35.4369 15.3379 35.2643 14.7088 34.0261C14.0797 32.7879 9.73995 26.8302 9.73995 26.8302L7.66603 25.6072L9.10551 21.04C9.10551 21.04 9.53202 21.9991 10.0332 21.5474L18.4195 31.6765L20.0989 34.0413L19.6617 34.6554Z" fill="white" stroke="black" stroke-width="0.5" stroke-miterlimit="10"/>
<path d="M23.3563 68.0771C23.3563 68.0771 24.3426 71.401 23.3563 80.3781C22.37 89.3552 15.2419 149.952 15.2419 149.952L2.27592 150.652C2.27592 150.652 5.11756 124.7 4.52577 117.667C3.93399 110.633 4.28586 90.4565 3.10762 87.371C1.92937 84.2856 -1.86659 76.0088 2.27592 67.2397L23.3563 68.0771Z" fill="url(#paint0_linear_197_1842)" stroke="black" stroke-width="0.5" stroke-miterlimit="10"/>
<path d="M10.4011 49.8843L8.70567 59.4602C8.63762 59.82 8.66275 60.1901 8.77887 60.5385C8.895 60.8869 9.09862 61.2031 9.3721 61.4597L19.022 70.4723C19.4086 70.8245 19.6522 71.2954 19.7097 71.8019C19.8163 72.7255 19.747 74.1667 18.4728 74.7909L5.05365 65.1743C5.05365 65.1743 2.45726 63.7128 2.80913 61.5155C3.16101 59.3181 3.51821 50.1735 3.51821 50.1735L10.4011 49.8843Z" fill="#DDC09B" stroke="black" stroke-width="0.5" stroke-miterlimit="10"/>
<path d="M1.09233 50.1738L1.01769 45.5254C1.01769 45.5254 1.45487 27.4442 8.97216 31.5649C16.4895 35.6855 13.8504 49.3973 13.7704 50.1738H1.09233Z" fill="white" stroke="black" stroke-width="0.5" stroke-miterlimit="10"/>
<path d="M16.4362 16.4372C15.7805 15.6151 13.472 14.6052 13.456 17.716C13.456 20.2534 17.0174 21.2683 17.0227 20.0808C17.0227 19.2993 16.7668 19.3146 16.7668 19.3146" stroke="black" stroke-width="0.5" stroke-miterlimit="10"/>
<path d="M15.5247 16.7212C15.5247 16.7212 15.3434 17.3149 14.9382 17.3911C14.533 17.4672 14.2185 17.6905 14.5383 18.0863C14.8582 18.4821 14.6396 18.8221 15.1621 18.8018C15.6846 18.7815 16.1218 18.9185 16.0844 19.1266" stroke="black" stroke-width="0.5" stroke-miterlimit="10"/>
<path d="M24.0548 15.1987C23.8075 15.1987 23.607 15.0079 23.607 14.7725C23.607 14.537 23.8075 14.3462 24.0548 14.3462C24.3022 14.3462 24.5027 14.537 24.5027 14.7725C24.5027 15.0079 24.3022 15.1987 24.0548 15.1987Z" fill="#020202"/>
<path d="M27.2163 20.2686C26.3365 20.5532 25.3825 20.5532 24.5026 20.2686" stroke="#020202" stroke-width="0.5" stroke-miterlimit="10"/>
<path d="M13.6265 150.054L23.383 156.788C23.383 156.788 30.2392 160.67 25.8674 160.848C22.5353 160.974 11.0941 160.731 5.81598 160.609C5.458 160.604 5.10468 160.531 4.77644 160.395C4.4482 160.259 4.15155 160.062 3.90366 159.816C3.65577 159.571 3.46154 159.28 3.33223 158.963C3.20291 158.645 3.14106 158.306 3.15027 157.965L3.34753 150.653L13.6265 150.054Z" fill="#00B937" stroke="black" stroke-width="0.5" stroke-miterlimit="10"/>
<defs>
<linearGradient id="paint0_linear_197_1842" x1="12.0324" y1="83.8086" x2="11.8633" y2="112.937" gradientUnits="userSpaceOnUse">
<stop stop-color="white"/>
<stop offset="1" stop-color="#00B939"/>
</linearGradient>
</defs>
</svg>
