<svg width="29" height="162" viewBox="0 0 29 162" fill="none" xmlns="http://www.w3.org/2000/svg">
<path d="M12.8507 21.458C14.647 19.7388 12.1883 16.5591 14.3449 15.5246C17.8369 14.6219 17.4129 16.762 19.5696 18.826C19.2093 16.0723 18.2979 15.5246 20.4545 13.1208C20.9432 13.0481 21.4238 12.9326 21.8905 12.7759C23.194 11.1734 24.4021 10.4076 25.6579 10.2402C25.9971 10.8741 26.3256 11.6957 26.1878 12.2992C25.9229 13.3844 25.5308 13.5569 25.9494 14.1857C26.368 14.8146 27.6821 16.8431 27.6821 16.8431C27.6821 16.8431 28.2491 17.903 27.4754 18.1008C27.1187 18.164 26.7806 18.3007 26.4846 18.5014C26.4846 18.5014 27.3854 19.6729 27.237 20.2764C27.0886 20.8799 26.6382 25.51 24.0577 25.2513C21.4772 24.9927 21.0109 24.8811 21.0109 24.8811C21.0109 24.8811 20.5605 24.5008 20.1419 25.2615C19.8255 25.8737 19.3903 26.4227 18.8595 26.8792C18.4978 27.3546 18.2253 27.8866 18.0541 28.4513C17.964 28.8266 17.874 29.8561 17.874 29.8561V31.2558L10.5139 22.1274C11.6319 22.3302 11.9234 22.1173 12.8507 21.458Z" fill="#DDC09B" stroke="black" stroke-width="0.5" stroke-miterlimit="10"/>
<path d="M6.5451 5.98523C7.46679 5.18895 8.27075 4.27616 8.93485 3.27207C9.60434 2.4472 10.5047 1.82115 11.5313 1.46668C12.9991 1.09648 15.2087 1.4109 16.3426 1.2689C17.4766 1.12691 18.2873 0.979837 19.0344 1.4109C19.7816 1.84196 19.8982 2.4708 21.0374 2.72437C22.1767 2.97793 22.9768 3.09965 23.4537 3.73864C23.9306 4.37762 23.6338 4.97096 24.6194 5.16874C25.605 5.36652 26.2091 5.74181 26.3839 6.54308C26.4809 7.0141 26.7448 7.43865 27.1311 7.74497C27.3377 8.00361 27.4861 8.02896 27.2476 8.51581C27.0092 9.00265 26.8608 10.0017 25.9653 9.6315C25.0698 9.2613 25.658 10.2046 25.658 10.2046C25.658 10.2046 25.3878 9.69743 25.658 10.2046C24.4022 10.3922 23.194 11.158 21.8905 12.7402C21.4239 12.897 20.9432 13.0124 20.4545 13.0851C18.2979 15.4889 19.2093 16.0366 19.5696 18.7903C17.413 16.7263 17.8687 14.642 14.345 15.4889C12.1883 16.5031 14.647 19.7031 12.8507 21.4223C11.9234 22.0816 11.632 22.2946 10.5086 22.0867L10.0423 21.5085C10.0423 21.5085 9.17332 21.5643 9.02496 20.5348C8.87659 19.5054 9.02494 19.5206 8.60633 19.0743C8.18772 18.628 8.84479 18.8207 8.21952 17.9028C7.96958 17.4807 7.64508 17.1032 7.26044 16.7871C7.26044 16.7871 6.9001 16.7009 6.78353 15.7323C6.66695 14.7637 5.82444 14.2109 5.82444 13.6733C5.82444 13.1358 5.46942 11.0667 5.82444 10.6965C6.17946 10.3263 5.66548 8.92658 5.66548 8.92658C5.66548 8.92658 5.41116 6.82199 6.5451 5.98523Z" fill="#513A31" stroke="black" stroke-width="0.5" stroke-miterlimit="10"/>
<path d="M1.21975 48.0519C1.18265 46.7993 3.07435 35.2265 3.45587 34.0348C4.44675 30.921 7.16504 24.3283 10.2225 24.8709C12.2572 25.2259 16.5811 32.0975 20.073 34.5064L23.8723 66.405C23.9353 66.8924 23.7939 67.3838 23.479 67.7717C23.1642 68.1595 22.7016 68.4121 22.1925 68.4741C12.5328 69.4884 2.4332 67.2215 2.4332 67.2215L1.21975 48.0519Z" fill="#00B937" stroke="black" stroke-width="0.5" stroke-miterlimit="10"/>
<path d="M19.7128 34.6282L17.8741 35.7946L17.2912 35.4092C17.2912 35.4092 15.4154 35.2368 14.7901 33.9994C14.1649 32.762 9.84103 26.793 9.84103 26.793L7.77978 25.5759L9.21047 21.0117C9.21047 21.0117 9.63437 21.9702 10.1325 21.5189L18.4781 31.6716L20.142 34.0349L19.7128 34.6282Z" fill="#00B937" stroke="black" stroke-width="0.5" stroke-miterlimit="10"/>
<path d="M13.3964 150.056L23.088 156.786C23.088 156.786 29.9023 160.665 25.5572 160.843C22.2455 160.975 10.8741 160.731 5.6283 160.605C5.27252 160.599 4.92136 160.527 4.59512 160.391C4.26888 160.255 3.97407 160.058 3.72769 159.812C3.48131 159.567 3.28827 159.277 3.15974 158.959C3.03121 158.642 2.96974 158.303 2.97889 157.962L3.15376 150.67L13.3964 150.056Z" fill="#00B937" stroke="black" stroke-width="0.5" stroke-miterlimit="10"/>
<path d="M23.2151 68.2557C23.2151 68.2557 24.1954 71.5774 23.2151 80.5486C22.2348 89.5197 15.1397 150.076 15.1397 150.076L2.25819 150.776C2.25819 150.776 5.07718 124.841 4.48901 117.813C3.90084 110.784 4.25584 90.6202 3.0795 87.5369C1.90316 84.4535 -1.85901 76.1822 2.25288 67.4189L23.2151 68.2557Z" fill="#00B937" stroke="black" stroke-width="0.5" stroke-miterlimit="10"/>
<path d="M10.5086 49.8472L8.81824 59.4218C8.75309 59.7809 8.77978 60.1498 8.89605 60.4969C9.01233 60.844 9.21472 61.1589 9.4859 61.4148L19.0768 70.4367C19.4564 70.7899 19.6977 71.2572 19.7603 71.7603C19.8663 72.6833 19.7974 74.1286 18.531 74.7524L5.19382 65.1169C5.19382 65.1169 2.61331 63.6564 2.96303 61.4656C3.31276 59.2747 3.66776 50.1058 3.66776 50.1058L10.5086 49.8472Z" fill="#DDC09B" stroke="black" stroke-width="0.5" stroke-miterlimit="10"/>
<path d="M1.27268 50.1258L1.19849 45.4804C1.19849 45.4804 1.63299 27.4113 9.10434 31.5292C16.5757 35.6472 13.9528 49.3499 13.8733 50.1258H1.27268Z" fill="#00B937" stroke="black" stroke-width="0.5" stroke-miterlimit="10"/>
<path d="M16.5068 16.4222C15.8551 15.6057 13.5554 14.5965 13.5448 17.7001C13.5448 20.2358 17.0844 21.2501 17.0897 20.0634C17.0897 19.2824 16.8301 19.3027 16.8301 19.3027" stroke="black" stroke-width="0.5" stroke-miterlimit="10"/>
<path d="M15.5955 16.7109C15.5955 16.7109 15.4154 17.2992 15.0179 17.3753C14.6205 17.4513 14.3026 17.6745 14.6205 18.07C14.9385 18.4656 14.7212 18.8054 15.2405 18.7851C15.7598 18.7648 16.1943 18.9018 16.1572 19.1097" stroke="black" stroke-width="0.5" stroke-miterlimit="10"/>
<path d="M24.0788 15.1899C23.833 15.1899 23.6337 14.9991 23.6337 14.7639C23.6337 14.5286 23.833 14.3379 24.0788 14.3379C24.3246 14.3379 24.5239 14.5286 24.5239 14.7639C24.5239 14.9991 24.3246 15.1899 24.0788 15.1899Z" fill="#020202"/>
<path d="M27.2211 20.2559C26.3448 20.5403 25.395 20.5403 24.5187 20.2559" stroke="#020202" stroke-width="0.5" stroke-miterlimit="10"/>
<path d="M10.3708 65.0306C10.1959 64.8176 10.0158 64.7365 9.84089 65.0306C9.65096 65.2899 9.54414 65.5965 9.53355 65.913C9.42227 66.6128 9.53357 67.0946 9.22624 66.9881C8.91891 66.8816 8.90828 66.9881 9.09904 67.3279C9.2898 67.6677 9.13614 67.9618 9.84089 67.9162C10.5456 67.8705 10.6834 67.7488 10.9007 68.0886C11.1179 68.4284 11.8121 69.0623 12.0611 68.5298C12.3101 67.9973 13.1209 67.4141 12.591 66.8867C12.0611 66.3593 12.4055 66.1767 12.7128 65.7558C13.0202 65.3349 12.6122 65.2487 12.1088 65.2892C11.6054 65.3298 11.7908 64.275 11.3193 64.9647C11.2727 65.0429 11.2068 65.1089 11.1273 65.1569C11.0478 65.2049 10.9572 65.2334 10.8634 65.2399C10.7696 65.2464 10.6756 65.2308 10.5897 65.1942C10.5038 65.1577 10.4286 65.1015 10.3708 65.0306Z" fill="#00B937"/>
<path d="M15.6696 67.4547C15.3623 67.3735 15.3993 67.6474 14.9013 67.8908C14.4032 68.1342 14.2283 68.4791 14.0057 68.1342C13.7832 67.7894 13.7143 67.8249 13.6984 68.1799C13.6825 68.5349 13.3752 68.5349 14.0428 69.1941C14.7105 69.8534 14.9118 69.9092 14.9171 70.2895C14.9224 70.6699 15.198 71.6537 15.7279 71.6233C16.2578 71.5929 17.3493 72.0898 17.148 71.3038C16.9466 70.5177 17.3811 70.7967 17.9057 70.8575C18.4303 70.9184 18.0965 70.5178 17.6196 70.0461C17.1427 69.5745 17.9269 69.539 17.4288 69.0826C16.8459 68.5501 15.9133 67.5155 15.6696 67.4547Z" fill="#00B937"/>
<path d="M9.01951 61.024C9.01951 61.024 8.09221 61.4195 8.48962 61.9368C8.88704 62.4541 8.87112 62.3375 8.66977 62.6874C8.46841 63.0373 8.52672 63.4633 8.92413 63.3974C9.32154 63.3314 9.68184 63.4633 9.66064 63.1337C9.63945 62.804 9.4434 62.591 9.69774 62.5454C9.95208 62.4997 10.0263 62.4389 10.1905 62.6367C10.3548 62.8344 10.2753 62.9967 10.4396 62.8497C10.6039 62.7026 10.5085 62.5961 10.5085 62.5961L9.01951 61.024Z" fill="#00B937"/>
<path d="M7.00071 65.259C6.58211 65.1575 6.65629 64.9141 6.47083 64.5895C6.28537 64.265 6.13169 64.1483 5.69719 64.3005C5.62042 64.3327 5.55122 64.3794 5.4937 64.4378C5.43617 64.4962 5.39149 64.565 5.36232 64.6402C5.33316 64.7155 5.32008 64.7955 5.3239 64.8757C5.32772 64.9558 5.34837 65.0344 5.38458 65.1068C5.7078 65.3604 6.80464 66.2631 7.31333 66.3696C7.82201 66.4761 8.14526 66.2073 8.02869 65.8624C7.91211 65.5176 7.00071 65.259 7.00071 65.259Z" fill="#00B937"/>
<path d="M6.7251 53.326C7.35566 52.7732 7.55171 52.3117 6.94764 52.3117C6.16872 52.2762 7.51464 51.4293 7.10133 51.2214C6.68802 51.0134 6.51314 50.5672 7.01653 50.3643C7.30797 50.2426 7.72129 50.6838 8.1187 50.9627C8.51611 51.2417 8.57971 49.7558 9.25796 50.2477C9.73486 50.5925 9.0301 51.4039 9.90971 51.5206C10.7893 51.6372 8.81285 52.0784 9.64477 52.4081C10.4767 52.7377 9.32684 54.4366 8.84994 53.7367C8.64859 53.4477 8.39953 53.5998 8.04451 53.6556C7.6047 53.7317 7.42456 55.0147 6.73571 54.3149C6.04686 53.615 6.7251 53.326 6.7251 53.326Z" fill="#00B937"/>
<path d="M8.15596 58.5749C6.93723 58.4532 9.09386 57.8548 7.86453 57.4745C6.6352 57.0941 6.88424 55.0402 7.92281 55.8567C8.35732 56.1965 8.90841 55.9531 9.28992 55.8567C9.31112 55.4104 9.31111 58.6865 8.15596 58.5749Z" fill="#00B937"/>
<path d="M4.97661 58.6663C5.45351 59.4219 4.64278 60.1623 5.56478 60.8317C6.48677 61.5012 4.36726 60.9788 5.21507 61.9119C6.06288 62.8451 4.72757 64.478 4.28247 63.2609C4.09701 62.7538 3.83735 62.8146 3.46643 62.6929C3.39224 62.6676 3.33926 62.7791 3.14321 62.5053C2.88886 61.633 3.39227 60.5275 3.92215 59.1328C4.19769 58.9909 4.41494 57.7839 4.97661 58.6663Z" fill="#00B937"/>
<path d="M15.8712 22.2842C15.691 22.0712 15.5161 21.99 15.3413 22.2842C15.1506 22.545 15.0438 22.8535 15.0339 23.1717C14.9227 23.8664 15.0339 24.3482 14.7266 24.2468C14.4193 24.1453 14.4034 24.2468 14.5994 24.5815C14.7955 24.9162 14.6365 25.2154 15.3413 25.1698C16.046 25.1241 16.1838 25.0024 16.401 25.3422C16.6183 25.682 17.3124 26.3159 17.5615 25.7834C17.8105 25.2509 18.6213 24.6677 18.0914 24.1403C17.5615 23.6129 17.9112 23.4354 18.2185 23.0094C18.5259 22.5834 18.1179 22.5022 17.6092 22.5428C17.1005 22.5834 17.2965 21.5286 16.8249 22.2233C16.7782 22.3022 16.7117 22.3688 16.6315 22.417C16.5512 22.4652 16.4597 22.4937 16.3652 22.4997C16.2706 22.5057 16.176 22.4892 16.0898 22.4516C16.0035 22.414 15.9284 22.3564 15.8712 22.2842Z" fill="#00B937"/>
<path d="M16.544 3.98193C16.3692 3.76894 16.1943 3.68779 16.0406 3.98193C15.8452 4.24079 15.7362 4.55017 15.728 4.86941C15.622 5.56418 15.728 6.04595 15.4207 5.94453C15.1133 5.8431 15.1027 5.94453 15.2935 6.27924C15.4843 6.61394 15.3359 6.91316 16.0406 6.87259C16.7454 6.83202 16.8779 6.70016 17.1004 7.03993C17.323 7.37971 18.0171 8.01362 18.2608 7.48114C18.5046 6.94865 19.3206 6.36545 18.7907 5.83803C18.2608 5.31062 18.6053 5.13312 18.9126 4.70712C19.2199 4.28113 18.8172 4.2 18.3085 4.24057C17.7998 4.28114 17.9959 3.22631 17.519 3.92108C17.4735 4.00424 17.4064 4.07481 17.3241 4.126C17.2419 4.17719 17.1472 4.20729 17.0494 4.2134C16.9515 4.21951 16.8536 4.20142 16.7651 4.16088C16.6766 4.12035 16.6005 4.05873 16.544 3.98193Z" fill="#00B937"/>
<path d="M21.7475 16.2293C21.7104 15.8946 21.5832 15.6461 21.2176 15.6613C21.0478 15.6342 20.874 15.64 20.7065 15.6783C20.539 15.7167 20.3813 15.7867 20.2426 15.8844C19.6174 16.2039 19.3789 16.6401 19.1246 16.2293C18.8702 15.8185 18.7854 15.8692 18.743 16.3003C18.7007 16.7313 18.3244 16.7516 19.1087 17.5123C19.8929 18.273 20.1313 18.344 20.1207 18.8004C20.1102 19.2569 20.3857 20.4486 21.0375 20.3878C21.6892 20.3269 23.0033 20.8695 22.8073 19.9212C22.6112 18.9729 23.1252 19.2619 23.761 19.338C24.3969 19.4141 24.0154 18.912 23.4537 18.3592C22.892 17.8065 23.8511 17.345 22.8444 17.2689C22.568 17.2339 22.3113 17.1134 22.1132 16.9257C21.9152 16.738 21.7867 16.4934 21.7475 16.2293Z" fill="#00B937"/>
<path d="M23.3637 25.0433C23.3637 25.0433 23.8035 24.171 23.1359 24.029C22.4682 23.887 22.5742 23.9529 22.4947 23.5675C22.4152 23.1821 22.0867 22.8778 21.8218 23.177C21.5568 23.4762 21.1965 23.5878 21.4403 23.8312C21.684 24.0747 21.9701 24.1152 21.8006 24.3029C21.631 24.4905 21.6204 24.5868 21.3608 24.5361C21.1011 24.4854 21.0534 24.313 21.0322 24.5361C21.011 24.7593 21.1435 24.7745 21.1435 24.7745L23.3637 25.0433Z" fill="#00B937"/>
<path d="M11.7222 23.3898C11.7222 23.3898 12.6866 23.0855 12.3209 22.5277C11.9553 21.9698 11.9818 22.0915 12.2203 21.767C12.4587 21.4424 12.4481 21.0063 12.0454 21.0316C11.6427 21.057 11.2983 20.8896 11.2877 21.2243C11.2771 21.5591 11.4413 21.7873 11.187 21.8025C10.9326 21.8177 10.8479 21.8785 10.7048 21.6655C10.5617 21.4526 10.6571 21.3004 10.4823 21.4323C10.3074 21.5641 10.3816 21.6757 10.3816 21.6757L11.7222 23.3898Z" fill="#00B937"/>
<path d="M25.3719 9.86475C25.3719 9.86475 24.1266 9.99153 24.3863 10.7066C24.6247 11.3405 24.6247 11.2137 24.2803 11.4876C23.9359 11.7614 23.8617 12.1215 24.2803 12.1621C24.6989 12.2026 24.9639 12.3852 25.0751 12.1164C25.1864 11.8476 25.0751 11.6093 25.3613 11.6093C25.6474 11.6093 25.7269 11.6093 25.7852 11.8121C25.8435 12.015 25.6951 12.1265 25.907 12.0454C26.119 11.9643 26.0978 11.8527 26.0978 11.8527C26.0404 11.1409 25.7902 10.4558 25.3719 9.86475Z" fill="#00B937"/>
<path d="M18.0013 28.1215C18.0013 28.1215 16.7932 26.6001 16.7773 27.3557C16.7773 28.0302 16.3534 26.3668 15.9295 26.4987C15.5056 26.6305 14.8697 27.4014 15.2354 27.5738C15.5056 27.8122 16.5389 29.293 16.7773 29.4096C16.9098 29.6429 17.7364 30.5659 17.7364 30.5659C17.6991 29.7431 17.7883 28.9195 18.0013 28.1215Z" fill="#00B937"/>
<path d="M24.4022 5.22958C23.6975 5.06222 23.8194 4.65146 23.5067 4.10376C23.1941 3.55606 22.9345 3.34813 22.1979 3.59663C21.4614 3.84512 21.4614 4.87459 21.668 4.96588C22.4152 5.30565 22.4311 6.041 22.0707 6.08157C21.7104 6.12214 21.3289 6.33513 21.3289 6.67491C21.3289 7.34939 22.1555 7.60297 22.8603 7.06541C23.92 6.24893 24.0737 6.9234 24.9427 7.10089C25.8117 7.27839 26.3469 6.82704 26.1508 6.21341C25.9548 5.59979 24.4022 5.22958 24.4022 5.22958Z" fill="#00B937"/>
<path d="M12.252 6.31481C11.8228 6.37566 11.791 6.1221 11.4942 5.88882C11.1975 5.65554 11.0067 5.59975 10.6623 5.88882C10.3179 6.17788 10.5616 6.74079 10.6994 6.75093C11.1816 6.75093 11.3671 7.17185 11.1763 7.25806C10.9856 7.34428 10.8319 7.55727 10.9114 7.7652C11.0703 8.13033 11.579 8.08977 11.8387 7.64857C12.2308 6.97408 12.4692 7.30878 12.9832 7.2175C13.4972 7.12622 13.688 6.76615 13.4336 6.47202C13.1793 6.17788 12.252 6.31481 12.252 6.31481Z" fill="#00B937"/>
<path d="M18.5788 11.9997C19.2094 11.4469 19.4055 10.9854 18.8014 10.9854C18.0225 10.9499 19.3684 10.103 18.9498 9.89507C18.5312 9.68715 18.3669 9.24087 18.8703 9.03802C19.1564 8.91631 19.575 9.35751 19.9724 9.63643C20.3698 9.91535 20.4281 8.42947 21.1117 8.92139C21.5886 9.26624 20.8785 10.0776 21.7634 10.1943C22.6483 10.3109 20.6666 10.7521 21.4985 11.0818C22.3304 11.4114 21.1806 13.1103 20.6984 12.4104C20.5023 12.1214 20.2533 12.2684 19.8983 12.3293C19.4532 12.4054 19.2783 13.6884 18.5894 12.9886C17.9006 12.2887 18.5788 11.9997 18.5788 11.9997Z" fill="#00B937"/>
<path d="M5.89866 10.8789C6.37556 9.82917 5.62311 9.79873 6.81535 8.4954C8.11887 7.07543 8.18777 8.33819 8.18777 8.33819C9.08327 10.671 9.89928 11.7157 10.1006 10.1233C10.3603 8.09478 11.6373 12.659 12.1354 11.7867C12.2149 11.6498 12.0029 11.2796 11.9605 10.9499C11.9181 10.6203 11.9605 10.4124 12.1513 10.3617C12.342 10.3109 13.2799 10.0827 12.7925 9.85453C12.6547 9.7886 12.4533 8.84026 12.8719 8.56641C13.2905 8.29256 13.4654 8.44469 13.7144 8.87575C13.9635 9.30681 13.635 10.2095 14.0801 10.2957C14.0801 10.2957 14.61 9.69225 14.8113 10.1892C15.0127 10.6862 15.1981 11.7461 14.6523 11.6701C14.1066 11.594 13.6402 11.6041 13.7992 12.5525C13.9582 13.5008 13.0097 14.0739 12.3791 14.8143C11.7486 15.5547 14.5675 17.4311 13.4389 18.6989C12.6653 19.5813 11.3194 16.7464 10.8584 18.9778C10.3974 21.3056 10.5405 15.9655 9.22635 17.2485C8.5375 17.923 6.91074 16.3154 6.92134 16.0415C6.95843 15.3011 6.46033 14.7027 6.08411 14.1094C5.70789 13.516 5.78209 11.1274 5.89866 10.8789Z" fill="#00B937"/>
<path d="M15.2406 2.25766C14.6365 2.92708 13.6509 2.41995 13.28 3.46972C12.9091 4.51948 12.7501 2.45545 12.0931 3.46972C11.436 4.48398 9.39594 3.83484 10.461 3.04879C10.9061 2.72422 10.7631 2.50109 10.7736 2.13088C10.7725 2.09533 10.7616 2.06068 10.7421 2.03042C10.7226 2.00015 10.6951 1.97534 10.6624 1.95846C11.7221 1.34483 12.8985 1.3854 14.4457 1.42597C14.6736 1.62375 15.94 1.44625 15.2406 2.25766Z" fill="#00B937"/>
</svg>
