<svg width="29" height="162" viewBox="0 0 29 162" fill="none" xmlns="http://www.w3.org/2000/svg">
<path d="M12.7521 21.4713C14.5594 19.751 12.091 16.5692 14.2608 15.539C17.7742 14.6357 17.3477 16.7772 19.5176 18.8375C19.1551 16.0871 18.2381 15.539 20.408 13.1285C20.8996 13.0558 21.3833 12.9403 21.8528 12.7834C23.1643 11.1849 24.3745 10.4136 25.6434 10.2461C25.9793 10.8804 26.3098 11.7025 26.1766 12.276C25.9047 13.367 25.5155 13.5345 25.9366 14.1638C26.3578 14.793 27.68 16.828 27.68 16.828C27.68 16.828 28.2505 17.8835 27.4721 18.0865C27.1122 18.1466 26.7713 18.2837 26.4751 18.4874C26.4751 18.4874 27.3815 19.6596 27.2268 20.2585C27.0722 20.8573 26.6297 25.4955 24.028 25.2418C21.4263 24.9881 20.9624 24.8663 20.9624 24.8663C20.9624 24.8663 20.5093 24.4857 20.0881 25.252C19.7682 25.8637 19.3306 26.4128 18.7979 26.8708C18.4302 27.345 18.154 27.8777 17.9822 28.4439C17.8915 28.8144 17.8062 29.8446 17.8062 29.8446V31.2502L10.4009 22.1158C11.5152 22.3492 11.8244 22.1361 12.7521 21.4713Z" fill="#DDC09B" stroke="black" stroke-width="0.5" stroke-miterlimit="10"/>
<path d="M6.41291 5.99353C7.33963 5.19424 8.14846 4.27925 8.81738 3.27348C8.81738 3.27348 9.9583 1.84243 11.4298 1.47197C12.9012 1.10152 15.1298 1.41615 16.2707 1.26899C17.4116 1.12182 18.2273 0.984803 18.9737 1.41615C19.7201 1.8475 19.8481 2.47169 20.989 2.7305C22.1299 2.98931 22.9456 3.10096 23.4254 3.74544C23.9053 4.38993 23.6067 4.97351 24.5984 5.17649C25.59 5.37948 26.1978 5.74994 26.3737 6.55175C26.4678 7.02295 26.7341 7.44723 27.1254 7.74937C27.3334 8.00818 27.4827 8.03862 27.2427 8.52579C27.0028 9.01296 26.8535 10.0127 25.9525 9.64223C25.0515 9.27178 25.6433 10.2157 25.6433 10.2157C25.6433 10.2157 25.3661 9.70821 25.6433 10.2157C24.3744 10.3984 23.1642 11.1697 21.8527 12.753C21.3832 12.9099 20.8995 13.0254 20.4079 13.0981C18.238 15.5086 19.155 16.0566 19.5175 18.8071C17.3476 16.7468 17.8061 14.6611 14.2607 15.5086C12.0909 16.5235 14.5593 19.7206 12.752 21.4409C11.8243 22.1057 11.5311 22.3188 10.4008 22.1108L9.9263 21.5272C9.9263 21.5272 9.05728 21.583 8.908 20.5528C8.75872 19.5227 8.90801 19.5379 8.48683 19.0964C8.06565 18.6549 8.72674 18.8376 8.0923 17.9241C7.84567 17.5 7.52057 17.1218 7.13265 16.8077C7.13265 16.8077 6.77012 16.7214 6.65283 15.7471C6.53553 14.7727 5.68784 14.2247 5.68784 13.6868C5.68784 13.1488 5.33064 11.0834 5.68784 10.713C6.04505 10.3425 5.52789 8.93684 5.52789 8.93684C5.52789 8.93684 5.26665 6.8207 6.41291 5.99353Z" fill="#513A31" stroke="black" stroke-width="0.5" stroke-miterlimit="10"/>
<path d="M1.05494 48.083C1.01762 46.8346 2.92093 35.2542 3.30479 34.0616C4.30177 30.9458 7.03678 24.3436 10.113 24.8866C12.1603 25.2469 16.5107 32.1231 20.0241 34.5285L23.8414 66.4483C23.9048 66.9347 23.7631 67.4252 23.4473 67.8123C23.1315 68.1994 22.6674 68.4517 22.1567 68.5137C12.4375 69.5287 2.2705 67.2653 2.2705 67.2653L1.05494 48.083Z" fill="url(#paint0_linear_197_1880)" stroke="black" stroke-width="0.5" stroke-miterlimit="10"/>
<path d="M19.6617 34.6556L17.8063 35.8177L17.2199 35.4371C17.2199 35.4371 15.3379 35.2645 14.7088 34.0263C14.0797 32.7881 9.73991 26.8304 9.73991 26.8304L7.66065 25.6074L9.10547 21.0402C9.10547 21.0402 9.52665 21.9993 10.0331 21.5476L18.4141 31.6666L20.0935 34.0314L19.6617 34.6556Z" fill="white" stroke="black" stroke-width="0.5" stroke-miterlimit="10"/>
<path d="M23.3563 68.0772C23.3563 68.0772 24.3426 71.4011 23.3563 80.3782C22.37 89.3554 15.2472 149.952 15.2472 149.952L2.27592 150.653C2.27592 150.653 5.11222 124.701 4.52044 117.667C3.92865 110.634 4.28585 90.4566 3.10228 87.3712C1.9187 84.2858 -1.8666 76.0089 2.27058 67.2399L23.3563 68.0772Z" fill="#00B937" stroke="black" stroke-width="0.5" stroke-miterlimit="10"/>
<path d="M10.4009 49.8844L8.70017 59.4603C8.63211 59.8201 8.65724 60.1902 8.77337 60.5386C8.88949 60.887 9.09311 61.2032 9.36659 61.4598L19.0218 70.4724C19.4048 70.8272 19.6477 71.2967 19.7095 71.802C19.8108 72.7256 19.7415 74.1668 18.4673 74.791L5.05348 65.1745C5.05348 65.1745 2.45176 63.7129 2.80896 61.5156C3.16617 59.3183 3.51803 50.1737 3.51803 50.1737L10.4009 49.8844Z" fill="#DDC09B" stroke="black" stroke-width="0.5" stroke-miterlimit="10"/>
<path d="M1.10299 50.1738L1.03368 45.5254C1.03368 45.5254 1.47086 27.4442 8.98282 31.5649C16.4948 35.6855 13.8611 49.3973 13.7811 50.1738H1.10299Z" fill="white" stroke="black" stroke-width="0.5" stroke-miterlimit="10"/>
<path d="M16.436 16.4374C15.7803 15.6153 13.4664 14.6054 13.4558 17.7162C13.4558 20.2536 17.0171 21.2685 17.0225 20.081C17.0225 19.2995 16.7612 19.3147 16.7612 19.3147" stroke="black" stroke-width="0.5" stroke-miterlimit="10"/>
<path d="M15.5192 16.7213C15.5192 16.7213 15.3379 17.3151 14.9381 17.3912C14.5382 17.4673 14.2183 17.6906 14.5382 18.0864C14.8581 18.4822 14.6395 18.8222 15.1566 18.8019C15.6738 18.7816 16.1216 18.9187 16.079 19.1267" stroke="black" stroke-width="0.5" stroke-miterlimit="10"/>
<path d="M24.0546 15.1989C23.8073 15.1989 23.6068 15.008 23.6068 14.7726C23.6068 14.5372 23.8073 14.3463 24.0546 14.3463C24.3019 14.3463 24.5024 14.5372 24.5024 14.7726C24.5024 15.008 24.3019 15.1989 24.0546 15.1989Z" fill="#020202"/>
<path d="M27.2109 20.2686C26.3311 20.5532 25.3771 20.5532 24.4973 20.2686" stroke="#020202" stroke-width="0.5" stroke-miterlimit="10"/>
<path d="M13.6476 150.054L23.4041 156.788C23.4041 156.788 30.255 160.67 25.8832 160.848C22.5564 160.975 11.1099 160.731 5.83179 160.609C5.47404 160.603 5.12104 160.53 4.79312 160.394C4.46521 160.258 4.16884 160.061 3.92109 159.815C3.67333 159.569 3.47909 159.28 3.34952 158.962C3.21994 158.645 3.1576 158.306 3.16609 157.965L3.34735 150.653L13.6476 150.054Z" fill="#00B937" stroke="black" stroke-width="0.5" stroke-miterlimit="10"/>
<defs>
<linearGradient id="paint0_linear_197_1880" x1="12.4908" y1="51.9195" x2="12.3652" y2="73.4616" gradientUnits="userSpaceOnUse">
<stop stop-color="white"/>
<stop offset="1" stop-color="#00B939"/>
</linearGradient>
</defs>
</svg>
