<svg id="Layer_1" data-name="Layer 1" xmlns="http://www.w3.org/2000/svg" xmlns:xlink="http://www.w3.org/1999/xlink" viewBox="0 0 612 792"><defs><style>.cls-1{fill:#ddc09b;}.cls-1,.cls-2,.cls-3,.cls-4,.cls-5,.cls-6{stroke:#000;}.cls-1,.cls-2,.cls-3,.cls-4,.cls-5,.cls-6,.cls-8{stroke-miterlimit:10;stroke-width:0.5px;}.cls-2{fill:#513a31;}.cls-3{fill:url(#New_Gradient_Swatch_1);}.cls-4{fill:#fff;}.cls-5{fill:#00b937;}.cls-6,.cls-8{fill:none;}.cls-7{fill:#020202;}.cls-8{stroke:#020202;}</style><linearGradient id="New_Gradient_Swatch_1" x1="309.07" y1="338.7" x2="309.33" y2="381.15" gradientUnits="userSpaceOnUse"><stop offset="0" stop-color="#fff"/><stop offset="1" stop-color="#00b939"/></linearGradient></defs><g id="greenman"><path class="cls-1" d="M308.57,278.7c-3.39-3.4,1.25-9.66-2.82-11.7-6.59-1.78-5.79,2.44-9.86,6.51.67-5.43,2.4-6.51-1.67-11.26a15.61,15.61,0,0,1-2.72-.67c-2.45-3.16-4.73-4.68-7.1-5-.64,1.25-1.26,2.87-1,4.06.51,2.14,1.24,2.48.46,3.72s-3.27,5.24-3.27,5.24-1.08,2.09.39,2.48a4.72,4.72,0,0,1,1.87.79s-1.7,2.31-1.42,3.5,1.13,10.32,6,9.81,5.75-.73,5.75-.73.85-.75,1.63.75a10.59,10.59,0,0,0,2.43,3.19,10,10,0,0,1,1.52,3.1c.17.74.34,2.77.34,2.77V298L313,280C310.87,280.42,310.31,280,308.57,278.7Z"/><path class="cls-2" d="M320.47,248.19a25.75,25.75,0,0,1-4.51-5.36,10.88,10.88,0,0,0-4.91-3.55c-2.76-.73-6.93-.11-9.07-.39s-3.67-.57-5.08.28-1.63,2.09-3.78,2.59-3.66.74-4.56,2-.34,2.43-2.2,2.82-3,1.13-3.33,2.71a4.17,4.17,0,0,1-1.41,2.37c-.39.5-.68.56-.23,1.52s.74,2.93,2.43,2.2.58,1.13.58,1.13.51-1,0,0c2.37.36,4.65,1.88,7.1,5a15.61,15.61,0,0,0,2.72.67c4.07,4.75,2.34,5.83,1.67,11.26,4.07-4.07,3.21-8.18,9.86-6.51,4.07,2-.57,8.3,2.82,11.7,1.74,1.3,2.3,1.72,4.42,1.31l.88-1.14s1.64.11,1.92-1.92,0-2,.79-2.88-.45-.51.73-2.31a8.28,8.28,0,0,1,1.81-2.2s.67-.17.9-2.08,1.8-3,1.8-4.06.68-5.14,0-5.87.3-3.49.3-3.49S322.61,249.83,320.47,248.19Z"/><path class="cls-3" d="M330.52,331.13c.07-2.46-3.5-25.28-4.22-27.63-1.88-6.14-7-19.14-12.77-18.08-3.84.71-12,14.26-18.59,19l-7.17,62.9a3.66,3.66,0,0,0,3.17,4.08c18.22,2,37.29-2.47,37.29-2.47Z"/><path class="cls-4" d="M295.62,304.67l3.47,2.29,1.1-.75s3.54-.34,4.72-2.78,9.32-14.21,9.32-14.21l3.89-2.4-2.7-9s-.8,1.89-1.74,1.05L298,298.81l-3.15,4.66Z"/><path class="cls-5" d="M288.69,370.54s-1.85,6.55,0,24.24,15.22,137.1,15.22,137.1l24.32,1.38s-5.33-51.14-4.22-65,.45-53.62,2.66-59.7,9.33-22.39,1.56-39.67Z"/><path class="cls-1" d="M313,334.68l3.18,18.88a4.41,4.41,0,0,1-1.25,3.93l-18.1,17.79a4.26,4.26,0,0,0-1.29,2.61c-.2,1.82-.07,4.67,2.32,5.9l25.17-19s4.87-2.88,4.21-7.2-1.33-22.4-1.33-22.4Z"/><path class="cls-4" d="M330.42,335.23l.14-9.16s-.82-35.63-14.92-27.51-9.15,35.14-9,36.67Z"/><path class="cls-6" d="M301.67,268.77c1.23-1.61,5.56-3.6,5.59,2.52,0,5-6.68,7-6.69,4.66,0-1.54.48-1.5.48-1.5"/><path class="cls-6" d="M303.39,269.34s.33,1.16,1.09,1.31,1.35.59.75,1.37-.19,1.45-1.17,1.41-1.8.23-1.73.64"/><circle class="cls-7" cx="287.38" cy="265.49" r="0.84"/><path class="cls-8" d="M281.45,276.33a8,8,0,0,0,5.09,0"/><path class="cls-5" d="M306.94,532.07l-18.3,13.27s-12.86,7.65-4.66,8c6.25.26,27.71-.23,37.61-.47a5.08,5.08,0,0,0,5-5.21l-.33-14.38Z"/></g></svg>