<svg width="29" height="162" viewBox="0 0 29 162" fill="none" xmlns="http://www.w3.org/2000/svg">
<path d="M12.7314 21.3766C14.5608 19.6536 12.0643 16.467 14.2541 15.4353C17.7998 14.5306 17.3693 16.6754 19.5592 18.7388C19.1933 15.9842 18.2679 15.4353 20.4577 13.0211C20.9539 12.9483 21.442 12.8326 21.9158 12.6755C23.2394 11.0746 24.4607 10.3021 25.7413 10.1343C26.0802 10.7696 26.4138 11.593 26.2793 12.1673C26.0049 13.26 25.6121 13.4277 26.0372 14.0579C26.4622 14.6882 27.7966 16.7262 27.7966 16.7262C27.7966 16.7262 28.3723 17.7833 27.5867 17.9866C27.2235 18.0468 26.8795 18.1841 26.5806 18.3881C26.5806 18.3881 27.4953 19.5622 27.3446 20.1619C27.194 20.7616 26.7366 25.4069 24.1164 25.1528C21.4961 24.8987 21.0226 24.7767 21.0226 24.7767C21.0226 24.7767 20.5653 24.3955 20.1403 25.163C19.8174 25.7756 19.3758 26.3255 18.8382 26.7842C18.469 27.2596 18.1921 27.793 18.0204 28.3598C17.9289 28.7308 17.8374 29.7625 17.8374 29.7625V31.1703L10.3641 22.022C11.4778 22.2558 11.7952 22.0424 12.7314 21.3766Z" fill="#DDC09B" stroke="black" stroke-width="0.5" stroke-miterlimit="10"/>
<path d="M6.33413 5.8753C7.26937 5.0748 8.08564 4.15842 8.7607 3.15113C8.7607 3.15113 9.9121 1.7179 11.3971 1.34689C12.8821 0.975874 15.1311 1.29099 16.2825 1.1436C17.4339 0.996207 18.2571 0.858979 19.0157 1.29098C19.7744 1.72298 19.8927 2.34812 21.0442 2.60733C22.1956 2.86653 23.0188 2.97834 23.503 3.6238C23.9872 4.26927 23.6859 4.85373 24.6867 5.05702C25.6874 5.26032 26.3008 5.63135 26.4784 6.43436C26.5767 6.90504 26.8449 7.32892 27.237 7.6338C27.4468 7.893 27.5975 7.92349 27.3554 8.4114C27.1133 8.89931 26.9626 9.90055 26.0533 9.52953C25.144 9.15852 25.7413 10.1038 25.7413 10.1038C25.7413 10.1038 25.4669 9.59561 25.7413 10.1038C24.4607 10.2868 23.2394 11.0593 21.9158 12.645C21.442 12.8021 20.9539 12.9178 20.4577 12.9906C18.2679 15.4048 19.1933 15.9537 19.5592 18.7083C17.3693 16.6449 17.8321 14.556 14.2541 15.4048C12.0643 16.4212 14.5608 19.6232 12.7314 21.3461C11.7952 22.0119 11.4993 22.2253 10.3587 22.017L9.87982 21.4325C9.87982 21.4325 9.00281 21.4884 8.85216 20.4567C8.70151 19.4249 8.85215 19.4402 8.4271 18.998C8.00205 18.5559 8.66922 18.7388 8.02896 17.824C7.78006 17.3992 7.45197 17.0204 7.06049 16.7059C7.06049 16.7059 6.69462 16.6195 6.57626 15.6436C6.45789 14.6678 5.60239 14.1189 5.60239 13.5802C5.60239 13.0415 5.2419 10.9729 5.60239 10.6019C5.96288 10.2309 5.44098 8.82307 5.44098 8.82307C5.44098 8.82307 5.17734 6.70373 6.33413 5.8753Z" fill="#513A31" stroke="black" stroke-width="0.5" stroke-miterlimit="10"/>
<path d="M0.926952 48.0288C0.88929 46.7785 2.81008 35.1805 3.19747 33.9862C4.2036 30.8656 6.96376 24.2534 10.0683 24.7972C12.1343 25.1581 16.5247 32.0447 20.0704 34.4538L23.9228 66.422C23.9868 66.9091 23.8438 67.4003 23.5251 67.788C23.2064 68.1757 22.738 68.4283 22.2226 68.4905C12.4141 69.507 2.15368 67.2402 2.15368 67.2402L0.926952 48.0288Z" fill="url(#paint0_linear_197_1899)" stroke="black" stroke-width="0.5" stroke-miterlimit="10"/>
<path d="M19.7045 34.5804L17.8375 35.7442L17.2457 35.3631C17.2457 35.3631 15.341 35.1903 14.7061 33.9502C14.0712 32.7101 9.69159 26.7433 9.69159 26.7433L7.59862 25.5185L9.05132 20.9443C9.05132 20.9443 9.48176 21.9049 9.98752 21.4526L18.4724 31.597L20.1619 33.9654L19.7045 34.5804Z" fill="white" stroke="black" stroke-width="0.5" stroke-miterlimit="10"/>
<path d="M23.4331 68.0534C23.4331 68.0534 24.4285 71.3824 23.4331 80.3731C22.4377 89.3639 15.2441 150.053 15.2441 150.053L2.15897 150.754C2.15897 150.754 5.02136 124.763 4.42414 117.719C3.82691 110.674 4.1874 90.4668 2.99295 87.3767C1.7985 84.2866 -2.02159 75.9972 2.1536 67.2148L23.4331 68.0534Z" fill="#00B937" stroke="black" stroke-width="0.5" stroke-miterlimit="10"/>
<path d="M10.3587 49.833L8.64235 59.4235C8.5734 59.7842 8.59915 60.1553 8.71734 60.5045C8.83553 60.8536 9.04255 61.17 9.32027 61.4259L19.0588 70.4523C19.4453 70.8076 19.6905 71.2778 19.7529 71.7838C19.8605 72.7088 19.7905 74.1522 18.4992 74.7774L4.96216 65.1462C4.96216 65.1462 2.33651 63.6825 2.69699 61.4818C3.05748 59.2812 3.40721 50.1227 3.40721 50.1227L10.3587 49.833Z" fill="#DDC09B" stroke="black" stroke-width="0.5" stroke-miterlimit="10"/>
<path d="M0.975348 50.1228L0.905401 45.4673C0.905401 45.4673 1.3466 27.3588 8.92759 31.4857C16.5086 35.6126 13.856 49.3452 13.77 50.1228H0.975348Z" fill="url(#paint1_linear_197_1899)" stroke="black" stroke-width="0.5" stroke-miterlimit="10"/>
<path d="M16.4492 16.335C15.7874 15.5117 13.4523 14.5003 13.4415 17.6158C13.4415 20.157 17.0356 21.1735 17.041 19.9842C17.041 19.2015 16.7774 19.2167 16.7774 19.2167" stroke="black" stroke-width="0.5" stroke-miterlimit="10"/>
<path d="M15.5238 16.6196C15.5238 16.6196 15.3408 17.2143 14.9373 17.2905C14.5338 17.3667 14.2109 17.5904 14.5338 17.9868C14.8566 18.3832 14.636 18.7237 15.1579 18.7034C15.6798 18.6831 16.1318 18.8203 16.0887 19.0287" stroke="black" stroke-width="0.5" stroke-miterlimit="10"/>
<path d="M24.1379 15.0946C23.8883 15.0946 23.6859 14.9034 23.6859 14.6676C23.6859 14.4319 23.8883 14.2407 24.1379 14.2407C24.3875 14.2407 24.5898 14.4319 24.5898 14.6676C24.5898 14.9034 24.3875 15.0946 24.1379 15.0946Z" fill="#020202"/>
<path d="M27.3286 20.1719C26.4388 20.4569 25.4744 20.4569 24.5846 20.1719" stroke="#020202" stroke-width="0.5" stroke-miterlimit="10"/>
<path d="M13.6299 150.154L23.476 156.899C23.476 156.899 30.3953 160.787 25.9779 160.965C22.6206 161.092 11.0688 160.848 5.74223 160.726C5.38326 160.717 5.02961 160.642 4.70145 160.504C4.3733 160.366 4.07708 160.169 3.82975 159.923C3.58242 159.677 3.38881 159.388 3.25999 159.071C3.13116 158.754 3.06964 158.417 3.07894 158.078L3.24035 150.754L13.6299 150.154Z" fill="#00B937" stroke="black" stroke-width="0.5" stroke-miterlimit="10"/>
<defs>
<linearGradient id="paint0_linear_197_1899" x1="12.5809" y1="34.4487" x2="12.4129" y2="63.1948" gradientUnits="userSpaceOnUse">
<stop stop-color="white"/>
<stop offset="0.66" stop-color="#00B939"/>
</linearGradient>
<linearGradient id="paint1_linear_197_1899" x1="7.65243" y1="35.7498" x2="7.54201" y2="55.0324" gradientUnits="userSpaceOnUse">
<stop stop-color="white"/>
<stop offset="0.82" stop-color="#00B939"/>
</linearGradient>
</defs>
</svg>
