<svg id="Layer_1" data-name="Layer 1" xmlns="http://www.w3.org/2000/svg" viewBox="0 0 612 792"><defs><style>.cls-1{fill:#ddc09b;}.cls-1,.cls-2,.cls-3,.cls-4{stroke:#000;}.cls-1,.cls-2,.cls-3,.cls-4,.cls-6{stroke-miterlimit:10;stroke-width:0.5px;}.cls-2{fill:#513a31;}.cls-3,.cls-7{fill:#00b937;}.cls-4,.cls-6{fill:none;}.cls-5{fill:#020202;}.cls-6{stroke:#020202;}</style></defs><g id="greenman"><path class="cls-1" d="M308.41,278.59c-3.39-3.39,1.25-9.66-2.82-11.69-6.6-1.79-5.8,2.43-9.87,6.5.68-5.42,2.41-6.5-1.66-11.25a15.43,15.43,0,0,1-2.72-.68c-2.45-3.16-4.73-4.67-7.1-5-.64,1.25-1.26,2.86-1,4.05.51,2.14,1.24,2.48.45,3.72s-3.27,5.25-3.27,5.25-1.07,2.08.4,2.48a4.64,4.64,0,0,1,1.87.79s-1.7,2.31-1.42,3.49,1.13,10.32,6,9.81,5.75-.73,5.75-.73.84-.75,1.63.75a10.68,10.68,0,0,0,2.43,3.2,9.91,9.91,0,0,1,1.52,3.1c.17.73.34,2.76.34,2.76v2.76l13.89-18C310.7,280.32,310.15,279.9,308.41,278.59Z"/><path class="cls-2" d="M320.31,248.09a26,26,0,0,1-4.51-5.36,10.81,10.81,0,0,0-4.91-3.55c-2.76-.74-6.93-.12-9.08-.4s-3.66-.56-5.07.28-1.64,2.09-3.78,2.6-3.66.73-4.57,2-.33,2.42-2.19,2.82-3,1.12-3.33,2.7a4.17,4.17,0,0,1-1.41,2.37c-.4.51-.68.57-.23,1.52s.74,2.94,2.43,2.2.58,1.14.58,1.14.51-1,0,0c2.37.36,4.65,1.87,7.1,5a15.43,15.43,0,0,0,2.72.68c4.07,4.75,2.34,5.83,1.66,11.25,4.07-4.07,3.22-8.17,9.87-6.5,4.07,2-.57,8.3,2.82,11.69,1.74,1.31,2.29,1.73,4.42,1.32l.88-1.15s1.64.11,1.92-1.92,0-2,.79-2.87-.45-.51.73-2.31a8,8,0,0,1,1.81-2.2s.67-.17.9-2.09,1.8-3,1.8-4.06.68-5.13,0-5.86.3-3.5.3-3.5S322.45,249.72,320.31,248.09Z"/><path class="cls-3" d="M330.36,331c.06-2.46-3.5-25.29-4.22-27.64-1.88-6.14-7-19.14-12.78-18.07-3.83.71-12,14.26-18.59,19l-7.16,62.89a3.66,3.66,0,0,0,3.17,4.08c18.22,2,37.29-2.46,37.29-2.46Z"/><path class="cls-3" d="M295.46,304.57l3.47,2.29,1.1-.75s3.54-.34,4.72-2.78,9.32-14.21,9.32-14.21l3.89-2.41-2.7-9s-.8,1.9-1.74,1.05L297.79,298.7l-3.15,4.66Z"/><path class="cls-3" d="M307.38,532.17l-18.3,13.28s-12.86,7.65-4.66,8c6.24.25,27.71-.23,37.61-.48a5.08,5.08,0,0,0,5-5.2l-.34-14.38Z"/><path class="cls-3" d="M288.85,370.87s-1.85,6.55,0,24.24,15.22,137.1,15.22,137.1l24.32,1.38s-5.32-51.13-4.22-65,.45-53.63,2.66-59.71,9.33-22.39,1.56-39.66Z"/><path class="cls-1" d="M312.83,334.58,316,353.45a4.41,4.41,0,0,1-1.25,3.93l-18.1,17.79a4.26,4.26,0,0,0-1.29,2.61c-.2,1.83-.07,4.67,2.32,5.9l25.16-18.95s4.88-2.88,4.22-7.21-1.33-22.39-1.33-22.39Z"/><path class="cls-3" d="M330.26,335.13l.13-9.17s-.81-35.62-14.91-27.5-9.15,35.14-9,36.67Z"/><path class="cls-4" d="M301.51,268.67c1.23-1.62,5.56-3.61,5.59,2.52,0,5-6.68,7-6.7,4.66,0-1.54.49-1.51.49-1.51"/><path class="cls-4" d="M303.22,269.23s.34,1.17,1.09,1.32,1.36.59.76,1.36-.19,1.46-1.17,1.42-1.8.22-1.73.64"/><circle class="cls-5" cx="287.22" cy="265.39" r="0.84"/><path class="cls-6" d="M281.29,276.22a7.91,7.91,0,0,0,5.09,0"/><g id="ARM_BLOP" data-name="ARM BLOP"><path class="cls-7" d="M313.13,364.51c.33-.41.66-.58.95,0a3.15,3.15,0,0,1,.59,1.75c.2,1.37,0,2.33.58,2.12s.6,0,.24.66-.08,1.25-1.41,1.17-1.58-.34-2,.33-1.73,1.92-2.19.88-2-2.21-1-3.25.35-1.39-.23-2.22.18-1,1.14-.93.59-2,1.49-.63A1.08,1.08,0,0,0,313.13,364.51Z"/><path class="cls-7" d="M303.07,369.3c.58-.16.5.37,1.44.85s1.27,1.17,1.69.48.56-.6.59.09.61.7-.65,2-1.64,1.42-1.65,2.16-.53,2.69-1.53,2.63-3.06.92-2.69-.63-.44-1-1.42-.87-.36-.67.54-1.61-.58-1,.36-1.89C300.87,371.46,302.62,369.42,303.07,369.3Z"/><path class="cls-7" d="M315.64,356.61s1.75.79.95,1.81-.73.79-.34,1.47.27,1.53-.49,1.4-1.43.14-1.38-.52.41-1.07-.07-1.16-.62-.21-.94.19-.15.7-.46.41-.14-.5-.14-.5Z"/><path class="cls-7" d="M319.44,365c.79-.19.66-.67,1-1.31s.64-.88,1.46-.58a1.2,1.2,0,0,1,.59,1.6c-.61.5-2.68,2.28-3.64,2.48s-1.57-.32-1.35-1S319.44,365,319.44,365Z"/><path class="cls-7" d="M320,341.43c-1.19-1.09-1.56-2-.42-2,1.46-.06-1.08-1.73-.29-2.14s1.1-1.29.15-1.7c-.54-.23-1.32.64-2.07,1.19s-.87-2.38-2.16-1.41c-.9.67.44,2.27-1.22,2.5s2.06,1.11.5,1.75.59,4,1.5,2.62c.38-.56.84-.27,1.51-.15.84.15,1.17,2.68,2.47,1.3S320,341.43,320,341.43Z"/><path class="cls-7" d="M317.27,351.78c2.29-.24-1.77-1.42.55-2.17s1.85-4.79-.12-3.18c-.81.66-1.85.18-2.57,0C315.08,345.55,315.1,352,317.27,351.78Z"/><path class="cls-7" d="M323.27,352c-.9,1.49.63,2.94-1.11,4.26s2.26.29.66,2.13.91,5.06,1.76,2.67c.35-1,.84-.88,1.54-1.13.13,0,.24.17.6-.37.49-1.72-.47-3.9-1.46-6.65C324.74,352.6,324.33,350.22,323.27,352Z"/></g><g id="HEAD_BLOP" data-name="HEAD BLOP"><path class="cls-7" d="M302.71,280.22c.33-.41.67-.58,1,0a3.3,3.3,0,0,1,.58,1.75c.21,1.37,0,2.33.58,2.12s.6,0,.24.66-.07,1.25-1.4,1.17-1.59-.33-2,.33-1.73,1.92-2.19.88-2-2.21-1-3.25.35-1.39-.23-2.22.19-1,1.14-.93.59-2,1.49-.63A1.08,1.08,0,0,0,302.71,280.22Z"/><path class="cls-7" d="M301.44,244.13c.33-.41.66-.58.95,0a3.21,3.21,0,0,1,.58,1.75c.21,1.37,0,2.33.59,2.12s.6,0,.23.67-.07,1.24-1.4,1.16-1.58-.33-2,.33-1.73,1.92-2.2.88-2-2.21-1-3.25.35-1.39-.24-2.22.19-1,1.15-.93.59-2,1.49-.63A1.08,1.08,0,0,0,301.44,244.13Z"/><path class="cls-7" d="M291.62,268.28c.06-.66.3-1.15,1-1.12a2.49,2.49,0,0,1,1.85.44c1.18.64,1.63,1.49,2.1.68s.65-.71.72.15.8.88-.68,2.38-1.93,1.64-1.91,2.55-.5,3.25-1.73,3.12-3.71.95-3.34-.91-.6-1.3-1.81-1.16-.47-.83.58-1.93-.74-2,1.15-2.14A2.44,2.44,0,0,0,291.62,268.28Z"/><path class="cls-7" d="M288.57,285.67s-.84-1.73.43-2,1.06-.14,1.21-.91.77-1.35,1.26-.77,1.19.81.73,1.29-1,.56-.68.93.34.57.83.46.57-.44.62,0-.22.47-.22.47Z"/><path class="cls-7" d="M310.53,282.4s-1.81-.6-1.12-1.7.63-.86.18-1.5-.43-1.49.34-1.44,1.41-.28,1.43.38-.3,1.1.19,1.14.64.15.91-.28.08-.72.42-.46.18.49.18.49Z"/><path class="cls-7" d="M284.78,255.7s2.35.25,1.85,1.66c-.44,1.26-.45,1,.2,1.55s.79,1.24,0,1.33-1.29.44-1.5-.09-.05-1-.55-1-.68,0-.79.41.17.61-.24.45-.35-.37-.35-.37A7.91,7.91,0,0,1,284.78,255.7Z"/><path class="cls-7" d="M298.69,291.7s2.28-3,2.31-1.52c0,1.33.8-1.95,1.59-1.68s2,1.77,1.31,2.12c-.5.46-2.46,3.39-2.91,3.61-.25.46-1.81,2.28-1.81,2.28A16.48,16.48,0,0,0,298.69,291.7Z"/><path class="cls-7" d="M286.6,246.6c1.34-.34,1.11-1.15,1.69-2.23s1.08-1.49,2.48-1,1.39,2.51,1,2.7c-1.4.66-1.44,2.12-.75,2.19s1.4.5,1.4,1.17c0,1.33-1.56,1.83-2.89.77-2-1.61-2.29-.27-3.93.07s-2.65-.54-2.28-1.75S286.6,246.6,286.6,246.6Z"/><path class="cls-7" d="M309.54,248.71c.81.12.86-.37,1.42-.83s.93-.57,1.57,0,.2,1.69-.06,1.7c-.92.05-1.26.83-.91,1s.66.59.5,1c-.29.72-1.26.65-1.74-.23-.74-1.33-1.19-.66-2.16-.84s-1.33-.89-.86-1.47S309.54,248.71,309.54,248.71Z"/><path class="cls-7" d="M297.6,259.94c-1.19-1.09-1.56-2-.42-2,1.47-.07-1.07-1.73-.29-2.14s1.11-1.29.16-1.7c-.55-.23-1.33.64-2.08,1.18s-.87-2.37-2.15-1.41c-.9.68.43,2.28-1.23,2.51s2.07,1.1.5,1.75.6,4,1.51,2.62c.37-.56.84-.27,1.51-.15.83.14,1.17,2.68,2.47,1.3S297.6,259.94,297.6,259.94Z"/><path class="cls-7" d="M321.53,257.72c-.91-2.08.51-2.14-1.74-4.71-2.45-2.79-2.58-.31-2.58-.31-1.7,4.6-3.23,6.66-3.61,3.53-.49-4-2.91,5-3.85,3.27-.14-.27.26-1,.34-1.65s0-1.05-.37-1.15-2.12-.56-1.2-1c.26-.12.63-2-.15-2.54s-1.13-.23-1.6.62.16,2.62-.69,2.79c0,0-1-1.18-1.38-.21s-.72,3.08.3,2.92,1.92-.13,1.62,1.74,1.49,3,2.68,4.46-4.13,5.16-2,7.66c1.45,1.74,4-3.84,4.87.55.87,4.6.6-5.94,3.07-3.41,1.31,1.33,4.38-1.84,4.35-2.38-.06-1.46.87-2.64,1.58-3.8S321.75,258.22,321.53,257.72Z"/><path class="cls-7" d="M303.9,240.68c1.13,1.33,3,.33,3.7,2.39s1-2,2.23.05,5.09.72,3.09-.83c-.84-.65-.57-1.08-.59-1.82a.41.41,0,0,1,.21-.34c-2-1.2-4.22-1.13-7.15-1C305,239.49,302.58,239.13,303.9,240.68Z"/></g></g></svg>