<svg width="29" height="162" viewBox="0 0 29 162" fill="none" xmlns="http://www.w3.org/2000/svg">
<path d="M12.9131 21.3457C14.7205 19.6254 12.252 16.4435 14.4219 15.4134C17.9353 14.5101 17.5088 16.6516 19.6787 18.7119C19.3161 15.9615 18.3991 15.4134 20.569 13.0029C21.0607 12.9302 21.5443 12.8147 22.0138 12.6578C23.3254 11.0593 24.5356 10.2879 25.8045 10.1205C26.1403 10.7548 26.4709 11.5769 26.3376 12.1504C26.0657 13.2414 25.6765 13.4089 26.0977 14.0381C26.5189 14.6674 27.7984 16.7125 27.7984 16.7125C27.7984 16.7125 28.3689 17.768 27.5905 17.971C27.2306 18.0312 26.8897 18.1682 26.5935 18.3719C26.5935 18.3719 27.4999 19.5442 27.3506 20.143C27.2013 20.7418 26.7481 25.3801 24.1517 25.1264C21.5553 24.8726 21.0862 24.7508 21.0862 24.7508C21.0862 24.7508 20.633 24.3702 20.2118 25.1365C19.8919 25.7482 19.4543 26.2973 18.9216 26.7553C18.5539 27.2296 18.2777 27.7622 18.1059 28.3285C18.0206 28.6989 17.93 29.7291 17.93 29.7291V31.1348L10.5246 22.0003C11.6922 22.2236 11.9855 22.0105 12.9131 21.3457Z" fill="#DDC09B" stroke="black" stroke-width="0.5" stroke-miterlimit="10"/>
<path d="M6.57413 5.86792C7.50085 5.06863 8.30968 4.15364 8.97859 3.14787C8.97859 3.14787 10.1195 1.71682 11.591 1.34636C13.0625 0.975911 15.291 1.29054 16.4319 1.14338C17.5728 0.996212 18.3885 0.859192 19.1403 1.29054C19.892 1.72189 20.0093 2.34608 21.1502 2.60489C22.2911 2.8637 23.1068 2.97534 23.5867 3.61983C24.0665 4.26432 23.7679 4.84789 24.7596 5.05088C25.7512 5.25387 26.359 5.62433 26.5349 6.42613C26.6199 6.89998 26.8787 7.32977 27.2653 7.63898C27.4733 7.89779 27.6225 7.92823 27.3826 8.41541C27.1427 8.90258 26.9934 9.9023 26.0924 9.53184C25.1914 9.16139 25.7832 10.1053 25.7832 10.1053C25.7832 10.1053 25.506 9.59782 25.7832 10.1053C24.5143 10.288 23.3041 11.0593 21.9926 12.6426C21.5231 12.7995 21.0394 12.915 20.5478 12.9877C18.3779 15.3982 19.2949 15.9463 19.6574 18.6967C17.4875 16.6364 17.946 14.5507 14.4006 15.3982C12.2308 16.4131 14.6992 19.6102 12.8919 21.3305C11.9642 21.9953 11.671 22.2084 10.5407 22.0004L10.0662 21.4168C10.0662 21.4168 9.19718 21.4726 9.0479 20.4424C8.89862 19.4123 9.0479 19.4275 8.62672 18.986C8.20554 18.5445 8.86664 18.7272 8.2322 17.8137C7.98557 17.3896 7.66046 17.0114 7.27254 16.6973C7.27254 16.6973 6.91001 16.611 6.79272 15.6367C6.67542 14.6624 5.82773 14.1143 5.82773 13.5764C5.82773 13.0385 5.47053 10.973 5.82773 10.6026C6.18493 10.2321 5.66779 8.82645 5.66779 8.82645C5.66779 8.82645 5.40655 6.69509 6.57413 5.86792Z" fill="#513A31" stroke="black" stroke-width="0.5" stroke-miterlimit="10"/>
<path d="M1.21606 47.9574C1.17874 46.709 3.08206 35.1286 3.46592 33.936C4.46289 30.8202 7.19791 24.218 10.2741 24.761C12.3214 25.1213 16.6718 31.9975 20.1852 34.4029L24.0025 66.3227C24.0659 66.8091 23.9242 67.2996 23.6084 67.6867C23.2927 68.0738 22.8286 68.3261 22.3178 68.3881C12.5986 69.4031 2.43163 67.1397 2.43163 67.1397L1.21606 47.9574Z" fill="white" stroke="black" stroke-width="0.5" stroke-miterlimit="10"/>
<path d="M19.8012 34.53L17.9512 35.6921L17.3594 35.3115C17.3594 35.3115 15.4774 35.1389 14.8483 33.9007C14.2192 32.6625 9.90079 26.7048 9.90079 26.7048L7.82687 25.4818L9.26635 20.9146C9.26635 20.9146 9.68754 21.8737 10.194 21.422L18.5803 31.5511L20.2544 33.9159L19.8012 34.53Z" fill="white" stroke="black" stroke-width="0.5" stroke-miterlimit="10"/>
<path d="M23.5333 67.9517C23.5333 67.9517 24.5196 71.2756 23.5333 80.2528C22.547 89.2299 15.4136 149.827 15.4136 149.827L2.43692 150.527C2.43692 150.527 5.27323 124.575 4.68144 117.542C4.08966 110.508 4.44686 90.3311 3.26329 87.2457C2.07972 84.1603 -1.70559 75.8835 2.43159 67.1144L23.5333 67.9517Z" fill="url(#paint0_linear_284_4394)" stroke="black" stroke-width="0.5" stroke-miterlimit="10"/>
<path d="M10.562 49.7588L8.8613 59.3347C8.79324 59.6945 8.81837 60.0646 8.93449 60.413C9.05062 60.7614 9.25424 61.0776 9.52772 61.3342L19.1829 70.3468C19.5659 70.7016 19.8088 71.1711 19.8707 71.6764C19.972 72.6 19.9026 74.0412 18.6284 74.6654L5.21461 65.0488C5.21461 65.0488 2.61288 63.5873 2.97009 61.39C3.32729 59.1927 3.67916 50.0481 3.67916 50.0481L10.562 49.7588Z" fill="#DDC09B" stroke="black" stroke-width="0.5" stroke-miterlimit="10"/>
<path d="M1.26393 50.0483L1.19462 45.3999C1.19462 45.3999 1.63179 27.3086 9.13842 31.4293C16.6451 35.5499 14.022 49.2617 13.9367 50.0483H1.26393Z" fill="white" stroke="black" stroke-width="0.5" stroke-miterlimit="10"/>
<path d="M16.6025 16.3118C15.9467 15.4897 13.6329 14.4798 13.6223 17.5906C13.6223 20.128 17.1836 21.1429 17.189 19.9554C17.189 19.1739 16.9277 19.1891 16.9277 19.1891" stroke="black" stroke-width="0.5" stroke-miterlimit="10"/>
<path d="M15.6801 16.5957C15.6801 16.5957 15.4988 17.1894 15.0989 17.2656C14.6991 17.3417 14.3792 17.565 14.6991 17.9608C15.019 18.3566 14.8004 18.6966 15.3175 18.6763C15.8347 18.656 16.2825 18.7931 16.2399 19.0011" stroke="black" stroke-width="0.5" stroke-miterlimit="10"/>
<path d="M24.2157 15.0732C23.9684 15.0732 23.7679 14.8824 23.7679 14.647C23.7679 14.4115 23.9684 14.2207 24.2157 14.2207C24.4631 14.2207 24.6636 14.4115 24.6636 14.647C24.6636 14.8824 24.4631 15.0732 24.2157 15.0732Z" fill="#020202"/>
<path d="M27.3772 20.143C26.4955 20.4276 25.5399 20.4276 24.6582 20.143" stroke="#020202" stroke-width="0.5" stroke-miterlimit="10"/>
<path d="M13.6115 149.928L23.368 156.662C23.368 156.662 30.2189 160.544 25.8471 160.722C22.5203 160.849 11.0738 160.605 5.79566 160.484C5.43791 160.478 5.08491 160.404 4.75699 160.268C4.42908 160.132 4.13271 159.935 3.88496 159.689C3.6372 159.444 3.44295 159.154 3.31338 158.836C3.1838 158.519 3.12147 158.18 3.12996 157.84L3.33255 150.527L13.6115 149.928Z" fill="#00B937" stroke="black" stroke-width="0.5" stroke-miterlimit="10"/>
<defs>
<linearGradient id="paint0_linear_284_4394" x1="11.8469" y1="137.303" x2="11.7841" y2="148.274" gradientUnits="userSpaceOnUse">
<stop stop-color="white"/>
<stop offset="1" stop-color="#00B939"/>
</linearGradient>
</defs>
</svg>
